<svg width="566" height="593" viewBox="0 0 566 593" fill="none" xmlns="http://www.w3.org/2000/svg">
<g clip-path="url(#clip0_28093_650)">
<rect width="566" height="593" rx="20" fill="white"/>
<mask id="mask0_28093_650" style="mask-type:luminance" maskUnits="userSpaceOnUse" x="-1775" y="521" width="2170" height="2097">
<path d="M-1774.63 521.544H394.904V2617.95H-1774.63V521.544Z" fill="white"/>
</mask>
<g mask="url(#mask0_28093_650)">
<path d="M394.904 38.0069C427.338 51.5287 451.963 74.2748 474.634 100.375C494.811 123.645 511.516 149.745 524.751 177.313C537.985 204.986 545.47 238.738 525.944 265.362C513.794 281.924 495.896 289.366 479.19 300.372C476.153 302.364 471.814 304.46 471.814 308.548C471.814 314.733 483.529 321.232 487.543 324.796C497.414 333.496 506.96 342.51 515.205 352.678C527.245 367.562 536.466 385.172 538.202 404.04C540.046 424.585 532.886 445.234 520.628 462.215C502.838 486.848 474.743 505.925 445.346 515.254C429.616 520.181 413.019 521.648 396.531 521.229C379.934 520.705 363.229 518.399 347.066 514.73C322.008 508.965 295.865 499.741 269.83 505.296C241.952 511.166 214.616 518.085 186.303 522.277C149.963 527.623 97.7861 534.332 68.0635 508.546C46.6936 489.993 36.7137 460.014 34.1103 433.18C32.4831 417.247 30.7475 399.218 33.2425 383.285C37.2561 357.604 52.9852 342.301 63.7244 323.118C70.3415 311.274 43.9816 273.329 70.9923 248.277C112.647 209.493 17.6218 202.68 56.131 113.163C63.0735 96.916 83.7926 57.9228 98.3285 47.7552C115.793 35.596 142.37 45.7636 157.123 51.0046C184.893 60.9626 213.965 103.31 243.253 86.4339C260.176 76.6856 269.396 65.0506 281.22 50.795C294.02 35.1767 313.763 27.42 333.831 26.267C354.334 25.2188 376.137 30.1454 394.904 38.0069Z" fill="#FFF7E7"/>
</g>
<mask id="mask1_28093_650" style="mask-type:luminance" maskUnits="userSpaceOnUse" x="-62" y="-375" width="694" height="728">
<path d="M631.641 -374.269H-61.6577V352.103H631.641V-374.269Z" fill="white"/>
</mask>
<g mask="url(#mask1_28093_650)">
<path fill-rule="evenodd" clip-rule="evenodd" d="M489.435 52.3145C490.995 52.3145 492.486 52.9593 493.593 54.12C494.701 55.2808 495.317 56.8427 495.317 58.4764C495.317 83.7116 495.317 179.049 495.317 204.285C495.317 205.918 494.701 207.48 493.593 208.641C492.486 209.802 490.995 210.446 489.435 210.446C461.574 210.446 343.058 210.446 315.197 210.446C313.638 210.446 312.147 209.802 311.039 208.641C309.931 207.48 309.315 205.918 309.315 204.285C309.315 179.049 309.315 83.7116 309.315 58.4764C309.315 56.8427 309.931 55.2808 311.039 54.12C312.147 52.9593 313.638 52.3145 315.197 52.3145C343.044 52.3145 461.574 52.3145 489.435 52.3145Z" fill="white" stroke="#5F686F" stroke-width="1.30807" stroke-miterlimit="10" stroke-linecap="round" stroke-linejoin="round"/>
<path fill-rule="evenodd" clip-rule="evenodd" d="M489.435 52.3203C490.995 52.3203 492.486 52.9696 493.593 54.1253C494.701 55.281 495.317 56.8484 495.317 58.4812C495.317 64.0323 495.317 71.3265 495.317 71.3265H309.315V58.4812C309.315 56.8467 309.931 55.281 311.039 54.1253C312.147 52.9696 313.638 52.3203 315.197 52.3203C343.044 52.3203 461.574 52.3203 489.435 52.3203Z" fill="#5F686F"/>
<path d="M484.504 65.0752C486.218 65.0752 487.609 63.6188 487.609 61.8223C487.609 60.0257 486.218 58.5693 484.504 58.5693C482.789 58.5693 481.399 60.0257 481.399 61.8223C481.399 63.6188 482.789 65.0752 484.504 65.0752Z" fill="#0EA5E9"/>
<path d="M470.137 65.0752C471.851 65.0752 473.241 63.6188 473.241 61.8223C473.241 60.0257 471.851 58.5693 470.137 58.5693C468.422 58.5693 467.032 60.0257 467.032 61.8223C467.032 63.6188 468.422 65.0752 470.137 65.0752Z" fill="#0EA5E9"/>
<path d="M455.77 65.0752C457.485 65.0752 458.875 63.6188 458.875 61.8223C458.875 60.0257 457.485 58.5693 455.77 58.5693C454.055 58.5693 452.665 60.0257 452.665 61.8223C452.665 63.6188 454.055 65.0752 455.77 65.0752Z" fill="#0EA5E9"/>
<path fill-rule="evenodd" clip-rule="evenodd" d="M485.171 86.0155V196.768C485.171 199.48 483.068 201.655 480.507 201.655H324.113C321.525 201.655 319.449 199.451 319.449 196.768V86.0155C319.449 83.3039 321.552 81.1289 324.113 81.1289H480.507C483.095 81.1289 485.171 83.3039 485.171 86.0155Z" fill="#E9F8FF"/>
<path d="M387.885 93.4495C382.933 90.4235 376.565 93.9732 376.565 99.7341V158.391C376.565 164.152 382.933 167.701 387.885 164.675L436.469 135.347C441.245 132.496 441.245 125.687 436.469 122.778L387.885 93.4495Z" fill="#0EA5E9"/>
<path d="M471.908 185.804H332.696V187.402H471.908V185.804Z" fill="#5F686F"/>
<path d="M438.421 186.63C438.421 188.738 436.791 190.445 434.78 190.445C432.768 190.445 431.138 188.738 431.138 186.63C431.138 184.523 432.768 182.815 434.78 182.815C436.791 182.815 438.421 184.523 438.421 186.63Z" fill="#0EA5E9"/>
</g>
<mask id="mask2_28093_650" style="mask-type:luminance" maskUnits="userSpaceOnUse" x="263" y="186" width="286" height="299">
<path d="M548.687 186.279H263.847V484.707H548.687V186.279Z" fill="white"/>
</mask>
<g mask="url(#mask2_28093_650)">
<path fill-rule="evenodd" clip-rule="evenodd" d="M527.509 225.06C529.062 225.06 530.557 225.716 531.668 226.865C532.765 228.014 533.391 229.581 533.391 231.222C533.391 265.87 533.391 436.093 533.391 470.725C533.391 472.367 532.779 473.933 531.668 475.082C530.571 476.231 529.076 476.888 527.509 476.888C498.869 476.888 374.223 476.888 345.596 476.888C344.03 476.888 342.534 476.246 341.438 475.082C340.341 473.933 339.714 472.367 339.714 470.725C339.714 436.078 339.714 265.855 339.714 231.222C339.714 229.581 340.341 228.014 341.438 226.865C342.534 225.716 344.03 225.06 345.596 225.06C374.223 225.06 498.869 225.06 527.509 225.06Z" fill="white" stroke="#5F686F" stroke-width="1.36004" stroke-miterlimit="10" stroke-linecap="round" stroke-linejoin="round"/>
<path fill-rule="evenodd" clip-rule="evenodd" d="M527.509 225.065C529.062 225.065 530.557 225.715 531.668 226.87C532.765 228.025 533.391 229.592 533.391 231.226C533.391 237.035 533.391 244.854 533.391 244.854H339.714C339.714 244.854 339.714 237.033 339.714 231.226C339.714 229.592 340.341 228.025 341.438 226.87C342.534 225.715 344.03 225.065 345.596 225.065C374.223 225.065 498.869 225.065 527.509 225.065Z" fill="#5F686F"/>
<path d="M522.132 238.347C523.918 238.347 525.365 236.83 525.365 234.959C525.365 233.089 523.918 231.572 522.132 231.572C520.347 231.572 518.899 233.089 518.899 234.959C518.899 236.83 520.347 238.347 522.132 238.347Z" fill="#0EA5E9"/>
<path d="M507.172 238.347C508.958 238.347 510.405 236.83 510.405 234.959C510.405 233.089 508.958 231.572 507.172 231.572C505.387 231.572 503.939 233.089 503.939 234.959C503.939 236.83 505.387 238.347 507.172 238.347Z" fill="#0EA5E9"/>
<path d="M492.212 238.347C493.998 238.347 495.445 236.83 495.445 234.959C495.445 233.089 493.998 231.572 492.212 231.572C490.427 231.572 488.979 233.089 488.979 234.959C488.979 236.83 490.427 238.347 492.212 238.347Z" fill="#0EA5E9"/>
<path d="M519.247 257.007H353.868V289.503H519.247V257.007Z" fill="#0EA5E9"/>
<path d="M430.195 301.168H353.863V308.185H430.195V301.168Z" fill="#969696"/>
<path d="M430.195 364.202H353.863V371.22H430.195V364.202Z" fill="#969696"/>
<path d="M519.243 301.168H442.912V308.185H519.243V301.168Z" fill="#969696"/>
<path d="M519.243 364.202H442.912V371.22H519.243V364.202Z" fill="#969696"/>
<path d="M430.195 348.442H353.863V355.46H430.195V348.442Z" fill="#969696"/>
<path d="M430.195 411.477H353.863V418.494H430.195V411.477Z" fill="#969696"/>
<path d="M430.195 458.75H353.863V465.767H430.195V458.75Z" fill="#969696"/>
<path d="M519.243 348.442H442.912V355.46H519.243V348.442Z" fill="#969696"/>
<path d="M519.243 411.477H442.912V418.494H519.243V411.477Z" fill="#969696"/>
<path d="M519.243 458.75H442.912V465.767H519.243V458.75Z" fill="#969696"/>
<path d="M430.195 316.926H353.863V323.943H430.195V316.926Z" fill="#969696"/>
<path d="M430.195 379.958H353.863V386.975H430.195V379.958Z" fill="#969696"/>
<path d="M430.195 427.235H353.863V434.253H430.195V427.235Z" fill="#969696"/>
<path d="M519.243 316.926H442.912V323.943H519.243V316.926Z" fill="#969696"/>
<path d="M519.243 379.958H442.912V386.975H519.243V379.958Z" fill="#969696"/>
<path d="M519.243 427.235H442.912V434.253H519.243V427.235Z" fill="#969696"/>
<path d="M430.195 332.685H353.863V339.702H430.195V332.685Z" fill="#969696"/>
<path d="M430.195 395.718H353.863V402.735H430.195V395.718Z" fill="#969696"/>
<path d="M430.195 442.991H353.863V450.009H430.195V442.991Z" fill="#969696"/>
<path d="M519.243 332.685H442.912V339.702H519.243V332.685Z" fill="#969696"/>
<path d="M519.243 395.718H442.912V402.735H519.243V395.718Z" fill="#969696"/>
<path d="M519.243 442.991H442.912V450.009H519.243V442.991Z" fill="#969696"/>
</g>
<mask id="mask3_28093_650" style="mask-type:luminance" maskUnits="userSpaceOnUse" x="-24" y="297" width="262" height="274">
<path d="M237.615 297.562H-23.0176V570.627H237.615V297.562Z" fill="white"/>
</mask>
<g mask="url(#mask3_28093_650)">
<path fill-rule="evenodd" clip-rule="evenodd" d="M217.767 333.046C219.318 333.046 220.804 333.688 221.911 334.848C223.006 335.995 223.619 337.551 223.619 339.19C223.619 362.291 223.619 443.938 223.619 467.053C223.619 468.677 223.006 470.234 221.911 471.394C220.817 472.541 219.318 473.197 217.767 473.197C190.857 473.197 79.1632 473.197 52.2529 473.197C50.7021 473.197 49.2165 472.555 48.1088 471.394C47.0142 470.247 46.3887 468.691 46.3887 467.053C46.3887 443.951 46.3887 362.305 46.3887 339.19C46.3887 337.565 47.0012 336.009 48.1088 334.848C49.2165 333.688 50.6891 333.046 52.2529 333.046C79.1632 333.046 190.844 333.046 217.767 333.046Z" fill="white" stroke="#5F686F" stroke-width="1.24468" stroke-miterlimit="10" stroke-linecap="round" stroke-linejoin="round"/>
<path fill-rule="evenodd" clip-rule="evenodd" d="M217.768 333.052C220.999 333.052 223.619 335.797 223.619 339.184C223.619 344.437 223.619 351.159 223.619 351.159H46.4019V339.186C46.4019 335.799 49.0212 333.053 52.253 333.053C79.1633 333.052 190.844 333.052 217.768 333.052Z" fill="#5F686F"/>
<path d="M213.316 345.203C214.95 345.203 216.274 343.816 216.274 342.104C216.274 340.392 214.95 339.005 213.316 339.005C211.682 339.005 210.358 340.392 210.358 342.104C210.358 343.816 211.682 345.203 213.316 345.203Z" fill="#0EA5E9"/>
<path d="M199.628 345.203C201.261 345.203 202.586 343.816 202.586 342.104C202.586 340.392 201.261 339.005 199.628 339.005C197.994 339.005 196.669 340.392 196.669 342.104C196.669 343.816 197.994 345.203 199.628 345.203Z" fill="#0EA5E9"/>
<path d="M185.939 345.203C187.573 345.203 188.897 343.816 188.897 342.104C188.897 340.392 187.573 339.005 185.939 339.005C184.305 339.005 182.981 340.392 182.981 342.104C182.981 343.816 184.305 345.203 185.939 345.203Z" fill="#0EA5E9"/>
<path fill-rule="evenodd" clip-rule="evenodd" d="M61.8529 438.917C58.5526 433.326 56.2588 426.972 55.2476 420.058C51.0894 391.628 70.2093 364.545 97.9301 359.598C116.047 356.365 133.371 363.38 144.359 376.579L124.65 391.99C118.908 385.901 110.413 382.753 101.548 384.335C87.143 386.905 77.1905 401.003 79.3514 415.777C79.7614 418.58 80.5823 421.213 81.7292 423.612L61.8529 438.917Z" fill="#0EA5E9"/>
<path fill-rule="evenodd" clip-rule="evenodd" d="M146.643 380.089C151.26 386.551 154.451 394.245 155.704 402.794C157.477 414.893 155.065 426.738 149.58 436.78L128.274 424.676C131.086 419.475 132.311 413.363 131.397 407.123C130.762 402.792 129.155 398.868 126.854 395.558L146.643 380.089Z" fill="#60CEFF"/>
<path fill-rule="evenodd" clip-rule="evenodd" d="M147.928 440.224C142.045 449.365 133.484 456.684 123.219 460.798L116.513 436.615C120.559 434.664 124.039 431.703 126.668 428.114L147.928 440.224Z" fill="#969696"/>
<path fill-rule="evenodd" clip-rule="evenodd" d="M119.91 461.556C117.862 462.193 115.76 462.724 113.599 463.11C93.9646 466.613 75.2393 458.059 64.5172 442.672L84.2593 427.466C89.7968 435.653 99.6397 440.233 109.983 438.387C111.091 438.19 112.189 437.916 113.24 437.592L119.91 461.556Z" fill="#5F686F"/>
<path d="M171.939 370.632H163.342V379.638H171.939V370.632Z" fill="#0EA5E9"/>
<path d="M171.939 418.931H163.342V427.937H171.939V418.931Z" fill="#E9F8FF"/>
<path d="M171.939 394.781H163.342V403.788H171.939V394.781Z" fill="#5F686F"/>
<path d="M171.939 443.08H163.342V452.087H171.939V443.08Z" fill="#60CEFF"/>
<path d="M174.959 371.768H214.891" stroke="#434D56" stroke-width="5.9873" stroke-miterlimit="1.5" stroke-linecap="round" stroke-linejoin="round"/>
<path d="M174.959 419.973H214.891" stroke="#434D56" stroke-width="5.9873" stroke-miterlimit="1.5" stroke-linecap="round" stroke-linejoin="round"/>
<path d="M174.959 396.049H214.891" stroke="#434D56" stroke-width="5.9873" stroke-miterlimit="1.5" stroke-linecap="round" stroke-linejoin="round"/>
<path d="M174.959 444.254H214.891" stroke="#434D56" stroke-width="5.9873" stroke-miterlimit="1.5" stroke-linecap="round" stroke-linejoin="round"/>
<path d="M174.957 376.241H194.923" stroke="#434D56" stroke-width="5.37829" stroke-miterlimit="1.5" stroke-linecap="round" stroke-linejoin="round"/>
<path d="M174.957 424.446H194.923" stroke="#434D56" stroke-width="5.37829" stroke-miterlimit="1.5" stroke-linecap="round" stroke-linejoin="round"/>
<path d="M174.957 400.522H194.923" stroke="#434D56" stroke-width="5.37829" stroke-miterlimit="1.5" stroke-linecap="round" stroke-linejoin="round"/>
<path d="M174.957 448.728H194.923" stroke="#434D56" stroke-width="5.37829" stroke-miterlimit="1.5" stroke-linecap="round" stroke-linejoin="round"/>
</g>
<mask id="mask4_28093_650" style="mask-type:luminance" maskUnits="userSpaceOnUse" x="-58" y="-5" width="352" height="362">
<path d="M293.332 -4.91016H-57.2617V356.584H293.332V-4.91016Z" fill="white"/>
</mask>
<g mask="url(#mask4_28093_650)">
<path fill-rule="evenodd" clip-rule="evenodd" d="M267.283 42.0664C269.193 42.0664 271.034 42.8617 272.384 44.2715C273.733 45.6814 274.487 47.6154 274.487 49.6216V308.831C274.487 310.838 273.733 312.754 272.384 314.181C271.034 315.591 269.193 316.387 267.283 316.387H73.4044C71.4937 316.387 69.6531 315.591 68.3033 314.181C66.9535 312.772 66.1997 310.838 66.1997 308.831V49.6216C66.1997 47.6154 66.9535 45.6994 68.3033 44.2715C69.6531 42.8617 71.4937 42.0664 73.4044 42.0664H267.283Z" fill="white" stroke="#5F686F" stroke-width="2.70377" stroke-miterlimit="1.5" stroke-linecap="round" stroke-linejoin="round"/>
<path fill-rule="evenodd" clip-rule="evenodd" d="M267.283 42.0742C269.193 42.0742 271.034 42.8693 272.384 44.2879C273.733 45.7044 274.487 47.627 274.487 49.63C274.487 56.6556 274.487 66.0471 274.487 66.0471H66.1997V49.63C66.1997 47.627 66.9535 45.7044 68.3033 44.2879C69.6531 42.8715 71.4937 42.0742 73.4044 42.0742C105.501 42.0742 235.186 42.0742 267.283 42.0742Z" fill="#5F686F"/>
<path d="M260.646 56.5531C262.012 56.5531 263.118 55.4363 263.118 54.0588C263.118 52.6812 262.012 51.5645 260.646 51.5645C259.281 51.5645 258.175 52.6812 258.175 54.0588C258.175 55.4363 259.281 56.5531 260.646 56.5531Z" fill="#0EA5E9"/>
<path d="M242.233 56.5531C243.598 56.5531 244.705 55.4363 244.705 54.0588C244.705 52.6812 243.598 51.5645 242.233 51.5645C240.868 51.5645 239.761 52.6812 239.761 54.0588C239.761 55.4363 240.868 56.5531 242.233 56.5531Z" fill="#0EA5E9"/>
<path d="M223.82 56.5531C225.185 56.5531 226.292 55.4363 226.292 54.0588C226.292 52.6812 225.185 51.5645 223.82 51.5645C222.455 51.5645 221.348 52.6812 221.348 54.0588C221.348 55.4363 222.455 56.5531 223.82 56.5531Z" fill="#0EA5E9"/>
<path d="M105.616 89.6691H121.361V81.5498H81.0747V89.6691H96.8195V131.341H105.616V89.6691Z" fill="#0EA5E9"/>
<path d="M259.633 81.542H128.565V88.5594H259.633V81.542Z" fill="#0EA5E9"/>
<path d="M259.633 124.343H128.565V131.36H259.633V124.343Z" fill="#0EA5E9"/>
<path d="M259.637 167.143H81.083V174.16H259.637V167.143Z" fill="#0EA5E9"/>
<path d="M259.637 238.477H81.083V245.494H259.637V238.477Z" fill="#0EA5E9"/>
<path d="M259.633 95.8086H128.565V102.826H259.633V95.8086Z" fill="#0EA5E9"/>
<path d="M259.637 138.609H81.083V145.627H259.637V138.609Z" fill="#0EA5E9"/>
<path d="M259.637 209.943H81.083V216.961H259.637V209.943Z" fill="#0EA5E9"/>
<path d="M259.637 181.41H81.083V188.428H259.637V181.41Z" fill="#0EA5E9"/>
<path d="M259.637 252.744H81.083V259.762H259.637V252.744Z" fill="#0EA5E9"/>
<path d="M259.637 281.277H81.083V288.295H259.637V281.277Z" fill="#0EA5E9"/>
<path d="M259.633 110.075H128.565V117.093H259.633V110.075Z" fill="#0EA5E9"/>
<path d="M259.637 152.876H81.083V159.893H259.637V152.876Z" fill="#0EA5E9"/>
<path d="M259.637 224.21H81.083V231.227H259.637V224.21Z" fill="#0EA5E9"/>
<path d="M259.637 195.677H81.083V202.694H259.637V195.677Z" fill="#0EA5E9"/>
<path d="M259.637 267.011H81.083V274.028H259.637V267.011Z" fill="#0EA5E9"/>
<path d="M259.637 295.544H81.083V302.561H259.637V295.544Z" fill="#0EA5E9"/>
</g>
<mask id="mask5_28093_650" style="mask-type:luminance" maskUnits="userSpaceOnUse" x="0" y="0" width="566" height="593">
<path d="M566 0H0V593H566V0Z" fill="white"/>
</mask>
<g mask="url(#mask5_28093_650)">
<path d="M51.4946 551.497H155.293C155.721 551.497 156.064 551.226 156.064 550.864V549.507C156.064 549.145 155.721 548.873 155.293 548.873L54.3231 548.964C53.8945 548.964 53.5517 548.692 53.5517 548.33V532.043C53.5517 531.726 53.8945 531.455 54.3231 531.455L155.293 531.5C155.721 531.5 156.064 531.229 156.064 530.867V529.374C156.064 529.012 155.721 528.74 155.293 528.74H51.4946C51.066 528.74 50.7231 529.012 50.7231 529.374V550.909C50.7231 551.226 51.066 551.497 51.4946 551.497Z" fill="#008BCA"/>
<path d="M153.712 531.494V548.913L53.5562 549.003V531.449L153.712 531.494Z" fill="#F6F6F6"/>
<path fill-rule="evenodd" clip-rule="evenodd" d="M153.685 534.326L153.682 534.946L54.5136 534.364L54.5167 533.744L153.685 534.326Z" fill="#D5D5D5"/>
<path fill-rule="evenodd" clip-rule="evenodd" d="M153.685 536.213L153.682 536.832L54.5136 536.25L54.5167 535.631L153.685 536.213Z" fill="#D5D5D5"/>
<path fill-rule="evenodd" clip-rule="evenodd" d="M153.685 540.216L153.682 540.835L54.5136 540.253L54.5167 539.634L153.685 540.216Z" fill="#D5D5D5"/>
<path fill-rule="evenodd" clip-rule="evenodd" d="M153.685 545.607L153.682 546.227L54.5136 545.645L54.5167 545.026L153.685 545.607Z" fill="#D5D5D5"/>
<path d="M460.907 551.495H348.053C347.587 551.495 347.214 551.2 347.214 550.807V549.331C347.214 548.938 347.587 548.642 348.053 548.642L457.832 548.741C458.298 548.741 458.67 548.446 458.67 548.052V530.344C458.67 529.999 458.298 529.704 457.832 529.704L348.053 529.754C347.587 529.754 347.214 529.458 347.214 529.065V527.442C347.214 527.048 347.587 526.753 348.053 526.753H460.907C461.373 526.753 461.746 527.048 461.746 527.442V550.856C461.746 551.2 461.373 551.495 460.907 551.495Z" fill="#008BCA"/>
<path d="M349.772 529.747V548.686L458.666 548.784V529.698L349.772 529.747Z" fill="#F6F6F6"/>
<path fill-rule="evenodd" clip-rule="evenodd" d="M349.801 532.827L349.804 533.501L457.624 532.868L457.621 532.194L349.801 532.827Z" fill="#D5D5D5"/>
<path fill-rule="evenodd" clip-rule="evenodd" d="M349.801 534.878L349.804 535.551L457.624 534.919L457.621 534.245L349.801 534.878Z" fill="#D5D5D5"/>
<path fill-rule="evenodd" clip-rule="evenodd" d="M349.801 539.23L349.804 539.904L457.624 539.271L457.621 538.598L349.801 539.23Z" fill="#D5D5D5"/>
<path fill-rule="evenodd" clip-rule="evenodd" d="M349.801 545.092L349.804 545.765L457.624 545.133L457.621 544.459L349.801 545.092Z" fill="#D5D5D5"/>
<path d="M56.0158 528.724H151.701C152.096 528.724 152.412 528.473 152.412 528.14V526.889C152.412 526.555 152.096 526.305 151.701 526.305L58.6233 526.388C58.2282 526.388 57.9121 526.138 57.9121 525.804V510.79C57.9121 510.498 58.2282 510.248 58.6233 510.248L151.701 510.289C152.096 510.289 152.412 510.039 152.412 509.705V508.329C152.412 507.995 152.096 507.745 151.701 507.745H56.0158C55.6207 507.745 55.3047 507.995 55.3047 508.329V528.181C55.3047 528.473 55.6207 528.724 56.0158 528.724Z" fill="#5F686F"/>
<path d="M150.243 510.284V526.341L57.916 526.424V510.242L150.243 510.284Z" fill="#F6F6F6"/>
<path fill-rule="evenodd" clip-rule="evenodd" d="M150.219 512.896L150.216 513.508L58.7987 512.971L58.8017 512.359L150.219 512.896Z" fill="#D5D5D5"/>
<path fill-rule="evenodd" clip-rule="evenodd" d="M150.219 514.635L150.216 515.247L58.7987 514.71L58.8017 514.098L150.219 514.635Z" fill="#D5D5D5"/>
<path fill-rule="evenodd" clip-rule="evenodd" d="M150.219 518.325L150.216 518.937L58.7987 518.401L58.8017 517.788L150.219 518.325Z" fill="#D5D5D5"/>
<path fill-rule="evenodd" clip-rule="evenodd" d="M150.219 523.295L150.216 523.907L58.7987 523.37L58.8017 522.758L150.219 523.295Z" fill="#D5D5D5"/>
<path d="M455.99 526.735H351.956C351.527 526.735 351.183 526.463 351.183 526.1V524.739C351.183 524.377 351.527 524.105 351.956 524.105L453.155 524.195C453.584 524.195 453.928 523.923 453.928 523.56V507.236C453.928 506.919 453.584 506.647 453.155 506.647L351.956 506.692C351.527 506.692 351.183 506.42 351.183 506.057V504.561C351.183 504.198 351.527 503.926 351.956 503.926H455.99C456.419 503.926 456.763 504.198 456.763 504.561V526.145C456.763 526.463 456.419 526.735 455.99 526.735Z" fill="#5F686F"/>
<path d="M353.541 506.686V524.144L453.923 524.235V506.641L353.541 506.686Z" fill="#F6F6F6"/>
<path fill-rule="evenodd" clip-rule="evenodd" d="M353.567 509.525L353.571 510.191L452.964 509.607L452.96 508.942L353.567 509.525Z" fill="#D5D5D5"/>
<path fill-rule="evenodd" clip-rule="evenodd" d="M353.567 511.416L353.571 512.082L452.964 511.498L452.96 510.832L353.567 511.416Z" fill="#D5D5D5"/>
<path fill-rule="evenodd" clip-rule="evenodd" d="M353.567 515.429L353.571 516.094L452.964 515.511L452.96 514.845L353.567 515.429Z" fill="#D5D5D5"/>
<path fill-rule="evenodd" clip-rule="evenodd" d="M353.567 520.832L353.571 521.498L452.964 520.914L452.96 520.248L353.567 520.832Z" fill="#D5D5D5"/>
</g>
<mask id="mask6_28093_650" style="mask-type:luminance" maskUnits="userSpaceOnUse" x="42" y="39" width="527" height="551">
<path d="M568.108 39.541H42.9854V589.714H568.108V39.541Z" fill="white"/>
</mask>
<g mask="url(#mask6_28093_650)">
<path fill-rule="evenodd" clip-rule="evenodd" d="M507.05 501.003C507.05 501.003 499.882 493.383 506.919 479.491C513.956 465.599 526.086 460.317 526.086 460.317C526.086 460.317 526.138 475.035 519.417 486.973C511.12 501.718 507.05 501.003 507.05 501.003Z" fill="#008BCA"/>
<path fill-rule="evenodd" clip-rule="evenodd" d="M497.204 478.445C497.204 478.445 509.098 466.452 492.609 444.555C479.429 427.059 468.664 426.949 468.664 426.949C468.664 426.949 472.129 444.775 478.326 458.804C488.251 481.389 497.204 478.445 497.204 478.445Z" fill="#008BCA"/>
<path fill-rule="evenodd" clip-rule="evenodd" d="M490.929 505.074C490.929 505.074 484.575 508.21 479.035 494.95C473.521 481.691 474.729 477.015 470.134 466.892C470.134 466.892 484.837 468.927 490.01 480.151C499.121 500.012 490.929 505.074 490.929 505.074Z" fill="#0D95D2"/>
<path fill-rule="evenodd" clip-rule="evenodd" d="M518.576 470.083L518.865 470.248C505.711 494.456 507.706 504.854 505.79 513.602C505.291 515.912 502.954 523.752 500.67 529.337C500.355 530.107 500.145 529.942 499.357 529.914L498.858 529.337C498.779 529.089 498.832 528.814 498.884 528.566C498.884 528.484 498.911 528.511 499.226 527.741C501.72 521.882 503.925 514.922 504.424 512.804C505.658 507.55 505.527 500.948 509.019 490.604C511.776 482.352 515.741 474.98 518.576 470.083Z" fill="#364049"/>
<path fill-rule="evenodd" clip-rule="evenodd" d="M479.744 479.326C479.849 479.409 480.006 479.436 480.111 479.491C480.164 479.519 480.82 480.537 480.899 480.647C487.778 491.072 491.533 505.074 493.686 512.309C493.738 512.474 495.471 517.646 495.156 527.109C495.104 528.347 495.051 529.144 495.051 529.144C494.946 529.364 494.893 529.667 494.683 529.832L493.948 530.052C493.738 529.942 493.449 529.887 493.292 529.667C492.977 529.254 493.056 529.199 493.082 528.677C493.449 524.991 493.344 521.524 493.318 520.892C493.134 515.528 492.294 512.887 491.874 511.291C489.931 503.836 486.465 490 479.849 479.849C479.77 479.739 479.77 479.739 479.77 479.711C479.744 479.519 479.796 479.519 479.744 479.326Z" fill="#364049"/>
<path fill-rule="evenodd" clip-rule="evenodd" d="M478.431 437.788C486.36 447.526 494.473 460.923 498.254 481.417C498.622 483.342 499.83 489.807 500.539 501.361C501.641 518.609 497.887 530.712 497.887 530.74C497.729 530.96 497.598 531.235 497.362 531.373L496.548 531.428C496.338 531.235 496.075 531.125 495.944 530.877C495.681 530.355 495.812 530.3 495.97 529.75C496.81 526.971 499.62 516.133 498.963 501.471C498.123 482.737 495.392 460.235 478.562 438.586C478.168 438.063 478.142 438.091 478.142 438.063C478.195 437.898 478.431 437.926 478.431 437.788Z" fill="#364049"/>
<path fill-rule="evenodd" clip-rule="evenodd" d="M498.07 484.14C498.07 484.14 504.766 482.214 507.391 467.14C510.017 452.092 510.595 441.391 510.096 435.505C509.623 429.59 510.096 417.789 510.096 417.789C510.096 417.789 498.438 425.354 494.263 448.626C488.933 478.446 498.07 484.14 498.07 484.14Z" fill="#0D95D2"/>
<path fill-rule="evenodd" clip-rule="evenodd" d="M503.217 437.87L503.61 437.925C502.376 446.15 498.28 473.466 497.887 498.994C497.65 513.932 499.383 528.786 499.803 532.06C499.856 532.417 499.672 532.665 499.62 532.72L499.042 533.05C498.832 532.995 498.596 532.995 498.412 532.857C498.07 532.582 498.123 532.527 498.07 532.06C497.834 529.969 496.154 514.289 496.653 498.527C497.414 474.182 501.352 449.259 503.217 437.87Z" fill="#364049"/>
<path d="M483.647 551.533H510.826L517.12 519.76L478.974 519.261L483.647 551.533Z" fill="#434D56"/>
<path d="M475.839 512.892V518.887C475.839 520.185 476.888 521.284 478.128 521.284H517.514C518.754 521.284 519.803 520.185 519.803 518.887V512.892H475.839Z" fill="#434D56"/>
<path fill-rule="evenodd" clip-rule="evenodd" d="M479.389 521.272H516.672C516.672 521.272 495.3 522.813 479.389 521.272Z" fill="#364049"/>
</g>
<mask id="mask7_28093_650" style="mask-type:luminance" maskUnits="userSpaceOnUse" x="68" y="455" width="557" height="583">
<path d="M624.211 455.741H68.8291V1037.62H624.211V455.741Z" fill="white"/>
</mask>
<g mask="url(#mask7_28093_650)">
<path d="M72.5039 473.727C73.8646 480.768 77.9466 487.779 84.2502 489.583L82.4175 468.519C82.3619 468.403 82.3342 468.286 82.3064 468.17C82.3064 468.141 81.6677 465.319 79.5017 463.922C78.1688 463.05 76.4471 462.875 74.42 463.428C72.3373 463.952 71.5042 468.49 72.5039 473.727ZM73.6424 460.111C76.586 459.355 79.1407 459.675 81.2512 461.042C81.4455 461.159 81.6399 461.304 81.8065 461.449L81.6677 459.762C81.5289 458.191 82.3342 456.794 83.5838 456.125C84.0558 455.863 84.5835 455.747 85.1666 455.747H112.242C113.408 455.747 114.407 456.329 115.046 457.231C115.546 457.929 115.824 458.831 115.74 459.762L111.797 505.207C111.658 506.69 110.464 507.796 109.076 507.738H88.3323C86.9161 507.767 85.722 506.661 85.6109 505.207L84.5557 493.162C76.3083 491.562 70.9766 483.008 69.3382 474.396C67.8942 466.89 69.6159 461.159 73.6424 460.111Z" fill="#0D95D2"/>
<g opacity="0.05">
<path d="M72.5039 473.739C73.8646 480.751 77.9466 487.792 84.2502 489.596L82.4175 468.532C82.3619 468.415 82.3342 468.299 82.3064 468.183C82.3064 468.153 81.6677 465.331 79.5017 463.935C78.1688 463.062 76.4471 462.887 74.42 463.44C72.3373 463.964 71.5042 468.473 72.5039 473.739ZM73.6424 460.124C76.586 459.367 79.1407 459.687 81.2512 461.055C81.4455 461.171 81.6399 461.316 81.8065 461.462L81.6677 459.774C81.5289 458.203 82.3342 456.807 83.5838 456.138C82.8895 506.004 111.797 505.219 111.797 505.219C111.658 506.703 110.464 507.808 109.076 507.75H88.3323C86.9161 507.779 85.722 506.674 85.6109 505.219L84.5557 493.174C76.3083 491.574 70.9766 482.991 69.3382 474.409C67.8942 466.902 69.6159 461.171 73.6424 460.124Z" fill="#020202"/>
</g>
<g opacity="0.15">
<path d="M105.585 487.327C111.959 490.797 114.383 465.819 114.999 457.25C114.342 456.351 113.304 455.748 112.143 455.741L110.981 455.735C111.535 476.033 100.626 484.607 105.585 487.327Z" fill="white"/>
</g>
</g>
<mask id="mask8_28093_650" style="mask-type:luminance" maskUnits="userSpaceOnUse" x="43" y="34" width="496" height="578">
<path d="M539 34H43V612H539V34Z" fill="white"/>
</mask>
<g mask="url(#mask8_28093_650)">
<mask id="mask9_28093_650" style="mask-type:luminance" maskUnits="userSpaceOnUse" x="-1618" y="78" width="3802" height="551">
<path d="M2184 78.0176H-1617.87V628.193H2184V78.0176Z" fill="white"/>
</mask>
<g mask="url(#mask9_28093_650)">
<path d="M374.992 554.627C374.992 554.627 446.761 541.638 450.715 585.588C453.127 612.478 442.271 637.331 430.008 674.752C419.488 706.767 406.219 765.53 391.008 821.626C390.606 823.101 389.333 824.224 387.858 824.294C381.291 824.715 362.528 825.488 343.43 822.96C341.42 822.679 340.08 820.713 340.415 818.677C343.832 799.019 362.126 689.706 367.152 635.366H292.837C292.837 635.366 280.306 745.1 263.151 822.188C262.883 823.452 262.012 824.434 260.805 824.856C255.847 826.541 241.573 830.191 220.13 824.856C218.589 824.434 217.449 822.96 217.449 821.275C217.315 802.249 219.393 676.226 220.398 635.366C220.398 635.366 198.083 638.033 195.135 565.018L197.815 512.081L364.472 514.819L374.992 554.627Z" fill="#434D56"/>
<g opacity="0.15">
<path d="M367.179 635.213C367.514 632.335 367.849 629.176 368.318 625.876V625.735C370.663 608.113 374.483 586.209 374.684 585.296C373.478 589.298 372.54 593.58 371.669 597.793C368.117 615.906 367.246 633.88 367.179 635.213Z" fill="black"/>
</g>
<g opacity="0.15">
<path d="M292.884 635.301C292.884 635.301 297.843 587.84 289.131 572.535C289.131 572.535 294.09 585.734 292.884 635.301Z" fill="black"/>
</g>
<g opacity="0.15">
<path d="M220.523 623.907C220.523 623.907 219.049 528.635 283.044 561.563C283.044 561.563 226.018 529.478 220.523 623.907Z" fill="black"/>
</g>
<g opacity="0.15">
<path d="M302.497 523.722V569.498C302.497 570.27 302.162 570.972 301.626 571.393C301.09 571.885 300.353 572.025 299.683 571.815C294.858 570.621 286.683 565.847 286.616 548.014C286.549 527.724 286.616 520.633 286.616 518.527L302.497 523.722ZM300.219 573.078C300.956 573.078 301.693 572.798 302.296 572.306C303.1 571.604 303.569 570.621 303.569 569.498V522.88L285.543 517.053V517.825C285.543 517.895 285.476 522.529 285.543 548.155C285.543 566.76 294.255 571.674 299.415 573.008C299.683 573.078 299.951 573.078 300.219 573.078Z" fill="black"/>
</g>
<g opacity="0.15">
<path d="M323.236 565.027C323.236 565.027 331.948 554.566 374.969 554.636C374.969 554.636 336.303 555.97 323.236 565.027Z" fill="black"/>
</g>
<path d="M267.937 358.546C267.937 358.546 295.814 353.07 311.494 343.521C327.108 333.973 327.778 325.97 327.778 325.97C327.778 325.97 301.644 317.826 301.912 310.243C302.247 301.748 302.649 291.919 302.649 291.919L254.87 264.468C254.87 264.468 254.937 265.661 255.004 267.627C255.272 274.367 255.942 296.342 254.87 305.329C254.133 311.717 244.55 312.42 223.643 316.702C214.931 318.528 267.937 358.546 267.937 358.546Z" fill="#FBC0A4"/>
<path d="M268.029 272.048L302.716 291.944C302.716 291.944 302.44 299.792 302.105 307.499C296.765 309.617 290.094 311.283 283.099 310.837C279.145 310.603 264.071 306.039 255.464 285.427C253.777 281.389 252.346 276.727 251.295 271.372L250.812 268.064L268.029 272.048Z" fill="#F69D7D"/>
<path d="M249.315 254.937C251.115 227.5 269.3 191.358 291.546 191.409C313.792 191.459 322.647 195.116 323.268 222.6C324.359 270.837 321.02 279.808 314.305 292.419C309.425 301.52 297.448 307.317 292.273 307.307C265.255 307.23 247.559 281.671 249.315 254.937Z" fill="#FBC0A4"/>
<path d="M242.14 269.551C246.246 273.883 249.977 270.791 249.977 270.791C252.745 264.929 249.395 254.883 249.395 254.883C249.623 249.471 245.672 241.624 238.696 244.14C238.032 244.376 237.37 244.682 236.645 245.131C228.408 250.222 236.711 263.796 242.14 269.551Z" fill="#FBC0A4"/>
<path d="M237.544 251.741C236.91 254.994 238.684 257.873 240.717 260.462C242.823 263.188 243.577 263.65 244.401 264.179C245.225 264.709 245.964 264.68 246.337 263.753C246.643 262.829 246.009 261.941 245.512 261.118C245.015 260.295 243.356 258.886 244.076 258.296C244.403 258.003 245.188 257.341 245.031 256.645C244.865 255.669 244.847 255.108 244.681 254.132C244.506 252.875 244.06 251.559 243.634 250.874C242.993 249.776 241.883 248.696 240.609 248.815C239.336 248.935 237.837 250.396 237.544 251.741Z" fill="#F69D7D"/>
<path d="M310.718 220.133C310.718 220.133 297.208 230.052 277.056 231.814C277.056 231.814 283.271 224.702 285.973 223.125C285.973 223.125 277.929 225.61 273.121 230.564C273.121 230.564 272.896 227.768 275.893 224.918C275.893 224.918 260.854 231.18 256.985 240.234C256.985 240.234 255.856 236.492 257.124 232.096C257.124 232.096 247.259 240.541 250.611 259.062C250.611 259.062 246.826 241.68 237.455 244.637C237.455 244.637 235.811 237.409 233.276 231.687C230.741 225.966 229.56 210.235 237.193 203.349C237.193 203.349 231.975 206.005 230.667 211.244C230.667 211.244 229.968 202.086 238.353 197.694C246.735 193.233 254.136 177.1 270.657 177.231C287.245 177.36 297.344 174.094 302.232 167.454C302.232 167.454 303.836 169.285 303.033 173.523C303.033 173.523 307.247 170.976 306.947 163.765C306.947 163.765 310.748 167.124 310.262 174.926C310.262 174.926 320.903 182.156 321.878 187.377C321.878 187.377 323.491 181.215 317.908 176.733C317.908 176.733 336.18 179.11 326.581 201.99C326.581 201.99 330.22 198.273 331.5 200.467C331.5 200.467 327.774 201.523 327.853 203.974C327.853 203.974 340.007 210.234 336.539 223.41C336.539 223.41 333.323 213.228 329.056 214.164C329.056 214.164 329.716 226.269 327.504 232.595C325.292 238.921 324.21 249.06 324.21 249.06C324.21 249.06 322.833 243.854 322.978 237.959C322.986 231.998 321.974 227.69 310.718 220.133Z" fill="#262423"/>
<g opacity="0.2">
<path d="M324.792 202.002C324.792 202.002 318.796 215.546 310.649 220.225C310.649 220.225 318.553 214.157 324.792 202.002Z" fill="black"/>
</g>
<g opacity="0.2">
<path d="M321.815 187.401C321.815 187.401 319.014 208.652 300.385 216.71C300.385 216.71 315.464 207.122 321.815 187.401Z" fill="black"/>
</g>
<g opacity="0.2">
<path d="M310.569 183.717C310.569 183.717 310.26 198.146 295.751 204.282C295.751 204.282 306.171 198.877 310.569 183.717Z" fill="black"/>
</g>
<g opacity="0.2">
<path d="M293.772 204.875C293.772 204.875 272.693 208.056 260.177 227.822C260.177 227.822 269.679 212.923 293.772 204.875Z" fill="black"/>
</g>
<g opacity="0.2">
<path d="M301.714 174.72C301.714 174.72 300.525 186.304 276.101 191.052C251.77 195.813 237.471 208.576 238.332 224.774C238.332 224.774 239.106 199.842 276.168 192.903C303.637 187.828 301.714 174.72 301.714 174.72Z" fill="black"/>
</g>
<g opacity="0.2">
<path d="M268.23 206.908C268.23 206.908 244.618 217.344 246.151 237.013C246.151 237.013 243.89 222.273 268.23 206.908Z" fill="black"/>
</g>
<path d="M279.083 282.411C279.472 281.976 280.765 282.555 282.664 283.181C284.562 283.806 287.202 284.543 290.09 284.641C293.045 284.736 295.644 284.217 297.641 283.72C299.57 283.226 300.899 282.826 301.247 283.231C301.388 283.436 301.335 283.857 300.949 284.361C300.563 284.865 299.913 285.519 298.928 286.186C297.944 286.853 296.689 287.461 295.159 287.869C293.629 288.278 291.894 288.555 290.014 288.488C288.133 288.421 286.378 288.069 284.883 287.498C283.389 286.927 282.16 286.275 281.197 285.544C280.234 284.812 279.609 284.137 279.256 283.592C278.97 283.044 278.889 282.628 279.083 282.411Z" fill="#3E3533"/>
<path d="M264.084 242.055C264.149 241.983 264.214 241.91 264.278 241.838C268.447 237.969 273.101 236.67 277.91 238.093C278.317 238.217 278.726 238.411 279.079 238.957C279.721 240.121 279.831 241.446 279.822 243.265C274.298 240.471 268.669 240.689 263.542 243.965C263.388 243.341 263.452 243.269 263.638 242.772C263.696 242.49 263.888 242.203 264.084 242.055Z" fill="#3E3533"/>
<path d="M316.241 243.037C316.172 242.97 316.103 242.902 316.034 242.835C311.949 238.934 307.275 237.575 302.488 238.95C302.091 239.105 301.626 239.263 301.242 239.838C300.541 240.985 300.45 242.318 300.442 244.138C306.059 241.471 311.637 241.745 316.776 245.046C316.957 244.409 316.888 244.342 316.738 243.858C316.592 243.513 316.449 243.239 316.241 243.037Z" fill="#3E3533"/>
<path d="M275.708 251.825C275.571 254.553 273.718 256.618 271.571 256.49C269.424 256.362 267.788 254.09 267.924 251.361C268.06 248.633 269.913 246.568 272.06 246.696C274.208 246.824 275.844 249.096 275.708 251.825Z" fill="#3E3533"/>
<path d="M311.242 252.614C311.105 255.342 309.253 257.407 307.105 257.279C304.958 257.151 303.322 254.879 303.458 252.15C303.594 249.422 305.447 247.357 307.595 247.485C309.742 247.613 311.378 249.886 311.242 252.614Z" fill="#3E3533"/>
<path d="M293.914 252.21C293.969 251.857 293.96 251.577 293.882 251.229C293.655 250.465 293.147 249.361 292.406 251.426C291.474 253.849 291.448 265.506 292.466 269.89C292.699 270.864 292.195 271.937 291.265 272.324L289.67 273.018C289.204 273.176 288.747 273.615 288.63 274.181C288.447 274.75 288.604 275.446 290.226 275.594C293.128 275.763 296.735 272.745 295.767 269.903C294.732 267.064 292.533 259.496 293.914 252.21Z" fill="#F69D7D"/>
<path fill-rule="evenodd" clip-rule="evenodd" d="M201.822 611.637C215.085 603.775 218.75 585.309 227.825 574.613C243.444 556.146 255.223 542.159 255.223 542.159L249.377 544.536C249.29 546.822 248.33 549.016 246.672 550.661C243.095 554.318 235.939 561.083 235.241 561.906C211.42 588.783 219.884 589.148 204.789 603.867C204.353 604.324 202.346 604.324 199.728 604.141C200.426 606.884 201.124 609.352 201.822 611.637Z" fill="#394249"/>
<path d="M316.235 326.583L278.173 324.968H239.976C239.976 324.968 233.811 495.432 244.198 542.05C245.069 545.56 330.106 542.471 330.307 544.366C330.709 548.368 316.235 326.583 316.235 326.583Z" fill="#F4E3D3"/>
<path d="M278.197 325L278.867 325.772L290.795 338.901L294.078 342.481C294.748 343.254 295.887 343.183 296.558 342.481C299.908 338.62 309.223 327.878 311.3 325.07C313.377 322.191 312.573 316.224 311.769 313.837C311.568 313.275 311.434 312.924 311.3 312.854C310.697 312.292 306.207 307.869 304.13 305.833C303.594 305.271 302.723 305.342 302.253 305.973C297.161 312.784 289.32 318.4 283.959 321.77C280.609 323.736 278.197 325 278.197 325Z" fill="#F4E3D3"/>
<path d="M245.922 324.97C248 327.778 256.644 338.379 259.794 342.311C260.464 343.083 261.603 343.154 262.273 342.381L264.819 339.573L277.284 325.953L278.222 324.97C278.222 324.97 275.675 323.636 272.057 321.179C267.098 317.879 260.129 312.543 255.304 306.084C254.835 305.452 254.031 305.382 253.428 305.873C253.16 306.084 252.892 306.365 252.623 306.646C251.35 307.769 249.675 309.313 248.268 310.577C248.134 310.718 247.933 310.858 247.799 310.998C247.531 311.209 247.263 311.49 247.062 311.63C246.928 311.771 246.794 311.841 246.726 311.981C246.458 312.262 246.19 312.473 245.922 312.683C245.118 313.456 243.376 321.53 245.922 324.97Z" fill="#F4E3D3"/>
<g opacity="0.15">
<path d="M244.807 313.733C244.941 313.592 245.344 313.241 245.88 312.75C245.075 313.522 243.4 321.526 245.88 325.036C247.957 327.774 256.601 338.376 259.818 342.307C260.488 343.08 261.627 343.15 262.297 342.378L264.844 339.569L277.308 325.879C277.442 325.949 277.777 326.019 278.112 326.089C278.313 326.019 278.581 325.879 278.916 325.668L290.844 338.867L294.128 342.448C294.798 343.22 295.937 343.15 296.607 342.448C299.957 338.586 309.272 327.845 311.349 325.036C313.427 322.158 312.623 316.19 311.818 313.803C312.623 314.646 314.365 322.79 311.818 326.37C309.674 329.179 300.092 340.201 296.674 344.133C296.004 344.905 294.865 344.905 294.128 344.133L290.777 340.482L278.313 326.721L265.112 341.184L262.498 343.992C261.828 344.765 259.684 344.765 259.014 343.992C255.73 339.991 246.885 329.179 244.807 326.3C242.194 322.719 244.003 314.435 244.807 313.733Z" fill="black"/>
</g>
<path d="M264.845 339.603C266.588 342.412 268.866 345.431 270.206 347.186C270.675 347.818 271.077 348.309 271.211 348.52C272.217 349.854 283.273 349.432 284.815 348.52C285.418 348.169 286.557 346.484 287.696 344.588C289.304 341.92 290.846 338.901 290.846 338.901L278.181 325.07L264.845 339.603Z" fill="#0D95D2"/>
<path d="M262.938 480.504L276.943 510.342L292.088 480.364L284.918 349.707L284.851 348.514C279.691 340.019 271.247 348.514 271.247 348.514L271.18 349.356L262.938 480.504Z" fill="#0D95D2"/>
<g opacity="0.15">
<path d="M271.124 349.345C278.404 351.108 284.907 349.656 284.907 349.656L284.844 348.479C283.278 349.342 272.224 349.831 271.213 348.506L271.124 349.345Z" fill="black"/>
</g>
<path d="M191.889 445.041C192.358 461.4 192.157 462.523 192.023 477.969C192.023 478.881 192.023 479.864 192.023 480.777C191.822 498.399 191.487 496.503 190.951 510.334C190.884 511.528 190.817 512.721 190.817 513.915C189.879 531.748 188.405 573.381 187.266 600.972C187.199 602.868 203.482 605.255 204.823 603.921C219.9 589.248 211.39 588.826 235.246 561.937C235.983 561.094 243.086 554.354 246.637 550.704C248.313 549.019 249.251 546.632 249.318 544.174C249.72 523.393 252.199 497.276 251.73 431.772C251.127 352.227 244.962 322.038 251.73 307.856C251.73 307.856 251.998 306.311 235.246 311.577C218.895 316.702 191.018 322.669 181.771 330.954C181.369 331.305 181.168 331.867 181.302 332.428C182.508 338.256 189.343 373.71 191.621 436.897C191.688 438.161 191.688 439.495 191.755 440.829C191.822 442.233 191.822 443.637 191.889 445.041Z" fill="#434D56"/>
<path d="M305.96 307.894C305.96 307.894 305.692 306.349 322.445 311.615C339.064 316.81 367.409 322.918 376.322 331.343C376.523 331.484 376.59 331.764 376.523 332.045C375.652 336.258 368.213 373.257 366.002 440.797C363.657 512.619 380.878 548.355 380.878 548.355C380.878 548.355 361.244 555.797 337.053 544.423C329.682 540.983 323.45 540.351 321.976 531.996C317.62 507.494 305.558 490.012 305.96 431.81C306.563 352.335 312.728 322.076 305.96 307.894Z" fill="#444D56"/>
<g opacity="0.15">
<path d="M239.462 310.725C239.462 310.725 221.034 330.172 228.272 338.948C228.272 338.948 217.885 332.208 239.462 310.725Z" fill="black"/>
</g>
<g opacity="0.15">
<path d="M217.54 345.334C219.684 356.006 233.421 420.807 249.772 444.608L249.839 444.327C247.426 439.553 238.179 420.456 232.416 398.06C226.653 375.453 221.091 351.653 219.751 345.826C219.55 344.983 219.885 344.07 220.488 343.579C221.694 342.596 224.174 340.911 228.194 338.875C228.194 338.875 223.235 339.998 218.411 342.947C217.741 343.509 217.339 344.421 217.54 345.334Z" fill="black"/>
</g>
<g opacity="0.15">
<path d="M317.716 310.725C317.716 310.725 336.144 330.172 328.907 338.948C328.907 338.948 339.294 332.208 317.716 310.725Z" fill="black"/>
</g>
<g opacity="0.15">
<path d="M339.639 345.334C337.494 356.006 323.757 420.807 307.406 444.608L307.339 444.327C309.752 439.553 318.999 420.456 324.762 398.06C330.525 375.453 336.087 351.653 337.427 345.826C337.628 344.983 337.293 344.07 336.69 343.579C335.484 342.596 333.004 340.911 328.984 338.875C328.984 338.875 333.943 339.998 338.767 342.947C339.437 343.509 339.84 344.421 339.639 345.334Z" fill="black"/>
</g>
<g opacity="0.15">
<path d="M189.486 543.476C199.605 545.793 209.791 547.899 213.543 548.39C214.481 548.531 215.353 547.829 215.487 546.846C216.291 540.597 219.172 518.763 221.853 510.549C222.188 509.636 221.719 508.653 220.847 508.302C216.559 506.547 202.754 501.071 191.564 496.156C191.631 495.314 191.631 494.401 191.698 493.418C203.693 498.684 219.507 505.002 224.131 506.968C225.002 507.319 225.404 508.302 225.136 509.215C222.255 517.991 218.636 544.108 217.698 550.988C217.564 551.971 216.693 552.673 215.755 552.533C211.734 552.041 200.543 549.724 189.352 547.057C189.419 545.863 189.486 544.669 189.486 543.476Z" fill="black"/>
</g>
<path d="M297.863 547.837C293.306 549.311 289.486 548.258 284.393 542.291C284.393 542.291 280.574 544.046 277.089 541.027C273.672 538.078 268.043 537.797 266.233 536.604C264.424 535.41 261.543 535.832 258.326 534.568C255.11 533.304 254.774 534.498 257.187 536.323C259.666 538.219 279.166 547.205 275.481 550.505C271.728 553.735 252.63 548.188 246.197 546.573C239.764 544.888 221.269 544.116 217.784 540.887C216.042 539.272 212.491 538.148 209.475 537.446C209.006 537.376 208.604 537.236 208.202 537.166C205.856 536.674 204.047 536.463 204.047 536.463L213.496 510.065C213.496 510.065 215.238 510.697 218.052 511.47C218.521 511.61 218.991 511.68 219.46 511.821C223.748 512.804 229.779 513.716 236.078 513.084C247.671 511.821 259.532 509.644 262.414 510.697C265.295 511.75 270.991 517.858 270.991 517.858C270.991 517.858 278.094 517.156 280.976 520.316C283.857 523.475 290.223 533.585 295.048 538.078C299.739 542.572 302.084 546.503 297.863 547.837Z" fill="#FBC0A4" stroke="#F8B79C" stroke-width="2.35486" stroke-miterlimit="4.7358" stroke-linejoin="round"/>
<path d="M252.637 514.27C252.637 514.27 268.452 517.92 270.998 517.92L252.637 514.27Z" fill="#F69D7D"/>
<path d="M255.539 522.953C257.147 523.234 258.756 523.585 260.297 523.866L265.055 524.849C266.663 525.2 268.204 525.481 269.812 525.832C271.421 526.183 273.029 526.604 274.503 527.306C275.977 528.078 277.318 529.131 278.524 530.325C279.73 531.518 280.936 532.712 282.075 533.906C283.215 535.169 284.354 536.433 285.225 537.907C285.426 538.258 285.627 538.68 285.828 539.101C285.962 539.522 286.163 540.014 286.163 540.505C286.163 540.786 286.163 540.996 286.029 541.277C285.962 541.558 285.761 541.769 285.56 541.909C285.158 542.19 284.689 542.26 284.287 542.26C284.689 542.12 285.091 541.909 285.359 541.628C285.627 541.348 285.761 540.926 285.694 540.505C285.694 540.084 285.56 539.663 285.359 539.311C285.225 538.89 285.024 538.539 284.756 538.188C284.354 537.486 283.818 536.784 283.282 536.082C282.746 535.45 282.209 534.818 281.606 534.186C281.003 533.554 280.467 532.993 279.797 532.431L278.859 531.589C278.524 531.308 278.256 531.027 277.921 530.816C276.648 529.763 275.374 528.78 273.9 528.078C272.493 527.306 270.952 526.885 269.343 526.534C267.802 526.183 266.194 525.761 264.653 525.41L259.962 524.217C258.689 523.796 257.08 523.374 255.539 522.953Z" fill="#F69D7D"/>
<path d="M219.545 539.926C222.56 539.926 225.643 539.856 228.658 539.715C230.2 539.645 231.674 539.505 233.215 539.364C233.617 539.364 233.952 539.294 234.354 539.224C234.756 539.154 235.091 539.154 235.493 539.083L236.633 538.873L237.772 538.662L238.04 538.592L238.308 538.522L238.844 538.381C239.179 538.311 239.581 538.171 239.983 538.03C240.385 537.89 240.72 537.82 241.122 537.679C241.524 537.539 241.859 537.469 242.262 537.328C243.736 536.907 245.277 536.556 246.818 536.275L251.375 535.292C252.916 534.941 254.391 534.59 255.865 534.099C252.916 535.222 249.901 535.784 246.885 536.556C245.411 536.907 243.87 537.328 242.396 537.749C241.993 537.89 241.658 537.96 241.256 538.1C240.854 538.241 240.519 538.311 240.117 538.452C239.782 538.592 239.38 538.732 238.978 538.803L238.107 539.083L237.839 539.154C234.823 539.926 231.741 540.136 228.658 540.207C225.576 540.347 222.56 540.207 219.545 539.926Z" fill="#F69D7D"/>
<path d="M248.042 544.997C248.042 544.997 254.207 540.784 255.212 535.519C255.212 535.519 254.609 540.995 248.042 544.997Z" fill="#F69D7D"/>
<path d="M273.591 528.116C273.591 528.116 273.993 530.012 272.653 531.767C272.653 531.767 274.329 530.363 273.591 528.116Z" fill="#F69D7D"/>
<path d="M279.177 519.639C279.177 519.639 279.579 521.534 278.239 523.289C278.239 523.289 279.914 521.885 279.177 519.639Z" fill="#F69D7D"/>
<g opacity="0.6">
<path d="M282.234 535.051C281.899 534.63 281.363 534.489 280.894 534.77C280.157 535.121 279.219 535.893 279.42 537.227C279.755 539.334 281.698 542.282 283.306 542.002C284.915 541.721 285.92 540.808 285.317 539.474C284.848 538.421 283.105 536.174 282.234 535.051Z" fill="white"/>
</g>
<g opacity="0.6">
<path d="M296.154 540.31C295.819 539.889 295.283 539.748 294.814 540.029C294.077 540.38 293.139 541.152 293.34 542.486C293.675 544.592 295.618 547.541 297.226 547.26C298.835 546.979 299.84 546.067 299.237 544.733C298.768 543.68 297.025 541.433 296.154 540.31Z" fill="white"/>
</g>
<path d="M212.999 533.008C212.999 533.008 213.803 537.712 216.886 538.835C216.886 538.835 213.066 538.203 212.999 533.008Z" fill="#F69D7D"/>
<path d="M126.503 522.352C127.978 524.388 129.787 525.933 131.998 526.915C149.287 534.498 202.293 546.995 213.551 548.399C214.489 548.539 215.36 547.837 215.494 546.854C216.298 540.606 219.18 518.771 221.86 510.557C222.195 509.644 221.726 508.661 220.855 508.31C213.417 505.221 182.056 492.022 174.282 487.389C173.746 487.108 174.014 485.563 174.215 485.002C176.159 480.719 183.798 452.917 191.638 436.909C199.143 421.604 196.53 360.594 187.483 339.602C185.674 335.459 183.664 332.862 181.385 332.511C181.385 332.511 170.865 336.723 161.885 365.017C152.906 393.24 135.617 431.784 130.256 450.389C124.962 468.433 116.05 507.679 126.503 522.352Z" fill="#444D56"/>
<g opacity="0.15">
<path d="M174.262 487.406C174.262 487.406 162.133 481.649 147.257 485.299C147.257 485.299 160.592 480.245 174.262 487.406Z" fill="black"/>
</g>
<g opacity="0.15">
<path d="M171.092 484.562C171.092 484.562 161.308 475.927 141.406 479.577C141.406 479.577 159.432 473.961 171.092 484.562Z" fill="black"/>
</g>
<g opacity="0.15">
<path d="M191.625 436.895C191.625 436.895 190.284 387.399 185.258 356.858L191.625 436.895Z" fill="black"/>
</g>
<path d="M376.812 332.053C376.812 332.053 415.563 411.25 413.917 481.129C412.27 551.007 396.881 546.773 396.881 546.773L360.883 559.735C360.883 559.735 338.187 400.766 376.812 332.053Z" fill="#444D56"/>
<g opacity="0.15">
<path d="M364.308 436.895C364.308 436.895 365.648 387.399 370.674 356.858L364.308 436.895Z" fill="black"/>
</g>
<path d="M244.852 551.512H315.281L311.595 541.402L244.718 544.351C242.909 544.421 241.502 545.966 241.502 547.932C241.435 549.897 242.976 551.512 244.852 551.512Z" fill="#E5E5E5" stroke="#444444" stroke-width="2.35486" stroke-miterlimit="23.6788"/>
<path d="M261.216 551.406C261.417 551.406 261.551 551.476 261.752 551.476C261.886 551.476 262.087 551.476 262.221 551.476H426.13C426.398 551.476 426.666 551.476 426.934 551.406C429.883 551.055 431.96 548.457 431.692 545.719C431.558 544.455 431.625 543.191 431.759 541.998L440.94 434.651L441.409 428.753C441.476 428.262 441.409 427.84 441.342 427.349C440.94 425.032 439.13 423.137 436.718 422.996C436.584 422.996 436.383 422.996 436.249 422.996H272.273C269.123 422.996 266.912 425.453 266.912 428.262C266.912 429.736 266.778 431.281 266.644 432.755L257.061 545.719C256.793 548.387 258.603 550.914 261.216 551.406Z" fill="#E5E5E5"/>
<path d="M261.216 551.406C261.417 551.406 261.551 551.476 261.752 551.476C261.886 551.476 262.087 551.476 262.221 551.476H426.13C426.398 551.476 426.666 551.476 426.934 551.406C429.883 551.055 431.96 548.457 431.692 545.719C431.558 544.455 431.625 543.191 431.759 541.998L440.94 434.651L441.409 428.753C441.476 428.262 441.409 427.84 441.342 427.349C440.94 425.032 439.13 423.137 436.718 422.996C436.584 422.996 436.383 422.996 436.249 422.996H272.273C269.123 422.996 266.912 425.453 266.912 428.262C266.912 429.736 266.778 431.281 266.644 432.755L257.061 545.719C256.793 548.387 258.603 550.914 261.216 551.406Z" stroke="#444444" stroke-width="2.35486" stroke-miterlimit="23.6788"/>
<g opacity="0.08">
<path d="M261.216 551.431C261.417 551.431 261.551 551.501 261.752 551.501C261.886 551.501 262.087 551.501 262.221 551.501H426.13C426.398 551.501 426.666 551.501 426.934 551.431C429.883 551.08 431.96 548.482 431.692 545.744C431.558 544.48 431.625 543.216 431.759 542.023L440.94 434.676L441.409 428.778C441.476 428.287 441.409 427.865 441.342 427.374C441.141 427.304 441.007 427.304 440.806 427.304C440.672 427.304 440.471 427.304 440.337 427.304H276.361C273.211 427.304 271 429.761 271 432.569C271 434.044 270.866 435.588 270.732 437.063L261.149 550.027C261.082 550.518 261.149 550.939 261.216 551.431Z" fill="black"/>
</g>
<g opacity="0.8">
<path d="M367.755 483.545C369.373 494.57 362.422 505.251 352.204 507.294C341.987 509.337 332.363 502.041 330.733 490.948C329.038 479.868 336.067 469.242 346.285 467.199C356.502 465.156 366.126 472.452 367.755 483.545Z" fill="white"/>
</g>
</g>
</g>
</g>
<defs>
<clipPath id="clip0_28093_650">
<rect width="566" height="593" rx="20" fill="white"/>
</clipPath>
</defs>
</svg>
