<svg width="560" height="808" viewBox="0 0 560 808" fill="none" xmlns="http://www.w3.org/2000/svg">
<rect width="560" height="808" fill="white"/>
<path d="M195.958 85.872C194.87 86.736 193.728 87.3547 192.534 87.728C191.35 88.0907 190.059 88.272 188.662 88.272C187.008 88.272 185.526 87.9413 184.214 87.28C182.902 86.608 181.787 85.7013 180.87 84.56C179.952 83.4187 179.248 82.0853 178.758 80.56C178.278 79.0347 178.038 77.4133 178.038 75.696C178.038 74.6187 178.128 73.5787 178.31 72.576C178.491 71.5627 178.768 70.6133 179.142 69.728C179.515 68.832 179.99 68.0213 180.566 67.296C181.142 66.56 181.824 65.9307 182.614 65.408C183.414 64.8747 184.32 64.464 185.334 64.176C186.347 63.8773 187.478 63.728 188.726 63.728C190.112 63.728 191.43 63.9627 192.678 64.432C193.926 64.9013 195.019 65.5893 195.958 66.496L193.59 69.44C193.238 69.2053 192.864 68.9813 192.47 68.768C192.086 68.5547 191.696 68.368 191.302 68.208C190.907 68.048 190.512 67.92 190.118 67.824C189.723 67.728 189.344 67.68 188.982 67.68C187.968 67.68 187.12 67.888 186.438 68.304C185.755 68.72 185.206 69.2907 184.79 70.016C184.374 70.7307 184.075 71.5733 183.894 72.544C183.723 73.5147 183.638 74.5493 183.638 75.648C183.638 76.2987 183.68 76.9653 183.766 77.648C183.862 78.32 184 78.976 184.182 79.616C184.374 80.256 184.614 80.8587 184.902 81.424C185.2 81.9893 185.547 82.4853 185.942 82.912C186.347 83.328 186.806 83.6587 187.318 83.904C187.83 84.1493 188.406 84.272 189.046 84.272C189.408 84.272 189.766 84.2453 190.118 84.192C190.47 84.128 190.838 84.032 191.222 83.904C191.616 83.7653 192.043 83.5893 192.502 83.376C192.96 83.152 193.478 82.88 194.054 82.56L195.958 85.872ZM207.282 88.272C206.002 88.272 204.829 88.0427 203.762 87.584C202.695 87.1147 201.773 86.4747 200.994 85.664C200.226 84.8427 199.623 83.8773 199.186 82.768C198.759 81.6587 198.546 80.4533 198.546 79.152C198.546 77.8613 198.754 76.6613 199.17 75.552C199.586 74.4427 200.173 73.4827 200.93 72.672C201.698 71.8613 202.621 71.2267 203.698 70.768C204.775 70.2987 205.97 70.0853 207.282 70.128C208.562 70.0853 209.73 70.2987 210.786 70.768C211.842 71.2267 212.743 71.8613 213.49 72.672C214.247 73.4827 214.834 74.4427 215.25 75.552C215.666 76.6613 215.874 77.8613 215.874 79.152C215.874 80.4533 215.671 81.6587 215.266 82.768C214.871 83.8773 214.301 84.8427 213.554 85.664C212.807 86.4747 211.906 87.1147 210.85 87.584C209.794 88.0427 208.605 88.272 207.282 88.272ZM210.658 79.552C210.658 78.8267 210.594 78.112 210.466 77.408C210.349 76.704 210.151 76.0747 209.874 75.52C209.597 74.9547 209.239 74.5013 208.802 74.16C208.365 73.8187 207.837 73.648 207.218 73.648C206.621 73.648 206.103 73.7973 205.666 74.096C205.239 74.384 204.887 74.7733 204.61 75.264C204.333 75.7547 204.125 76.3147 203.986 76.944C203.847 77.5627 203.778 78.2027 203.778 78.864C203.778 79.6 203.847 80.32 203.986 81.024C204.125 81.728 204.338 82.3573 204.626 82.912C204.914 83.456 205.282 83.8987 205.73 84.24C206.178 84.5813 206.717 84.752 207.346 84.752C207.922 84.752 208.418 84.608 208.834 84.32C209.261 84.0213 209.607 83.6267 209.874 83.136C210.141 82.6453 210.338 82.0907 210.466 81.472C210.594 80.8533 210.658 80.2133 210.658 79.552ZM225.439 88H220.367V70.4L225.439 70.08V72L226.671 70.4C227.076 70.2933 227.508 70.224 227.967 70.192C228.436 70.1493 228.98 70.128 229.599 70.128C230.569 70.128 231.444 70.272 232.223 70.56C233.001 70.848 233.657 71.2587 234.191 71.792C234.735 72.3147 235.151 72.9547 235.439 73.712C235.727 74.4587 235.871 75.296 235.871 76.224V88H230.799V76.224C230.799 75.7867 230.729 75.4133 230.591 75.104C230.463 74.784 230.292 74.5227 230.079 74.32C229.865 74.1173 229.62 73.968 229.343 73.872C229.065 73.776 228.777 73.728 228.479 73.728C227.807 73.728 227.236 73.84 226.767 74.064C226.308 74.2773 225.865 74.6133 225.439 75.072V88ZM249.403 81.792C249.403 82.336 249.414 82.7947 249.435 83.168C249.467 83.5307 249.526 83.824 249.611 84.048C249.696 84.272 249.814 84.432 249.963 84.528C250.112 84.624 250.315 84.672 250.571 84.672C251.072 84.672 251.542 84.6133 251.979 84.496C252.416 84.368 252.816 84.2187 253.179 84.048C253.552 83.8667 253.888 83.6747 254.187 83.472L254.987 82.944L256.651 85.84C256.512 85.9573 256.267 86.1493 255.915 86.416C255.574 86.6827 255.115 86.9547 254.539 87.232C253.963 87.5093 253.264 87.7547 252.443 87.968C251.632 88.1707 250.694 88.272 249.627 88.272C248.475 88.272 247.547 88.0907 246.843 87.728C246.15 87.3653 245.616 86.8747 245.243 86.256C244.88 85.6373 244.64 84.912 244.523 84.08C244.406 83.248 244.347 82.368 244.347 81.44V73.984H240.475V70.4H244.347V67.04L249.339 65.28V70.4H256.683L256.251 73.984H249.403V81.792ZM277.848 88H272.408V86.4L271.064 87.92C270.69 88.0373 270.317 88.1227 269.944 88.176C269.581 88.24 269.24 88.272 268.92 88.272C268.034 88.272 267.144 88.144 266.248 87.888C265.352 87.6213 264.541 87.2373 263.816 86.736C263.101 86.224 262.514 85.5947 262.056 84.848C261.608 84.1013 261.384 83.2427 261.384 82.272C261.384 81.248 261.613 80.3627 262.072 79.616C262.53 78.8693 263.133 78.256 263.88 77.776C264.637 77.2853 265.49 76.9227 266.44 76.688C267.389 76.4533 268.36 76.336 269.352 76.336C269.96 76.336 270.514 76.3573 271.016 76.4C271.517 76.432 271.981 76.4853 272.408 76.56C272.365 75.6533 272.136 74.9333 271.72 74.4C271.304 73.8667 270.664 73.6 269.8 73.6C269.33 73.6 268.856 73.6267 268.376 73.68C267.906 73.7333 267.453 73.808 267.016 73.904C266.578 74 266.168 74.1067 265.784 74.224C265.41 74.3413 265.08 74.464 264.792 74.592L263.288 71.632C263.778 71.408 264.248 71.2053 264.696 71.024C265.154 70.832 265.634 70.672 266.136 70.544C266.648 70.4053 267.208 70.304 267.816 70.24C268.424 70.1653 269.138 70.128 269.96 70.128C271.325 70.128 272.482 70.2987 273.432 70.64C274.392 70.9707 275.17 71.4453 275.767 72.064C276.365 72.672 276.797 73.408 277.064 74.272C277.341 75.1253 277.48 76.0693 277.48 77.104V84.8L277.848 88ZM272.408 80C272.248 79.9893 272.061 79.9787 271.848 79.968C271.634 79.9573 271.416 79.952 271.192 79.952C270.968 79.9413 270.744 79.936 270.52 79.936C270.306 79.9253 270.12 79.92 269.96 79.92C269.554 79.92 269.149 79.9573 268.744 80.032C268.349 80.1067 267.997 80.2347 267.688 80.416C267.378 80.5973 267.128 80.8373 266.936 81.136C266.744 81.4347 266.648 81.808 266.648 82.256C266.648 82.6187 266.712 82.9493 266.84 83.248C266.978 83.536 267.16 83.7867 267.384 84C267.608 84.2133 267.864 84.3787 268.152 84.496C268.44 84.6133 268.738 84.672 269.048 84.672C269.656 84.672 270.237 84.5387 270.792 84.272C271.346 84.0053 271.885 83.648 272.408 83.2V80ZM295.988 75.648C295.476 75.04 294.905 74.5973 294.276 74.32C293.657 74.0427 292.943 73.904 292.132 73.904C291.481 73.904 290.873 74.048 290.308 74.336C289.743 74.6133 289.247 74.992 288.82 75.472C288.404 75.952 288.073 76.512 287.828 77.152C287.593 77.7813 287.476 78.448 287.476 79.152C287.476 79.888 287.599 80.5707 287.844 81.2C288.1 81.8187 288.441 82.352 288.868 82.8C289.295 83.248 289.785 83.6 290.34 83.856C290.905 84.1013 291.503 84.224 292.132 84.224C292.687 84.224 293.188 84.176 293.636 84.08C294.095 83.9733 294.5 83.8347 294.852 83.664C295.215 83.4827 295.529 83.28 295.796 83.056C296.073 82.832 296.308 82.5973 296.5 82.352L298.484 85.808C298.292 85.9787 298.004 86.2027 297.62 86.48C297.247 86.7573 296.777 87.0293 296.212 87.296C295.647 87.5627 294.98 87.792 294.212 87.984C293.444 88.176 292.575 88.272 291.604 88.272C290.185 88.272 288.895 88.016 287.732 87.504C286.58 86.992 285.593 86.3093 284.772 85.456C283.951 84.6027 283.316 83.616 282.868 82.496C282.42 81.3653 282.196 80.1867 282.196 78.96C282.196 77.8507 282.409 76.768 282.836 75.712C283.273 74.6453 283.897 73.7013 284.708 72.88C285.529 72.048 286.527 71.3813 287.7 70.88C288.873 70.3787 290.196 70.128 291.668 70.128C293.108 70.128 294.409 70.3307 295.572 70.736C296.745 71.1307 297.748 71.7813 298.58 72.688L295.988 75.648ZM311.841 81.792C311.841 82.336 311.851 82.7947 311.873 83.168C311.905 83.5307 311.963 83.824 312.049 84.048C312.134 84.272 312.251 84.432 312.401 84.528C312.55 84.624 312.753 84.672 313.009 84.672C313.51 84.672 313.979 84.6133 314.417 84.496C314.854 84.368 315.254 84.2187 315.617 84.048C315.99 83.8667 316.326 83.6747 316.625 83.472L317.425 82.944L319.089 85.84C318.95 85.9573 318.705 86.1493 318.353 86.416C318.011 86.6827 317.553 86.9547 316.977 87.232C316.401 87.5093 315.702 87.7547 314.881 87.968C314.07 88.1707 313.131 88.272 312.065 88.272C310.913 88.272 309.985 88.0907 309.281 87.728C308.587 87.3653 308.054 86.8747 307.681 86.256C307.318 85.6373 307.078 84.912 306.961 84.08C306.843 83.248 306.785 82.368 306.785 81.44V73.984H302.913V70.4H306.785V67.04L311.777 65.28V70.4H319.121L318.689 73.984H311.841V81.792ZM361.498 64V79.456C361.498 80.9387 361.3 82.2347 360.906 83.344C360.511 84.4427 359.94 85.36 359.194 86.096C358.447 86.8213 357.535 87.3653 356.458 87.728C355.391 88.0907 354.186 88.272 352.842 88.272C351.391 88.272 350.164 88.0427 349.162 87.584C348.159 87.1253 347.343 86.4747 346.714 85.632C346.095 84.7893 345.647 83.7813 345.37 82.608C345.092 81.424 344.954 80.1173 344.954 78.688V67.792L344.41 64L350.266 63.68V78.976C350.266 79.84 350.298 80.6133 350.362 81.296C350.436 81.9787 350.58 82.5547 350.794 83.024C351.018 83.4933 351.327 83.8507 351.722 84.096C352.127 84.3413 352.666 84.464 353.338 84.464C353.871 84.464 354.319 84.368 354.682 84.176C355.044 83.9733 355.338 83.6747 355.562 83.28C355.786 82.8853 355.946 82.3947 356.042 81.808C356.138 81.2213 356.186 80.5333 356.186 79.744V64H361.498ZM379.51 75.168C379.211 74.976 378.897 74.7893 378.566 74.608C378.235 74.4267 377.878 74.2667 377.494 74.128C377.11 73.9787 376.699 73.8613 376.262 73.776C375.825 73.68 375.355 73.632 374.854 73.632C374.395 73.632 373.921 73.6533 373.43 73.696C372.95 73.7387 372.513 73.8187 372.118 73.936C371.723 74.0427 371.398 74.1973 371.142 74.4C370.886 74.592 370.758 74.8373 370.758 75.136C370.758 75.4133 370.902 75.6533 371.19 75.856C371.478 76.048 371.841 76.2187 372.278 76.368C372.715 76.5173 373.19 76.6453 373.702 76.752C374.225 76.8587 374.721 76.96 375.19 77.056C375.734 77.1733 376.262 77.2907 376.774 77.408C377.286 77.5253 377.702 77.6427 378.022 77.76C378.555 77.9733 379.057 78.2347 379.526 78.544C380.006 78.8533 380.422 79.2053 380.774 79.6C381.137 79.984 381.419 80.4053 381.622 80.864C381.835 81.3227 381.942 81.808 381.942 82.32C381.942 83.0347 381.798 83.68 381.51 84.256C381.233 84.8213 380.849 85.3227 380.358 85.76C379.878 86.1973 379.318 86.576 378.678 86.896C378.049 87.216 377.377 87.4773 376.662 87.68C375.958 87.8827 375.238 88.032 374.502 88.128C373.766 88.224 373.062 88.272 372.39 88.272C371.75 88.272 371.115 88.224 370.486 88.128C369.857 88.0427 369.254 87.92 368.678 87.76C368.102 87.6 367.563 87.4133 367.062 87.2C366.571 86.976 366.145 86.736 365.782 86.48L367.35 83.12C368.086 83.568 368.865 83.9413 369.686 84.24C370.518 84.528 371.43 84.672 372.422 84.672C372.667 84.672 372.95 84.6613 373.27 84.64C373.601 84.608 373.937 84.56 374.278 84.496C374.63 84.4213 374.977 84.3307 375.318 84.224C375.659 84.1067 375.963 83.9627 376.23 83.792C376.497 83.6213 376.71 83.4187 376.87 83.184C377.041 82.9387 377.126 82.656 377.126 82.336C377.126 82.048 376.998 81.8027 376.742 81.6C376.486 81.3867 376.161 81.2053 375.766 81.056C375.371 80.9067 374.939 80.784 374.47 80.688C374.001 80.5813 373.553 80.4853 373.126 80.4C372.817 80.336 372.502 80.272 372.182 80.208C371.873 80.1333 371.574 80.0587 371.286 79.984C370.998 79.9093 370.731 79.8347 370.486 79.76C370.241 79.6747 370.033 79.5893 369.862 79.504H369.878C369.174 79.1733 368.587 78.8267 368.118 78.464C367.659 78.0907 367.291 77.712 367.014 77.328C366.747 76.9333 366.555 76.528 366.438 76.112C366.331 75.696 366.278 75.2747 366.278 74.848C366.278 74.0373 366.513 73.3387 366.982 72.752C367.451 72.1547 368.075 71.664 368.854 71.28C369.643 70.8853 370.545 70.5973 371.558 70.416C372.582 70.224 373.649 70.128 374.758 70.128C375.355 70.128 375.953 70.176 376.55 70.272C377.158 70.3573 377.734 70.4747 378.278 70.624C378.822 70.7627 379.318 70.9227 379.766 71.104C380.214 71.2853 380.582 71.4667 380.87 71.648L379.51 75.168Z" fill="#041F29"/>
<path d="M496.414 456.828C496.833 474.084 494.985 491.486 490.656 508.636C474.796 571.457 425.547 629.753 362.954 652.887C266.494 688.539 174.205 640.027 117.141 563.735C72.3977 503.915 78.1268 413.398 116.675 351.882C120.709 345.446 125.128 339.238 129.924 333.316C197.313 250.089 335.04 228.062 419.351 299.364C466.32 339.088 494.961 397.083 496.414 456.828Z" fill="#A3B7D3"/>
<path d="M319.843 417.747H411.275C426.777 417.747 438.873 431.053 437.273 446.355C434.692 471.054 426.506 507.325 423.049 536.938C420.024 562.854 397.913 582.4 371.625 582.4H289.025L319.843 417.747Z" fill="#1054D7"/>
<path d="M308.45 417.747H395.558C411.06 417.747 423.156 431.053 421.556 446.355C418.975 471.054 415.111 493.427 411.655 523.041C408.63 548.956 386.519 568.503 360.23 568.503H277.632L308.45 417.747Z" fill="#054BAF"/>
<path d="M351.176 583.374H340.494V716.669H351.176V583.374Z" fill="#011843"/>
<path d="M370.476 586.534H314.784C312.834 586.534 311.254 584.965 311.254 583.031V582.322H374.006V583.031C374.006 584.965 372.426 586.534 370.476 586.534Z" fill="#011843"/>
<path d="M302.042 729.211C302.042 721.601 308.258 715.432 315.927 715.432H380.014C387.683 715.432 393.899 721.601 393.899 729.211V729.752" stroke="#011843" stroke-width="2.6579" stroke-miterlimit="10" stroke-linecap="round" stroke-linejoin="round"/>
<path d="M368.398 729.079V715.298" stroke="#011843" stroke-width="2.6579" stroke-miterlimit="10"/>
<path d="M326.741 729.079V715.298" stroke="#011843" stroke-width="2.6579" stroke-miterlimit="10"/>
<path d="M303.142 735.917C306.753 735.917 309.679 733.012 309.679 729.43C309.679 725.847 306.753 722.942 303.142 722.942C299.532 722.942 296.605 725.847 296.605 729.43C296.605 733.012 299.532 735.917 303.142 735.917Z" fill="#011843"/>
<path d="M303.142 731.524C304.308 731.524 305.252 730.586 305.252 729.43C305.252 728.273 304.308 727.336 303.142 727.336C301.977 727.336 301.032 728.273 301.032 729.43C301.032 730.586 301.977 731.524 303.142 731.524Z" stroke="#DBE2EF" stroke-width="0.8184" stroke-miterlimit="10" stroke-linecap="round" stroke-linejoin="round"/>
<path d="M327.255 735.917C330.865 735.917 333.792 733.012 333.792 729.43C333.792 725.847 330.865 722.942 327.255 722.942C323.645 722.942 320.718 725.847 320.718 729.43C320.718 733.012 323.645 735.917 327.255 735.917Z" fill="#011843"/>
<path d="M327.255 731.524C328.42 731.524 329.365 730.586 329.365 729.43C329.365 728.273 328.42 727.336 327.255 727.336C326.09 727.336 325.145 728.273 325.145 729.43C325.145 730.586 326.09 731.524 327.255 731.524Z" stroke="#DBE2EF" stroke-width="0.8184" stroke-miterlimit="10" stroke-linecap="round" stroke-linejoin="round"/>
<path d="M369.603 735.917C373.213 735.917 376.139 733.012 376.139 729.43C376.139 725.847 373.213 722.942 369.603 722.942C365.992 722.942 363.066 725.847 363.066 729.43C363.066 733.012 365.992 735.917 369.603 735.917Z" fill="#011843"/>
<path d="M369.603 731.524C370.768 731.524 371.712 730.586 371.712 729.43C371.712 728.273 370.768 727.336 369.603 727.336C368.437 727.336 367.493 728.273 367.493 729.43C367.493 730.586 368.437 731.524 369.603 731.524Z" stroke="#DBE2EF" stroke-width="0.8184" stroke-miterlimit="10" stroke-linecap="round" stroke-linejoin="round"/>
<path d="M393.715 735.917C397.325 735.917 400.252 733.012 400.252 729.43C400.252 725.847 397.325 722.942 393.715 722.942C390.105 722.942 387.178 725.847 387.178 729.43C387.178 733.012 390.105 735.917 393.715 735.917Z" fill="#011843"/>
<path d="M393.715 731.524C394.88 731.524 395.825 730.586 395.825 729.43C395.825 728.273 394.88 727.336 393.715 727.336C392.55 727.336 391.605 728.273 391.605 729.43C391.605 730.586 392.55 731.524 393.715 731.524Z" stroke="#DBE2EF" stroke-width="0.8184" stroke-miterlimit="10" stroke-linecap="round" stroke-linejoin="round"/>
<path d="M181.343 522.069L193.679 734.208C193.696 737.368 189.384 737.529 189.201 734.375L165.72 522.092" fill="white"/>
<path d="M165.721 522.025L181.351 522.085L166.568 529.512L165.721 522.025Z" fill="#011843"/>
<path d="M280 745.145C434.64 745.145 560 743.044 560 740.451C560 737.859 434.64 735.758 280 735.758C125.36 735.758 0 737.859 0 740.451C0 743.044 125.36 745.145 280 745.145Z" fill="#A3B7D3"/>
<path d="M96.2381 368.805H34.6419C27.5082 368.805 22.101 362.418 23.3308 355.444L28.8453 324.178C29.8074 318.725 34.578 314.748 40.1564 314.748H101.753C108.886 314.748 114.293 321.135 113.064 328.109L107.549 359.374C106.587 364.827 101.817 368.805 96.2381 368.805Z" fill="#0EA5E9"/>
<path d="M79.1655 364.312H91.7148C96.5276 364.312 100.716 361.096 101.982 356.487C103.084 352.477 103.495 348.523 104.482 344.771" fill="#0EA5E9"/>
<path d="M79.1655 364.312H91.7148C96.5276 364.312 100.716 361.096 101.982 356.487C103.084 352.477 103.495 348.523 104.482 344.771" stroke="#DBE2EF" stroke-width="0.6645" stroke-miterlimit="10" stroke-linecap="round" stroke-linejoin="round"/>
<path d="M53.9043 365.523L59.936 377.294C61.1211 379.605 63.8398 379.881 65.3324 377.841L74.7314 364.993" fill="#0EA5E9"/>
<path d="M50.5594 343.825C52.3471 343.825 53.7964 342.387 53.7964 340.613C53.7964 338.839 52.3471 337.4 50.5594 337.4C48.7716 337.4 47.3223 338.839 47.3223 340.613C47.3223 342.387 48.7716 343.825 50.5594 343.825Z" fill="#0EA5E9" stroke="#DBE2EF" stroke-width="0.6645" stroke-miterlimit="10"/>
<path d="M71.4334 340.613C71.4334 342.387 69.9842 343.825 68.1963 343.825C66.4084 343.825 64.9592 342.387 64.9592 340.613C64.9592 338.839 66.4084 337.4 68.1963 337.4C69.9842 337.4 71.4334 338.84 71.4334 340.613Z" fill="#0EA5E9" stroke="#DBE2EF" stroke-width="0.6645" stroke-miterlimit="10"/>
<path d="M85.836 343.825C87.6238 343.825 89.0731 342.387 89.0731 340.613C89.0731 338.839 87.6238 337.4 85.836 337.4C84.0482 337.4 82.5989 338.839 82.5989 340.613C82.5989 342.387 84.0482 343.825 85.836 343.825Z" fill="#0EA5E9" stroke="#DBE2EF" stroke-width="0.6645" stroke-miterlimit="10"/>
<path d="M105.528 339.993C105.857 338.463 106.186 336.933 106.515 335.402Z" fill="#0EA5E9"/>
<path d="M105.528 339.993C105.857 338.463 106.186 336.933 106.515 335.402" stroke="#DBE2EF" stroke-width="0.6645" stroke-miterlimit="10" stroke-linecap="round" stroke-linejoin="round"/>
<path d="M284.144 315.701C288.173 298.963 277.766 282.153 260.899 278.155C244.032 274.157 227.093 284.485 223.065 301.224C219.036 317.962 229.443 334.772 246.31 338.77C263.177 342.768 280.116 332.44 284.144 315.701Z" fill="#F4F4F4"/>
<path d="M273.512 310.527V307.242C273.512 306.392 272.819 305.704 271.963 305.704H270.578C269.406 305.704 268.409 304.934 268.03 303.833C267.933 303.55 267.827 303.27 267.713 302.994C267.253 301.88 267.628 300.597 268.569 299.836L269.528 299.062C270.185 298.53 270.284 297.572 269.748 296.92L267.64 294.35C267.105 293.698 266.139 293.6 265.482 294.13L264.275 295.105C263.286 295.903 261.924 295.972 260.803 295.371C260.181 295.037 259.533 294.744 258.863 294.497C257.646 294.05 256.799 292.95 256.799 291.662V290.353C256.799 289.592 256.178 288.976 255.411 288.976H251.778C251.011 288.976 250.39 289.592 250.39 290.353V291.729C250.39 292.977 249.571 294.045 248.39 294.473C247.648 294.742 246.935 295.068 246.251 295.444C245.183 296.031 243.875 295.963 242.928 295.198L241.917 294.381C241.089 293.711 239.87 293.836 239.195 294.658L237.591 296.611C236.916 297.433 237.041 298.643 237.87 299.313L238.869 300.12C239.689 300.783 239.934 301.898 239.524 302.866C239.36 303.255 239.21 303.651 239.079 304.056C238.762 305.028 237.876 305.704 236.846 305.704H235.269C234.415 305.704 233.725 306.391 233.725 307.237V310.531C233.725 311.378 234.417 312.063 235.269 312.063H237.098C238.037 312.063 238.861 312.664 239.163 313.547C239.36 314.119 239.59 314.675 239.85 315.215C240.254 316.049 240.098 317.041 239.438 317.695L238.172 318.951C237.558 319.56 237.558 320.547 238.172 321.156L240.481 323.448C241.095 324.057 242.09 324.057 242.704 323.448L243.332 322.829C244.245 321.923 245.642 321.66 246.796 322.232C247.33 322.496 247.881 322.73 248.449 322.932C249.633 323.353 250.39 324.509 250.39 325.758V326.527C250.39 327.307 251.028 327.94 251.815 327.94H255.375C256.162 327.94 256.8 327.307 256.8 326.527V325.497C256.8 324.338 257.566 323.345 258.666 322.958C259.321 322.729 259.955 322.456 260.565 322.144C261.637 321.596 262.954 321.877 263.775 322.754L264.574 323.607C265.179 324.253 266.197 324.289 266.847 323.689L269.184 321.532C269.834 320.932 269.871 319.922 269.267 319.277L267.993 317.916C267.208 317.079 267.053 315.863 267.522 314.819C267.647 314.539 267.764 314.255 267.873 313.967C268.31 312.806 269.465 312.067 270.714 312.067H271.963C272.819 312.065 273.512 311.377 273.512 310.527ZM253.594 316.367C249.322 316.367 245.858 312.93 245.858 308.689C245.858 304.449 249.322 301.012 253.594 301.012C257.867 301.012 261.331 304.449 261.331 308.689C261.331 312.93 257.867 316.367 253.594 316.367Z" fill="#0EA5E9"/>
<path d="M454.009 475.142C452.47 475.142 451.303 476.52 451.567 478.025L455.732 501.737C456.478 504.738 459.191 506.847 462.305 506.847H473.369C476.537 506.847 479.281 504.668 479.975 501.6L483.227 477.935C483.43 476.458 482.274 475.143 480.77 475.143H454.009V475.142Z" fill="#011843"/>
<path d="M458.696 490C458.696 493.525 455.817 496.38 452.266 496.38C448.715 496.38 445.836 493.523 445.836 490C445.836 486.475 448.715 483.619 452.266 483.619C455.817 483.619 458.696 486.475 458.696 490Z" stroke="#011843" stroke-width="2" stroke-miterlimit="10" stroke-linecap="round" stroke-linejoin="round"/>
<path d="M473.816 475.073C473.414 472.431 474.05 469.739 475.607 467.859C477.006 466.169 478.813 464.822 479.779 462.812C480.887 460.508 481.226 457.878 480.769 455.366C480.27 452.621 478.785 449.856 476.526 448.148C473.473 445.841 469.804 446.289 466.192 446.098C465.718 446.072 465.244 446.04 464.774 445.978C459.194 445.235 457.239 441.192 453.953 435.301C453.37 438.157 452.784 441.054 453 443.961C453.215 446.866 454.339 449.83 456.629 451.655C460.465 454.712 466.208 452.204 470.275 454.951C471.358 455.682 472.756 457.487 472.988 458.766C473.408 461.094 471.103 464.374 468.812 464.954C466.503 465.537 464.153 465.315 462.115 466.542C460.078 467.77 459.399 470.433 459.399 472.799C459.399 474.145 459.45 475.072 459.45 475.072" fill="#F4F4F4"/>
<path d="M453.07 485.014L482.105 485.113" stroke="#DBE2EF" stroke-width="0.8184" stroke-miterlimit="10" stroke-linecap="round" stroke-linejoin="round"/>
<path d="M454.777 494.086H480.698" stroke="#DBE2EF" stroke-width="0.8184" stroke-miterlimit="10" stroke-linecap="round" stroke-linejoin="round"/>
<path d="M478.49 497.586C478.964 492.728 479.439 487.869 479.913 483.012" stroke="#DBE2EF" stroke-width="0.8184" stroke-miterlimit="10" stroke-linecap="round" stroke-linejoin="round"/>
<path d="M115.958 249.386L116.056 249.316C116.535 248.97 116.64 248.303 116.291 247.83L110.809 240.363C110.461 239.888 109.791 239.784 109.312 240.129C106.158 242.41 101.738 241.721 99.4403 238.591L93.5629 230.585C91.265 227.455 91.9594 223.069 95.1133 220.789C95.592 220.443 95.6969 219.778 95.3484 219.303L90.9323 213.287C90.5838 212.812 89.9135 212.708 89.4349 213.054L89.3372 213.124C82.8739 217.798 81.4513 226.785 86.1604 233.201L95.7294 246.236C100.437 252.648 109.494 254.06 115.958 249.386Z" fill="#0EA5E9"/>
<path d="M114.659 227.26C116.323 227.26 117.673 225.92 117.673 224.268C117.673 222.617 116.323 221.277 114.659 221.277C112.994 221.277 111.645 222.617 111.645 224.268C111.645 225.92 112.994 227.26 114.659 227.26Z" fill="#0EA5E9" stroke="#1054D7" stroke-miterlimit="10"/>
<path d="M137.566 227.26C139.23 227.26 140.58 225.92 140.58 224.268C140.58 222.617 139.23 221.277 137.566 221.277C135.901 221.277 134.552 222.617 134.552 224.268C134.552 225.92 135.901 227.26 137.566 227.26Z" fill="#0EA5E9" stroke="#1054D7" stroke-miterlimit="10"/>
<path d="M125.509 227.26C127.174 227.26 128.523 225.92 128.523 224.268C128.523 222.617 127.174 221.277 125.509 221.277C123.845 221.277 122.495 222.617 122.495 224.268C122.495 225.92 123.845 227.26 125.509 227.26Z" fill="#0EA5E9" stroke="#011843" stroke-miterlimit="10"/>
<path d="M453.941 350.339L455.698 362.839C456.043 365.294 457.995 366.031 459.571 364.303L469.493 353.417" fill="#0EA5E9"/>
<path d="M505.429 356.335H419.822C414.905 356.335 411.274 351.785 412.4 347.037L418.457 321.49C419.267 318.072 422.34 315.656 425.879 315.656H511.486C516.403 315.656 520.034 320.206 518.908 324.955L512.851 350.502C512.039 353.92 508.966 356.335 505.429 356.335Z" fill="#0EA5E9"/>
<path d="M495.643 352.297H501.463C505.016 352.297 508.117 349.903 508.988 346.485L510.914 338.938" fill="#0EA5E9"/>
<path d="M495.643 352.297H501.463C505.016 352.297 508.117 349.903 508.988 346.485L510.914 338.938" stroke="#DBE2EF" stroke-width="0.6645" stroke-miterlimit="10" stroke-linecap="round" stroke-linejoin="round"/>
<path d="M511.851 335.205C512.052 334.307 512.253 333.41 512.455 332.513Z" fill="#0EA5E9"/>
<path d="M511.851 335.205C512.052 334.307 512.253 333.41 512.455 332.513" stroke="#DBE2EF" stroke-width="0.6645" stroke-miterlimit="10" stroke-linecap="round" stroke-linejoin="round"/>
<path d="M432.097 323.832H505.761" stroke="#DBE2EF" stroke-width="0.6645" stroke-miterlimit="10" stroke-linecap="round" stroke-linejoin="round"/>
<path d="M429.083 333.403H477.322" stroke="#DBE2EF" stroke-width="0.6645" stroke-miterlimit="10" stroke-linecap="round" stroke-linejoin="round"/>
<path d="M426.672 341.778H489.416" stroke="#DBE2EF" stroke-width="0.6645" stroke-miterlimit="10" stroke-linecap="round" stroke-linejoin="round"/>
<path d="M340.143 201.536H254.946C248.953 201.536 244.095 196.716 244.095 190.768C244.095 184.82 248.953 180 254.946 180H340.143C346.137 180 350.994 184.82 350.994 190.768C350.994 196.716 346.137 201.536 340.143 201.536Z" fill="#0EA5E9"/>
<path d="M264.737 185.981L266.08 188.681C266.134 188.789 266.238 188.864 266.357 188.881L269.361 189.314C269.662 189.357 269.783 189.726 269.564 189.938L267.391 192.04C267.304 192.124 267.264 192.244 267.285 192.363L267.798 195.331C267.85 195.629 267.534 195.858 267.264 195.717L264.578 194.314C264.471 194.258 264.343 194.258 264.236 194.314L261.549 195.717C261.279 195.858 260.963 195.63 261.015 195.331L261.529 192.363C261.549 192.244 261.51 192.124 261.423 192.04L259.249 189.938C259.031 189.726 259.151 189.359 259.453 189.314L262.456 188.881C262.575 188.864 262.679 188.789 262.733 188.681L264.076 185.981C264.211 185.709 264.602 185.709 264.737 185.981Z" fill="#FFCC00"/>
<path d="M281.306 185.981L282.649 188.681C282.703 188.789 282.805 188.864 282.926 188.881L285.929 189.314C286.231 189.357 286.351 189.726 286.133 189.938L283.959 192.04C283.872 192.124 283.833 192.244 283.853 192.363L284.367 195.331C284.419 195.629 284.103 195.858 283.833 195.717L281.147 194.314C281.039 194.258 280.911 194.258 280.804 194.314L278.118 195.717C277.848 195.858 277.532 195.63 277.584 195.331L278.096 192.363C278.117 192.244 278.077 192.124 277.99 192.04L275.816 189.938C275.598 189.726 275.719 189.359 276.02 189.314L279.023 188.881C279.144 188.864 279.248 188.789 279.301 188.681L280.644 185.981C280.781 185.709 281.171 185.709 281.306 185.981Z" fill="#FFCC00"/>
<path d="M297.876 185.981L299.219 188.681C299.273 188.789 299.377 188.864 299.496 188.881L302.5 189.314C302.801 189.357 302.921 189.726 302.703 189.938L300.53 192.04C300.443 192.124 300.403 192.244 300.423 192.363L300.937 195.331C300.989 195.629 300.673 195.858 300.403 195.717L297.717 194.314C297.61 194.258 297.482 194.258 297.374 194.314L294.688 195.717C294.418 195.858 294.102 195.63 294.154 195.331L294.668 192.363C294.688 192.244 294.649 192.124 294.562 192.04L292.388 189.938C292.17 189.726 292.29 189.359 292.592 189.314L295.595 188.881C295.714 188.864 295.818 188.789 295.872 188.681L297.215 185.981C297.35 185.709 297.741 185.709 297.876 185.981Z" fill="#FFCC00"/>
<path d="M314.445 185.981L315.788 188.681C315.841 188.789 315.944 188.864 316.065 188.881L319.068 189.314C319.37 189.357 319.49 189.726 319.272 189.938L317.098 192.04C317.011 192.124 316.972 192.244 316.992 192.363L317.506 195.331C317.557 195.629 317.242 195.858 316.972 195.717L314.285 194.314C314.178 194.258 314.05 194.258 313.943 194.314L311.257 195.717C310.987 195.858 310.671 195.63 310.723 195.331L311.236 192.363C311.257 192.244 311.217 192.124 311.13 192.04L308.957 189.938C308.738 189.726 308.859 189.359 309.16 189.314L312.164 188.881C312.283 188.864 312.387 188.789 312.441 188.681L313.784 185.981C313.919 185.709 314.31 185.709 314.445 185.981Z" fill="#FFCC00"/>
<path d="M331.014 185.981L332.357 188.681C332.41 188.789 332.514 188.864 332.634 188.881L335.637 189.314C335.939 189.357 336.059 189.726 335.841 189.938L333.668 192.04C333.581 192.124 333.541 192.244 333.561 192.363L334.075 195.331C334.127 195.629 333.811 195.858 333.541 195.717L330.855 194.314C330.747 194.258 330.62 194.258 330.512 194.314L327.826 195.717C327.556 195.858 327.24 195.63 327.292 195.331L327.806 192.363C327.826 192.244 327.786 192.124 327.7 192.04L325.526 189.938C325.308 189.726 325.428 189.359 325.73 189.314L328.733 188.881C328.852 188.864 328.956 188.789 329.01 188.681L330.353 185.981C330.488 185.709 330.879 185.709 331.014 185.981Z" fill="#FFCC00"/>
<path d="M85.4122 520.421L60.1906 734.053C59.9941 737.205 64.2885 737.656 64.6502 734.522L101.014 521.474" fill="white"/>
<path d="M85.2123 522.022L101.243 522.082L84.3225 529.309L85.2123 522.022Z" fill="#011843"/>
<path d="M510.737 520.421L535.959 736.066C536.155 739.219 531.861 739.67 531.499 736.534L495.135 521.473" fill="white"/>
<path d="M495.146 522.022H511.035L496.525 529.752L495.146 522.022Z" fill="#011843"/>
<path d="M414.241 522.021L402.881 733.705C402.864 736.865 407.175 737.027 407.358 733.873L430.13 522.023" fill="white"/>
<path d="M414.241 522.021H430.129L413.885 529.751L414.241 522.021Z" fill="#011843"/>
<path d="M527.051 506.953H59.2515V522.079H527.051V506.953Z" fill="#5C9EFF"/>
<path d="M343.859 506.953H46.7104V522.079H343.859V506.953Z" fill="#1054D7"/>
<path d="M246.105 409.437C246.105 411.64 244.307 413.425 242.087 413.425C239.868 413.425 238.069 411.64 238.069 409.437C238.069 407.234 239.868 405.449 242.087 405.449C244.307 405.449 246.105 407.234 246.105 409.437Z" stroke="#DBE2EF" stroke-width="0.8184" stroke-miterlimit="10"/>
<path d="M356.621 320.898C356.621 323.101 354.822 324.886 352.602 324.886C350.383 324.886 348.584 323.101 348.584 320.898C348.584 318.695 350.383 316.91 352.602 316.91C354.821 316.91 356.621 318.695 356.621 320.898Z" stroke="#DBE2EF" stroke-width="0.8184" stroke-miterlimit="10"/>
<path d="M454.677 404.251C454.677 406.454 452.879 408.239 450.659 408.239C448.439 408.239 446.641 406.454 446.641 404.251C446.641 402.049 448.439 400.264 450.659 400.264C452.879 400.264 454.677 402.049 454.677 404.251Z" stroke="#DBE2EF" stroke-width="0.8184" stroke-miterlimit="10"/>
<path d="M165.329 421.4C167.548 421.4 169.347 419.615 169.347 417.413C169.347 415.21 167.548 413.425 165.329 413.425C163.11 413.425 161.311 415.21 161.311 417.413C161.311 419.615 163.11 421.4 165.329 421.4Z" stroke="#DBE2EF" stroke-width="0.8184" stroke-miterlimit="10"/>
<path d="M201.971 399.531C201.971 401.037 200.74 402.259 199.222 402.259C197.705 402.259 196.474 401.037 196.474 399.531C196.474 398.024 197.705 396.803 199.222 396.803C200.74 396.803 201.971 398.024 201.971 399.531Z" stroke="#DBE2EF" stroke-width="0.8184" stroke-miterlimit="10"/>
<path d="M268.208 375.139C268.208 376.645 266.977 377.867 265.459 377.867C263.941 377.867 262.71 376.645 262.71 375.139C262.71 373.633 263.941 372.411 265.459 372.411C266.977 372.411 268.208 373.633 268.208 375.139Z" stroke="#DBE2EF" stroke-width="0.8184" stroke-miterlimit="10"/>
<path d="M197.479 310.129C197.479 311.636 196.248 312.857 194.73 312.857C193.212 312.857 191.981 311.636 191.981 310.129C191.981 308.623 193.212 307.401 194.73 307.401C196.248 307.403 197.479 308.623 197.479 310.129Z" stroke="#DBE2EF" stroke-width="0.8184" stroke-miterlimit="10"/>
<path d="M418.508 402.256C418.508 403.763 417.277 404.984 415.76 404.984C414.242 404.984 413.011 403.763 413.011 402.256C413.011 400.75 414.242 399.528 415.76 399.528C417.277 399.528 418.508 400.75 418.508 402.256Z" stroke="#DBE2EF" stroke-width="0.8184" stroke-miterlimit="10"/>
<path d="M103.441 442.141C103.441 443.647 102.21 444.869 100.692 444.869C99.1743 444.869 97.9434 443.647 97.9434 442.141C97.9434 440.635 99.1743 439.413 100.692 439.413C102.21 439.413 103.441 440.635 103.441 442.141Z" stroke="#DBE2EF" stroke-width="0.8184" stroke-miterlimit="10"/>
<path d="M212.506 357.033V348.574" stroke="#DBE2EF" stroke-width="0.8184" stroke-miterlimit="10" stroke-linecap="round" stroke-linejoin="round"/>
<path d="M208.244 352.804H216.769" stroke="#DBE2EF" stroke-width="0.8184" stroke-miterlimit="10" stroke-linecap="round" stroke-linejoin="round"/>
<path d="M307.348 286.045V277.585" stroke="#DBE2EF" stroke-width="0.8184" stroke-miterlimit="10" stroke-linecap="round" stroke-linejoin="round"/>
<path d="M303.085 281.816H311.61" stroke="#DBE2EF" stroke-width="0.8184" stroke-miterlimit="10" stroke-linecap="round" stroke-linejoin="round"/>
<path d="M384.508 399.31V390.85" stroke="#DBE2EF" stroke-width="0.8184" stroke-miterlimit="10" stroke-linecap="round" stroke-linejoin="round"/>
<path d="M380.245 395.079H388.77" stroke="#DBE2EF" stroke-width="0.8184" stroke-miterlimit="10" stroke-linecap="round" stroke-linejoin="round"/>
<path d="M110.43 481.464V473.005" stroke="#DBE2EF" stroke-width="0.8184" stroke-miterlimit="10" stroke-linecap="round" stroke-linejoin="round"/>
<path d="M106.168 477.234H114.693" stroke="#DBE2EF" stroke-width="0.8184" stroke-miterlimit="10" stroke-linecap="round" stroke-linejoin="round"/>
<path d="M148.207 546.871V538.411" stroke="#DBE2EF" stroke-width="0.8184" stroke-miterlimit="10" stroke-linecap="round" stroke-linejoin="round"/>
<path d="M143.944 542.643H152.469" stroke="#DBE2EF" stroke-width="0.8184" stroke-miterlimit="10" stroke-linecap="round" stroke-linejoin="round"/>
<path d="M256.39 694.79C255.685 690.318 253.343 684.394 252.338 679.978C252.899 679.631 274.173 671.73 279.459 670.08L285.223 694.185" fill="#FF6258"/>
<path d="M259.119 554.688H250.524C250.524 554.688 262.381 578.937 272.026 607.053C286.769 650.033 290.009 673.041 290.009 673.041L230.805 686.518L192.205 547.988C192.205 547.988 185.453 532.148 195.275 521.792H280.603L259.119 554.688Z" fill="#011843"/>
<path d="M285.667 693.809L293.206 735.817H272.764L269.646 720.765L259.411 735.817H222.504L222.433 733.383C222.322 728.352 225.654 723.844 230.556 722.552C240.196 720.012 252.842 713.52 256.244 694.733" fill="#011843"/>
<path d="M255.676 708.815C254.69 707.702 253.703 706.59 252.716 705.478C255.02 705.046 256.75 704.046 259.055 703.614C257.353 702.707 255.349 701.571 253.647 700.662C255.793 699.846 259.966 697.956 259.966 697.956" stroke="white" stroke-miterlimit="10" stroke-linecap="round" stroke-linejoin="round"/>
<path d="M183.03 687.583C183.03 687.583 192.768 672.3 195.53 668.697C196.158 668.901 215.932 679.997 220.602 682.954L205.698 702.83" fill="#FF6258"/>
<path d="M209.616 698.568L192.74 737.813L175.635 726.702L181.334 712.414L164.464 719.445L133.585 699.384L134.869 697.31C137.552 693.04 142.829 691.08 147.643 692.663C157.111 695.777 171.274 697.219 184.49 683.35" fill="#011843"/>
<path d="M177.768 695.2C176.815 693.515 175.961 691.774 175.211 689.99C177.758 690.371 180.256 690.854 182.805 691.235C181.915 689.182 180.871 686.88 179.981 684.827C182.26 685.753 184.56 686.463 186.839 687.389" stroke="white" stroke-miterlimit="10" stroke-linecap="round" stroke-linejoin="round"/>
<path d="M330.807 559.997H350.478C364.456 559.997 378.768 553.278 379.928 539.454C380.732 529.882 375.786 521.792 375.786 521.792H278.147C278.147 521.792 243.372 552.961 215.964 589.107C181.092 635.093 169.84 656.656 169.84 656.656L227.677 691.172L314.583 568.365C318.297 563.12 324.35 559.997 330.807 559.997Z" fill="#00BAD0"/>
<path d="M222.598 686.906C252.653 646.937 281.607 603.525 311.183 562.553C314.93 557.363 321.311 554.692 327.741 554.519L365.628 553.497" stroke="#011843" stroke-width="0.886" stroke-miterlimit="10" stroke-linecap="round" stroke-linejoin="round"/>
<path d="M182.152 643.663L237.254 676.821" stroke="#011843" stroke-width="0.886" stroke-miterlimit="10" stroke-linecap="round" stroke-linejoin="round"/>
<path d="M272.284 539.507C275.192 536.413 278.1 533.321 281.008 530.227" stroke="#011843" stroke-width="0.886" stroke-miterlimit="10" stroke-linecap="round" stroke-linejoin="round"/>
<path d="M279.894 535.881C278.069 539.313 276.575 542.918 275.437 546.631" stroke="#011843" stroke-width="0.886" stroke-miterlimit="10" stroke-linecap="round" stroke-linejoin="round"/>
<path d="M180.306 653.649C185.553 646.286 190.799 638.924 196.045 631.562" stroke="#011843" stroke-width="0.886" stroke-miterlimit="10" stroke-linecap="round" stroke-linejoin="round"/>
<path d="M381.822 433.08C381.48 424.299 379.885 417.836 372.842 411.034C370.184 408.468 366.926 405.588 363.43 403.848C358.342 401.316 351.723 400.316 346.871 398.031L339.691 389.305L326.002 390.564L316.489 388.675C310.296 400.536 289.449 401.1 279.161 411.034C272.118 417.837 270.522 424.3 270.181 433.08C269.287 456.011 272.427 506.959 272.427 506.959H319.341H332.664H376.182C376.179 506.958 382.716 456.011 381.822 433.08Z" fill="#F4F4F4"/>
<g opacity="0.44">
<mask id="mask0_27998_421" style="mask-type:luminance" maskUnits="userSpaceOnUse" x="270" y="388" width="138" height="119">
<path d="M407.388 483.486C403.802 469.467 399.312 455.296 394.131 442.813C390.201 433.349 385.723 423.963 379.122 416.098C372.753 408.508 364.172 402.397 354.438 400.466C351.756 399.677 349.121 398.895 346.87 397.834L339.69 389.108L326.001 390.367L316.488 388.478C310.296 400.339 289.448 400.901 279.16 410.837C272.116 417.64 270.521 424.103 270.18 432.883C269.286 455.814 272.426 506.762 272.426 506.762H319.34H332.663H376.181C376.181 506.762 376.31 505.759 376.529 503.974C380.936 504.295 385.244 504.606 389.259 504.896C401.071 505.751 410.302 494.881 407.388 483.486Z" fill="white"/>
</mask>
<g mask="url(#mask0_27998_421)">
<path d="M379.306 521.307V388.674" stroke="#B0BFD6" stroke-width="0.9724" stroke-miterlimit="10" stroke-linecap="round" stroke-linejoin="round"/>
<path d="M357.108 518.204V388.674" stroke="#B0BFD6" stroke-width="0.9724" stroke-miterlimit="10" stroke-linecap="round" stroke-linejoin="round"/>
<path d="M334.912 521.695V388.674" stroke="#B0BFD6" stroke-width="0.9724" stroke-miterlimit="10" stroke-linecap="round" stroke-linejoin="round"/>
<path d="M312.637 513.938L312.794 388.674" stroke="#B0BFD6" stroke-width="0.9724" stroke-miterlimit="10" stroke-linecap="round" stroke-linejoin="round"/>
<path d="M290.519 522.894V388.674" stroke="#B0BFD6" stroke-width="0.9724" stroke-miterlimit="10" stroke-linecap="round" stroke-linejoin="round"/>
<path d="M254.253 418.147H401.581" stroke="#B0BFD6" stroke-width="0.9724" stroke-miterlimit="10" stroke-linecap="round" stroke-linejoin="round"/>
<path d="M254.253 437.926H401.581" stroke="#B0BFD6" stroke-width="0.9724" stroke-miterlimit="10" stroke-linecap="round" stroke-linejoin="round"/>
<path d="M254.253 458.48H401.581" stroke="#B0BFD6" stroke-width="0.9724" stroke-miterlimit="10" stroke-linecap="round" stroke-linejoin="round"/>
<path d="M254.253 479.034L401.581 480.198" stroke="#B0BFD6" stroke-width="0.9724" stroke-miterlimit="10" stroke-linecap="round" stroke-linejoin="round"/>
<path d="M254.253 499.589H401.581" stroke="#B0BFD6" stroke-width="0.9724" stroke-miterlimit="10" stroke-linecap="round" stroke-linejoin="round"/>
</g>
</g>
<path d="M284.987 462.288C285.932 473.988 287.678 488.023 289.533 499.615" stroke="#011843" stroke-width="0.886" stroke-miterlimit="10" stroke-linecap="round" stroke-linejoin="round"/>
<path d="M321.279 401.622L326.297 410.241" stroke="#011843" stroke-width="0.886" stroke-miterlimit="10" stroke-linecap="round" stroke-linejoin="round"/>
<path d="M321.224 401.665L314.972 408.985L309.305 397.545" stroke="#011843" stroke-width="0.886" stroke-miterlimit="10" stroke-linecap="round" stroke-linejoin="round"/>
<path d="M326.362 410.118L345.356 398.709" stroke="#011843" stroke-width="0.886" stroke-miterlimit="10" stroke-linecap="round" stroke-linejoin="round"/>
<path d="M321.314 402.202C321.456 413.403 313.334 424.335 310.737 435.237C308.822 443.275 309.748 451.679 310.75 459.878C311.52 466.185 312.33 472.485 313.179 478.782" stroke="#011843" stroke-width="0.886" stroke-miterlimit="10" stroke-linecap="round" stroke-linejoin="round"/>
<path d="M291.073 403.973C290.139 407.408 289.592 410.947 289.444 414.501" stroke="#011843" stroke-width="0.886" stroke-miterlimit="10" stroke-linecap="round" stroke-linejoin="round"/>
<path d="M266.035 445.974C266.559 437.561 267.066 431.625 270.218 423.797C273.369 415.969 282.435 406.237 289.909 404.056C283.607 419.617 280.024 472.527 287.527 506.161H269.209" fill="#F4F4F4"/>
<path d="M305.837 491.688C307.986 493.578 309.965 494.79 312.284 496.196C314.413 497.486 320.1 498.654 322.593 498.717H326.255L323.862 481.653C324.015 481.653 323.717 481.701 323.862 481.653L321.964 481.608C315.179 480.386 308.054 478.498 301.355 476.866C293.888 480.073 288.253 483.96 282.35 489.121C281.064 490.246 281.289 492.287 282.78 493.125C282.865 493.173 282.953 493.219 283.044 493.266C283.044 493.266 282.72 493.96 283.23 494.813C283.926 495.976 285.211 495.942 286.308 496.049C287.304 496.146 289.642 494.74 289.642 494.74C289.642 494.74 290.675 496.124 291.393 496.056C294.428 495.763 297.285 494.958 300.339 493.868C301.915 493.309 305.837 491.688 305.837 491.688Z" fill="#FF6258"/>
<path d="M282.613 493.057C287.456 489.804 292.202 486.408 296.841 482.875" stroke="#011843" stroke-width="0.886" stroke-miterlimit="10" stroke-linecap="round" stroke-linejoin="round"/>
<path d="M291.292 495.723C290.192 495.45 289.785 494.853 289.684 494.215C289.538 493.293 290.046 492.39 290.829 491.873C295.214 488.979 299.483 485.889 303.471 482.479" stroke="#011843" stroke-width="0.886" stroke-miterlimit="10" stroke-linecap="round" stroke-linejoin="round"/>
<path d="M320.546 494.139C317.354 493.824 314.264 492.59 311.724 490.648C310.604 489.792 309.077 489.66 307.823 490.306C304.787 491.872 301.744 493.28 298.602 494.669C297.537 495.139 296.211 494.561 296.013 493.421C295.995 493.318 295.987 493.218 295.988 493.121C295.998 492.405 309.713 482.431 309.713 482.431" stroke="#011843" stroke-width="0.886" stroke-miterlimit="10" stroke-linecap="round" stroke-linejoin="round"/>
<path d="M353.375 400.454C363.549 402.135 372.52 408.427 379.121 416.291C385.722 424.157 390.201 433.542 394.13 443.007C399.311 455.49 403.801 469.661 407.387 483.68C410.301 495.074 400.714 506.243 388.88 506.763C364.08 507.853 327.545 507.127 327.545 506.957L322.663 466.271L342.556 467.467L358.008 469.437C358.008 469.437 345.112 436.569 346.578 416.209C346.833 412.635 353.375 400.454 353.375 400.454Z" fill="#F4F4F4"/>
<path d="M358.545 469.46C358.545 469.46 344.974 437.216 347.31 416.935C348.483 406.754 353.66 401.81 353.66 401.81" stroke="#011843" stroke-width="0.886" stroke-miterlimit="10" stroke-linecap="round" stroke-linejoin="round"/>
<path d="M369.487 469.678L322.662 466.271L327.142 506.877" stroke="#011843" stroke-width="0.886" stroke-miterlimit="10" stroke-linecap="round" stroke-linejoin="round"/>
<path d="M341.952 467.667L343.859 506.957" stroke="#011843" stroke-width="0.886" stroke-miterlimit="10" stroke-linecap="round" stroke-linejoin="round"/>
<path d="M347.615 428.163C346.814 419.192 350.577 409.935 357.424 404.025" stroke="#011843" stroke-width="0.886" stroke-miterlimit="10" stroke-linecap="round" stroke-linejoin="round"/>
<path d="M358.223 468.856C361.052 467.087 363.882 465.318 366.71 463.549" stroke="#011843" stroke-width="0.886" stroke-miterlimit="10" stroke-linecap="round" stroke-linejoin="round"/>
<path d="M392.601 503.603C397.789 501.969 402.118 497.848 403.981 492.771" stroke="#011843" stroke-width="0.886" stroke-miterlimit="10" stroke-linecap="round" stroke-linejoin="round"/>
<path d="M340.275 390.32L314.629 392.162L314.734 365.015H339.83L340.275 390.32Z" fill="#F74343"/>
<path d="M340.275 390.321L321.224 401.664L314.629 392.163C314.629 392.163 320.29 380.335 327.272 380.335C334.254 380.335 340.275 390.321 340.275 390.321Z" fill="#F74343"/>
<path d="M338.358 371.018L314.636 390.151V381.257" fill="#011843"/>
<path d="M320.174 333.068C317.518 341.179 310.124 347.257 302.442 351.078C303.956 342.472 309.721 333.844 320.174 333.068Z" fill="#011843"/>
<path d="M341.789 357.647C341.668 364.079 340.473 370.927 335.414 375.404C332.932 377.601 329.904 379.123 326.764 380.211C322.083 381.832 315.99 383.223 311.115 381.888C305.489 380.346 302.937 375.042 301.969 369.731C301.267 365.886 301.237 361.925 301.441 358.033C302.135 344.772 309.033 333.601 320.687 333.601C336.904 333.602 342.04 344.369 341.789 357.647Z" fill="#FF6258"/>
<path d="M347.625 361.16C347.397 365.215 344.225 368.335 340.538 368.131C336.853 367.927 334.05 364.475 334.277 360.422C334.505 356.367 337.677 353.246 341.363 353.45C345.048 353.653 347.853 357.105 347.625 361.16Z" fill="#FF6258"/>
<path d="M305.641 359.636C305.641 361.403 304.198 362.835 302.417 362.835C302.105 362.835 301.803 362.791 301.518 362.709C301.466 362.695 301.333 362.642 301.333 362.642C301.333 362.642 301.257 360.939 301.34 359.268C301.413 357.792 301.548 356.558 301.548 356.558C301.548 356.558 301.727 356.509 301.805 356.495C302.004 356.457 302.209 356.438 302.418 356.438C304.198 356.435 305.641 357.868 305.641 359.636Z" fill="#E52929"/>
<path d="M330.163 359.635C330.163 361.402 328.72 362.834 326.939 362.834C325.159 362.834 323.716 361.402 323.716 359.635C323.716 357.868 325.159 356.436 326.939 356.436C328.72 356.434 330.163 357.868 330.163 359.635Z" fill="#E52929"/>
<path d="M315.411 353.381C313.652 355.902 311.424 358.812 311.669 360.315C311.914 361.821 313.485 362.984 315.008 362.787" stroke="#011843" stroke-width="0.9724" stroke-miterlimit="10" stroke-linecap="round" stroke-linejoin="round"/>
<path d="M310.136 356.289C310.136 356.825 309.698 357.259 309.159 357.259C308.619 357.259 308.183 356.824 308.183 356.289C308.183 355.753 308.62 355.32 309.159 355.32C309.698 355.32 310.136 355.753 310.136 356.289Z" fill="#011843"/>
<path d="M321.664 356.289C321.664 356.825 321.226 357.259 320.687 357.259C320.147 357.259 319.71 356.824 319.71 356.289C319.71 355.753 320.148 355.32 320.687 355.32C321.226 355.32 321.664 355.753 321.664 356.289Z" fill="#011843"/>
<path d="M310.052 367.41C311.953 369.121 314.864 369.632 317.241 368.672" stroke="#011843" stroke-width="0.9724" stroke-miterlimit="10" stroke-linecap="round" stroke-linejoin="round"/>
<path d="M355.755 380.996C350.412 384.058 343.578 382.24 340.493 376.938C337.408 371.635 344.583 363.906 344.583 361.792C344.583 359.053 356.759 360.548 359.845 365.85C362.93 371.153 361.098 377.934 355.755 380.996Z" fill="#011843"/>
<path d="M348.769 363.262C348.466 357.21 347.474 351.087 344.768 345.656C342.063 340.225 337.471 335.522 331.662 333.658C327.428 332.299 322.812 332.507 318.475 333.495C322.656 336.462 326.453 339.966 329.913 343.738C335.976 350.344 340.724 359.249 348.769 363.262Z" fill="#011843"/>
<path d="M341.887 354.107C330.872 353.586 318.766 344.752 315.289 334.364C322.47 331.418 329.736 333.126 334.925 337.862C339.176 341.745 341.594 345.526 341.887 354.107Z" fill="#011843"/>
<path d="M317.382 338.29C314.047 342.551 309.372 346.969 304.894 350.03C303.62 350.901 301.817 351.696 300.649 350.689C299.934 350.073 299.812 349.022 299.86 348.084C299.965 346.031 301.319 343.368 302.256 341.534C303.442 339.209 305.09 337.066 307.275 335.62C308.657 334.706 310.223 334.089 311.83 333.672C314.381 333.008 317.188 332.856 319.577 333.964" fill="#011843"/>
<path d="M340.747 375.539C341.651 380.325 345.522 384.24 349.488 384.663C353.491 385.09 357.531 382.766 359.568 379.319C361.604 375.871 361.752 371.505 360.425 367.732" stroke="#011843" stroke-width="0.886" stroke-miterlimit="10" stroke-linecap="round" stroke-linejoin="round"/>
<path d="M316.414 337.651C315.775 347.681 327.45 352.764 336.017 350.487" stroke="#011843" stroke-width="0.886" stroke-miterlimit="10" stroke-linecap="round" stroke-linejoin="round"/>
<path d="M301.197 350.208C299.956 349.172 299.575 347.419 299.637 345.81C299.929 338.313 309.367 329.502 316.836 335.116" stroke="#011843" stroke-width="0.886" stroke-miterlimit="10" stroke-linecap="round" stroke-linejoin="round"/>
<path d="M322.641 370.251H327.135C332.497 369.295 340.016 366.028 343.522 361.892" stroke="#011843" stroke-width="0.886" stroke-miterlimit="10" stroke-linecap="round" stroke-linejoin="round"/>
<path d="M326.256 371.608H322.935C322.128 371.608 321.47 370.953 321.47 370.154C321.47 369.354 322.129 368.699 322.935 368.699H326.256C327.062 368.699 327.721 369.354 327.721 370.154C327.721 370.953 327.062 371.608 326.256 371.608Z" fill="#F4F4F4"/>
<path d="M344.965 359.053C344.965 361.944 343.807 364.974 341.705 366.033C341.705 366.033 339.913 366.033 339.103 366.033C335.866 366.033 333.241 362.908 333.241 359.053C333.241 355.198 335.866 352.071 339.103 352.071H341.411C343.693 353.027 344.965 356.01 344.965 359.053Z" fill="#9AAECC"/>
<path d="M337.055 356.452C337.758 351.039 336.291 345.378 333.042 340.975C330.385 337.371 326.351 334.321 322.07 332.824C321.926 332.774 321.64 332.68 321.64 332.68L321.638 332.074L325.962 332.147C331.349 332.147 337.692 339.432 339.362 344.515C341.031 349.597 341.286 355.01 341.726 360.338" fill="#9AAECC"/>
<path d="M347.115 359.053C347.115 362.908 344.49 366.033 341.253 366.033C338.016 366.033 335.391 362.908 335.391 359.053C335.391 355.198 338.016 352.071 341.253 352.071C344.49 352.072 347.115 355.198 347.115 359.053Z" fill="#F4F4F4"/>
<path d="M338.717 356.452C339.42 351.039 337.952 345.378 334.703 340.975C331.455 336.57 327.05 333.046 321.638 332.074H327.624C328.588 332.096 332.239 333.392 334.395 335.21C337.454 337.792 340.043 341.532 341.023 344.514C342.693 349.596 342.947 355.009 343.387 360.337" fill="#F4F4F4"/>
<path d="M343.548 359.099C343.548 360.545 342.63 361.717 341.496 361.717C340.363 361.717 339.444 360.545 339.444 359.099C339.444 357.654 340.363 356.481 341.496 356.481C342.63 356.481 343.548 357.653 343.548 359.099Z" stroke="#011843" stroke-width="0.886" stroke-miterlimit="10" stroke-linecap="round" stroke-linejoin="round"/>
<path d="M263.409 506.956H326.631L325.847 500.268H263.409V506.956Z" fill="#213E66"/>
<path d="M275.133 506.956L240.569 440.521C238.996 437.498 235.854 435.598 232.425 435.598H144.922C141.09 435.598 138.593 439.591 140.296 442.998L169.187 500.838C171.39 504.623 175.46 506.955 179.865 506.955H275.133V506.956Z" fill="#213E66"/>
<path d="M267.709 506.956L233.145 440.521C231.571 437.498 228.43 435.598 225.001 435.598H137.497C133.666 435.598 131.169 439.591 132.87 442.998L161.761 500.838C163.964 504.623 168.034 506.955 172.439 506.955H267.709V506.956Z" fill="#011843"/>
<path d="M233.469 451.804L229.83 444.807C228.256 441.784 225.114 439.885 221.686 439.885H196.675" stroke="#DBE2EF" stroke-width="0.6645" stroke-miterlimit="10" stroke-linecap="round" stroke-linejoin="round"/>
<path d="M195.587 476.318C198.708 478.334 202.504 478.036 204.069 475.653C205.634 473.269 204.372 469.702 201.253 467.686C198.133 465.669 194.336 465.967 192.771 468.351C191.207 470.735 192.469 474.302 195.587 476.318Z" stroke="#DBE2EF" stroke-width="0.8184" stroke-miterlimit="10"/>
<path d="M485.125 244.751H437.846C434.839 244.751 432.569 242.045 433.114 239.11L434.964 229.139L436.967 218.35C437.388 216.084 439.378 214.44 441.699 214.44H488.979C491.985 214.44 494.256 217.147 493.711 220.082L491.984 229.383L489.857 240.84C489.438 243.106 487.447 244.751 485.125 244.751Z" fill="#0EA5E9"/>
<path d="M437.693 214.441L461.002 231.59L494.759 214.441" fill="#0EA5E9"/>
<path d="M437.693 214.441L461.002 231.59L494.759 214.441" stroke="#DBE2EF" stroke-width="0.6645" stroke-miterlimit="10"/>
<path d="M439.3 241.76H465.248" stroke="#DBE2EF" stroke-width="0.6645" stroke-miterlimit="10" stroke-linecap="round" stroke-linejoin="round"/>
<path d="M468.838 241.76C469.039 241.76 469.239 241.76 469.44 241.76H473.107" fill="#0EA5E9"/>
<path d="M468.838 241.76C469.039 241.76 469.239 241.76 469.44 241.76H473.107" stroke="#DBE2EF" stroke-width="0.6645" stroke-miterlimit="10" stroke-linecap="round" stroke-linejoin="round"/>
</svg>
