<svg width="340" height="390" viewBox="0 0 340 390" fill="none" xmlns="http://www.w3.org/2000/svg">
<g clip-path="url(#clip0_27976_1551)">
<rect width="340" height="390" rx="20" fill="white"/>
<path d="M60.3839 295.357C66.5806 291.031 68.6656 285.702 69.371 278.178C70.0759 270.654 67.3198 262.875 62.0347 257.473C57.6289 252.97 51.5653 250.012 48.2841 244.634C44.7871 238.902 44.9076 231.089 40.051 226.453C36.7144 223.267 31.8356 222.415 27.7833 220.211C24.4759 218.413 21.7522 215.729 18.7259 213.49C15.6989 211.25 12.1082 209.392 8.35405 209.674C2.69146 210.099 -1.71558 215.66 -1.98405 221.332C-2.2531 227.004 0.91265 232.429 5.242 236.105C8.38204 238.77 12.2481 240.811 14.3057 244.379C18.1701 251.081 14.1326 260.393 18.2814 266.922C21.3112 271.69 28.1791 273.973 29.1325 279.541C29.4832 281.589 28.904 283.677 28.92 285.754C28.9691 292.251 35.043 297.486 41.4379 298.638C47.8323 299.791 54.358 297.787 60.3839 295.357Z" fill="#F5F5F5"/>
<path d="M20.624 232.507C20.6063 232.527 20.8416 232.788 21.3055 233.267C21.831 233.796 22.513 234.481 23.3607 235.334C24.2701 236.213 25.364 237.304 26.5562 238.649C27.7586 239.982 29.197 241.436 30.6051 243.205C31.3294 244.074 32.0863 244.982 32.8746 245.927C33.6589 246.878 34.3963 247.929 35.204 248.981C36.8492 251.067 38.3966 253.446 40.0738 255.914C43.2869 260.941 46.5155 266.666 49.3688 272.936C52.1644 279.235 54.3025 285.451 55.9282 291.193C56.66 294.087 57.4117 296.824 57.879 299.439C58.1298 300.742 58.4262 301.992 58.6159 303.209C58.7998 304.426 58.9763 305.595 59.1454 306.714C59.5333 308.941 59.6658 310.982 59.864 312.766C60.0776 314.55 60.1673 316.093 60.221 317.356C60.2953 318.555 60.3553 319.52 60.401 320.264C60.4507 320.929 60.4901 321.279 60.5169 321.278C60.5438 321.278 60.5569 320.928 60.5575 320.262C60.5483 319.515 60.5369 318.547 60.5226 317.343C60.5152 316.075 60.4695 314.524 60.2964 312.73C60.1388 310.936 60.0439 308.882 59.6892 306.64C59.535 305.514 59.3745 304.336 59.2071 303.111C59.0317 301.885 58.7495 300.626 58.5108 299.314C58.0681 296.679 57.3363 293.921 56.6188 291.006C55.0223 285.22 52.891 278.956 50.0777 272.618C47.2073 266.308 43.9387 260.557 40.6736 255.522C38.9707 253.05 37.3941 250.672 35.7181 248.592C34.895 247.542 34.1415 246.495 33.3413 245.549C32.5364 244.611 31.7629 243.709 31.0226 242.846C29.5814 241.092 28.1088 239.657 26.8715 238.348C25.6451 237.027 24.5158 235.963 23.5721 235.115C22.6815 234.305 21.9652 233.654 21.4128 233.151C20.9125 232.71 20.6423 232.487 20.624 232.507Z" fill="#E0E0E0"/>
<path d="M338.19 184.218C338.19 184.218 332.741 180.614 326.098 193.649C319.455 206.683 316.938 214.2 316.938 214.2C316.938 214.2 315.182 216.931 313.306 215.146C311.43 213.361 308.861 208.297 305.672 209.209C302.366 210.154 301.276 213.845 301.907 219.268C302.537 224.691 303.483 236.624 303.565 237.703C303.645 238.763 303.038 240.324 301.565 239.313C300.092 238.302 291.619 228.865 287.383 233.154C283.147 237.443 287.385 252.262 287.817 253.892C288.25 255.521 287.931 256.216 287.157 256.619C286.383 257.022 283.834 253.582 281.315 250.998C278.795 248.413 275.42 245.857 273.183 248.536C270.946 251.215 270.23 262.335 280.813 280.397L286.264 288.445L296.013 287.904C316.805 285.475 325.251 278.206 326.042 274.808C326.834 271.408 322.761 270.253 319.18 269.799C315.599 269.344 311.318 269.38 311.174 268.52C311.029 267.66 311.393 266.986 312.954 266.351C314.514 265.715 328.899 260.174 329.771 254.209C330.643 248.244 318.008 247.163 316.313 246.596C314.619 246.03 315.5 244.605 316.394 244.031C317.304 243.446 327.4 237.015 332.109 234.252C336.819 231.49 339.109 228.398 337.873 225.188C336.68 222.093 331.09 223.091 328.535 222.669C325.981 222.247 327.103 219.2 327.103 219.2C327.103 219.2 331.588 212.664 337.994 199.511C344.399 186.358 338.075 184.154 338.075 184.154" fill="#EBEBEB"/>
<path d="M332.22 195.881C332.22 195.881 332.184 195.979 332.1 196.163C332.009 196.358 331.882 196.629 331.719 196.978C331.373 197.704 330.871 198.754 330.228 200.101C328.931 202.81 327.025 206.718 324.652 211.538C319.91 221.179 313.248 234.442 305.843 249.066C298.436 263.695 291.744 276.943 286.953 286.559C284.567 291.361 282.634 295.251 281.292 297.952C280.627 299.288 280.109 300.329 279.751 301.049C279.576 301.393 279.44 301.659 279.343 301.851C279.25 302.031 279.195 302.119 279.195 302.119C279.195 302.119 279.231 302.022 279.316 301.837C279.407 301.643 279.533 301.371 279.697 301.022C280.043 300.296 280.545 299.247 281.187 297.9C282.484 295.191 284.39 291.283 286.762 286.464C291.504 276.822 298.167 263.558 305.575 248.929C312.98 234.305 319.671 221.058 324.462 211.442C326.848 206.639 328.781 202.749 330.123 200.047C330.788 198.711 331.307 197.67 331.665 196.95C331.84 196.606 331.976 196.34 332.073 196.148C332.165 195.969 332.22 195.881 332.22 195.881Z" fill="#E0E0E0"/>
<path d="M308.981 216.438C309.001 216.432 309.087 216.667 309.226 217.097C309.367 217.526 309.552 218.153 309.774 218.93C310.214 220.484 310.767 222.646 311.335 225.043C311.886 227.408 312.385 229.547 312.766 231.183C312.942 231.92 313.091 232.541 313.211 233.04C313.317 233.479 313.368 233.724 313.348 233.73C313.328 233.736 313.24 233.501 313.097 233.072C312.958 232.642 312.772 232.015 312.559 231.236C312.134 229.677 311.609 227.509 311.042 225.112C310.474 222.752 309.96 220.617 309.568 218.984C309.388 218.248 309.235 217.627 309.113 217.128C309.009 216.69 308.961 216.444 308.981 216.438Z" fill="#E0E0E0"/>
<path d="M314.24 233.903C314.217 233.823 318.625 232.486 324.082 230.917C329.542 229.347 333.985 228.14 334.008 228.221C334.031 228.301 329.625 229.638 324.165 231.207C318.708 232.776 314.264 233.983 314.24 233.903Z" fill="#E0E0E0"/>
<path d="M301.854 255.852C301.855 255.831 302.11 255.82 302.571 255.819C303.094 255.82 303.747 255.823 304.522 255.825C306.168 255.829 308.443 255.824 310.951 255.727C313.461 255.635 315.73 255.472 317.372 255.342C318.144 255.282 318.795 255.23 319.316 255.189C319.776 255.155 320.031 255.147 320.033 255.167C320.036 255.188 319.785 255.236 319.329 255.306C318.873 255.375 318.211 255.464 317.392 255.555C315.753 255.74 313.48 255.936 310.963 256.028C308.447 256.126 306.166 256.097 304.518 256.039C303.693 256.006 303.027 255.973 302.567 255.936C302.107 255.901 301.853 255.872 301.854 255.852Z" fill="#E0E0E0"/>
<path d="M293.621 241.101C293.64 241.091 293.774 241.285 294.002 241.645C294.258 242.064 294.572 242.578 294.942 243.184C295.725 244.49 296.788 246.305 297.946 248.319C299.104 250.333 300.138 252.165 300.874 253.499C301.212 254.124 301.499 254.654 301.732 255.086C301.928 255.464 302.029 255.678 302.01 255.688C301.992 255.699 301.858 255.504 301.63 255.145C301.374 254.726 301.06 254.212 300.69 253.606C299.907 252.299 298.843 250.484 297.685 248.47C296.527 246.457 295.493 244.625 294.757 243.292C294.42 242.666 294.133 242.136 293.9 241.705C293.703 241.325 293.603 241.112 293.621 241.101Z" fill="#E0E0E0"/>
<path d="M280.225 259.089C280.242 259.078 280.412 259.329 280.704 259.79C281.02 260.303 281.428 260.964 281.917 261.758C282.93 263.427 284.311 265.742 285.819 268.308C287.328 270.876 288.68 273.208 289.646 274.905C290.102 275.718 290.482 276.396 290.776 276.921C291.037 277.401 291.173 277.671 291.154 277.682C291.137 277.692 290.967 277.442 290.675 276.981C290.359 276.468 289.951 275.807 289.462 275.013C288.45 273.344 287.068 271.029 285.559 268.461C284.05 265.895 282.699 263.562 281.733 261.866C281.277 261.053 280.897 260.375 280.603 259.85C280.342 259.37 280.206 259.099 280.225 259.089Z" fill="#E0E0E0"/>
<path d="M291.018 277.163C291.018 277.142 291.341 277.12 291.925 277.098C292.563 277.077 293.396 277.05 294.399 277.017C296.487 276.947 299.371 276.839 302.551 276.63C305.732 276.425 308.606 276.164 310.686 275.96C311.685 275.863 312.514 275.782 313.149 275.721C313.731 275.667 314.054 275.647 314.056 275.667C314.059 275.688 313.741 275.748 313.163 275.837C312.585 275.928 311.747 276.045 310.709 276.172C308.634 276.43 305.757 276.726 302.57 276.931C299.385 277.14 296.495 277.215 294.403 277.231C293.357 277.236 292.51 277.231 291.926 277.215C291.341 277.201 291.018 277.183 291.018 277.163Z" fill="#E0E0E0"/>
<path d="M220.747 118.635H259.965C261.672 118.635 263.056 120.019 263.056 121.726V147.713C263.056 149.42 261.672 150.804 259.965 150.804H239.312L229.496 160.621V150.804H220.747C219.482 150.804 218.455 149.778 218.455 148.512V120.927C218.455 119.661 219.482 118.635 220.747 118.635Z" fill="#E0E0E0"/>
<path d="M233.76 135.264C233.76 136.539 232.727 137.572 231.452 137.572C230.178 137.572 229.145 136.539 229.145 135.264C229.145 133.99 230.178 132.957 231.452 132.957C232.727 132.957 233.76 133.99 233.76 135.264Z" fill="#FAFAFA"/>
<path d="M242.887 135.264C242.887 136.539 241.854 137.572 240.579 137.572C239.305 137.572 238.271 136.539 238.271 135.264C238.271 133.99 239.305 132.957 240.579 132.957C241.854 132.957 242.887 133.99 242.887 135.264Z" fill="#FAFAFA"/>
<path d="M252.014 135.264C252.014 136.539 250.98 137.572 249.706 137.572C248.432 137.572 247.398 136.539 247.398 135.264C247.398 133.99 248.432 132.957 249.706 132.957C250.98 132.957 252.014 133.99 252.014 135.264Z" fill="#FAFAFA"/>
<path d="M284.479 314.834C274.667 305.294 274.495 290.526 277.037 277.69C277.461 275.547 277.595 273.238 278.927 271.514C280.261 269.791 282.863 268.889 284.644 270.111C286.121 271.125 286.515 273.1 287.159 274.785C288.016 277.027 289.515 279.011 291.426 280.434C292.681 281.37 294.308 282.082 295.784 281.556C297.81 280.833 298.447 278.301 298.783 276.156C299.409 272.158 300.036 268.16 300.661 264.163C300.997 262.018 301.347 259.829 302.345 257.904C303.343 255.979 305.123 254.33 307.255 254.09C309.387 253.852 311.715 255.438 311.805 257.606C311.842 258.508 311.516 259.385 311.43 260.284C311.345 261.183 311.599 262.234 312.403 262.62C313.218 263.011 314.174 262.543 314.917 262.02C317.481 260.217 319.436 257.674 321.29 255.131C323.145 252.588 324.969 249.972 327.36 247.939C329.751 245.906 332.832 244.489 335.929 244.815C339.026 245.142 341.987 247.569 342.272 250.708C342.557 253.855 340.295 256.633 337.979 258.766C334.542 261.93 330.653 264.59 326.473 266.636C325.72 267.005 324.903 267.403 324.516 268.155C323.817 269.508 324.939 271.147 326.274 271.847C327.784 272.639 329.545 272.756 331.183 273.225C332.822 273.694 334.511 274.726 334.886 276.408C335.407 278.741 333.201 280.738 331.154 281.948C327.054 284.371 322.545 286.078 317.886 286.972C316.216 287.292 314.475 287.527 313.024 288.428C311.572 289.328 310.491 291.129 311.013 292.763C311.535 294.4 313.427 295.204 315.129 295.166C316.829 295.129 318.453 294.474 320.123 294.136C323.249 293.505 327.019 294.328 328.491 297.18C329.458 299.055 329.187 301.402 328.235 303.294C327.284 305.186 325.732 306.696 324.124 308.06C318.502 312.828 311.733 316.301 304.516 317.557C297.297 318.813 290.863 318.423 284.479 314.834Z" fill="#0EA5E9"/>
<path d="M282.75 324.375C284.051 319.338 286.157 313.482 289.13 307.285C292.091 301.081 295.901 294.55 300.12 287.856C301.181 286.186 302.23 284.536 303.263 282.91C304.298 281.29 305.324 279.682 306.425 278.173C308.615 275.142 310.951 272.396 313.25 269.858C315.549 267.319 317.823 264.993 319.964 262.833C322.112 260.678 324.151 258.706 326.087 256.988C329.949 253.537 333.386 251.128 335.813 249.57C337.026 248.787 337.986 248.211 338.643 247.828C338.959 247.648 339.206 247.506 339.392 247.399C339.562 247.305 339.65 247.259 339.654 247.265C339.658 247.271 339.576 247.328 339.413 247.434C339.232 247.55 338.99 247.703 338.684 247.898C338.042 248.303 337.095 248.9 335.897 249.702C333.499 251.298 330.099 253.734 326.273 257.202C324.355 258.928 322.331 260.907 320.198 263.07C318.068 265.238 315.806 267.57 313.52 270.109C311.235 272.648 308.914 275.389 306.741 278.406C305.648 279.909 304.632 281.504 303.596 283.129C302.563 284.754 301.516 286.404 300.456 288.072C296.24 294.762 292.43 301.272 289.459 307.448C286.478 313.617 284.354 319.439 283.023 324.449" fill="#263238"/>
<path d="M306.54 278.175C306.513 278.175 306.493 277.838 306.48 277.227C306.464 276.616 306.469 275.733 306.493 274.641C306.537 272.458 306.703 269.446 306.896 266.125C307.09 262.803 307.212 259.796 307.223 257.619C307.232 256.53 307.23 255.649 307.221 255.04C307.216 254.43 307.226 254.092 307.253 254.09C307.281 254.088 307.323 254.423 307.377 255.032C307.434 255.64 307.479 256.523 307.505 257.615C307.567 259.8 307.49 262.821 307.295 266.146C307.095 269.422 306.914 272.386 306.776 274.65C306.72 275.674 306.673 276.536 306.636 277.229C306.6 277.838 306.568 278.176 306.54 278.175Z" fill="#263238"/>
<path d="M334.93 277.516C334.926 277.543 334.526 277.525 333.81 277.469C333.093 277.417 332.055 277.335 330.771 277.276C328.203 277.137 324.649 277.07 320.726 277.166C316.801 277.27 313.253 277.515 310.692 277.767C309.409 277.884 308.375 278.006 307.659 278.087C306.943 278.17 306.546 278.203 306.541 278.175C306.537 278.147 306.927 278.062 307.638 277.931C308.349 277.803 309.381 277.637 310.663 277.483C313.224 277.158 316.781 276.866 320.717 276.762C324.653 276.665 328.219 276.778 330.79 276.991C332.076 277.087 333.113 277.212 333.827 277.313C334.54 277.418 334.933 277.488 334.93 277.516Z" fill="#263238"/>
<path d="M289.551 306.834C289.538 306.837 289.492 306.711 289.416 306.467C289.333 306.177 289.231 305.822 289.108 305.393C288.844 304.46 288.497 303.099 288.091 301.413C287.276 298.041 286.298 293.346 285.287 288.152C284.276 282.956 283.342 278.258 282.599 274.874C282.233 273.228 281.931 271.874 281.707 270.867C281.612 270.431 281.535 270.071 281.471 269.776C281.421 269.525 281.401 269.392 281.415 269.388C281.428 269.385 281.473 269.511 281.549 269.755C281.632 270.045 281.735 270.399 281.858 270.828C282.122 271.761 282.469 273.122 282.875 274.808C283.689 278.181 284.668 282.875 285.679 288.072C286.689 293.267 287.623 297.963 288.367 301.348C288.734 302.994 289.034 304.348 289.259 305.354C289.354 305.79 289.431 306.151 289.495 306.446C289.544 306.697 289.564 306.83 289.551 306.834Z" fill="#263238"/>
<path d="M328.083 301.001C328.084 301.014 327.951 301.045 327.695 301.092C327.394 301.141 327.023 301.201 326.574 301.274C325.54 301.433 324.144 301.646 322.446 301.906C318.961 302.44 314.156 303.232 308.849 304.116C303.539 305 298.722 305.749 295.225 306.211C293.476 306.442 292.06 306.615 291.079 306.715C290.625 306.758 290.252 306.794 289.948 306.823C289.69 306.843 289.553 306.847 289.551 306.833C289.55 306.819 289.683 306.788 289.939 306.742C290.24 306.693 290.61 306.632 291.06 306.559C292.094 306.401 293.489 306.188 295.187 305.928C298.672 305.394 303.477 304.601 308.786 303.717C314.094 302.833 318.911 302.084 322.408 301.622C324.156 301.39 325.573 301.218 326.555 301.118C327.008 301.075 327.382 301.039 327.685 301.01C327.945 300.99 328.081 300.986 328.083 301.001Z" fill="#263238"/>
<path d="M20.9063 269.772C23.9961 268.943 27.3738 269.725 30.094 271.408C32.8147 273.09 34.9368 275.604 36.6323 278.317C39.9128 283.566 41.0381 290.601 41.1501 296.789C34.2834 296.472 28.4454 291.04 25.6572 288.098C21.2496 283.449 16.1074 272.37 20.9063 269.772Z" fill="#0EA5E9"/>
<path d="M52.1773 300.991C49.3657 298.785 48.1261 294.9 48.7362 291.379C49.3462 287.858 51.6392 284.751 54.5987 282.748C55.9668 281.821 57.6599 281.09 59.2422 281.565C60.7217 282.01 61.7453 283.457 62.0367 284.974C62.328 286.491 61.995 288.062 61.4814 289.52C59.7192 294.516 57.0973 299.027 52.1773 300.991Z" fill="#0EA5E9"/>
<path d="M58.4174 320.578C58.3746 320.598 58.1324 320.203 57.7336 319.471C57.3355 318.737 56.7791 317.666 56.1325 316.32C54.8587 313.632 53.1433 309.811 52.3275 305.27C51.5147 300.722 52.1082 296.438 53.2518 293.642C53.8099 292.238 54.4319 291.176 54.9312 290.5C55.427 289.819 55.7549 289.488 55.7858 289.513C55.904 289.59 54.6804 291.025 53.7122 293.812C52.7183 296.572 52.2207 300.719 53.0107 305.15C53.8059 309.584 55.423 313.389 56.5792 316.118C57.7599 318.846 58.5105 320.533 58.4174 320.578Z" fill="#263238"/>
<path d="M25.5665 277.863C25.603 277.832 26.1314 278.383 27.0551 279.408C27.9805 280.43 29.2943 281.932 30.8978 283.806C34.1058 287.551 38.4523 292.798 43.1089 298.709C47.765 304.624 51.8482 310.08 54.7369 314.077C56.1821 316.075 57.3337 317.703 58.1111 318.843C58.8897 319.981 59.3021 320.624 59.2633 320.652C59.2245 320.68 58.7389 320.091 57.8935 319.002C56.9812 317.812 55.7857 316.251 54.3433 314.369C51.3558 310.45 47.2155 305.047 42.564 299.138C37.9119 293.234 33.6305 287.943 30.5208 284.12C29.0293 282.276 27.7926 280.748 26.8489 279.582C25.9886 278.505 25.5299 277.894 25.5665 277.863Z" fill="#263238"/>
<path d="M47.5403 308.623C41.659 303.915 33.4213 302.317 26.2061 304.485C24.369 305.038 22.3331 306.159 22.148 308.068C21.9624 309.981 23.7566 311.477 25.4783 312.332C32.6398 315.888 41.9423 314.533 47.7905 309.08" fill="#0EA5E9"/>
<path d="M30.7697 307.981C30.7589 307.934 31.1827 307.809 31.963 307.623C32.352 307.523 32.8324 307.419 33.3997 307.358C33.9652 307.288 34.6084 307.172 35.3281 307.162C36.7636 307.058 38.4842 307.127 40.3727 307.382C42.2543 307.677 44.2987 308.181 46.3517 308.978C48.395 309.801 50.2315 310.833 51.8058 311.905C53.3578 313.011 54.6603 314.138 55.6359 315.196C56.154 315.695 56.5436 316.221 56.9086 316.658C57.2799 317.091 57.5592 317.495 57.7746 317.835C58.2167 318.505 58.4401 318.886 58.4001 318.912C58.2898 318.991 57.3096 317.513 55.2875 315.542C54.2861 314.548 52.9797 313.485 51.4448 312.433C49.8876 311.415 48.0888 310.427 46.0958 309.623C44.0931 308.846 42.1058 308.337 40.2733 308.014C38.4351 307.731 36.7551 307.612 35.3447 307.652C32.5228 307.705 30.7966 308.114 30.7697 307.981Z" fill="#263238"/>
<path d="M124.734 122.496L119.943 126.5L117.612 125.462L117.131 123.488C117.131 123.488 122.281 119.689 122.087 119.488C121.616 118.999 120.965 118.768 120.318 118.675C119.089 118.499 117.844 118.867 116.847 119.608L115.941 120.281C114.263 121.528 113.397 123.61 113.754 125.67C113.774 125.784 113.788 125.847 113.788 125.847L99.5825 137.651C97.377 136.917 94.9321 137.962 93.9668 140.13C92.9397 142.437 93.9771 145.139 96.2831 146.166C98.5897 147.194 101.292 146.156 102.319 143.85C102.734 142.919 102.807 141.925 102.601 141.001L116.649 129.208C117.191 129.728 117.933 129.917 118.668 129.942C120.091 129.992 121.461 129.393 122.479 128.398L123.664 127.238C125.705 125.138 124.734 122.496 124.734 122.496ZM97.2919 143.904C96.2351 143.433 95.7599 142.195 96.2306 141.138C96.7013 140.081 97.9397 139.606 98.9964 140.077C100.053 140.547 100.528 141.786 100.058 142.843C99.5877 143.899 98.3492 144.375 97.2919 143.904Z" fill="#0EA5E9"/>
<path d="M146.245 149.744C145.656 149.793 140.6 150.217 130.943 151.026L130.999 150.997C128.263 154.249 124.18 157.601 118.708 159.556C115.982 160.515 112.943 161.138 109.723 161.193C106.509 161.214 103.123 160.773 99.8046 159.625C96.4892 158.489 93.2532 156.673 90.4136 154.203C87.5735 151.739 85.132 148.623 83.4006 145.036C81.6641 141.455 80.653 137.405 80.5611 133.238C80.5137 132.718 80.5462 132.197 80.5765 131.674C80.6028 131.151 80.629 130.627 80.6559 130.102C80.657 129.574 80.7884 129.058 80.8524 128.534C80.9324 128.011 81.0118 127.488 81.0923 126.963C81.2003 126.444 81.3499 125.932 81.4773 125.415C81.6201 124.902 81.7201 124.374 81.8994 123.87C82.0834 123.367 82.2679 122.863 82.4524 122.358L82.73 121.6C82.8214 121.347 82.9568 121.112 83.0682 120.866C84.7899 117.069 87.317 113.719 90.3479 111.066C93.3766 108.408 96.9074 106.448 100.593 105.294C104.279 104.131 108.109 103.784 111.75 104.125C115.396 104.459 118.856 105.493 121.914 107.031C128.043 110.121 132.542 115.104 134.93 120.303C135.242 120.948 135.561 121.58 135.774 122.246C136.009 122.902 136.255 123.545 136.472 124.186C136.785 125.502 137.199 126.756 137.33 128.025C137.416 128.654 137.537 129.268 137.59 129.879C137.619 130.492 137.649 131.094 137.678 131.685C137.692 131.98 137.706 132.272 137.72 132.563C137.715 132.852 137.695 133.14 137.683 133.424C137.656 133.992 137.629 134.548 137.603 135.094L137.591 135.043C143.012 144.252 145.926 149.203 146.245 149.744C145.921 149.207 142.957 144.285 137.443 135.131L137.43 135.109L137.431 135.08C137.455 134.537 137.479 133.984 137.504 133.419C137.514 133.137 137.534 132.851 137.537 132.563C137.522 132.275 137.507 131.985 137.491 131.691C137.46 131.104 137.429 130.506 137.397 129.897C137.342 129.291 137.22 128.681 137.132 128.056C136.999 126.797 136.582 125.553 136.268 124.248C136.05 123.613 135.804 122.976 135.569 122.326C135.356 121.665 135.037 121.039 134.725 120.4C132.343 115.248 127.87 110.32 121.794 107.269C118.761 105.75 115.333 104.732 111.723 104.405C108.117 104.072 104.326 104.419 100.679 105.573C97.0325 106.719 93.5394 108.66 90.5433 111.292C87.5455 113.918 85.0452 117.233 83.3418 120.99C83.2316 121.233 83.0973 121.465 83.0071 121.716L82.7329 122.466C82.5501 122.965 82.3679 123.464 82.1856 123.962C82.008 124.46 81.9097 124.982 81.7681 125.49C81.6418 126.002 81.4939 126.508 81.3865 127.022C81.3071 127.541 81.2283 128.059 81.1494 128.576C81.086 129.095 80.9546 129.605 80.9546 130.128C80.9284 130.647 80.9021 131.166 80.8758 131.684C80.8461 132.201 80.813 132.717 80.8598 133.232C80.9489 137.356 81.9474 141.364 83.6628 144.909C85.3737 148.461 87.7871 151.549 90.597 153.992C93.4063 156.442 96.608 158.245 99.8909 159.376C103.177 160.519 106.531 160.963 109.718 160.95C112.911 160.903 115.928 160.294 118.635 159.349C124.07 157.426 128.139 154.113 130.875 150.893L130.897 150.867L130.931 150.864C140.595 150.158 145.656 149.787 146.245 149.744Z" fill="#263238"/>
<path d="M279.44 327.083H63.0047C58.4092 327.083 54.6836 323.358 54.6836 318.762V181.272C54.6836 176.677 58.4092 172.951 63.0047 172.951H279.44C284.036 172.951 287.761 176.677 287.761 181.272V318.762C287.761 323.358 284.036 327.083 279.44 327.083Z" fill="#455A64"/>
<path d="M287.617 329.17H55.4285C49.8138 329.17 45.2617 324.618 45.2617 319.003V315.683H297.784V319.003C297.784 324.618 293.232 329.17 287.617 329.17Z" fill="#455A64"/>
<path d="M281.179 179.075H61.2656V309.237H281.179V179.075Z" fill="#F5F5F5"/>
<path d="M148.57 315.683C148.566 315.681 148.648 315.678 148.813 315.676C148.993 315.674 149.238 315.671 149.552 315.668C150.222 315.664 151.187 315.659 152.424 315.652C154.948 315.642 158.581 315.627 163.08 315.608C172.149 315.589 184.703 315.562 198.707 315.532L198.97 315.531L198.838 315.759C198.389 316.527 197.908 317.351 197.424 318.181C196.916 319.051 196.412 319.915 195.928 320.743L195.884 320.817H195.798C176.421 320.781 159.873 320.75 151.705 320.735H151.667L151.647 320.703C150.642 319.069 149.869 317.81 149.338 316.947C149.087 316.537 148.895 316.221 148.758 315.996C148.628 315.786 148.57 315.683 148.57 315.683C148.57 315.683 148.649 315.797 148.789 316.013C148.935 316.238 149.14 316.555 149.406 316.967C149.947 317.809 150.737 319.037 151.762 320.631L151.704 320.599C159.872 320.584 176.421 320.553 195.797 320.517L195.667 320.592C196.15 319.764 196.655 318.9 197.163 318.03C197.647 317.2 198.129 316.375 198.577 315.607L198.707 315.834C184.761 315.804 172.258 315.777 163.225 315.757C158.706 315.739 155.056 315.724 152.52 315.714C151.264 315.707 150.284 315.701 149.604 315.697C149.278 315.695 149.025 315.692 148.84 315.69C148.666 315.688 148.57 315.683 148.57 315.683Z" fill="#263238"/>
<path fill-rule="evenodd" clip-rule="evenodd" d="M141.738 203.288C142.143 202.746 142.615 202.269 143.136 201.862L142.803 200.041L145.621 198.839L146.705 200.339C147.359 200.244 148.031 200.234 148.702 200.317L149.755 198.795L152.596 199.937L152.303 201.764C152.845 202.169 153.323 202.64 153.729 203.161L155.55 202.828L156.753 205.646L155.253 206.731C155.347 207.385 155.357 208.056 155.274 208.727L156.797 209.78L155.655 212.622L153.828 212.328C153.423 212.87 152.952 213.348 152.43 213.754L152.763 215.575L149.945 216.777L148.861 215.277C148.206 215.372 147.535 215.382 146.864 215.299L145.812 216.821L142.97 215.679L143.264 213.853C142.722 213.448 142.243 212.976 141.837 212.455L140.016 212.787L138.814 209.97L140.314 208.885C140.219 208.23 140.209 207.559 140.292 206.888L138.77 205.836L139.912 202.994L141.738 203.288ZM144.787 206.454C144.11 208.138 144.926 210.052 146.61 210.728C148.294 211.404 150.207 210.588 150.884 208.904C151.561 207.22 150.744 205.306 149.06 204.63C147.376 203.954 145.463 204.77 144.787 206.454Z" fill="#E0E0E0"/>
<path fill-rule="evenodd" clip-rule="evenodd" d="M130.32 262.363C131.493 260.792 132.859 259.408 134.369 258.23L133.405 252.952L141.568 249.469L144.712 253.815C146.607 253.54 148.552 253.512 150.497 253.752L153.547 249.341L161.782 252.65L160.931 257.944C162.502 259.117 163.887 260.483 165.065 261.993L170.342 261.03L173.825 269.193L169.479 272.337C169.754 274.232 169.782 276.177 169.542 278.122L173.953 281.171L170.645 289.407L165.35 288.556C164.178 290.127 162.811 291.512 161.301 292.69L162.265 297.967L154.102 301.451L150.958 297.104C149.062 297.379 147.118 297.406 145.172 297.167L142.123 301.579L133.888 298.269L134.738 292.976C133.167 291.803 131.783 290.437 130.605 288.926L125.328 289.89L121.844 281.727L126.191 278.583C125.916 276.688 125.889 274.744 126.128 272.798L121.717 269.749L125.026 261.513L130.32 262.363ZM139.151 271.535C137.191 276.415 139.557 281.959 144.436 283.919C149.315 285.88 154.859 283.513 156.82 278.634C158.78 273.755 156.414 268.21 151.535 266.25C146.656 264.29 141.111 266.656 139.151 271.535Z" fill="#F5F5F5"/>
<path d="M93.9553 278.432C93.9553 278.432 94.0644 277.969 94.5402 277.266C95.008 276.578 95.9357 275.647 97.4186 275.22C98.1504 275.014 99.0089 274.932 99.8949 275.11C100.773 275.291 101.692 275.683 102.445 276.371C102.83 276.703 103.168 277.107 103.446 277.56C103.73 278.009 103.95 278.514 104.083 279.051C104.374 280.121 104.3 281.321 103.871 282.415C103.424 283.502 102.647 284.42 101.697 284.992C101.229 285.288 100.721 285.501 100.205 285.628C99.6904 285.763 99.1666 285.822 98.6588 285.795C97.6391 285.77 96.704 285.417 95.9443 284.94C95.1811 284.456 94.619 283.802 94.2329 283.147C93.4583 281.813 93.4326 280.499 93.5708 279.679C93.7136 278.842 93.9553 278.432 93.9553 278.432C93.9907 278.444 93.7907 278.872 93.6868 279.695C93.5862 280.502 93.6485 281.77 94.4162 283.038C94.7984 283.66 95.3456 284.276 96.0785 284.729C96.8086 285.174 97.7008 285.501 98.6679 285.517C99.1489 285.538 99.6447 285.479 100.131 285.349C100.619 285.225 101.099 285.022 101.54 284.74C102.437 284.196 103.167 283.329 103.59 282.303C103.994 281.269 104.067 280.138 103.796 279.125C103.672 278.617 103.466 278.138 103.199 277.711C102.938 277.281 102.621 276.895 102.259 276.578C101.55 275.92 100.679 275.539 99.8446 275.355C99.0026 275.174 98.1806 275.241 97.4746 275.425C96.0437 275.809 95.1211 276.682 94.6345 277.334C94.1409 278 93.989 278.448 93.9553 278.432Z" fill="#263238"/>
<path d="M89.0696 273.357C89.0714 273.361 89.0091 273.355 88.8857 273.339C88.7492 273.32 88.5664 273.294 88.3293 273.261C87.8198 273.185 87.0858 273.076 86.1329 272.935L86.1849 272.905C85.7228 274.074 85.1156 275.612 84.381 277.471L84.3536 277.38C85.095 277.888 85.9193 278.453 86.8007 279.057L86.8447 279.087L86.8384 279.141C86.7202 280.132 86.719 281.205 86.8835 282.316L86.8921 282.376L86.8436 282.411C86.0958 282.956 85.2858 283.545 84.4438 284.158L84.4798 284.028C85.0899 285.449 85.7377 286.957 86.4174 288.54L86.2866 288.47C87.1903 288.303 88.1854 288.12 89.205 287.931L89.2793 287.917L89.3261 287.977C89.9328 288.754 90.7028 289.529 91.5922 290.19L91.655 290.237L91.6425 290.315C91.4979 291.223 91.3386 292.224 91.1763 293.244L91.0935 293.098C92.525 293.671 94.069 294.289 95.6519 294.923L95.484 294.973C96.0084 294.213 96.5847 293.377 97.1685 292.531L97.2176 292.46L97.3039 292.471C98.2881 292.592 99.3803 292.593 100.466 292.434L100.553 292.42L100.605 292.492C101.15 293.245 101.745 294.067 102.346 294.896L102.168 294.847C103.598 294.236 105.13 293.582 106.684 292.918L106.596 293.083C106.427 292.161 106.245 291.166 106.062 290.163L106.045 290.074L106.117 290.018C106.91 289.401 107.679 288.632 108.327 287.762L108.329 287.76L108.385 287.687L108.474 287.701C109.457 287.859 110.434 288.016 111.402 288.172L111.238 288.264C111.858 286.725 112.468 285.206 113.07 283.709L113.124 283.887C112.302 283.319 111.489 282.756 110.684 282.199L110.61 282.149L110.621 282.059C110.753 280.998 110.738 279.932 110.588 278.898L110.576 278.81L110.648 278.758C111.461 278.17 112.263 277.592 113.054 277.021L113.006 277.194C112.35 275.651 111.709 274.145 111.083 272.676L111.236 272.758C110.245 272.937 109.272 273.114 108.315 273.288L108.234 273.302L108.184 273.238C107.52 272.384 106.754 271.64 105.926 271.019L105.863 270.972L105.875 270.894C106.039 269.891 106.196 268.917 106.35 267.967L106.428 268.103C104.826 267.456 103.314 266.845 101.875 266.263L102.014 266.222C101.418 267.078 100.86 267.882 100.321 268.658L100.283 268.712L100.219 268.704C99.0947 268.564 98.0357 268.59 97.0457 268.73L96.9857 268.738L96.9509 268.69C96.322 267.814 95.7553 267.025 95.2195 266.279L95.3269 266.309C93.5744 267.048 92.0806 267.677 90.8022 268.216L90.8422 268.142C91.0478 269.31 91.2163 270.268 91.3563 271.065L91.3614 271.094L91.338 271.112C90.4846 271.772 89.9351 272.361 89.5832 272.756C89.4175 272.952 89.2907 273.101 89.1976 273.211C89.1131 273.313 89.0714 273.361 89.0696 273.357C89.0685 273.353 89.1056 273.297 89.1793 273.192C89.2576 273.086 89.3758 272.926 89.5466 272.721C89.8876 272.313 90.4286 271.709 91.2797 271.032L91.262 271.079C91.1112 270.283 90.9307 269.327 90.7102 268.163L90.6999 268.11L90.7502 268.088C92.024 267.538 93.5115 266.896 95.2578 266.142L95.3229 266.114L95.3652 266.171C95.9055 266.913 96.4773 267.698 97.1125 268.57L97.0183 268.53C98.0237 268.381 99.101 268.348 100.246 268.485L100.144 268.531C100.679 267.753 101.234 266.946 101.825 266.087L101.877 266.011L101.963 266.045C103.405 266.621 104.919 267.226 106.523 267.867L106.616 267.904L106.6 268.003C106.449 268.954 106.294 269.928 106.135 270.932L106.084 270.807C106.933 271.439 107.717 272.198 108.399 273.069L108.268 273.02C109.224 272.844 110.197 272.665 111.186 272.483L111.296 272.463L111.34 272.566C111.968 274.034 112.612 275.539 113.271 277.079L113.317 277.185L113.223 277.253C112.433 277.825 111.633 278.405 110.82 278.994L110.879 278.854C111.034 279.913 111.051 281.006 110.916 282.094L110.853 281.954C111.659 282.51 112.473 283.072 113.294 283.639L113.393 283.707L113.348 283.818C112.747 285.315 112.137 286.835 111.519 288.375L111.474 288.487L111.355 288.468C110.387 288.313 109.409 288.156 108.426 287.998L108.571 287.939L108.57 287.941C107.905 288.834 107.116 289.621 106.303 290.254L106.358 290.109C106.541 291.111 106.723 292.106 106.891 293.028L106.913 293.146L106.802 293.193C105.249 293.855 103.715 294.509 102.286 295.118L102.177 295.165L102.107 295.069C101.508 294.239 100.914 293.416 100.37 292.663L100.509 292.721C99.3969 292.884 98.2773 292.881 97.2702 292.755L97.4056 292.694C96.8201 293.539 96.2426 294.373 95.7165 295.133L95.6525 295.226L95.5485 295.184C93.9674 294.546 92.425 293.924 90.9947 293.348L90.8947 293.307L90.9118 293.201C91.0769 292.182 91.2397 291.181 91.3865 290.273L91.4374 290.398C90.5297 289.72 89.7465 288.926 89.1302 288.13L89.2507 288.176C88.2299 288.361 87.2343 288.54 86.33 288.703L86.2363 288.721L86.1992 288.633C85.5269 287.047 84.886 285.537 84.2827 284.113L84.249 284.034L84.3187 283.983C85.1641 283.376 85.9776 282.791 86.7282 282.251L86.6882 282.345C86.5277 281.215 86.5362 280.124 86.6636 279.119L86.7013 279.203C85.8245 278.592 85.0053 278.021 84.2679 277.507L84.217 277.471L84.2399 277.415C84.9962 275.563 85.6211 274.033 86.097 272.869L86.1118 272.834L86.1495 272.84C87.0903 273.002 87.8152 273.127 88.3185 273.214C88.5567 273.257 88.7412 273.291 88.8783 273.316C89.0034 273.339 89.0679 273.353 89.0696 273.357Z" fill="#263238"/>
<path fill-rule="evenodd" clip-rule="evenodd" d="M77.9148 213.076C78.8477 210.539 80.1084 208.172 81.641 206.021L78.293 199.425L87.712 191.612L93.5757 196.121C95.9725 195.012 98.5316 194.211 101.198 193.762L103.493 186.734L115.679 187.869L116.636 195.201C119.174 196.133 121.541 197.395 123.691 198.928L130.287 195.58L138.1 205L133.591 210.864C134.7 213.261 135.502 215.819 135.949 218.485L142.979 220.781L141.843 232.966L134.512 233.924C133.579 236.461 132.318 238.828 130.785 240.978L134.133 247.574L124.714 255.388L118.85 250.878C116.453 251.987 113.894 252.789 111.228 253.236L108.933 260.266L96.7471 259.13L95.7898 251.799C93.2523 250.866 90.8852 249.606 88.7345 248.072L82.1385 251.42L74.3252 242.001L78.8345 236.137C77.7258 233.74 76.9243 231.182 76.4765 228.516L69.4475 226.22L70.5831 214.035L77.9148 213.076ZM93.1929 221.728C92.52 228.948 97.8273 235.345 105.047 236.018C112.266 236.691 118.664 231.384 119.336 224.165C120.009 216.945 114.702 210.547 107.483 209.874C100.264 209.201 93.8653 214.509 93.1929 221.728Z" fill="#E0E0E0"/>
<path d="M287.761 315.683C287.761 315.761 235.58 315.825 171.228 315.825C106.853 315.825 54.6836 315.761 54.6836 315.683C54.6836 315.605 106.853 315.542 171.228 315.542C235.581 315.542 287.761 315.605 287.761 315.683Z" fill="#263238"/>
<path d="M162.398 140.562C158.804 142.139 156.712 146.013 155.928 149.859C155.144 153.705 155.401 157.679 155.061 161.59C154.721 165.501 153.648 169.588 150.794 172.282C148.135 174.794 144.217 175.816 141.951 178.688C140.269 180.819 139.775 183.831 140.689 186.388C141.602 188.946 143.892 190.963 146.544 191.547C144.752 194.385 145.649 198.348 147.942 200.8C150.235 203.253 153.604 204.421 156.923 204.926C162.761 205.815 168.986 204.833 173.918 201.584C178.849 198.335 182.3 192.692 182.288 186.787" fill="#263238"/>
<path d="M146.83 198.587C146.83 198.587 146.507 198.184 146.197 197.314C145.89 196.452 145.674 195.088 145.968 193.458C146.116 192.648 146.382 191.778 146.792 190.898C147.212 190.023 147.769 189.146 148.442 188.292C149.781 186.573 151.577 184.993 153.384 183.292C155.19 181.584 156.844 179.884 158.188 178.206C159.549 176.542 160.567 174.884 161.262 173.418C161.954 171.95 162.323 170.68 162.51 169.791C162.617 169.349 162.648 168.996 162.698 168.761C162.741 168.525 162.768 168.401 162.777 168.402C162.787 168.403 162.779 168.529 162.756 168.768C162.724 169.006 162.71 169.364 162.619 169.813C162.463 170.715 162.12 172.007 161.444 173.503C160.765 174.995 159.753 176.684 158.393 178.37C157.048 180.07 155.391 181.785 153.579 183.498C151.765 185.205 149.978 186.769 148.647 188.454C147.98 189.291 147.424 190.149 147.005 191C146.595 191.855 146.322 192.704 146.165 193.495C145.852 195.086 146.032 196.422 146.303 197.28C146.574 198.145 146.861 198.571 146.83 198.587Z" fill="#455A64"/>
<path d="M205.361 153.465C205.361 158.744 207.796 163.582 209.986 165.361C213.085 167.878 217.631 169.094 220.627 169.932C224.991 171.151 228.648 174.972 229.193 179.469C229.739 183.967 226.797 188.777 222.41 189.908C225.168 192.724 224.347 197.566 222.077 200.788C217.775 206.895 209.188 209.242 202.068 206.984C194.948 204.726 189.491 198.415 187.365 191.255" fill="#263238"/>
<path d="M216.217 205.459C216.197 205.411 216.916 205.411 217.895 204.72C218.373 204.374 218.894 203.847 219.301 203.11C219.715 202.382 220.023 201.447 220.053 200.392C220.079 199.341 219.765 198.187 219.17 197.099C218.572 196.009 217.684 194.986 216.605 194.091C214.443 192.268 211.501 191.129 208.657 189.494C207.239 188.663 205.925 187.698 204.881 186.53C204.359 185.949 203.909 185.319 203.562 184.648C203.213 183.98 202.975 183.272 202.823 182.571C202.518 181.163 202.548 179.789 202.639 178.53C202.734 177.268 202.895 176.104 203.006 175.04C203.24 172.916 203.213 171.173 202.927 170.011C202.85 169.727 202.78 169.472 202.719 169.247C202.654 169.027 202.566 168.853 202.513 168.705C202.397 168.412 202.339 168.256 202.349 168.251C202.357 168.247 202.431 168.394 202.565 168.682C202.627 168.827 202.724 169 202.799 169.219C202.868 169.446 202.947 169.701 203.034 169.985C203.358 171.154 203.415 172.924 203.205 175.06C203.107 176.129 202.958 177.294 202.873 178.546C202.793 179.796 202.775 181.147 203.078 182.514C203.371 183.879 204.051 185.223 205.089 186.344C206.107 187.479 207.399 188.427 208.8 189.248C211.613 190.868 214.574 192.02 216.773 193.89C217.868 194.808 218.771 195.859 219.377 196.986C219.98 198.111 220.293 199.302 220.254 200.397C220.21 201.49 219.878 202.447 219.439 203.187C219.008 203.937 218.46 204.469 217.959 204.809C217.46 205.162 216.997 205.291 216.696 205.385C216.382 205.444 216.218 205.468 216.217 205.459Z" fill="#455A64"/>
<path d="M226.5 187.845C226.448 187.826 226.959 187.41 227.033 186.378C227.058 185.875 226.957 185.241 226.625 184.598C226.302 183.96 225.777 183.284 225.007 182.81C224.232 182.337 223.26 182.039 222.2 181.863C221.137 181.678 219.977 181.611 218.76 181.422C216.329 181.046 213.732 180.086 211.371 178.5C209.016 176.904 207.154 174.85 205.912 172.725C204.658 170.601 203.996 168.449 203.67 166.624C203.344 164.793 203.36 163.278 203.436 162.246C203.476 161.729 203.524 161.33 203.574 161.061C203.616 160.792 203.643 160.652 203.653 160.653C203.687 160.657 203.588 161.222 203.547 162.252C203.504 163.279 203.519 164.781 203.867 166.588C204.214 168.388 204.888 170.506 206.137 172.592C207.373 174.678 209.21 176.693 211.53 178.265C213.854 179.827 216.408 180.78 218.801 181.165C219.998 181.358 221.162 181.434 222.24 181.631C223.316 181.821 224.313 182.136 225.112 182.641C225.915 183.151 226.445 183.86 226.768 184.529C227.097 185.201 227.186 185.863 227.144 186.386C227.098 186.914 226.911 187.29 226.767 187.523C226.691 187.637 226.618 187.714 226.575 187.769C226.529 187.823 226.504 187.848 226.5 187.845Z" fill="#455A64"/>
<path d="M164.961 215.347C165.712 207.459 166.36 199.141 166.36 199.141C166.36 199.141 156.367 196.455 155.566 182.993C154.803 170.155 159.758 141.17 159.758 141.17C174.966 136.646 191.898 142.32 201.172 155.049L194.009 219.016C193.178 226.442 186.13 231.641 178.186 230.69C170.162 229.729 164.244 222.862 164.961 215.347Z" fill="#FFBF9D"/>
<path d="M161.274 164.339C161.154 165.233 161.813 166.073 162.744 166.215C163.674 166.358 164.527 165.75 164.647 164.855C164.767 163.961 164.109 163.121 163.178 162.978C162.247 162.835 161.394 163.445 161.274 164.339Z" fill="#263238"/>
<path d="M158.706 162.165C158.895 162.407 160.276 161.581 162.105 161.766C163.934 161.924 165.184 162.998 165.405 162.793C165.512 162.703 165.337 162.282 164.794 161.799C164.261 161.319 163.32 160.81 162.18 160.702C161.039 160.597 160.04 160.922 159.447 161.297C158.842 161.673 158.612 162.055 158.706 162.165Z" fill="#263238"/>
<path d="M179.969 166.505C179.849 167.399 180.508 168.239 181.44 168.381C182.369 168.524 183.222 167.916 183.342 167.021C183.462 166.127 182.804 165.286 181.874 165.144C180.942 165.001 180.089 165.61 179.969 166.505Z" fill="#263238"/>
<path d="M177.727 164.707C177.916 164.949 179.299 164.124 181.126 164.308C182.955 164.467 184.205 165.54 184.426 165.335C184.533 165.246 184.36 164.825 183.815 164.342C183.282 163.861 182.341 163.353 181.201 163.245C180.061 163.14 179.061 163.465 178.468 163.84C177.865 164.216 177.634 164.598 177.727 164.707Z" fill="#263238"/>
<path d="M169.753 177.619C169.772 177.516 168.654 177.208 166.834 176.791C166.372 176.697 165.939 176.56 165.892 176.234C165.815 175.886 166.06 175.401 166.34 174.88C166.89 173.793 167.466 172.654 168.071 171.46C170.487 166.584 172.286 162.557 172.089 162.462C171.892 162.366 169.773 166.24 167.356 171.115C166.772 172.318 166.213 173.465 165.681 174.563C165.452 175.077 165.089 175.649 165.258 176.372C165.35 176.734 165.668 177.021 165.959 177.131C166.249 177.251 166.512 177.282 166.742 177.319C168.586 177.601 169.736 177.723 169.753 177.619Z" fill="#263238"/>
<path d="M166.36 199.141C166.36 199.141 175.22 200.593 184.577 196.153C184.577 196.153 179.374 204.834 166.23 202.288L166.36 199.141Z" fill="#FF9A6C"/>
<path d="M170.093 182.104C170.837 181.298 172.036 180.935 173.169 181.17C173.954 181.334 174.719 181.795 175.137 182.489C175.556 183.183 175.567 184.111 175.068 184.684C174.506 185.33 173.459 185.388 172.61 185.054C171.761 184.72 171.066 184.072 170.409 183.429C170.228 183.251 170.042 183.066 169.94 182.836C169.838 182.607 169.84 182.32 170.009 182.155" fill="#FF9A6C"/>
<path d="M175.011 179.415C174.715 179.369 174.516 181.354 172.678 182.595C170.843 183.842 168.748 183.411 168.705 183.687C168.665 183.809 169.139 184.119 170.03 184.231C170.903 184.348 172.211 184.192 173.335 183.432C174.457 182.67 175.016 181.561 175.164 180.753C175.321 179.93 175.148 179.417 175.011 179.415Z" fill="#263238"/>
<path d="M194.865 169.189C196.309 169.054 197.804 169.241 199.104 169.882C200.405 170.523 201.495 171.646 201.948 173.023C202.403 174.405 202.192 175.95 201.568 177.264C200.944 178.577 199.933 179.676 198.803 180.59C197.991 181.247 197.084 181.831 196.061 182.045C195.039 182.258 193.881 182.046 193.154 181.296" fill="#FFBF9D"/>
<path d="M194.803 177.859C194.636 177.895 195.168 178.813 196.498 178.592C197.138 178.489 197.801 178.001 198.238 177.352C198.677 176.692 198.993 175.953 199.174 175.069C199.351 174.193 199.242 173.233 198.821 172.515C198.423 171.787 197.703 171.309 197.067 171.232C195.737 171.071 195.233 171.953 195.381 171.996C195.477 172.114 196.041 171.689 196.893 171.985C197.714 172.221 198.422 173.453 198.1 174.868C197.798 176.311 197.107 177.59 196.298 177.847C195.451 178.178 194.904 177.75 194.803 177.859Z" fill="#FF9A6C"/>
<path d="M166.166 146.839C164.21 151.378 160.033 154.895 155.228 156.05C154.945 152.778 154.753 149.464 155.288 146.223C155.822 142.982 157.142 139.785 159.506 137.504C161.869 135.223 165.374 133.994 168.547 134.844" fill="#263238"/>
<path d="M167.08 140.826C165.431 144.972 166.109 149.96 168.805 153.516C171.501 157.072 176.118 159.073 180.556 158.607C181.426 158.516 182.336 158.341 183.152 158.656C184.023 158.992 184.597 159.812 185.116 160.588C187.228 163.745 189.461 167.027 192.79 168.855C196.12 170.684 200.887 170.504 203.114 167.426C204.197 165.929 204.515 164.027 204.766 162.197C205.61 156.043 205.956 149.438 203.024 143.962C200.845 139.894 197.017 136.869 192.783 135.034C188.549 133.199 183.913 132.47 179.307 132.188C176.63 132.024 173.859 132.02 171.377 133.035C168.894 134.049 166.75 136.303 166.61 138.981" fill="#263238"/>
<path d="M204.178 163.937C204.169 163.939 204.113 163.784 204.016 163.485C203.926 163.185 203.773 162.749 203.569 162.19C203.154 161.077 202.457 159.492 201.315 157.699C200.168 155.917 198.547 153.936 196.362 152.172C194.189 150.391 191.419 148.959 188.43 147.705C185.433 146.45 182.503 145.415 179.94 144.215C177.375 143.025 175.187 141.676 173.538 140.305C171.89 138.931 170.783 137.57 170.143 136.56C169.825 136.053 169.594 135.651 169.463 135.363C169.323 135.082 169.253 134.932 169.263 134.927C169.271 134.923 169.357 135.064 169.513 135.336C169.66 135.614 169.906 136.005 170.234 136.499C170.897 137.483 172.017 138.809 173.664 140.151C175.314 141.488 177.493 142.807 180.049 143.978C182.602 145.158 185.531 146.185 188.539 147.444C191.54 148.703 194.334 150.155 196.526 151.969C198.727 153.764 200.348 155.78 201.484 157.591C202.613 159.414 203.287 161.022 203.672 162.152C203.861 162.719 203.997 163.163 204.07 163.469C204.15 163.773 204.187 163.934 204.178 163.937Z" fill="#455A64"/>
<path d="M200.058 163.208C200.049 163.211 199.972 163.082 199.833 162.832C199.688 162.584 199.472 162.222 199.152 161.783C198.524 160.901 197.449 159.729 195.863 158.608C194.287 157.472 192.2 156.45 189.832 155.442C188.65 154.931 187.4 154.407 186.13 153.803C184.861 153.196 183.569 152.52 182.289 151.753C179.726 150.222 177.457 148.466 175.636 146.623C173.811 144.782 172.438 142.871 171.482 141.164C170.518 139.457 169.972 137.959 169.654 136.915C169.505 136.389 169.395 135.979 169.341 135.697C169.281 135.415 169.254 135.267 169.263 135.265C169.273 135.262 169.318 135.407 169.397 135.683C169.469 135.96 169.595 136.364 169.759 136.882C170.108 137.91 170.678 139.386 171.656 141.065C172.626 142.745 174.003 144.626 175.821 146.439C177.635 148.255 179.888 149.99 182.434 151.51C183.705 152.272 184.989 152.945 186.249 153.553C187.51 154.157 188.755 154.684 189.936 155.202C192.302 156.225 194.402 157.275 195.98 158.446C197.569 159.6 198.636 160.81 199.243 161.719C199.551 162.172 199.755 162.547 199.883 162.805C200.006 163.065 200.067 163.204 200.058 163.208Z" fill="#455A64"/>
<path d="M155.275 161.311C155.266 161.314 155.222 161.209 155.146 161.005C155.073 160.802 154.959 160.501 154.833 160.108C154.623 159.311 154.327 158.141 154.261 156.658C154.195 155.182 154.311 153.397 154.848 151.508C155.382 149.628 156.268 147.613 157.683 145.836C158.364 144.927 159.172 144.161 159.98 143.464C160.807 142.787 161.66 142.215 162.473 141.68C164.104 140.619 165.561 139.648 166.597 138.613C167.65 137.597 168.285 136.578 168.617 135.834C168.948 135.086 169.023 134.631 169.053 134.639C169.063 134.642 169.045 134.754 169.003 134.968C168.956 135.18 168.87 135.491 168.718 135.877C168.413 136.647 167.79 137.704 166.738 138.755C165.703 139.825 164.237 140.827 162.617 141.897C161.809 142.438 160.967 143.01 160.156 143.679C159.365 144.366 158.574 145.118 157.906 146.011C156.517 147.755 155.639 149.732 155.098 151.579C154.556 153.436 154.422 155.193 154.461 156.652C154.5 158.117 154.764 159.28 154.94 160.08C155.046 160.45 155.132 160.751 155.2 160.988C155.258 161.196 155.284 161.307 155.275 161.311Z" fill="#455A64"/>
<path d="M188.01 187.743C184.915 187.743 181.811 186.688 179.523 184.63L179.887 184.226C183.857 187.799 190.405 188.212 194.793 185.168C199.182 182.124 201.088 175.846 199.133 170.876L199.638 170.677C201.682 175.872 199.69 182.433 195.103 185.614C193.044 187.043 190.53 187.743 188.01 187.743Z" fill="#0EA5E9"/>
<path d="M183.593 185.418C183.593 186.872 182.415 188.049 180.962 188.049C179.508 188.049 178.33 186.871 178.33 185.418C178.33 183.965 179.509 182.786 180.962 182.786C182.415 182.786 183.593 183.965 183.593 185.418Z" fill="#0EA5E9"/>
<path d="M209.918 173.1C210.511 168.268 207.074 163.87 202.242 163.278C197.41 162.686 193.013 166.123 192.42 170.955C191.828 175.787 195.265 180.184 200.097 180.777C204.928 181.369 209.326 177.932 209.918 173.1Z" fill="#0EA5E9"/>
<path d="M199.746 170.813C199.688 170.807 199.709 170.01 199.797 168.578C199.826 167.854 199.86 166.979 199.9 165.967C199.91 164.949 199.943 163.792 199.903 162.514C199.902 161.874 199.859 161.206 199.821 160.51C199.797 159.813 199.716 159.093 199.647 158.347C199.59 157.599 199.448 156.837 199.349 156.045C199.276 155.654 199.202 155.257 199.127 154.854C199.057 154.451 198.972 154.045 198.865 153.639C198.118 150.38 196.711 146.88 194.25 143.92C191.793 140.955 188.578 138.969 185.463 137.762C182.339 136.537 179.335 135.953 176.811 135.587C174.28 135.234 172.206 135.128 170.775 135.027C169.343 134.961 168.547 134.904 168.547 134.844C168.546 134.786 169.341 134.732 170.783 134.696C172.223 134.696 174.314 134.711 176.886 134.992C179.45 135.285 182.519 135.815 185.747 137.033C188.961 138.231 192.335 140.277 194.903 143.377C197.475 146.47 198.905 150.118 199.627 153.465C199.731 153.882 199.814 154.299 199.879 154.712C199.949 155.125 200.019 155.531 200.087 155.932C200.175 156.74 200.306 157.52 200.348 158.281C200.403 159.04 200.468 159.773 200.476 160.479C200.497 161.185 200.522 161.862 200.504 162.508C200.506 163.801 200.43 164.967 200.375 165.99C200.29 167.011 200.209 167.89 200.127 168.606C199.937 170.035 199.805 170.82 199.746 170.813Z" fill="#0EA5E9"/>
<g opacity="0.4">
<path d="M207.482 172.039C207.482 175.39 204.766 178.106 201.415 178.106C198.064 178.106 195.348 175.39 195.348 172.039C195.348 168.688 198.064 165.972 201.415 165.972C204.765 165.972 207.482 168.688 207.482 172.039Z" fill="black"/>
</g>
<path d="M199.419 166.381C199.415 166.372 199.508 166.324 199.69 166.24C199.874 166.16 200.156 166.063 200.532 165.991C201.271 165.859 202.459 165.852 203.679 166.529C204.281 166.858 204.879 167.375 205.295 168.08C205.722 168.778 205.955 169.652 205.944 170.568C205.936 171.483 205.655 172.458 205.048 173.264C204.442 174.07 203.515 174.656 202.484 174.905C201.454 175.157 200.362 175.064 199.451 174.63C198.536 174.197 197.85 173.447 197.429 172.636C197.005 171.819 196.845 170.929 196.911 170.115C196.985 169.296 197.292 168.582 197.66 168.003C198.405 166.834 199.432 166.227 200.172 166.046C200.543 165.945 200.845 165.94 201.045 165.947C201.246 165.966 201.349 165.98 201.348 165.99C201.35 166.032 200.918 165.928 200.202 166.152C199.496 166.358 198.526 166.969 197.829 168.109C197.487 168.673 197.204 169.363 197.145 170.134C197.093 170.903 197.253 171.745 197.66 172.515C198.065 173.28 198.716 173.979 199.569 174.379C200.419 174.78 201.446 174.868 202.417 174.63C203.39 174.395 204.261 173.845 204.827 173.096C205.396 172.347 205.669 171.43 205.684 170.563C205.701 169.695 205.488 168.863 205.093 168.2C204.709 167.529 204.151 167.03 203.58 166.704C202.424 166.032 201.276 166.004 200.549 166.1C199.807 166.208 199.43 166.412 199.419 166.381Z" fill="#263238"/>
<path d="M201.361 178.015C201.286 178.028 201.117 177.391 201.084 176.584C201.05 175.777 201.166 175.128 201.242 175.135C201.322 175.141 201.333 175.784 201.367 176.573C201.398 177.36 201.44 178.002 201.361 178.015Z" fill="#263238"/>
<path d="M204.709 176.837C204.636 176.865 204.354 176.316 204.079 175.61C203.804 174.904 203.64 174.308 203.713 174.28C203.786 174.251 204.067 174.801 204.343 175.507C204.618 176.213 204.781 176.808 204.709 176.837Z" fill="#263238"/>
<path d="M206.963 174.199C206.91 174.256 206.494 173.964 206.035 173.546C205.574 173.127 205.244 172.741 205.297 172.683C205.349 172.625 205.765 172.917 206.225 173.336C206.685 173.754 207.015 174.14 206.963 174.199Z" fill="#263238"/>
<path d="M207.124 170.516C207.097 170.589 206.795 170.548 206.45 170.423C206.105 170.298 205.847 170.137 205.873 170.064C205.9 169.99 206.201 170.032 206.546 170.157C206.892 170.281 207.151 170.442 207.124 170.516Z" fill="#263238"/>
<path d="M197.398 176.654C197.326 176.63 197.483 175.985 197.855 175.262C198.224 174.538 198.657 174.034 198.719 174.078C198.785 174.124 198.467 174.686 198.107 175.391C197.745 176.094 197.473 176.681 197.398 176.654Z" fill="#263238"/>
<path d="M195.59 173.564C195.535 173.508 195.88 173.08 196.361 172.609C196.841 172.138 197.275 171.801 197.33 171.857C197.385 171.913 197.04 172.34 196.559 172.811C196.078 173.283 195.644 173.619 195.59 173.564Z" fill="#263238"/>
<path d="M197.005 169.361C197.025 169.437 196.779 169.568 196.456 169.654C196.132 169.74 195.853 169.748 195.833 169.673C195.813 169.597 196.059 169.466 196.383 169.38C196.706 169.294 196.985 169.286 197.005 169.361Z" fill="#263238"/>
<path d="M243.107 217.583C242.538 214.355 241.276 212.601 240.334 211.683C239.451 210.821 238.599 209.925 237.542 209.282C236.26 208.502 234.517 207.533 233.403 207.293C232.025 206.995 231.69 205.203 232.844 204.693C233.998 204.184 237.814 204.913 241.485 207.611C245.155 210.31 243.299 203.473 242.667 200.971C242.035 198.468 240.447 190.643 241.066 189.86C241.975 188.711 243.409 189.491 243.981 192.004C244.561 194.547 246.804 201.944 248.116 201.581C249.409 201.224 246.018 188.524 246.018 188.524C246.018 188.524 244.852 185.915 246.354 185.446C249.061 184.599 251.666 198.34 251.881 199.652C252.031 200.566 253.472 200.222 253.259 199.25C253.039 198.249 249.581 186.652 252.329 185.764C254.438 185.082 254.578 197.05 256.636 199.092C258.696 201.135 255.598 190.006 257.641 189.437C258.401 189.226 259.001 189.173 259.853 195.796C260.312 199.355 260.014 204.263 261.403 211.055" fill="#FFBF9D"/>
<path d="M236.262 243.129L248.749 261.048L242.751 214.834L260.603 207.795C260.603 207.795 283.132 294.161 252.916 295.377C252.916 295.377 232.008 294.804 216.402 258.607L236.262 243.129Z" fill="#FFBF9D"/>
<path d="M256.29 207.455C256.322 207.501 255.899 207.781 255.35 208.397C254.805 209.003 254.153 209.995 253.887 211.276L253.817 211.614L253.568 211.365C253.289 211.086 252.988 210.805 252.646 210.557C251.35 209.596 249.897 209.193 248.85 209.084C247.794 208.971 247.13 209.086 247.121 209.021C247.11 208.983 247.768 208.768 248.871 208.815C249.962 208.857 251.506 209.236 252.873 210.25C253.234 210.511 253.55 210.811 253.84 211.109L253.522 211.198C253.825 209.834 254.561 208.814 255.176 208.229C255.797 207.636 256.273 207.424 256.29 207.455Z" fill="#AA6550"/>
<path d="M227.293 280.491L212.182 261.323L208.256 280.927C206.665 288.868 207.484 297.103 210.609 304.574L212.559 309.237H142.593L144.342 303.008C145.329 295.377 144.008 287.408 144.238 276.479L142.294 264.157L131.71 309.237H100.594C100.594 309.237 117.674 239.267 128.373 225.423C141.862 207.968 165.428 210.271 165.428 210.271L179.867 232.902L193.967 212.496C193.967 212.496 218.2 207.346 237.116 239.917L247.24 257.268L242.54 221.55L264.447 216.493C264.447 216.493 272.359 251.585 271.839 270.375C271.374 287.159 264.232 295.964 254.332 296.83C238.77 298.192 227.293 280.491 227.293 280.491Z" fill="#0EA5E9"/>
<path d="M165.428 210.271L165.675 207.452C165.675 207.452 176.37 209.829 179.955 228.502C179.955 228.502 183.553 211.269 195.072 209.533L197.015 214.497L189.942 232.911L177.52 236.542L165.436 232.911L159.939 221.997L165.428 210.271Z" fill="#0EA5E9"/>
<path d="M135.625 217.697C135.635 217.696 135.653 217.863 135.679 218.181C135.704 218.523 135.738 218.986 135.78 219.57C135.858 220.777 135.983 222.523 136.157 224.677C136.501 228.987 137.093 234.933 138.024 241.464C138.961 247.996 140.059 253.87 140.937 258.104C141.374 260.221 141.742 261.932 142.007 263.112C142.13 263.684 142.227 264.138 142.3 264.474C142.364 264.785 142.393 264.951 142.383 264.953C142.374 264.955 142.326 264.795 142.244 264.487C142.159 264.154 142.044 263.704 141.9 263.137C141.603 261.964 141.205 260.259 140.742 258.146C139.813 253.919 138.682 248.044 137.744 241.504C136.812 234.966 136.251 229.01 135.957 224.693C135.81 222.534 135.714 220.785 135.67 219.576C135.65 218.991 135.634 218.526 135.623 218.183C135.615 217.865 135.615 217.697 135.625 217.697Z" fill="#263238"/>
<path d="M196.751 211.831C196.759 211.837 196.706 211.929 196.598 212.1C196.471 212.296 196.312 212.542 196.117 212.842C195.675 213.518 195.071 214.439 194.336 215.563C192.84 217.865 190.819 221.074 188.719 224.698C188.637 224.841 188.554 224.984 188.477 225.116L188.341 225.35L188.226 225.106C187.795 224.186 187.356 223.289 186.689 222.634C186.035 221.983 185.141 221.588 184.308 221.743C183.472 221.874 182.812 222.444 182.344 223.032C181.867 223.633 181.568 224.291 181.364 224.915C180.96 226.168 180.726 227.225 180.427 227.91C180.289 228.256 180.148 228.51 180.053 228.68C179.949 228.846 179.89 228.93 179.882 228.925C179.86 228.912 180.078 228.564 180.326 227.871C180.59 227.182 180.792 226.133 181.177 224.853C181.372 224.216 181.673 223.522 182.162 222.889C182.643 222.269 183.336 221.645 184.267 221.488C185.197 221.308 186.186 221.746 186.882 222.436C187.599 223.135 188.05 224.065 188.483 224.985L188.232 224.974C188.309 224.842 188.391 224.699 188.474 224.556C190.576 220.927 192.628 217.728 194.168 215.452C194.938 214.313 195.576 213.402 196.026 212.78C196.239 212.491 196.413 212.255 196.551 212.067C196.674 211.907 196.743 211.825 196.751 211.831Z" fill="#263238"/>
<path d="M186.567 222.405C186.575 222.41 186.535 222.493 186.451 222.646C186.348 222.826 186.224 223.044 186.073 223.308C185.711 223.915 185.226 224.728 184.638 225.716C184.016 226.739 183.286 227.94 182.479 229.267C182.069 229.935 181.64 230.635 181.195 231.36C180.969 231.724 180.739 232.094 180.506 232.47C180.437 232.567 180.356 232.666 180.236 232.743C180.117 232.823 179.94 232.85 179.8 232.802C179.512 232.709 179.374 232.456 179.257 232.283C177.247 229.264 175.753 226.348 174.58 224.296C174.002 223.264 173.527 222.434 173.192 221.864C172.859 221.294 172.675 220.977 172.693 220.965C172.701 220.96 172.758 221.032 172.859 221.174C172.959 221.317 173.107 221.527 173.287 221.806C173.651 222.359 174.154 223.176 174.755 224.196C175.973 226.226 177.496 229.127 179.492 232.124C179.617 232.32 179.73 232.485 179.884 232.531C180.023 232.582 180.159 232.476 180.277 232.307C180.509 231.937 180.736 231.572 180.96 231.214C181.41 230.492 181.843 229.795 182.257 229.13C183.084 227.815 183.832 226.624 184.468 225.61C185.089 224.642 185.599 223.845 185.98 223.25C186.148 222.998 186.288 222.788 186.403 222.616C186.502 222.473 186.558 222.4 186.567 222.405Z" fill="#263238"/>
<path d="M225.306 224.062C225.314 224.066 225.258 224.195 225.143 224.435C225.014 224.699 224.843 225.046 224.629 225.479C224.172 226.381 223.533 227.696 222.767 229.332C221.998 230.966 221.129 232.934 220.215 235.14C219.313 237.35 218.372 239.801 217.471 242.405C216.58 245.013 215.813 247.524 215.164 249.822C214.528 252.124 214.002 254.209 213.603 255.972C213.2 257.732 212.895 259.163 212.701 260.154C212.603 260.628 212.524 261.006 212.464 261.294C212.407 261.554 212.372 261.69 212.362 261.688C212.352 261.686 212.368 261.547 212.408 261.284C212.455 260.994 212.516 260.612 212.593 260.134C212.754 259.136 213.029 257.697 213.407 255.928C213.782 254.158 214.289 252.063 214.913 249.753C215.55 247.447 216.31 244.927 217.204 242.313C218.107 239.704 219.058 237.25 219.974 235.04C220.904 232.835 221.793 230.871 222.587 229.246C223.377 227.618 224.044 226.315 224.532 225.429C224.765 225.005 224.951 224.665 225.093 224.408C225.224 224.176 225.297 224.057 225.306 224.062Z" fill="#263238"/>
<path d="M193.302 295.046C193.3 295.056 193.15 295.051 192.865 295.031C192.553 295.007 192.137 294.974 191.615 294.933C191.073 294.89 190.41 294.829 189.643 294.734C188.876 294.641 187.999 294.553 187.037 294.403C185.109 294.14 182.825 293.743 180.304 293.221C177.788 292.68 175.038 292.004 172.188 291.164C169.342 290.31 166.669 289.374 164.265 288.452C161.869 287.512 159.738 286.597 157.98 285.763C157.092 285.363 156.31 284.959 155.617 284.617C154.922 284.277 154.334 283.966 153.856 283.706C153.397 283.455 153.031 283.256 152.757 283.106C152.507 282.966 152.378 282.888 152.383 282.88C152.387 282.871 152.525 282.932 152.784 283.055C153.064 283.193 153.438 283.377 153.907 283.607C154.392 283.853 154.987 284.15 155.687 284.475C156.386 284.802 157.173 285.194 158.064 285.581C159.83 286.39 161.964 287.284 164.36 288.209C166.763 289.115 169.431 290.041 172.27 290.893C175.112 291.731 177.852 292.413 180.359 292.966C182.87 293.502 185.146 293.918 187.067 294.206C188.025 294.368 188.898 294.471 189.662 294.578C190.427 294.688 191.087 294.765 191.627 294.824C192.145 294.887 192.56 294.938 192.87 294.975C193.154 295.012 193.302 295.037 193.302 295.046Z" fill="#263238"/>
<path d="M190.206 296.27C190.208 296.28 190.108 296.305 189.918 296.344C189.696 296.387 189.42 296.439 189.083 296.503C188.358 296.637 187.302 296.803 185.995 296.983C183.381 297.345 179.748 297.713 175.721 297.855C171.693 297.993 168.043 297.878 165.41 297.698C164.093 297.61 163.03 297.517 162.296 297.433C161.956 297.393 161.677 297.36 161.453 297.333C161.26 297.307 161.16 297.289 161.16 297.279C161.161 297.269 161.264 297.269 161.458 297.276C161.683 297.289 161.963 297.304 162.305 297.323C163.041 297.373 164.105 297.435 165.421 297.498C168.052 297.626 171.693 297.71 175.711 297.572C179.727 297.431 183.353 297.095 185.969 296.785C187.277 296.631 188.335 296.495 189.065 296.394C189.405 296.352 189.684 296.316 189.908 296.288C190.102 296.267 190.205 296.26 190.206 296.27Z" fill="#263238"/>
<path d="M214.967 264.855C214.957 264.852 214.986 264.711 215.049 264.444C215.121 264.151 215.218 263.764 215.338 263.279C215.602 262.241 215.972 260.788 216.425 259.005C217.342 255.396 218.561 250.396 220.06 244.912C220.815 242.171 221.587 239.573 222.336 237.225C223.097 234.881 223.826 232.784 224.5 231.046C224.821 230.17 225.15 229.394 225.428 228.708C225.703 228.021 225.958 227.436 226.175 226.962C226.381 226.508 226.546 226.144 226.672 225.87C226.788 225.622 226.853 225.493 226.862 225.497C226.871 225.501 226.824 225.637 226.724 225.893C226.611 226.172 226.463 226.543 226.276 227.005C226.075 227.485 225.835 228.075 225.575 228.767C225.311 229.457 224.996 230.238 224.687 231.116C224.039 232.86 223.331 234.96 222.584 237.304C221.85 239.653 221.087 242.249 220.332 244.988C218.835 250.467 217.586 255.458 216.619 259.056C216.136 260.855 215.738 262.309 215.445 263.309C215.302 263.787 215.189 264.17 215.104 264.459C215.022 264.721 214.976 264.857 214.967 264.855Z" fill="#263238"/>
<path d="M141.932 263.917C141.924 263.923 141.822 263.805 141.634 263.573C141.452 263.336 141.159 263.006 140.837 262.539C140.161 261.628 139.268 260.243 138.341 258.436C137.411 256.632 136.496 254.383 135.723 251.813C134.949 249.242 134.336 246.349 133.902 243.285C133.07 237.146 132.933 231.541 132.681 227.504C132.568 225.484 132.462 223.849 132.377 222.721C132.337 222.176 132.305 221.743 132.282 221.421C132.262 221.123 132.257 220.966 132.266 220.965C132.276 220.964 132.301 221.119 132.338 221.415C132.374 221.711 132.431 222.147 132.486 222.711C132.605 223.837 132.742 225.471 132.881 227.492C133.184 231.529 133.353 237.13 134.183 243.246C134.615 246.298 135.217 249.178 135.973 251.739C136.728 254.299 137.618 256.54 138.521 258.347C139.419 260.155 140.281 261.548 140.927 262.475C141.234 262.95 141.512 263.291 141.679 263.538C141.852 263.78 141.94 263.911 141.932 263.917Z" fill="#263238"/>
<path d="M139.272 251.34C139.289 251.423 138.462 251.603 137.584 252.124C136.699 252.635 136.139 253.269 136.073 253.214C136.012 253.177 136.503 252.424 137.44 251.88C138.373 251.329 139.27 251.268 139.272 251.34Z" fill="#263238"/>
<path d="M138.742 244.003C138.752 244.089 137.713 244.181 136.609 244.771C135.497 245.346 134.833 246.151 134.768 246.093C134.705 246.062 135.302 245.131 136.478 244.52C137.647 243.897 138.752 243.933 138.742 244.003Z" fill="#263238"/>
<path d="M137.137 237.296C137.142 237.381 136.321 237.424 135.444 237.868C134.56 238.298 134.03 238.925 133.965 238.871C133.9 238.838 134.366 238.081 135.318 237.614C136.265 237.138 137.15 237.226 137.137 237.296Z" fill="#263238"/>
<path d="M136.357 230.374C136.368 230.456 135.642 230.595 134.818 230.951C133.991 231.299 133.389 231.727 133.337 231.662C133.287 231.609 133.836 231.058 134.707 230.69C135.575 230.317 136.353 230.301 136.357 230.374Z" fill="#263238"/>
<path d="M135.905 224.776C135.916 224.859 135.181 224.992 134.363 225.381C133.541 225.761 132.969 226.242 132.912 226.181C132.857 226.133 133.371 225.529 134.243 225.124C135.11 224.713 135.904 224.703 135.905 224.776Z" fill="#263238"/>
<path d="M216.435 256.298C216.368 256.346 215.995 255.845 215.314 255.577C214.638 255.293 214.022 255.392 214.007 255.311C213.971 255.243 214.648 254.995 215.42 255.315C216.196 255.625 216.508 256.275 216.435 256.298Z" fill="#263238"/>
<path d="M218.561 250.577C218.485 250.612 218.19 249.759 217.303 249.202C216.43 248.621 215.531 248.704 215.532 248.62C215.526 248.587 215.744 248.512 216.11 248.524C216.474 248.533 216.983 248.658 217.457 248.963C217.929 249.27 218.253 249.683 218.411 250.011C218.572 250.34 218.593 250.568 218.561 250.577Z" fill="#263238"/>
<path d="M220.154 244.292C220.087 244.342 219.628 243.637 218.71 243.286C217.801 242.913 216.983 243.112 216.969 243.03C216.959 242.997 217.15 242.896 217.491 242.848C217.831 242.799 218.321 242.829 218.815 243.023C219.307 243.219 219.685 243.534 219.898 243.802C220.114 244.071 220.184 244.275 220.154 244.292Z" fill="#263238"/>
<path d="M222.03 238.251C221.956 238.288 221.659 237.729 221 237.392C220.35 237.037 219.719 237.108 219.709 237.025C219.702 236.991 219.855 236.92 220.123 236.905C220.388 236.889 220.767 236.949 221.132 237.141C221.495 237.334 221.759 237.613 221.895 237.842C222.034 238.071 222.062 238.236 222.03 238.251Z" fill="#263238"/>
<path d="M224.226 232.704C224.154 232.741 223.847 232.067 223.065 231.719C222.294 231.349 221.581 231.551 221.563 231.472C221.551 231.441 221.713 231.336 222.016 231.285C222.315 231.233 222.756 231.265 223.184 231.462C223.612 231.661 223.921 231.976 224.076 232.238C224.234 232.502 224.258 232.693 224.226 232.704Z" fill="#263238"/>
<path d="M188.317 224.776C188.325 224.781 188.283 224.872 188.194 225.041C188.086 225.236 187.954 225.478 187.792 225.771C187.437 226.401 186.913 227.308 186.251 228.419C185.589 229.53 184.789 230.848 183.873 232.292C183.414 233.014 182.926 233.768 182.402 234.54C181.874 235.309 181.332 236.106 180.674 236.864C180.505 237.053 180.344 237.237 180.088 237.389C180.025 237.433 179.936 237.446 179.838 237.439C179.748 237.433 179.693 237.393 179.619 237.37C179.501 237.303 179.388 237.232 179.295 237.15C178.909 236.828 178.598 236.466 178.295 236.108C177.696 235.386 177.169 234.657 176.676 233.956C175.693 232.552 174.859 231.256 174.17 230.161C173.482 229.065 172.941 228.168 172.576 227.544C172.41 227.252 172.274 227.013 172.164 226.819C172.073 226.652 172.03 226.561 172.038 226.557C172.046 226.551 172.106 226.632 172.213 226.79C172.335 226.976 172.486 227.206 172.67 227.486C173.087 228.127 173.651 228.995 174.338 230.053C175.048 231.133 175.898 232.416 176.889 233.806C177.386 234.499 177.916 235.222 178.508 235.93C178.806 236.28 179.117 236.638 179.472 236.931C179.643 237.068 179.86 237.221 179.966 237.135C180.128 237.039 180.309 236.856 180.463 236.677C181.1 235.944 181.647 235.147 182.174 234.385C182.698 233.619 183.19 232.869 183.654 232.152C184.581 230.717 185.397 229.413 186.081 228.316C186.748 227.244 187.295 226.365 187.699 225.716C187.879 225.433 188.027 225.201 188.146 225.013C188.249 224.852 188.308 224.771 188.317 224.776Z" fill="#263238"/>
<path d="M176.146 232.903C176.113 232.907 176.045 232.711 176.07 232.381C176.092 232.054 176.236 231.601 176.55 231.202C176.865 230.804 177.272 230.558 177.586 230.461C177.9 230.361 178.107 230.381 178.111 230.414C178.132 230.493 177.338 230.639 176.773 231.378C176.185 232.1 176.227 232.905 176.146 232.903Z" fill="#263238"/>
<path d="M179.899 237.407C179.825 237.417 179.631 236.413 179.623 235.157C179.612 233.899 179.793 232.893 179.867 232.902C179.948 232.91 179.896 233.916 179.907 235.154C179.913 236.392 179.98 237.397 179.899 237.407Z" fill="#263238"/>
<path d="M184.159 231.669C184.08 231.691 183.902 231.059 183.309 230.576C182.727 230.077 182.074 230.015 182.082 229.933C182.083 229.898 182.252 229.86 182.525 229.903C182.796 229.944 183.164 230.086 183.49 230.358C183.815 230.631 184.021 230.968 184.109 231.228C184.2 231.489 184.193 231.662 184.159 231.669Z" fill="#263238"/>
<path d="M186.944 227.012C186.862 227.024 186.765 226.381 186.24 225.834C185.729 225.273 185.094 225.132 185.112 225.052C185.117 225.017 185.288 225 185.551 225.076C185.813 225.149 186.158 225.333 186.447 225.641C186.734 225.949 186.894 226.306 186.95 226.572C187.007 226.84 186.979 227.01 186.944 227.012Z" fill="#263238"/>
<path d="M173.307 228.64C173.274 228.647 173.184 228.425 173.17 228.043C173.154 227.662 173.244 227.123 173.52 226.603C173.798 226.084 174.195 225.708 174.52 225.509C174.846 225.307 175.081 225.259 175.092 225.29C175.135 225.362 174.276 225.758 173.77 226.736C173.24 227.701 173.391 228.635 173.307 228.64Z" fill="#263238"/>
<g opacity="0.4">
<path d="M165.282 210.228C166.506 214.923 168.549 222.568 170.761 228.552C170.862 228.825 170.971 229.109 171.183 229.31C171.744 229.844 172.709 229.516 173.239 228.95C173.741 228.413 174.034 227.719 174.444 227.109C174.854 226.499 175.461 225.935 176.196 225.91C176.795 225.89 177.355 226.24 177.751 226.691C178.146 227.142 178.41 227.69 178.703 228.212C178.86 228.493 179.063 228.796 179.379 228.861C179.694 228.926 180.042 228.64 179.861 228.293L177.905 223.222C177.905 223.222 177.008 219.502 173.898 220.08C170.421 220.728 171.997 226.437 171.997 226.437C171.997 226.437 165.23 210.03 165.282 210.228Z" fill="black"/>
</g>
<path d="M179.956 228.502C179.947 228.506 179.89 228.391 179.788 228.17C179.687 227.948 179.546 227.618 179.369 227.19C179.016 226.3 178.527 225.065 177.927 223.553C177.773 223.171 177.61 222.771 177.428 222.362C177.247 221.948 177.047 221.542 176.716 221.206C176.067 220.545 175.054 220.09 174.008 220.197C173.503 220.267 172.966 220.472 172.581 220.837C172.195 221.209 171.995 221.759 171.809 222.314C171.628 222.85 171.632 223.452 171.691 224.051C171.75 224.652 171.871 225.259 172.013 225.869C172.068 226.091 172.123 226.314 172.174 226.52L171.903 226.601C171.101 224.298 170.18 222.168 169.34 220.237C168.495 218.308 167.726 216.578 167.12 215.11C166.513 213.642 166.069 212.437 165.801 211.592C165.658 211.173 165.571 210.841 165.508 210.616C165.447 210.392 165.419 210.273 165.428 210.27C165.437 210.267 165.483 210.381 165.561 210.6C165.641 210.818 165.745 211.144 165.902 211.557C166.202 212.388 166.671 213.578 167.301 215.033C167.929 216.488 168.716 218.208 169.575 220.133C170.431 222.059 171.362 224.191 172.171 226.508L171.9 226.59C171.848 226.382 171.793 226.158 171.738 225.933C171.594 225.316 171.471 224.698 171.411 224.077C171.353 223.461 171.344 222.822 171.546 222.226C171.738 221.667 171.945 221.074 172.393 220.641C172.847 220.222 173.412 220.014 173.98 219.937C175.127 219.83 176.192 220.325 176.887 221.043C177.239 221.408 177.456 221.861 177.629 222.273C177.807 222.69 177.965 223.094 178.114 223.48C178.679 225.005 179.14 226.251 179.473 227.15C179.624 227.561 179.747 227.892 179.842 228.147C179.925 228.376 179.965 228.498 179.956 228.502Z" fill="#263238"/>
<g opacity="0.4">
<path d="M180.233 228.362C180.115 228.443 180.202 228.653 180.342 228.683C180.482 228.714 180.621 228.631 180.734 228.544C181.461 227.981 181.868 227.111 182.38 226.347C182.892 225.583 183.643 224.851 184.563 224.847C185.54 224.843 186.323 225.662 186.806 226.512C187.289 227.362 187.618 228.324 188.314 229.011C191.813 223.881 194.609 218.273 196.601 212.393C195.454 213.188 194.703 214.422 193.984 215.619C192.13 218.712 190.275 221.806 188.42 224.899C188.031 223.996 187.57 223.097 186.853 222.425C186.135 221.753 185.113 221.337 184.155 221.561C183.072 221.816 182.322 222.795 181.793 223.773C181.018 225.205 180.511 226.781 180.306 228.396" fill="black"/>
</g>
<path d="M253.183 274.124C253.165 274.133 253.035 273.911 252.812 273.5C252.588 273.09 252.283 272.488 251.921 271.735C251.198 270.23 250.276 268.111 249.415 265.712C248.557 263.31 247.923 261.088 247.527 259.466C247.329 258.655 247.182 257.996 247.095 257.537C247.006 257.079 246.966 256.824 246.985 256.819C247.004 256.815 247.081 257.062 247.202 257.512C247.339 258.016 247.513 258.654 247.721 259.416C248.165 261.02 248.826 263.224 249.682 265.616C250.539 268.007 251.428 270.129 252.103 271.651C252.426 272.371 252.697 272.975 252.911 273.451C253.103 273.876 253.201 274.115 253.183 274.124Z" fill="#263238"/>
<path d="M247.751 273.051C247.732 273.056 247.652 272.834 247.522 272.426C247.39 272.019 247.224 271.422 247.042 270.679C246.677 269.193 246.292 267.107 246.106 264.776C245.923 262.445 245.978 260.323 246.105 258.799C246.168 258.037 246.238 257.421 246.305 256.999C246.369 256.575 246.413 256.343 246.433 256.346C246.452 256.348 246.445 256.585 246.414 257.011C246.381 257.436 246.341 258.051 246.304 258.812C246.228 260.332 246.207 262.438 246.387 264.754C246.572 267.069 246.924 269.145 247.237 270.635C247.393 271.38 247.528 271.983 247.628 272.397C247.725 272.813 247.77 273.045 247.751 273.051Z" fill="#263238"/>
<path d="M265.206 223.045C265.212 223.033 265.349 223.085 265.643 223.213L265.729 223.25L265.638 223.283C264.4 223.73 260.051 225.106 254.735 226.072C251.547 226.659 248.63 227 246.515 227.169C245.457 227.256 244.6 227.308 244.007 227.327C243.414 227.349 243.085 227.352 243.084 227.332C243.083 227.312 243.409 227.272 243.999 227.217C244.637 227.154 245.478 227.071 246.496 226.97C248.602 226.75 251.506 226.379 254.684 225.793C259.983 224.831 264.341 223.544 265.616 223.211L265.61 223.28C265.327 223.131 265.2 223.057 265.206 223.045Z" fill="#263238"/>
<path d="M260.286 220.568C260.278 220.56 260.342 220.475 260.519 220.424C260.692 220.371 260.98 220.401 261.251 220.587C261.506 220.765 261.8 221.122 261.722 221.603C261.681 221.835 261.525 222.055 261.304 222.177C261.085 222.301 260.826 222.346 260.573 222.312C260.321 222.277 260.08 222.173 259.899 221.999C259.718 221.823 259.625 221.572 259.631 221.343C259.648 220.869 259.97 220.559 260.241 220.405C260.529 220.25 260.807 220.239 260.979 220.287C261.154 220.333 261.224 220.41 261.217 220.42C261.211 220.469 260.828 220.256 260.345 220.576C260.124 220.726 259.886 221.006 259.892 221.343C259.882 221.684 260.202 221.985 260.61 222.031C261.011 222.089 261.407 221.878 261.468 221.548C261.538 221.228 261.336 220.913 261.131 220.746C260.919 220.573 260.691 220.518 260.538 220.532C260.382 220.544 260.299 220.592 260.286 220.568Z" fill="#263238"/>
<path d="M175.402 232.624C175.409 232.631 175.301 232.725 175.09 232.896C174.874 233.061 174.576 233.332 174.148 233.62C173.315 234.231 172.036 235.023 170.348 235.782C168.663 236.545 166.539 237.212 164.112 237.556C162.898 237.71 161.612 237.807 160.278 237.762C158.945 237.714 157.57 237.55 156.186 237.255C153.423 236.631 150.931 235.612 148.587 234.984C147.418 234.659 146.287 234.429 145.219 234.32C144.148 234.219 143.142 234.237 142.236 234.349C140.418 234.57 139.031 235.191 138.194 235.773C137.348 236.351 136.983 236.8 136.957 236.774C136.957 236.774 137.292 236.297 138.131 235.682C138.96 235.064 140.364 234.401 142.21 234.15C143.13 234.023 144.153 233.993 145.241 234.085C146.329 234.186 147.477 234.412 148.656 234.731C151.023 235.352 153.519 236.362 156.249 236.977C157.615 237.269 158.972 237.433 160.288 237.484C161.606 237.532 162.877 237.442 164.079 237.296C166.481 236.97 168.589 236.33 170.269 235.597C171.953 234.869 173.239 234.109 174.087 233.529C174.524 233.257 174.831 233 175.057 232.85C175.277 232.694 175.396 232.616 175.402 232.624Z" fill="#FAFAFA"/>
<path d="M211.699 256.148C211.697 256.152 211.638 256.126 211.526 256.069C211.402 256.005 211.238 255.919 211.032 255.812C210.815 255.701 210.533 255.589 210.208 255.442C209.871 255.325 209.492 255.161 209.041 255.047C207.271 254.512 204.541 254.239 201.26 254.764C199.618 255.005 197.853 255.447 195.968 255.966C194.082 256.481 192.073 257.078 189.909 257.519C187.751 257.966 185.407 258.2 183.007 257.94C180.603 257.716 178.188 257.038 175.778 256.239C173.366 255.427 171.057 254.52 168.789 253.764C166.528 252.992 164.29 252.42 162.119 252.128C157.768 251.531 153.773 251.976 150.558 252.756C148.946 253.153 147.529 253.653 146.3 254.131C145.696 254.395 145.127 254.627 144.619 254.873C144.116 255.129 143.645 255.344 143.239 255.57C142.836 255.795 142.476 255.997 142.161 256.172C141.861 256.358 141.604 256.516 141.391 256.648C141.193 256.769 141.035 256.865 140.916 256.938C140.808 257.002 140.75 257.033 140.748 257.029C140.745 257.025 140.797 256.986 140.9 256.914C141.015 256.835 141.168 256.731 141.361 256.6C141.565 256.465 141.814 256.29 142.119 256.1C142.43 255.918 142.787 255.708 143.187 255.473C143.589 255.238 144.058 255.016 144.561 254.751C145.068 254.497 145.636 254.256 146.24 253.984C147.469 253.49 148.891 252.973 150.51 252.562C153.739 251.752 157.763 251.282 162.154 251.868C164.346 252.156 166.607 252.729 168.877 253.5C171.155 254.256 173.465 255.161 175.868 255.97C178.269 256.766 180.663 257.439 183.035 257.663C185.404 257.924 187.712 257.699 189.858 257.262C192.008 256.832 194.016 256.244 195.907 255.738C197.796 255.229 199.576 254.795 201.232 254.565C204.539 254.061 207.298 254.368 209.074 254.94C209.525 255.064 209.905 255.238 210.241 255.363C210.565 255.52 210.844 255.641 211.059 255.76C211.261 255.878 211.42 255.971 211.541 256.043C211.649 256.109 211.702 256.144 211.699 256.148Z" fill="#FAFAFA"/>
<path d="M182.916 232.219C182.926 232.186 183.422 232.411 184.376 232.539C185.325 232.677 186.739 232.65 188.405 232.217C190.08 231.81 191.948 230.94 194.08 230.094C195.148 229.68 196.299 229.288 197.537 229.063C198.773 228.846 200.08 228.757 201.407 228.841C204.069 228.994 206.535 229.707 208.655 230.581C210.779 231.46 212.582 232.483 214.061 233.384C215.539 234.287 216.699 235.074 217.498 235.619C217.877 235.882 218.18 236.094 218.413 236.256C218.62 236.404 218.726 236.486 218.721 236.494C218.716 236.502 218.598 236.437 218.381 236.304C218.142 236.153 217.828 235.956 217.438 235.711C216.62 235.195 215.444 234.435 213.957 233.556C212.47 232.681 210.667 231.682 208.556 230.823C206.45 229.97 204.011 229.275 201.391 229.124C200.084 229.042 198.801 229.128 197.586 229.338C196.372 229.553 195.237 229.933 194.173 230.339C192.051 231.164 190.156 232.024 188.452 232.412C186.758 232.826 185.316 232.823 184.359 232.649C183.396 232.484 182.916 232.219 182.916 232.219Z" fill="#FAFAFA"/>
<path d="M216.303 217.89C216.308 217.909 216.019 217.996 215.491 218.137C215.227 218.21 214.904 218.292 214.523 218.366C214.142 218.444 213.711 218.545 213.227 218.613C212.264 218.781 211.105 218.909 209.813 218.981C208.521 219.038 207.097 219.03 205.608 218.909C204.12 218.777 202.714 218.544 201.45 218.27C200.189 217.98 199.069 217.659 198.147 217.331C197.682 217.182 197.274 217.009 196.912 216.869C196.549 216.732 196.244 216.596 195.996 216.479C195.5 216.251 195.23 216.116 195.238 216.099C195.246 216.081 195.531 216.181 196.039 216.377C196.291 216.478 196.601 216.599 196.968 216.721C197.334 216.846 197.743 217.005 198.21 217.141C199.133 217.443 200.252 217.742 201.505 218.015C202.762 218.273 204.156 218.496 205.631 218.627C207.107 218.747 208.519 218.762 209.801 218.721C211.083 218.663 212.235 218.557 213.196 218.415C213.679 218.36 214.11 218.273 214.491 218.211C214.873 218.152 215.199 218.086 215.465 218.029C216 217.922 216.297 217.871 216.303 217.89Z" fill="#FAFAFA"/>
<path d="M135.856 221.562C135.85 221.554 135.936 221.478 136.105 221.341C136.274 221.205 136.524 221.003 136.854 220.755C137.511 220.252 138.475 219.545 139.704 218.72C142.153 217.083 145.706 214.951 150.044 213.614C154.385 212.276 158.602 212.235 161.506 212.814C162.964 213.092 164.112 213.463 164.877 213.779C165.266 213.921 165.551 214.075 165.749 214.163C165.946 214.256 166.047 214.309 166.043 214.318C166.033 214.342 165.612 214.161 164.838 213.882C164.065 213.6 162.919 213.262 161.471 213.012C158.586 212.488 154.425 212.561 150.127 213.885C145.83 215.21 142.284 217.298 139.813 218.888C138.575 219.689 137.595 220.37 136.919 220.844C136.601 221.066 136.342 221.246 136.139 221.387C135.959 221.509 135.861 221.57 135.856 221.562Z" fill="#FAFAFA"/>
<path d="M207.752 281.467C207.754 281.471 207.699 281.487 207.592 281.511C207.469 281.538 207.311 281.572 207.113 281.615C206.904 281.667 206.64 281.707 206.326 281.734C206.168 281.751 206 281.768 205.82 281.788C205.638 281.793 205.445 281.798 205.241 281.803C203.598 281.872 201.234 281.449 198.455 280.555C197.061 280.12 195.554 279.588 193.914 279.102C192.276 278.615 190.485 278.241 188.574 278.066C184.744 277.7 180.504 278.161 176.138 278.957C171.764 279.745 167.63 280.738 163.788 281.196C159.954 281.668 156.44 281.701 153.543 281.262C150.636 280.87 148.397 279.988 146.938 279.267C146.576 279.076 146.252 278.913 145.977 278.761C145.716 278.595 145.492 278.453 145.305 278.334C145.136 278.223 145.001 278.135 144.896 278.066C144.804 278.005 144.759 277.972 144.762 277.967C144.765 277.963 144.815 277.989 144.912 278.042C145.021 278.104 145.16 278.185 145.335 278.285C145.525 278.397 145.752 278.531 146.017 278.687C146.301 278.827 146.624 278.987 146.986 279.167C148.451 279.854 150.681 280.7 153.571 281.063C156.45 281.474 159.939 281.421 163.755 280.936C167.577 280.467 171.702 279.468 176.087 278.679C180.463 277.88 184.733 277.422 188.597 277.806C190.525 277.989 192.336 278.377 193.981 278.877C195.626 279.376 197.129 279.918 198.515 280.364C201.278 281.279 203.61 281.728 205.239 281.693C205.441 281.692 205.633 281.691 205.814 281.69C205.992 281.676 206.16 281.662 206.317 281.65C206.63 281.632 206.893 281.601 207.103 281.558C207.302 281.527 207.461 281.502 207.585 281.483C207.695 281.467 207.751 281.462 207.752 281.467Z" fill="#FAFAFA"/>
<g opacity="0.3">
<path d="M157.424 285.402C160.013 291.861 165.023 296.45 171.916 297.399C178.81 298.347 185.785 296.769 192.499 294.942C180.291 293.234 169.493 291.542 157.424 285.402Z" fill="black"/>
</g>
<path d="M209.502 303.165C209.5 303.17 209.442 303.149 209.333 303.104C209.21 303.051 209.051 302.983 208.849 302.897C208.41 302.702 207.791 302.427 207.002 302.077C205.395 301.371 203.094 300.287 200.219 299.041C198.776 298.435 197.17 297.818 195.381 297.404C193.596 296.981 191.617 296.838 189.576 297.134C188.558 297.283 187.525 297.519 186.493 297.834C185.463 298.158 184.431 298.555 183.4 299.004C181.337 299.903 179.286 301.024 177.176 302.155C175.064 303.287 172.958 304.334 170.824 305.111C168.695 305.884 166.528 306.386 164.431 306.413C162.33 306.473 160.357 305.972 158.642 305.278C156.919 304.584 155.423 303.716 154.057 302.946C152.694 302.169 151.466 301.458 150.346 300.916C149.226 300.381 148.24 299.954 147.398 299.716C146.985 299.569 146.604 299.494 146.277 299.413C145.951 299.325 145.669 299.283 145.441 299.252C145.225 299.217 145.054 299.19 144.922 299.169C144.805 299.149 144.746 299.136 144.746 299.132C144.747 299.127 144.807 299.13 144.925 299.141C145.058 299.155 145.23 299.173 145.449 299.196C145.679 299.217 145.965 299.251 146.294 299.331C146.625 299.404 147.012 299.47 147.43 299.61C148.283 299.834 149.282 300.249 150.416 300.774C151.548 301.306 152.786 302.007 154.155 302.772C155.526 303.531 157.022 304.384 158.73 305.061C160.43 305.738 162.362 306.218 164.426 306.153C166.485 306.119 168.621 305.62 170.729 304.851C172.841 304.078 174.934 303.035 177.042 301.906C179.151 300.776 181.209 299.653 183.289 298.75C184.328 298.299 185.37 297.902 186.413 297.576C187.458 297.26 188.505 297.024 189.54 296.877C191.613 296.582 193.631 296.737 195.434 297.176C197.241 297.605 198.854 298.238 200.297 298.858C203.171 300.131 205.453 301.24 207.047 301.978C207.827 302.348 208.439 302.639 208.873 302.846C209.069 302.942 209.225 303.019 209.345 303.078C209.45 303.131 209.504 303.161 209.502 303.165Z" fill="#FAFAFA"/>
</g>
<defs>
<clipPath id="clip0_27976_1551">
<rect width="340" height="390" rx="20" fill="white"/>
</clipPath>
</defs>
</svg>
