<svg width="340" height="390" viewBox="0 0 340 390" fill="none" xmlns="http://www.w3.org/2000/svg">
<rect width="340" height="390" rx="20" fill="white"/>
<path d="M158.899 279.619H179.848V193.063H158.899V279.619Z" fill="#EBEBEB"/>
<path d="M169.572 211.118H175.94V199.13H169.572V211.118Z" fill="white"/>
<path d="M172.576 211.118C172.623 211.118 172.662 208.434 172.662 205.124C172.662 201.813 172.623 199.13 172.576 199.13C172.529 199.13 172.491 201.813 172.491 205.124C172.491 208.434 172.529 211.118 172.576 211.118Z" fill="#E0E0E0"/>
<path d="M169.573 203.295C169.573 203.341 170.998 203.378 172.756 203.378C174.515 203.378 175.94 203.341 175.94 203.295C175.94 203.249 174.515 203.212 172.756 203.212C170.999 203.212 169.573 203.249 169.573 203.295Z" fill="#E0E0E0"/>
<path d="M169.539 207.582C169.539 207.629 170.976 207.665 172.748 207.665C174.521 207.665 175.958 207.628 175.958 207.582C175.958 207.536 174.521 207.5 172.748 207.5C170.976 207.5 169.539 207.536 169.539 207.582Z" fill="#E0E0E0"/>
<path d="M169.574 226.777H175.942V214.789H169.574V226.777Z" fill="white"/>
<path d="M172.578 226.777C172.625 226.777 172.664 224.093 172.664 220.783C172.664 217.472 172.625 214.789 172.578 214.789C172.531 214.789 172.493 217.472 172.493 220.783C172.493 224.093 172.531 226.777 172.578 226.777Z" fill="#E0E0E0"/>
<path d="M169.575 218.954C169.575 219 171 219.037 172.758 219.037C174.517 219.037 175.942 218.999 175.942 218.954C175.942 218.907 174.517 218.871 172.758 218.871C171.001 218.871 169.575 218.907 169.575 218.954Z" fill="#E0E0E0"/>
<path d="M169.541 223.241C169.541 223.287 170.978 223.324 172.75 223.324C174.524 223.324 175.961 223.286 175.961 223.241C175.961 223.195 174.524 223.158 172.75 223.158C170.978 223.158 169.541 223.195 169.541 223.241Z" fill="#E0E0E0"/>
<path d="M169.574 242.436H175.942V230.448H169.574V242.436Z" fill="white"/>
<path d="M172.578 242.436C172.625 242.436 172.664 239.752 172.664 236.442C172.664 233.131 172.625 230.448 172.578 230.448C172.531 230.448 172.493 233.131 172.493 236.442C172.493 239.752 172.531 242.436 172.578 242.436Z" fill="#E0E0E0"/>
<path d="M169.575 234.613C169.575 234.659 171 234.696 172.758 234.696C174.517 234.696 175.942 234.659 175.942 234.613C175.942 234.567 174.517 234.53 172.758 234.53C171.001 234.53 169.575 234.567 169.575 234.613Z" fill="#E0E0E0"/>
<path d="M169.541 238.9C169.541 238.946 170.978 238.983 172.75 238.983C174.524 238.983 175.961 238.946 175.961 238.9C175.961 238.854 174.524 238.817 172.75 238.817C170.978 238.817 169.541 238.854 169.541 238.9Z" fill="#E0E0E0"/>
<path d="M169.574 258.095H175.942V246.107H169.574V258.095Z" fill="white"/>
<path d="M172.578 258.095C172.625 258.095 172.664 255.411 172.664 252.102C172.664 248.79 172.625 246.107 172.578 246.107C172.531 246.107 172.493 248.79 172.493 252.102C172.493 255.411 172.531 258.095 172.578 258.095Z" fill="#E0E0E0"/>
<path d="M169.575 250.271C169.575 250.318 171 250.354 172.758 250.354C174.517 250.354 175.942 250.317 175.942 250.271C175.942 250.225 174.517 250.188 172.758 250.188C171.001 250.188 169.575 250.226 169.575 250.271Z" fill="#E0E0E0"/>
<path d="M169.541 254.559C169.541 254.605 170.978 254.642 172.75 254.642C174.524 254.642 175.961 254.605 175.961 254.559C175.961 254.513 174.524 254.476 172.75 254.476C170.978 254.476 169.541 254.513 169.541 254.559Z" fill="#E0E0E0"/>
<path d="M149.989 279.619H165.253V193.063H149.989V279.619Z" fill="#E0E0E0"/>
<path d="M154.144 211.118H160.511V199.13H154.144V211.118Z" fill="white"/>
<path d="M157.147 211.118C157.195 211.118 157.232 208.434 157.232 205.124C157.232 201.813 157.194 199.13 157.147 199.13C157.1 199.13 157.063 201.813 157.063 205.124C157.062 208.434 157.1 211.118 157.147 211.118Z" fill="#E0E0E0"/>
<path d="M154.144 203.295C154.144 203.341 155.569 203.378 157.328 203.378C159.086 203.378 160.511 203.341 160.511 203.295C160.511 203.249 159.086 203.212 157.328 203.212C155.569 203.212 154.144 203.249 154.144 203.295Z" fill="#E0E0E0"/>
<path d="M154.11 207.582C154.11 207.629 155.547 207.665 157.32 207.665C159.093 207.665 160.53 207.628 160.53 207.582C160.53 207.536 159.093 207.5 157.32 207.5C155.548 207.5 154.11 207.536 154.11 207.582Z" fill="#E0E0E0"/>
<path d="M154.144 226.905H160.511V214.917H154.144V226.905Z" fill="white"/>
<path d="M157.147 226.905C157.195 226.905 157.232 224.222 157.232 220.911C157.232 217.6 157.194 214.917 157.147 214.917C157.1 214.917 157.063 217.6 157.063 220.911C157.062 224.221 157.1 226.905 157.147 226.905Z" fill="#E0E0E0"/>
<path d="M154.144 219.082C154.144 219.128 155.569 219.166 157.328 219.166C159.086 219.166 160.511 219.128 160.511 219.082C160.511 219.036 159.086 218.999 157.328 218.999C155.569 218.999 154.144 219.036 154.144 219.082Z" fill="#E0E0E0"/>
<path d="M154.11 223.369C154.11 223.415 155.547 223.453 157.32 223.453C159.093 223.453 160.53 223.415 160.53 223.369C160.53 223.323 159.093 223.286 157.32 223.286C155.548 223.286 154.11 223.324 154.11 223.369Z" fill="#E0E0E0"/>
<path d="M154.144 242.693H160.511V230.705H154.144V242.693Z" fill="white"/>
<path d="M157.147 242.693C157.195 242.693 157.232 240.009 157.232 236.699C157.232 233.388 157.194 230.705 157.147 230.705C157.1 230.705 157.063 233.388 157.063 236.699C157.062 240.009 157.1 242.693 157.147 242.693Z" fill="#E0E0E0"/>
<path d="M154.144 234.87C154.144 234.916 155.569 234.953 157.328 234.953C159.086 234.953 160.511 234.915 160.511 234.87C160.511 234.824 159.086 234.787 157.328 234.787C155.569 234.787 154.144 234.824 154.144 234.87Z" fill="#E0E0E0"/>
<path d="M154.11 239.157C154.11 239.203 155.547 239.24 157.32 239.24C159.093 239.24 160.53 239.203 160.53 239.157C160.53 239.111 159.093 239.074 157.32 239.074C155.548 239.074 154.11 239.111 154.11 239.157Z" fill="#E0E0E0"/>
<path d="M154.144 258.48H160.511V246.492H154.144V258.48Z" fill="white"/>
<path d="M157.147 258.48C157.195 258.48 157.232 255.797 157.232 252.487C157.232 249.176 157.194 246.493 157.147 246.493C157.1 246.493 157.063 249.176 157.063 252.487C157.062 255.797 157.1 258.48 157.147 258.48Z" fill="#E0E0E0"/>
<path d="M154.144 250.657C154.144 250.703 155.569 250.74 157.328 250.74C159.086 250.74 160.511 250.702 160.511 250.657C160.511 250.611 159.086 250.574 157.328 250.574C155.569 250.574 154.144 250.611 154.144 250.657Z" fill="#E0E0E0"/>
<path d="M154.11 254.944C154.11 254.99 155.547 255.027 157.32 255.027C159.093 255.027 160.53 254.99 160.53 254.944C160.53 254.898 159.093 254.861 157.32 254.861C155.548 254.861 154.11 254.898 154.11 254.944Z" fill="#E0E0E0"/>
<path d="M169.574 273.753H175.942V261.765H169.574V273.753Z" fill="white"/>
<path d="M172.578 273.753C172.625 273.753 172.664 271.07 172.664 267.76C172.664 264.449 172.625 261.766 172.578 261.766C172.531 261.766 172.493 264.449 172.493 267.76C172.493 271.07 172.531 273.753 172.578 273.753Z" fill="#E0E0E0"/>
<path d="M169.575 265.931C169.575 265.977 171 266.014 172.758 266.014C174.517 266.014 175.942 265.977 175.942 265.931C175.942 265.885 174.517 265.847 172.758 265.847C171.001 265.847 169.575 265.885 169.575 265.931Z" fill="#E0E0E0"/>
<path d="M169.541 270.218C169.541 270.264 170.978 270.301 172.75 270.301C174.524 270.301 175.961 270.263 175.961 270.218C175.961 270.172 174.524 270.135 172.75 270.135C170.978 270.135 169.541 270.172 169.541 270.218Z" fill="#E0E0E0"/>
<path d="M154.144 274.268H160.511V262.279H154.144V274.268Z" fill="white"/>
<path d="M157.147 274.267C157.195 274.267 157.232 271.584 157.232 268.274C157.232 264.963 157.194 262.28 157.147 262.28C157.1 262.28 157.063 264.963 157.063 268.274C157.062 271.584 157.1 274.267 157.147 274.267Z" fill="#E0E0E0"/>
<path d="M154.144 266.445C154.144 266.491 155.569 266.528 157.328 266.528C159.086 266.528 160.511 266.491 160.511 266.445C160.511 266.399 159.086 266.362 157.328 266.362C155.569 266.361 154.144 266.399 154.144 266.445Z" fill="#E0E0E0"/>
<path d="M154.11 270.732C154.11 270.778 155.547 270.815 157.32 270.815C159.093 270.815 160.53 270.777 160.53 270.732C160.53 270.686 159.093 270.649 157.32 270.649C155.548 270.649 154.11 270.686 154.11 270.732Z" fill="#E0E0E0"/>
<path d="M159.235 331.423H180.184V244.868H159.235V331.423Z" fill="#EBEBEB"/>
<path d="M169.91 262.923H176.277V250.935H169.91V262.923Z" fill="white"/>
<path d="M172.914 262.923C172.961 262.923 172.999 260.239 172.999 256.929C172.999 253.618 172.961 250.935 172.914 250.935C172.867 250.935 172.829 253.618 172.829 256.929C172.829 260.239 172.867 262.923 172.914 262.923Z" fill="#E0E0E0"/>
<path d="M169.91 255.1C169.91 255.146 171.336 255.183 173.094 255.183C174.853 255.183 176.278 255.145 176.278 255.1C176.278 255.053 174.853 255.017 173.094 255.017C171.336 255.017 169.91 255.054 169.91 255.1Z" fill="#E0E0E0"/>
<path d="M169.876 259.387C169.876 259.433 171.314 259.47 173.086 259.47C174.859 259.47 176.296 259.433 176.296 259.387C176.296 259.341 174.859 259.304 173.086 259.304C171.314 259.304 169.876 259.341 169.876 259.387Z" fill="#E0E0E0"/>
<path d="M169.91 278.582H176.277V266.594H169.91V278.582Z" fill="white"/>
<path d="M172.914 278.582C172.961 278.582 172.999 275.898 172.999 272.587C172.999 269.276 172.961 266.593 172.914 266.593C172.867 266.593 172.829 269.276 172.829 272.587C172.829 275.898 172.867 278.582 172.914 278.582Z" fill="#E0E0E0"/>
<path d="M169.91 270.758C169.91 270.804 171.336 270.841 173.094 270.841C174.853 270.841 176.278 270.804 176.278 270.758C176.278 270.712 174.853 270.675 173.094 270.675C171.336 270.675 169.91 270.713 169.91 270.758Z" fill="#E0E0E0"/>
<path d="M169.876 275.046C169.876 275.092 171.314 275.129 173.086 275.129C174.859 275.129 176.296 275.091 176.296 275.046C176.296 275 174.859 274.963 173.086 274.963C171.314 274.963 169.876 275 169.876 275.046Z" fill="#E0E0E0"/>
<path d="M169.91 294.24H176.277V282.252H169.91V294.24Z" fill="white"/>
<path d="M172.914 294.24C172.961 294.24 172.999 291.556 172.999 288.247C172.999 284.936 172.961 282.252 172.914 282.252C172.867 282.252 172.829 284.936 172.829 288.247C172.829 291.556 172.867 294.24 172.914 294.24Z" fill="#E0E0E0"/>
<path d="M169.91 286.417C169.91 286.464 171.336 286.501 173.094 286.501C174.853 286.501 176.278 286.464 176.278 286.417C176.278 286.371 174.853 286.334 173.094 286.334C171.336 286.334 169.91 286.371 169.91 286.417Z" fill="#E0E0E0"/>
<path d="M169.876 290.705C169.876 290.751 171.314 290.788 173.086 290.788C174.859 290.788 176.296 290.75 176.296 290.705C176.296 290.658 174.859 290.622 173.086 290.622C171.314 290.622 169.876 290.659 169.876 290.705Z" fill="#E0E0E0"/>
<path d="M169.91 309.899H176.277V297.911H169.91V309.899Z" fill="white"/>
<path d="M172.914 309.9C172.961 309.9 172.999 307.216 172.999 303.906C172.999 300.595 172.961 297.912 172.914 297.912C172.867 297.912 172.829 300.595 172.829 303.906C172.829 307.216 172.867 309.9 172.914 309.9Z" fill="#E0E0E0"/>
<path d="M169.91 302.076C169.91 302.122 171.336 302.159 173.094 302.159C174.853 302.159 176.278 302.122 176.278 302.076C176.278 302.03 174.853 301.993 173.094 301.993C171.336 301.993 169.91 302.03 169.91 302.076Z" fill="#E0E0E0"/>
<path d="M169.876 306.363C169.876 306.409 171.314 306.446 173.086 306.446C174.859 306.446 176.296 306.409 176.296 306.363C176.296 306.317 174.859 306.28 173.086 306.28C171.314 306.28 169.876 306.318 169.876 306.363Z" fill="#E0E0E0"/>
<path d="M150.325 331.423H165.589V244.868H150.325V331.423Z" fill="#E0E0E0"/>
<path d="M154.481 262.923H160.849V250.935H154.481V262.923Z" fill="white"/>
<path d="M157.485 262.923C157.532 262.923 157.57 260.239 157.57 256.929C157.57 253.618 157.532 250.935 157.485 250.935C157.438 250.935 157.4 253.618 157.4 256.929C157.4 260.239 157.439 262.923 157.485 262.923Z" fill="#E0E0E0"/>
<path d="M154.482 255.1C154.482 255.146 155.907 255.183 157.666 255.183C159.425 255.183 160.849 255.145 160.849 255.1C160.849 255.053 159.424 255.017 157.666 255.017C155.907 255.017 154.482 255.054 154.482 255.1Z" fill="#E0E0E0"/>
<path d="M154.448 259.387C154.448 259.433 155.885 259.47 157.657 259.47C159.431 259.47 160.868 259.433 160.868 259.387C160.868 259.341 159.431 259.304 157.657 259.304C155.885 259.304 154.448 259.341 154.448 259.387Z" fill="#E0E0E0"/>
<path d="M154.481 278.709H160.849V266.721H154.481V278.709Z" fill="white"/>
<path d="M157.485 278.71C157.532 278.71 157.57 276.026 157.57 272.716C157.57 269.405 157.532 266.722 157.485 266.722C157.438 266.722 157.4 269.405 157.4 272.716C157.4 276.026 157.439 278.71 157.485 278.71Z" fill="#E0E0E0"/>
<path d="M154.482 270.887C154.482 270.933 155.907 270.97 157.666 270.97C159.425 270.97 160.849 270.932 160.849 270.887C160.849 270.841 159.424 270.804 157.666 270.804C155.907 270.803 154.482 270.841 154.482 270.887Z" fill="#E0E0E0"/>
<path d="M154.448 275.174C154.448 275.22 155.885 275.257 157.657 275.257C159.431 275.257 160.868 275.22 160.868 275.174C160.868 275.128 159.431 275.091 157.657 275.091C155.885 275.091 154.448 275.128 154.448 275.174Z" fill="#E0E0E0"/>
<path d="M154.481 294.498H160.849V282.509H154.481V294.498Z" fill="white"/>
<path d="M157.485 294.497C157.532 294.497 157.57 291.813 157.57 288.503C157.57 285.192 157.532 282.509 157.485 282.509C157.438 282.509 157.4 285.192 157.4 288.503C157.4 291.813 157.439 294.497 157.485 294.497Z" fill="#E0E0E0"/>
<path d="M154.482 286.674C154.482 286.72 155.907 286.757 157.666 286.757C159.425 286.757 160.849 286.72 160.849 286.674C160.849 286.628 159.424 286.591 157.666 286.591C155.907 286.591 154.482 286.628 154.482 286.674Z" fill="#E0E0E0"/>
<path d="M154.448 290.961C154.448 291.007 155.885 291.044 157.657 291.044C159.431 291.044 160.868 291.007 160.868 290.961C160.868 290.915 159.431 290.878 157.657 290.878C155.885 290.878 154.448 290.915 154.448 290.961Z" fill="#E0E0E0"/>
<path d="M154.481 310.285H160.849V298.296H154.481V310.285Z" fill="white"/>
<path d="M157.485 310.285C157.532 310.285 157.57 307.601 157.57 304.291C157.57 300.98 157.532 298.297 157.485 298.297C157.438 298.297 157.4 300.98 157.4 304.291C157.4 307.601 157.439 310.285 157.485 310.285Z" fill="#E0E0E0"/>
<path d="M154.482 302.462C154.482 302.508 155.907 302.545 157.666 302.545C159.425 302.545 160.849 302.507 160.849 302.462C160.849 302.416 159.424 302.379 157.666 302.379C155.907 302.379 154.482 302.416 154.482 302.462Z" fill="#E0E0E0"/>
<path d="M154.448 306.748C154.448 306.795 155.885 306.831 157.657 306.831C159.431 306.831 160.868 306.794 160.868 306.748C160.868 306.702 159.431 306.666 157.657 306.666C155.885 306.666 154.448 306.703 154.448 306.748Z" fill="#E0E0E0"/>
<path d="M169.91 325.558H176.277V313.57H169.91V325.558Z" fill="white"/>
<path d="M172.914 325.558C172.961 325.558 172.999 322.874 172.999 319.565C172.999 316.253 172.961 313.57 172.914 313.57C172.867 313.57 172.829 316.253 172.829 319.565C172.829 322.874 172.867 325.558 172.914 325.558Z" fill="#E0E0E0"/>
<path d="M169.91 317.735C169.91 317.781 171.336 317.818 173.094 317.818C174.853 317.818 176.278 317.78 176.278 317.735C176.278 317.689 174.853 317.651 173.094 317.651C171.336 317.652 169.91 317.689 169.91 317.735Z" fill="#E0E0E0"/>
<path d="M169.876 322.022C169.876 322.069 171.314 322.105 173.086 322.105C174.859 322.105 176.296 322.068 176.296 322.022C176.296 321.976 174.859 321.939 173.086 321.939C171.314 321.939 169.876 321.976 169.876 322.022Z" fill="#E0E0E0"/>
<path d="M154.481 326.072H160.849V314.084H154.481V326.072Z" fill="white"/>
<path d="M157.485 326.072C157.532 326.072 157.57 323.388 157.57 320.079C157.57 316.768 157.532 314.084 157.485 314.084C157.438 314.084 157.4 316.768 157.4 320.079C157.4 323.388 157.439 326.072 157.485 326.072Z" fill="#E0E0E0"/>
<path d="M154.482 318.249C154.482 318.295 155.907 318.332 157.666 318.332C159.425 318.332 160.849 318.294 160.849 318.249C160.849 318.203 159.424 318.166 157.666 318.166C155.907 318.166 154.482 318.203 154.482 318.249Z" fill="#E0E0E0"/>
<path d="M154.448 322.537C154.448 322.583 155.885 322.62 157.657 322.62C159.431 322.62 160.868 322.582 160.868 322.537C160.868 322.49 159.431 322.454 157.657 322.454C155.885 322.453 154.448 322.49 154.448 322.537Z" fill="#E0E0E0"/>
<path d="M0 331H26L26 194H0L0 331Z" fill="#EBEBEB"/>
<path d="M10.6979 221.36H20.2078L20.2078 203.455H10.6979L10.6979 221.36Z" fill="white"/>
<path d="M15.1852 221.36C15.2554 221.36 15.3126 217.351 15.3126 212.408C15.3126 207.463 15.2554 203.455 15.1852 203.455C15.1151 203.455 15.0579 207.463 15.0579 212.408C15.0585 217.351 15.1151 221.36 15.1852 221.36Z" fill="#E0E0E0"/>
<path d="M10.6985 209.676C10.6985 209.744 12.8272 209.8 15.4531 209.8C18.0796 209.8 20.2083 209.745 20.2083 209.676C20.2083 209.607 18.0796 209.551 15.4531 209.551C12.8278 209.551 10.6985 209.607 10.6985 209.676Z" fill="#E0E0E0"/>
<path d="M10.6482 216.08C10.6482 216.148 12.7946 216.204 15.4417 216.204C18.09 216.204 20.2364 216.149 20.2364 216.08C20.2364 216.011 18.0906 215.955 15.4417 215.955C12.7946 215.955 10.6482 216.01 10.6482 216.08Z" fill="#E0E0E0"/>
<path d="M10.6979 244.749H20.2078L20.2078 226.843H10.6979L10.6979 244.749Z" fill="white"/>
<path d="M15.1852 244.748C15.2554 244.748 15.3126 240.739 15.3126 235.796C15.3126 230.85 15.2554 226.843 15.1852 226.843C15.1151 226.843 15.0579 230.85 15.0579 235.796C15.0585 240.74 15.1151 244.748 15.1852 244.748Z" fill="#E0E0E0"/>
<path d="M10.6985 233.063C10.6985 233.132 12.8272 233.188 15.4531 233.188C18.0796 233.188 20.2083 233.132 20.2083 233.063C20.2083 232.995 18.0796 232.939 15.4531 232.939C12.8278 232.94 10.6985 232.995 10.6985 233.063Z" fill="#E0E0E0"/>
<path d="M10.6482 239.467C10.6482 239.536 12.7946 239.592 15.4417 239.592C18.09 239.592 20.2364 239.536 20.2364 239.467C20.2364 239.398 18.0906 239.343 15.4417 239.343C12.7946 239.343 10.6482 239.399 10.6482 239.467Z" fill="#E0E0E0"/>
<path d="M10.6979 268.136H20.2078L20.2078 250.231H10.6979L10.6979 268.136Z" fill="white"/>
<path d="M15.1852 268.136C15.2554 268.136 15.3126 264.127 15.3126 259.184C15.3126 254.239 15.2554 250.231 15.1852 250.231C15.1151 250.231 15.0579 254.239 15.0579 259.184C15.0585 264.127 15.1151 268.136 15.1852 268.136Z" fill="#E0E0E0"/>
<path d="M10.6985 256.452C10.6985 256.52 12.8272 256.575 15.4531 256.575C18.0796 256.575 20.2083 256.52 20.2083 256.452C20.2083 256.383 18.0796 256.327 15.4531 256.327C12.8278 256.327 10.6985 256.383 10.6985 256.452Z" fill="#E0E0E0"/>
<path d="M10.6482 262.854C10.6482 262.923 12.7946 262.979 15.4417 262.979C18.09 262.979 20.2364 262.923 20.2364 262.854C20.2364 262.786 18.0906 262.73 15.4417 262.73C12.7946 262.731 10.6482 262.786 10.6482 262.854Z" fill="#E0E0E0"/>
<path d="M10.6979 291.524H20.2078L20.2078 273.619H10.6979L10.6979 291.524Z" fill="white"/>
<path d="M15.1852 291.524C15.2554 291.524 15.3126 287.515 15.3126 282.572C15.3126 277.626 15.2554 273.619 15.1852 273.619C15.1151 273.619 15.0579 277.626 15.0579 282.572C15.0585 287.516 15.1151 291.524 15.1852 291.524Z" fill="#E0E0E0"/>
<path d="M10.6985 279.839C10.6985 279.908 12.8272 279.964 15.4531 279.964C18.0796 279.964 20.2083 279.908 20.2083 279.839C20.2083 279.771 18.0796 279.715 15.4531 279.715C12.8278 279.715 10.6985 279.771 10.6985 279.839Z" fill="#E0E0E0"/>
<path d="M10.6482 286.243C10.6482 286.312 12.7946 286.367 15.4417 286.367C18.09 286.367 20.2364 286.312 20.2364 286.243C20.2364 286.174 18.0906 286.119 15.4417 286.119C12.7946 286.119 10.6482 286.174 10.6482 286.243Z" fill="#E0E0E0"/>
<path d="M10.6979 314.912H20.2078L20.2078 297.007H10.6979L10.6979 314.912Z" fill="white"/>
<path d="M15.1852 314.912C15.2554 314.912 15.3126 310.903 15.3126 305.96C15.3126 301.014 15.2554 297.007 15.1852 297.007C15.1151 297.007 15.0579 301.014 15.0579 305.96C15.0585 310.903 15.1151 314.912 15.1852 314.912Z" fill="#E0E0E0"/>
<path d="M10.6985 303.227C10.6985 303.296 12.8272 303.352 15.4531 303.352C18.0796 303.352 20.2083 303.296 20.2083 303.227C20.2083 303.159 18.0796 303.103 15.4531 303.103C12.8278 303.103 10.6985 303.159 10.6985 303.227Z" fill="#E0E0E0"/>
<path d="M10.6482 309.631C10.6482 309.699 12.7946 309.755 15.4417 309.755C18.09 309.755 20.2364 309.7 20.2364 309.631C20.2364 309.562 18.0906 309.506 15.4417 309.506C12.7946 309.506 10.6482 309.562 10.6482 309.631Z" fill="#E0E0E0"/>
<path d="M289.023 331.484H318.77V208.581H289.023V331.484Z" fill="#EBEBEB"/>
<path d="M304.187 234.218H313.228V217.196H304.187V234.218Z" fill="white"/>
<path d="M308.451 234.218C308.518 234.218 308.572 230.407 308.572 225.708C308.572 221.006 308.518 217.196 308.451 217.196C308.385 217.196 308.331 221.006 308.331 225.708C308.331 230.407 308.385 234.218 308.451 234.218Z" fill="#E0E0E0"/>
<path d="M304.186 223.11C304.186 223.175 306.21 223.228 308.707 223.228C311.204 223.228 313.227 223.175 313.227 223.11C313.227 223.045 311.204 222.992 308.707 222.992C306.211 222.992 304.186 223.045 304.186 223.11Z" fill="#E0E0E0"/>
<path d="M304.139 229.198C304.139 229.263 306.18 229.316 308.696 229.316C311.214 229.316 313.255 229.263 313.255 229.198C313.255 229.133 311.214 229.08 308.696 229.08C306.18 229.08 304.139 229.132 304.139 229.198Z" fill="#E0E0E0"/>
<path d="M304.187 256.453H313.228V239.43H304.187V256.453Z" fill="white"/>
<path d="M308.451 256.453C308.518 256.453 308.572 252.641 308.572 247.942C308.572 243.241 308.518 239.431 308.451 239.431C308.385 239.431 308.331 243.241 308.331 247.942C308.331 252.641 308.385 256.453 308.451 256.453Z" fill="#E0E0E0"/>
<path d="M304.186 245.344C304.186 245.409 306.21 245.462 308.707 245.462C311.204 245.462 313.227 245.409 313.227 245.344C313.227 245.279 311.204 245.226 308.707 245.226C306.211 245.226 304.186 245.279 304.186 245.344Z" fill="#E0E0E0"/>
<path d="M304.139 251.432C304.139 251.497 306.18 251.55 308.696 251.55C311.214 251.55 313.255 251.497 313.255 251.432C313.255 251.367 311.214 251.314 308.696 251.314C306.18 251.314 304.139 251.367 304.139 251.432Z" fill="#E0E0E0"/>
<path d="M304.187 278.687H313.228V261.664H304.187V278.687Z" fill="white"/>
<path d="M308.451 278.687C308.518 278.687 308.572 274.876 308.572 270.176C308.572 265.475 308.518 261.665 308.451 261.665C308.385 261.665 308.331 265.475 308.331 270.176C308.331 274.876 308.385 278.687 308.451 278.687Z" fill="#E0E0E0"/>
<path d="M304.186 267.579C304.186 267.644 306.21 267.697 308.707 267.697C311.204 267.697 313.227 267.644 313.227 267.579C313.227 267.514 311.204 267.461 308.707 267.461C306.211 267.46 304.186 267.513 304.186 267.579Z" fill="#E0E0E0"/>
<path d="M304.139 273.666C304.139 273.732 306.18 273.785 308.696 273.785C311.214 273.785 313.255 273.732 313.255 273.666C313.255 273.601 311.214 273.548 308.696 273.548C306.18 273.548 304.139 273.601 304.139 273.666Z" fill="#E0E0E0"/>
<path d="M304.187 300.922H313.228V283.899H304.187V300.922Z" fill="white"/>
<path d="M308.451 300.922C308.518 300.922 308.572 297.111 308.572 292.411C308.572 287.71 308.518 283.9 308.451 283.9C308.385 283.9 308.331 287.71 308.331 292.411C308.331 297.111 308.385 300.922 308.451 300.922Z" fill="#E0E0E0"/>
<path d="M304.186 289.813C304.186 289.879 306.21 289.932 308.707 289.932C311.204 289.932 313.227 289.879 313.227 289.813C313.227 289.748 311.204 289.695 308.707 289.695C306.211 289.695 304.186 289.748 304.186 289.813Z" fill="#E0E0E0"/>
<path d="M304.139 295.901C304.139 295.966 306.18 296.019 308.696 296.019C311.214 296.019 313.255 295.966 313.255 295.901C313.255 295.836 311.214 295.783 308.696 295.783C306.18 295.783 304.139 295.836 304.139 295.901Z" fill="#E0E0E0"/>
<path d="M276.374 331.484H298.048V208.581H276.374V331.484Z" fill="#E0E0E0"/>
<path d="M282.278 234.218H291.319V217.196H282.278V234.218Z" fill="white"/>
<path d="M286.542 234.218C286.609 234.218 286.663 230.407 286.663 225.708C286.663 221.006 286.609 217.196 286.542 217.196C286.475 217.196 286.421 221.006 286.421 225.708C286.422 230.407 286.475 234.218 286.542 234.218Z" fill="#E0E0E0"/>
<path d="M282.277 223.11C282.277 223.175 284.301 223.228 286.797 223.228C289.295 223.228 291.318 223.175 291.318 223.11C291.318 223.045 289.294 222.992 286.797 222.992C284.301 222.992 282.277 223.045 282.277 223.11Z" fill="#E0E0E0"/>
<path d="M282.229 229.198C282.229 229.263 284.27 229.316 286.787 229.316C289.305 229.316 291.345 229.263 291.345 229.198C291.345 229.133 289.305 229.08 286.787 229.08C284.269 229.08 282.229 229.132 282.229 229.198Z" fill="#E0E0E0"/>
<path d="M282.278 256.635H291.319V239.613H282.278V256.635Z" fill="white"/>
<path d="M286.542 256.635C286.609 256.635 286.663 252.824 286.663 248.125C286.663 243.423 286.609 239.613 286.542 239.613C286.475 239.613 286.421 243.423 286.421 248.125C286.422 252.825 286.475 256.635 286.542 256.635Z" fill="#E0E0E0"/>
<path d="M282.277 245.527C282.277 245.592 284.301 245.645 286.797 245.645C289.295 245.645 291.318 245.592 291.318 245.527C291.318 245.462 289.294 245.409 286.797 245.409C284.301 245.409 282.277 245.462 282.277 245.527Z" fill="#E0E0E0"/>
<path d="M282.229 251.615C282.229 251.68 284.27 251.733 286.787 251.733C289.305 251.733 291.345 251.68 291.345 251.615C291.345 251.55 289.305 251.497 286.787 251.497C284.269 251.497 282.229 251.55 282.229 251.615Z" fill="#E0E0E0"/>
<path d="M282.278 279.052H291.319V262.03H282.278V279.052Z" fill="white"/>
<path d="M286.542 279.053C286.609 279.053 286.663 275.242 286.663 270.542C286.663 265.841 286.609 262.03 286.542 262.03C286.475 262.03 286.421 265.84 286.421 270.542C286.422 275.242 286.475 279.053 286.542 279.053Z" fill="#E0E0E0"/>
<path d="M282.277 267.944C282.277 268.009 284.301 268.062 286.797 268.062C289.295 268.062 291.318 268.009 291.318 267.944C291.318 267.879 289.294 267.826 286.797 267.826C284.301 267.826 282.277 267.879 282.277 267.944Z" fill="#E0E0E0"/>
<path d="M282.229 274.032C282.229 274.097 284.27 274.15 286.787 274.15C289.305 274.15 291.345 274.097 291.345 274.032C291.345 273.967 289.305 273.914 286.787 273.914C284.269 273.914 282.229 273.967 282.229 274.032Z" fill="#E0E0E0"/>
<path d="M282.278 301.469H291.319V284.447H282.278V301.469Z" fill="white"/>
<path d="M286.542 301.469C286.609 301.469 286.663 297.658 286.663 292.959C286.663 288.257 286.609 284.447 286.542 284.447C286.475 284.447 286.421 288.257 286.421 292.959C286.422 297.658 286.475 301.469 286.542 301.469Z" fill="#E0E0E0"/>
<path d="M282.277 290.361C282.277 290.426 284.301 290.479 286.797 290.479C289.295 290.479 291.318 290.426 291.318 290.361C291.318 290.296 289.294 290.243 286.797 290.243C284.301 290.243 282.277 290.296 282.277 290.361Z" fill="#E0E0E0"/>
<path d="M282.229 296.448C282.229 296.513 284.27 296.566 286.787 296.566C289.305 296.566 291.345 296.513 291.345 296.448C291.345 296.383 289.305 296.33 286.787 296.33C284.269 296.33 282.229 296.383 282.229 296.448Z" fill="#E0E0E0"/>
<path d="M304.187 323.157H313.228V306.135H304.187V323.157Z" fill="white"/>
<path d="M308.451 323.157C308.518 323.157 308.572 319.346 308.572 314.646C308.572 309.945 308.518 306.135 308.451 306.135C308.385 306.135 308.331 309.945 308.331 314.646C308.331 319.346 308.385 323.157 308.451 323.157Z" fill="#E0E0E0"/>
<path d="M304.186 312.048C304.186 312.113 306.21 312.166 308.707 312.166C311.204 312.166 313.227 312.113 313.227 312.048C313.227 311.983 311.204 311.93 308.707 311.93C306.211 311.93 304.186 311.983 304.186 312.048Z" fill="#E0E0E0"/>
<path d="M304.139 318.136C304.139 318.201 306.18 318.254 308.696 318.254C311.214 318.254 313.255 318.201 313.255 318.136C313.255 318.071 311.214 318.018 308.696 318.018C306.18 318.018 304.139 318.071 304.139 318.136Z" fill="#E0E0E0"/>
<path d="M282.278 323.886H291.319V306.864H282.278V323.886Z" fill="white"/>
<path d="M286.542 323.886C286.609 323.886 286.663 320.075 286.663 315.376C286.663 310.674 286.609 306.864 286.542 306.864C286.475 306.864 286.421 310.674 286.421 315.376C286.422 320.076 286.475 323.886 286.542 323.886Z" fill="#E0E0E0"/>
<path d="M282.277 312.778C282.277 312.843 284.301 312.896 286.797 312.896C289.295 312.896 291.318 312.843 291.318 312.778C291.318 312.713 289.294 312.66 286.797 312.66C284.301 312.66 282.277 312.713 282.277 312.778Z" fill="#E0E0E0"/>
<path d="M282.229 318.866C282.229 318.931 284.27 318.984 286.787 318.984C289.305 318.984 291.345 318.931 291.345 318.866C291.345 318.801 289.305 318.748 286.787 318.748C284.269 318.748 282.229 318.801 282.229 318.866Z" fill="#E0E0E0"/>
<path d="M321.956 331.423H339.762V257.855H321.956V331.423Z" fill="#EBEBEB"/>
<path d="M331.029 273.201H336.441V263.011H331.029V273.201Z" fill="white"/>
<path d="M333.583 273.201C333.623 273.201 333.656 270.92 333.656 268.107C333.656 265.292 333.623 263.012 333.583 263.012C333.543 263.012 333.511 265.293 333.511 268.107C333.511 270.919 333.543 273.201 333.583 273.201Z" fill="#E0E0E0"/>
<path d="M331.03 266.551C331.03 266.591 332.242 266.622 333.736 266.622C335.231 266.622 336.442 266.591 336.442 266.551C336.442 266.512 335.231 266.48 333.736 266.48C332.241 266.481 331.03 266.513 331.03 266.551Z" fill="#E0E0E0"/>
<path d="M331.002 270.195C331.002 270.235 332.224 270.266 333.73 270.266C335.237 270.266 336.458 270.235 336.458 270.195C336.458 270.156 335.237 270.125 333.73 270.125C332.224 270.125 331.002 270.157 331.002 270.195Z" fill="#E0E0E0"/>
<path d="M331.029 286.51H336.441V276.32H331.029V286.51Z" fill="white"/>
<path d="M333.583 286.51C333.623 286.51 333.656 284.229 333.656 281.416C333.656 278.601 333.623 276.321 333.583 276.321C333.543 276.321 333.511 278.602 333.511 281.416C333.511 284.228 333.543 286.51 333.583 286.51Z" fill="#E0E0E0"/>
<path d="M331.03 279.861C331.03 279.9 332.242 279.932 333.736 279.932C335.231 279.932 336.442 279.9 336.442 279.861C336.442 279.822 335.231 279.79 333.736 279.79C332.241 279.79 331.03 279.822 331.03 279.861Z" fill="#E0E0E0"/>
<path d="M331.002 283.504C331.002 283.544 332.224 283.575 333.73 283.575C335.237 283.575 336.458 283.544 336.458 283.504C336.458 283.465 335.237 283.434 333.73 283.434C332.224 283.434 331.002 283.466 331.002 283.504Z" fill="#E0E0E0"/>
<path d="M331.029 299.819H336.441V289.63H331.029V299.819Z" fill="white"/>
<path d="M333.583 299.819C333.623 299.819 333.656 297.538 333.656 294.725C333.656 291.911 333.623 289.63 333.583 289.63C333.543 289.63 333.511 291.911 333.511 294.725C333.511 297.538 333.543 299.819 333.583 299.819Z" fill="#E0E0E0"/>
<path d="M331.03 293.17C331.03 293.209 332.242 293.241 333.736 293.241C335.231 293.241 336.442 293.209 336.442 293.17C336.442 293.131 335.231 293.099 333.736 293.099C332.241 293.099 331.03 293.131 331.03 293.17Z" fill="#E0E0E0"/>
<path d="M331.002 296.814C331.002 296.853 332.224 296.885 333.73 296.885C335.237 296.885 336.458 296.853 336.458 296.814C336.458 296.775 335.237 296.743 333.73 296.743C332.224 296.743 331.002 296.775 331.002 296.814Z" fill="#E0E0E0"/>
<path d="M331.029 313.129H336.441V302.939H331.029V313.129Z" fill="white"/>
<path d="M333.583 313.128C333.623 313.128 333.656 310.847 333.656 308.034C333.656 305.22 333.623 302.939 333.583 302.939C333.543 302.939 333.511 305.22 333.511 308.034C333.511 310.847 333.543 313.128 333.583 313.128Z" fill="#E0E0E0"/>
<path d="M331.03 306.48C331.03 306.519 332.242 306.55 333.736 306.55C335.231 306.55 336.442 306.519 336.442 306.48C336.442 306.44 335.231 306.409 333.736 306.409C332.241 306.409 331.03 306.44 331.03 306.48Z" fill="#E0E0E0"/>
<path d="M331.002 310.124C331.002 310.163 332.224 310.194 333.73 310.194C335.237 310.194 336.458 310.163 336.458 310.124C336.458 310.084 335.237 310.053 333.73 310.053C332.224 310.053 331.002 310.084 331.002 310.124Z" fill="#E0E0E0"/>
<path d="M314.384 331.423H327.357V257.855H314.384V331.423Z" fill="#E0E0E0"/>
<path d="M317.916 273.201H323.328V263.011H317.916V273.201Z" fill="white"/>
<path d="M320.469 273.201C320.509 273.201 320.541 270.92 320.541 268.107C320.541 265.292 320.509 263.012 320.469 263.012C320.429 263.012 320.397 265.293 320.397 268.107C320.397 270.919 320.429 273.201 320.469 273.201Z" fill="#E0E0E0"/>
<path d="M317.916 266.551C317.916 266.591 319.128 266.622 320.622 266.622C322.117 266.622 323.328 266.591 323.328 266.551C323.328 266.512 322.117 266.48 320.622 266.48C319.128 266.481 317.916 266.513 317.916 266.551Z" fill="#E0E0E0"/>
<path d="M317.888 270.195C317.888 270.235 319.11 270.266 320.616 270.266C322.123 270.266 323.345 270.235 323.345 270.195C323.345 270.156 322.123 270.125 320.616 270.125C319.109 270.125 317.888 270.157 317.888 270.195Z" fill="#E0E0E0"/>
<path d="M317.916 286.619H323.328V276.43H317.916V286.619Z" fill="white"/>
<path d="M320.469 286.619C320.509 286.619 320.541 284.338 320.541 281.525C320.541 278.711 320.509 276.43 320.469 276.43C320.429 276.43 320.397 278.711 320.397 281.525C320.397 284.338 320.429 286.619 320.469 286.619Z" fill="#E0E0E0"/>
<path d="M317.916 279.97C317.916 280.009 319.128 280.041 320.622 280.041C322.117 280.041 323.328 280.009 323.328 279.97C323.328 279.931 322.117 279.899 320.622 279.899C319.128 279.899 317.916 279.931 317.916 279.97Z" fill="#E0E0E0"/>
<path d="M317.888 283.614C317.888 283.653 319.11 283.685 320.616 283.685C322.123 283.685 323.345 283.653 323.345 283.614C323.345 283.575 322.123 283.543 320.616 283.543C319.109 283.543 317.888 283.575 317.888 283.614Z" fill="#E0E0E0"/>
<path d="M317.916 300.038H323.328V289.849H317.916V300.038Z" fill="white"/>
<path d="M320.469 300.038C320.509 300.038 320.541 297.757 320.541 294.944C320.541 292.129 320.509 289.849 320.469 289.849C320.429 289.849 320.397 292.13 320.397 294.944C320.397 297.757 320.429 300.038 320.469 300.038Z" fill="#E0E0E0"/>
<path d="M317.916 293.389C317.916 293.428 319.128 293.46 320.622 293.46C322.117 293.46 323.328 293.428 323.328 293.389C323.328 293.35 322.117 293.318 320.622 293.318C319.128 293.318 317.916 293.35 317.916 293.389Z" fill="#E0E0E0"/>
<path d="M317.888 297.033C317.888 297.072 319.11 297.104 320.616 297.104C322.123 297.104 323.345 297.072 323.345 297.033C323.345 296.994 322.123 296.962 320.616 296.962C319.109 296.962 317.888 296.994 317.888 297.033Z" fill="#E0E0E0"/>
<path d="M317.916 313.457H323.328V303.267H317.916V313.457Z" fill="white"/>
<path d="M320.469 313.457C320.509 313.457 320.541 311.176 320.541 308.362C320.541 305.548 320.509 303.268 320.469 303.268C320.429 303.268 320.397 305.548 320.397 308.362C320.397 311.175 320.429 313.457 320.469 313.457Z" fill="#E0E0E0"/>
<path d="M317.916 306.807C317.916 306.846 319.128 306.878 320.622 306.878C322.117 306.878 323.328 306.846 323.328 306.807C323.328 306.768 322.117 306.736 320.622 306.736C319.128 306.737 317.916 306.769 317.916 306.807Z" fill="#E0E0E0"/>
<path d="M317.888 310.451C317.888 310.49 319.11 310.522 320.616 310.522C322.123 310.522 323.345 310.49 323.345 310.451C323.345 310.412 322.123 310.38 320.616 310.38C319.109 310.381 317.888 310.413 317.888 310.451Z" fill="#E0E0E0"/>
<path d="M331.029 326.438H336.441V316.248H331.029V326.438Z" fill="white"/>
<path d="M333.583 326.438C333.623 326.438 333.656 324.157 333.656 321.344C333.656 318.529 333.623 316.249 333.583 316.249C333.543 316.249 333.511 318.53 333.511 321.344C333.511 324.157 333.543 326.438 333.583 326.438Z" fill="#E0E0E0"/>
<path d="M331.03 319.789C331.03 319.828 332.242 319.86 333.736 319.86C335.231 319.86 336.442 319.828 336.442 319.789C336.442 319.749 335.231 319.718 333.736 319.718C332.241 319.718 331.03 319.749 331.03 319.789Z" fill="#E0E0E0"/>
<path d="M331.002 323.433C331.002 323.472 332.224 323.504 333.73 323.504C335.237 323.504 336.458 323.472 336.458 323.433C336.458 323.394 335.237 323.362 333.73 323.362C332.224 323.362 331.002 323.394 331.002 323.433Z" fill="#E0E0E0"/>
<path d="M317.916 326.875H323.328V316.685H317.916V326.875Z" fill="white"/>
<path d="M320.469 326.875C320.509 326.875 320.541 324.594 320.541 321.781C320.541 318.966 320.509 316.686 320.469 316.686C320.429 316.686 320.397 318.967 320.397 321.781C320.397 324.594 320.429 326.875 320.469 326.875Z" fill="#E0E0E0"/>
<path d="M317.916 320.226C317.916 320.265 319.128 320.297 320.622 320.297C322.117 320.297 323.328 320.265 323.328 320.226C323.328 320.186 322.117 320.155 320.622 320.155C319.128 320.155 317.916 320.186 317.916 320.226Z" fill="#E0E0E0"/>
<path d="M317.888 323.87C317.888 323.909 319.11 323.941 320.616 323.941C322.123 323.941 323.345 323.909 323.345 323.87C323.345 323.831 322.123 323.799 320.616 323.799C319.109 323.799 317.888 323.831 317.888 323.87Z" fill="#E0E0E0"/>
<path d="M188.219 121.749C188.499 119.761 185.628 118.125 183.469 117.955C182.44 117.874 181.371 118.028 180.397 117.696C178.284 116.977 177.441 114.311 175.38 113.461C173.839 112.826 172.065 113.391 170.571 114.126C169.077 114.86 167.6 115.785 165.932 115.889C164.48 115.98 162.904 115.454 161.633 116.147C160.687 116.663 160.191 117.729 159.319 118.357C158.466 118.972 157.352 119.102 156.293 119.159C155.234 119.215 154.138 119.226 153.174 119.657C152.21 120.089 151.412 121.085 151.612 122.102L188.219 121.749Z" fill="#EBEBEB"/>
<path d="M270.492 95.4751C270.772 93.4868 267.9 91.8512 265.742 91.6812C264.713 91.6 263.644 91.7538 262.669 91.422C260.557 90.7024 259.713 88.0366 257.652 87.1874C256.111 86.5525 254.338 87.1177 252.843 87.8522C251.35 88.5868 249.873 89.5115 248.204 89.6158C246.753 89.7068 245.176 89.1802 243.906 89.8733C242.96 90.3895 242.464 91.4554 241.592 92.084C240.738 92.6987 239.625 92.8289 238.566 92.8854C237.507 92.9418 236.411 92.9522 235.447 93.3837C234.482 93.8152 233.685 94.8114 233.885 95.8288L270.492 95.4751Z" fill="#EBEBEB"/>
<path d="M103.371 99.8575C103.71 97.4458 100.227 95.4622 97.61 95.2565C96.3616 95.158 95.0655 95.3446 93.8832 94.9419C91.321 94.0697 90.2979 90.8358 87.7983 89.8057C85.9295 89.0354 83.7778 89.721 81.9657 90.6123C80.1542 91.503 78.3633 92.6241 76.3389 92.7509C74.5781 92.8609 72.6664 92.2231 71.1256 93.0631C69.9774 93.6894 69.3766 94.9817 68.3181 95.7445C67.2832 96.4906 65.9328 96.6484 64.6485 96.7164C63.3641 96.785 62.0344 96.7977 60.8651 97.3208C59.6957 97.8439 58.7281 99.0521 58.971 100.286L103.371 99.8575Z" fill="#E0E0E0"/>
<path d="M338.813 188.16C339.152 185.749 335.669 183.765 333.052 183.559C331.804 183.461 330.507 183.647 329.325 183.245C326.763 182.372 325.74 179.139 323.24 178.108C321.371 177.338 319.22 178.024 317.408 178.915C315.595 179.806 313.805 180.927 311.781 181.054C310.02 181.164 308.108 180.526 306.567 181.366C305.419 181.992 304.818 183.284 303.76 184.047C302.725 184.793 301.375 184.951 300.09 185.019C298.806 185.087 297.476 185.1 296.307 185.623C295.138 186.146 294.17 187.354 294.413 188.588L338.813 188.16Z" fill="#E0E0E0"/>
<path d="M338.526 331.424C338.526 331.424 338.23 331.434 337.652 331.439C337.07 331.443 336.212 331.447 335.087 331.454C332.828 331.461 329.504 331.47 325.224 331.483C316.655 331.494 304.262 331.51 288.949 331.53C258.315 331.542 216.004 331.557 169.271 331.574C122.523 331.557 80.2073 331.541 49.5736 331.53C34.2609 331.51 21.8687 331.494 13.3005 331.483C9.02103 331.47 5.69708 331.461 3.43871 331.454C2.31394 331.448 1.45556 331.443 0.873957 331.439C0.295992 331.434 0 331.424 0 331.424C0 331.424 0.295992 331.413 0.873957 331.408C1.45556 331.405 2.31394 331.4 3.43871 331.393C5.69708 331.387 9.02103 331.377 13.3005 331.365C21.8687 331.354 34.2604 331.337 49.5736 331.317C80.2073 331.306 122.523 331.291 169.271 331.273C216.004 331.291 258.315 331.306 288.949 331.317C304.261 331.337 316.655 331.354 325.224 331.365C329.504 331.377 332.828 331.387 335.087 331.393C336.212 331.4 337.07 331.405 337.652 331.408C338.23 331.413 338.526 331.424 338.526 331.424Z" fill="#263238"/>
<path d="M112.287 132.042H79.4556V150.869H112.287V132.042Z" fill="#E0E0E0"/>
<path d="M96.7315 131.414H63.9009V150.241H96.7315V131.414Z" fill="#EBEBEB"/>
<path d="M160.649 149.417H18.1606V157.002H160.649V149.417Z" fill="#E0E0E0"/>
<path d="M114.372 128.396H60.5225V132.478H114.372V128.396Z" fill="#E0E0E0"/>
<path d="M125.9 338.81L25.7036 338.687L25.5332 157.002H125.9V338.81Z" fill="#EBEBEB"/>
<path d="M47.5552 168.504H36.0222V188.768H47.5552V168.504Z" fill="#455A64"/>
<path d="M47.5552 197.813H36.0222V218.076H47.5552V197.813Z" fill="#455A64"/>
<path d="M47.5552 227.122H36.0222V247.385H47.5552V227.122Z" fill="#455A64"/>
<path d="M47.5552 256.43H36.0222V276.693H47.5552V256.43Z" fill="#455A64"/>
<path d="M47.5552 283.679H36.0222V303.942H47.5552V283.679Z" fill="#455A64"/>
<path d="M113.906 168.504H102.373V188.768H113.906V168.504Z" fill="#455A64"/>
<path d="M81.1644 137.157H70.6816V150.388H81.1644V137.157Z" fill="#455A64"/>
<path d="M113.906 197.813H102.373V218.076H113.906V197.813Z" fill="#455A64"/>
<path d="M113.906 227.122H102.373V247.385H113.906V227.122Z" fill="#455A64"/>
<path d="M113.906 256.43H102.373V276.693H113.906V256.43Z" fill="#455A64"/>
<path d="M113.906 283.679H102.373V303.942H113.906V283.679Z" fill="#455A64"/>
<path d="M91.5231 157.002H57.5178V338.81H91.5231V157.002Z" fill="#455A64"/>
<g opacity="0.3">
<path d="M91.5225 213.302L57.5178 240.986V251.1L91.5225 222.962V213.302Z" fill="white"/>
</g>
<g opacity="0.3">
<path d="M91.5225 160.402L57.5178 188.086V198.2L91.5225 170.063V160.402Z" fill="white"/>
</g>
<g opacity="0.3">
<path d="M91.5225 235.629L57.5178 263.313V283.679L91.5225 255.65V235.629Z" fill="white"/>
</g>
<path d="M153.962 155.318H125.899V338.654H153.962V155.318Z" fill="#E0E0E0"/>
<path d="M154.432 338.655C154.347 338.655 154.187 301.681 154.073 256.082C153.96 210.467 153.936 173.501 154.021 173.5C154.106 173.5 154.266 210.465 154.38 256.081C154.493 301.68 154.517 338.654 154.432 338.655Z" fill="#263238"/>
<path d="M146.864 168.504H135.331V188.768H146.864V168.504Z" fill="#263238"/>
<path d="M146.864 197.813H135.331V218.076H146.864V197.813Z" fill="#263238"/>
<path d="M146.864 227.122H135.331V247.385H146.864V227.122Z" fill="#263238"/>
<path d="M146.864 256.43H135.331V276.693H146.864V256.43Z" fill="#263238"/>
<path d="M146.864 283.679H135.331V303.942H146.864V283.679Z" fill="#263238"/>
<path d="M146.864 312.218H135.331V332.481H146.864V312.218Z" fill="#263238"/>
<path d="M93.7877 304.374H54.7212V308.186H93.7877V304.374Z" fill="#EBEBEB"/>
<path d="M91.5231 189.999H57.5178V192.215H91.5231V189.999Z" fill="#263238"/>
<path d="M91.5231 222.055H57.5178V224.271H91.5231V222.055Z" fill="#263238"/>
<path d="M91.2572 280.57H57.252V282.786H91.2572V280.57Z" fill="#263238"/>
<path d="M92.8121 252.632H58.8074V254.848H92.8121V252.632Z" fill="#263238"/>
<path d="M84.7751 260.822C84.83 260.885 79.7546 265.218 73.4402 270.5C67.1235 275.783 61.9597 280.013 61.9042 279.95C61.8494 279.887 66.9236 275.555 73.2403 270.272C79.5552 264.99 84.7203 260.759 84.7751 260.822Z" fill="#263238"/>
<path d="M85.0671 280.505C85.1225 280.567 80.0465 284.901 73.7322 290.182C67.4155 295.465 62.2517 299.695 62.1962 299.632C62.1414 299.57 67.2156 295.237 73.5323 289.954C79.8472 284.673 85.0123 280.442 85.0671 280.505Z" fill="#263238"/>
<path d="M84.654 231.771C84.7088 231.835 80.9844 235.015 76.3365 238.874C71.6868 242.735 67.8745 245.812 67.8197 245.749C67.7648 245.686 71.4881 242.506 76.1378 238.646C80.7856 234.787 84.5991 231.709 84.654 231.771Z" fill="#263238"/>
<path d="M75.3508 235.384C75.408 235.445 73.965 236.829 72.1276 238.475C70.2895 240.122 68.7534 241.407 68.6962 241.346C68.639 241.285 70.082 239.901 71.92 238.254C73.7569 236.608 75.293 235.323 75.3508 235.384Z" fill="#263238"/>
<path d="M63.5394 211.693C63.4887 211.626 68.6013 207.813 74.9575 203.178C81.3154 198.54 86.5094 194.836 86.5601 194.903C86.6108 194.969 81.4994 198.781 75.1409 203.419C68.7853 208.054 63.5901 211.759 63.5394 211.693Z" fill="#263238"/>
<path d="M70.5848 208.806C70.5624 208.77 71.0182 208.459 71.7624 207.97C72.5991 207.419 73.5809 206.772 74.666 206.057C75.7427 205.33 76.7169 204.672 77.5466 204.111C78.2837 203.612 78.7466 203.311 78.7725 203.345C78.7979 203.377 78.381 203.738 77.6751 204.282C76.9693 204.826 75.9715 205.549 74.8387 206.305C73.706 207.06 72.6534 207.705 71.8774 208.149C71.1025 208.593 70.606 208.841 70.5848 208.806Z" fill="#263238"/>
<path d="M85.7675 163.726C85.774 163.734 85.6956 163.809 85.5399 163.944C85.3559 164.097 85.1277 164.288 84.85 164.521C84.209 165.041 83.3404 165.746 82.2825 166.605C80.0794 168.386 77.0957 170.798 73.7981 173.464C70.5136 176.147 67.5416 178.574 65.348 180.366C64.2907 181.226 63.4227 181.932 62.7829 182.453C62.4986 182.678 62.2651 182.862 62.0764 183.01C61.9125 183.135 61.8234 183.197 61.8164 183.189C61.8093 183.181 61.8854 183.104 62.0357 182.965C62.2144 182.804 62.435 182.606 62.7044 182.364C63.3289 181.826 64.1751 181.095 65.2065 180.204C67.3317 178.394 70.2931 175.921 73.6012 173.233C76.9087 170.546 79.9362 168.152 82.1451 166.44C83.2289 165.611 84.1188 164.931 84.7745 164.429C85.067 164.214 85.307 164.038 85.5004 163.896C85.6691 163.777 85.7605 163.718 85.7675 163.726Z" fill="#263238"/>
<path d="M75.6636 167.882C75.7161 167.947 74.6435 168.852 73.2683 169.904C71.8932 170.956 70.7362 171.757 70.6837 171.691C70.6312 171.626 71.7039 170.72 73.079 169.668C74.4542 168.617 75.6111 167.817 75.6636 167.882Z" fill="#263238"/>
<path d="M44.1714 206.204C44.2292 206.264 43.1613 207.329 41.7862 208.581C40.4104 209.834 39.2487 210.799 39.191 210.739C39.1332 210.678 40.2011 209.614 41.5768 208.362C42.952 207.109 44.1136 206.143 44.1714 206.204Z" fill="#263238"/>
<path d="M111.246 235.192C111.309 235.249 110.224 236.497 108.825 237.98C107.425 239.463 106.24 240.62 106.177 240.564C106.115 240.508 107.199 239.26 108.599 237.776C109.999 236.293 111.184 235.136 111.246 235.192Z" fill="#263238"/>
<path d="M45.1319 262.987C45.1926 263.046 44.0008 264.33 42.4712 265.855C40.941 267.382 39.6513 268.572 39.5906 268.514C39.5299 268.455 40.721 267.172 42.2518 265.645C43.7815 264.119 45.0711 262.929 45.1319 262.987Z" fill="#263238"/>
<path d="M109.202 288.734C109.264 288.791 108.232 289.934 106.899 291.285C105.565 292.638 104.435 293.687 104.374 293.629C104.313 293.572 105.344 292.429 106.678 291.077C108.011 289.726 109.141 288.676 109.202 288.734Z" fill="#263238"/>
<path d="M109.004 292.05C109.066 292.107 108.383 292.904 107.48 293.829C106.577 294.754 105.794 295.457 105.733 295.4C105.672 295.343 106.354 294.547 107.258 293.622C108.161 292.697 108.943 291.993 109.004 292.05Z" fill="#263238"/>
<path d="M113.906 313.066H102.373V333.33H113.906V313.066Z" fill="#455A64"/>
<path d="M47.4715 312.729H35.9385V332.992H47.4715V312.729Z" fill="#455A64"/>
<g opacity="0.3">
<path d="M60.8416 338.699L91.5323 314.15L91.5246 307.948L86.8142 308.078L57.5459 333.248L57.6102 338.688" fill="white"/>
</g>
<g opacity="0.3">
<path d="M67.7971 338.707L70.6258 338.75L91.5413 320.953L91.5171 319.667L91.526 318.256L67.7971 338.707Z" fill="white"/>
</g>
<path d="M74.2534 338.75C74.1685 338.75 74.1001 332.401 74.1001 324.571C74.1001 316.738 74.1691 310.39 74.2534 310.39C74.3383 310.39 74.4067 316.738 74.4067 324.571C74.4073 332.401 74.3383 338.75 74.2534 338.75Z" fill="#263238"/>
<path d="M72.5738 322.86H70.5317V329.739H72.5738V322.86Z" fill="#EBEBEB"/>
<path d="M77.7577 322.86H75.7156V329.739H77.7577V322.86Z" fill="#EBEBEB"/>
<path d="M160.83 157.002C160.83 157.085 128.89 157.152 89.4987 157.152C50.0938 157.152 18.1606 157.085 18.1606 157.002C18.1606 156.92 50.0943 156.853 89.4987 156.853C128.89 156.852 160.83 156.919 160.83 157.002Z" fill="#263238"/>
<path d="M160.83 149.563C160.83 149.646 128.89 149.713 89.4987 149.713C50.0938 149.713 18.1606 149.645 18.1606 149.563C18.1606 149.48 50.0943 149.413 89.4987 149.413C128.89 149.413 160.83 149.48 160.83 149.563Z" fill="#263238"/>
<path d="M114.782 132.478C114.782 132.561 102.676 132.629 87.7449 132.629C72.8088 132.629 60.7043 132.561 60.7043 132.478C60.7043 132.395 72.8088 132.329 87.7449 132.329C102.676 132.329 114.782 132.396 114.782 132.478Z" fill="#263238"/>
<path d="M25.7016 338.687C25.6167 338.687 25.4646 298.218 25.3614 248.309C25.2582 198.383 25.2434 157.923 25.3284 157.923C25.4133 157.923 25.5654 198.383 25.6686 248.309C25.7718 298.218 25.7865 338.687 25.7016 338.687Z" fill="#263238"/>
<path d="M150.209 57.065L136.353 52.5239L122.633 57.0037C120.881 57.7586 119.344 58.211 119.344 59.6999V67.1144C119.344 72.2636 120.823 77.3662 123.864 81.8709C126.424 85.6618 130.387 89.565 136.488 92.046C142.097 90.3832 146.283 85.951 148.842 82.1604C151.884 77.6557 153.362 72.5531 153.362 67.4039V60.7365C153.362 58.6127 152.129 57.5755 150.209 57.065Z" fill="#138FC8"/>
<path d="M136.46 89.1265L136.403 89.1029C131.829 87.2431 128.138 84.2683 125.432 80.2608C122.862 76.4541 121.504 72.0191 121.504 67.435V61.0378C121.504 59.7847 122.635 59.3125 123.945 58.766C124.108 58.6979 124.276 58.628 124.445 58.5548L136.354 54.666L148.359 58.6007C150.273 59.1112 151.203 60.2008 151.203 61.932V67.6848C151.203 72.2689 149.845 76.7042 147.275 80.5106C145.569 83.0367 141.904 87.5131 136.521 89.1091L136.46 89.1265ZM136.353 55.0267L124.571 58.8734C124.415 58.9415 124.246 59.0117 124.082 59.0804C122.837 59.6002 121.853 60.0105 121.853 61.0375V67.4346C121.853 71.9517 123.192 76.3217 125.724 80.0719C128.379 84.0048 131.997 86.9286 136.478 88.7631C141.724 87.1828 145.309 82.7999 146.982 80.3217C149.514 76.5711 150.852 72.2012 150.852 67.6841V61.9317C150.852 60.3534 150.029 59.3994 148.261 58.9292L148.251 58.9264L136.353 55.0267Z" fill="white"/>
<path d="M152.022 55.1967C152.022 55.1967 152.351 55.2593 152.949 55.4869C153.248 55.5991 153.609 55.7692 153.998 56.0306C154.38 56.2952 154.801 56.6624 155.1 57.1938C155.407 57.7191 155.595 58.3857 155.617 59.1225C155.636 59.8572 155.626 60.6528 155.632 61.5121C155.632 63.2306 155.649 65.1945 155.636 67.3822C155.616 69.5716 155.322 71.9835 154.672 74.513C154.009 77.0378 152.951 79.6728 151.412 82.239C149.866 84.7959 147.903 87.3227 145.452 89.5768C143.008 91.8176 140.021 93.7914 136.532 94.8379L136.501 94.8471L136.472 94.8351C135.263 94.331 134.055 93.7674 132.872 93.1176C131.695 92.4582 130.541 91.7228 129.429 90.9042C127.2 89.2719 125.166 87.281 123.414 85.0324C121.525 82.6058 120.027 79.9496 118.98 77.1963C117.929 74.4436 117.318 71.6019 117.115 68.8133C117.006 67.4175 117.037 66.038 117.032 64.686C117.033 63.3322 117.034 61.9997 117.035 60.6897C117.035 60.0348 117.035 59.3856 117.036 58.7426C117.04 58.4226 117.019 58.1013 117.076 57.7704C117.132 57.4443 117.278 57.1308 117.492 56.8793C117.922 56.3705 118.513 56.0649 119.081 55.7942C119.657 55.529 120.239 55.3007 120.805 55.0571L120.808 55.0557L120.812 55.0547C126.701 53.1394 131.942 51.4349 136.334 50.0062L136.353 50L136.372 50.0062C141.286 51.6285 145.198 52.9204 147.887 53.8084C149.226 54.2543 150.259 54.5982 150.963 54.8322C151.309 54.9493 151.573 55.0389 151.755 55.1005C151.932 55.1615 152.022 55.1967 152.022 55.1967C152.022 55.1967 151.929 55.1721 151.75 55.1163C151.567 55.0581 151.301 54.9739 150.953 54.8634C150.247 54.6358 149.211 54.3018 147.868 53.8686C145.175 52.9926 141.256 51.7175 136.334 50.1167H136.372C131.983 51.5553 126.746 53.2715 120.862 55.2001L120.868 55.1977C120.3 55.4434 119.719 55.6727 119.15 55.9359C118.589 56.2031 118.017 56.5056 117.62 56.9792C117.421 57.2133 117.289 57.498 117.238 57.7995C117.186 58.0972 117.204 58.4213 117.201 58.7429C117.202 59.3863 117.202 60.0355 117.202 60.6901C117.203 62 117.204 63.3326 117.204 64.6863C117.21 66.0411 117.181 67.4147 117.291 68.801C117.495 71.5742 118.104 74.3984 119.149 77.1347C120.191 79.8716 121.68 82.5117 123.559 84.9246C125.302 87.1605 127.322 89.1395 129.537 90.7632C130.643 91.5777 131.791 92.3093 132.96 92.9653C134.136 93.6124 135.337 94.1733 136.539 94.6756L136.48 94.6729C139.936 93.6388 142.904 91.6838 145.338 89.4581C147.777 87.2201 149.738 84.7052 151.281 82.1637C152.816 79.6126 153.875 76.9923 154.541 74.4802C155.195 71.9636 155.495 69.562 155.523 67.3805C155.531 65.1952 155.538 63.2303 155.544 61.5121C155.543 60.6538 155.557 59.8541 155.542 59.1252C155.525 58.3973 155.345 57.7413 155.048 57.2229C154.757 56.6983 154.347 56.3332 153.971 56.0673C153.589 55.8044 153.232 55.631 152.937 55.5146C152.643 55.3941 152.412 55.3185 152.256 55.272C152.1 55.2248 152.022 55.1967 152.022 55.1967Z" fill="#138FC8"/>
<path d="M135.899 78.0143L128.074 71.6199L130.359 68.9524L135.605 73.2402L143.639 64.8843L146.233 67.2653L135.899 78.0143Z" fill="white"/>
<path d="M274.225 156.706L278.367 149.815C276.872 145.512 276.536 140.765 277.649 136.011C280.849 122.338 294.788 113.788 308.782 116.914C322.776 120.041 331.527 133.659 328.328 147.332C325.128 161.005 311.189 169.555 297.194 166.428C291.35 165.123 286.427 161.984 282.9 157.779L282.906 157.792L274.225 156.706Z" fill="white"/>
<path d="M274.225 156.706C274.225 156.706 274.425 156.724 274.801 156.768C275.185 156.813 275.741 156.877 276.471 156.962C277.94 157.137 280.101 157.394 282.915 157.729L282.846 157.821L282.84 157.808L282.624 157.352L282.953 157.739C285.097 160.265 288.44 163.217 293.249 165.109C294.444 165.582 295.723 165.986 297.075 166.289C298.439 166.529 299.845 166.829 301.327 166.874C304.273 167.059 307.444 166.76 310.591 165.805C313.734 164.857 316.845 163.255 319.589 161C322.333 158.752 324.702 155.846 326.346 152.459C328.011 149.083 328.867 145.209 328.802 141.265C328.723 137.328 327.753 133.278 325.699 129.683C325.438 129.23 325.178 128.777 324.917 128.326C324.629 127.892 324.316 127.474 324.017 127.049C323.45 126.175 322.715 125.434 322.052 124.645C321.721 124.248 321.315 123.923 320.951 123.56C320.569 123.216 320.227 122.83 319.815 122.523C319.41 122.207 319.008 121.893 318.606 121.579C318.402 121.426 318.211 121.256 317.996 121.119L317.352 120.71C313.949 118.487 310.097 117.123 306.252 116.625C302.399 116.135 298.572 116.556 295.128 117.633C291.677 118.711 288.607 120.455 286.095 122.572C283.576 124.688 281.617 127.171 280.207 129.727C280.036 130.049 279.866 130.37 279.697 130.687L279.445 131.162L279.243 131.654C278.978 132.309 278.718 132.953 278.463 133.586C278.093 134.897 277.668 136.148 277.471 137.399C276.579 142.4 277.371 146.723 278.428 149.795L278.438 149.822L278.422 149.847C277.067 152.067 276.026 153.774 275.317 154.935C274.964 155.511 274.694 155.95 274.508 156.254C274.326 156.551 274.225 156.706 274.225 156.706C274.225 156.706 274.305 156.561 274.477 156.266C274.656 155.963 274.914 155.524 275.252 154.949C275.95 153.77 276.977 152.037 278.311 149.783L278.306 149.835C277.219 146.757 276.396 142.41 277.273 137.366C277.466 136.104 277.888 134.842 278.257 133.518C278.512 132.879 278.772 132.228 279.037 131.567L279.24 131.07L279.492 130.591C279.661 130.27 279.832 129.946 280.003 129.62C281.417 127.038 283.389 124.525 285.928 122.381C288.46 120.238 291.557 118.47 295.044 117.374C298.523 116.279 302.393 115.849 306.29 116.341C310.179 116.84 314.077 118.217 317.522 120.464L318.174 120.877C318.391 121.016 318.584 121.188 318.791 121.343C319.198 121.66 319.606 121.978 320.015 122.297C320.431 122.608 320.779 122.998 321.165 123.347C321.533 123.714 321.944 124.044 322.279 124.444C322.95 125.242 323.695 125.992 324.268 126.876C324.57 127.306 324.887 127.729 325.179 128.168C325.442 128.625 325.706 129.083 325.971 129.542C328.048 133.179 329.029 137.278 329.107 141.261C329.17 145.252 328.301 149.17 326.614 152.583C324.946 156.007 322.546 158.943 319.77 161.211C316.992 163.485 313.845 165.097 310.668 166.047C307.488 167.004 304.285 167.298 301.313 167.103C299.818 167.052 298.399 166.746 297.025 166.499C295.663 166.188 294.375 165.777 293.173 165.296C288.333 163.368 284.984 160.378 282.849 157.823L282.962 157.755L282.967 157.768L283.018 157.876L282.898 157.86C280.068 157.488 277.894 157.202 276.417 157.008C275.697 156.911 275.149 156.838 274.77 156.787C274.403 156.735 274.225 156.706 274.225 156.706Z" fill="#263238"/>
<path d="M310.704 133.837H291.814V152.292H310.704V133.837Z" fill="#E0E0E0"/>
<path d="M310.705 152.292C310.702 152.29 310.7 152.258 310.697 152.199C310.695 152.128 310.692 152.044 310.69 151.939C310.686 151.695 310.681 151.362 310.674 150.938C310.666 150.049 310.654 148.78 310.639 147.174C310.623 143.935 310.6 139.341 310.572 133.836L310.704 133.966C305.21 133.972 298.731 133.979 291.817 133.986C291.781 134.018 292.106 133.704 291.968 133.839V133.844V133.854V133.874V133.913V133.992V134.15V134.466V135.096C291.968 135.515 291.968 135.932 291.968 136.347C291.968 137.178 291.968 138.001 291.967 138.815C291.966 140.443 291.964 142.036 291.963 143.585C291.958 146.683 291.952 149.607 291.948 152.29L291.815 152.161C297.449 152.188 302.151 152.211 305.467 152.227C307.111 152.242 308.41 152.253 309.319 152.261C309.753 152.267 310.093 152.273 310.343 152.276C310.45 152.279 310.536 152.281 310.609 152.284C310.671 152.287 310.702 152.29 310.705 152.292C310.71 152.297 310.597 152.302 310.373 152.307C310.129 152.31 309.797 152.315 309.375 152.322C308.472 152.33 307.183 152.341 305.552 152.356C302.216 152.372 297.485 152.394 291.816 152.422L291.683 152.422V152.292C291.679 149.608 291.673 146.684 291.668 143.586C291.667 142.036 291.665 140.443 291.664 138.816C291.664 138.002 291.663 137.179 291.663 136.348C291.663 135.933 291.663 135.516 291.663 135.097V134.467V134.151V133.994V133.915V133.875V133.855V133.845V133.84C291.525 133.973 291.849 133.654 291.818 133.687C298.732 133.695 305.21 133.701 310.705 133.707H310.839L310.838 133.837C310.81 139.375 310.787 143.998 310.77 147.257C310.756 148.851 310.744 150.11 310.736 150.992C310.729 151.406 310.724 151.729 310.72 151.968C310.715 152.186 310.71 152.297 310.705 152.292Z" fill="#263238"/>
<path d="M304.27 149.811L292.916 140.531L296.231 136.66L303.844 142.883L315.502 130.757L319.267 134.212L304.27 149.811Z" fill="#455A64"/>
<path d="M222.122 220.338L208.158 211.216C203.508 210.146 198.289 213.4 197.323 217.97C192.704 217.026 187.807 220.184 186.216 224.525C184.625 228.866 186.021 233.922 189.086 237.428C192.151 240.935 196.665 243.013 201.294 243.911C207.954 245.202 215.741 243.78 219.729 238.412C223.475 233.372 222.88 226.521 222.122 220.338Z" fill="#263238"/>
<path d="M282.006 209.983C281.964 205.376 279.003 200.913 274.715 198.997C276.309 193.549 278.071 187.825 276.837 182.288C274.046 169.778 262.506 168.058 256.707 168.141L237.632 180.033C232.53 185.691 238.939 216.717 241.239 223.914C243.539 231.112 249.87 236.941 257.361 238.757C262.692 240.05 268.787 239.226 272.857 235.621C276.926 232.015 278.22 225.376 274.912 221.091C279.165 219.102 282.047 214.589 282.006 209.983Z" fill="#263238"/>
<path d="M184.066 262.024L185.832 338.414L290.047 338.816C290.047 338.816 282.316 231.583 280.065 230.536C278.385 229.754 257.797 223.155 257.797 223.155L248.639 220.552L210.79 227.645L197.063 230.582L184.066 262.024Z" fill="#455A64"/>
<path d="M190.106 249.263C190.106 249.063 200.062 229.941 200.062 229.941C190.308 230.943 181.597 234.308 175.935 241.563C173.302 244.937 172.119 250.054 170.807 253.701C169.919 256.171 164.083 289.42 164.083 289.42L187.204 298.675L190.106 249.263Z" fill="#455A64"/>
<path d="M226.838 277.233L205.027 228.074C197.08 229.817 188.147 231.773 182.453 235.356L185.462 271.493L185.024 338.813L226.773 339.027L229.345 291.117L226.838 277.233Z" fill="#138FC8"/>
<path d="M282.443 289.763L277.947 229.043L252.63 221.12L226.771 276.82V339.027L290.674 338.818L282.443 289.763Z" fill="#138FC8"/>
<path d="M282.443 289.764C282.443 289.764 282.503 290.055 282.604 290.627C282.704 291.203 282.852 292.052 283.045 293.163C283.427 295.398 283.989 298.686 284.712 302.919C286.146 311.397 288.22 323.655 290.782 338.801L290.804 338.926L290.673 338.927C272.858 338.995 251.05 339.078 226.771 339.17L226.624 339.17V339.027C226.622 323.791 226.62 307.208 226.617 289.996C226.617 285.553 226.618 281.153 226.618 276.821V276.789L226.631 276.76C235.946 256.71 244.712 237.841 252.505 221.065L252.556 220.958L252.671 220.994C261.742 223.839 270.197 226.49 277.983 228.932L278.061 228.957L278.066 229.036C279.422 247.635 280.527 262.814 281.295 273.348C281.671 278.611 281.963 282.713 282.162 285.504C282.258 286.895 282.33 287.958 282.38 288.679C282.428 289.394 282.443 289.764 282.443 289.764C282.443 289.764 282.404 289.398 282.345 288.682C282.288 287.962 282.204 286.9 282.093 285.512C281.879 282.722 281.564 278.622 281.161 273.362C280.368 262.828 279.226 247.65 277.828 229.052L277.911 229.155C270.121 226.722 261.663 224.081 252.589 221.247L252.754 221.175C244.971 237.954 236.214 256.828 226.911 276.883L226.924 276.821C226.924 281.153 226.925 285.553 226.925 289.996C226.923 307.209 226.92 323.791 226.917 339.027L226.771 338.884C251.05 338.818 272.858 338.758 290.673 338.71L290.564 338.836C288.042 323.681 286.001 311.416 284.59 302.934C283.893 298.697 283.351 295.407 282.982 293.17C282.802 292.057 282.665 291.207 282.572 290.63C282.482 290.058 282.443 289.764 282.443 289.764Z" fill="#263238"/>
<path d="M275.559 288.164H185.833V299.625H275.559V288.164Z" fill="white"/>
<path d="M278.385 229.909C278.385 229.909 284.221 229.844 292.671 244.678C302.156 261.333 308.221 282.474 308.221 282.474L284.861 294.931L278.385 229.909Z" fill="#455A64"/>
<path d="M190.99 231.613L193.53 338.818L203.524 338.87L200.062 229.096C200.062 229.096 192.56 230.814 190.99 231.613Z" fill="white"/>
<path d="M261.78 223.982L258.722 338.87H271.784L272.393 227.443L261.78 223.982Z" fill="white"/>
<g opacity="0.3">
<path d="M234.988 254.66C235.438 259.175 238.201 263.413 242.199 265.72C244.103 266.819 246.275 267.513 247.943 268.931C249.552 270.298 250.542 272.213 251.494 274.076C258.57 287.934 265.661 301.827 271.122 316.364C272.344 319.616 273.502 322.936 275.457 325.826C277.412 328.716 280.305 331.181 283.786 331.838C287.268 332.495 291.294 330.928 292.68 327.74L248.613 247.398L234.988 254.66Z" fill="black"/>
</g>
<path d="M226.772 276.821C226.772 276.821 226.785 277.203 226.791 277.948C226.795 278.7 226.802 279.806 226.81 281.248C226.818 284.15 226.83 288.4 226.845 293.825C226.858 304.682 226.877 320.231 226.899 339.027V339.152L226.771 339.151C214.14 339.085 200.053 339.011 184.954 338.932L184.806 338.932L184.807 338.787C184.884 326.692 184.967 313.648 185.053 300.165C185.119 290.182 185.184 280.441 185.246 271.081L185.246 271.093C184.207 258.422 183.224 246.425 182.317 235.368L182.31 235.286L182.38 235.244C186.082 233.028 190.055 231.667 193.883 230.531C197.726 229.412 201.479 228.563 205.074 227.775L205.171 227.753L205.21 227.842C211.831 242.846 217.233 255.088 220.982 263.584C222.846 267.827 224.298 271.134 225.288 273.385C225.776 274.505 226.149 275.362 226.403 275.945C226.653 276.523 226.772 276.821 226.772 276.821C226.772 276.821 226.629 276.527 226.368 275.952C226.106 275.371 225.722 274.517 225.219 273.4C224.216 271.152 222.743 267.852 220.851 263.617C217.081 255.135 211.649 242.914 204.99 227.935L205.126 228.002C201.533 228.796 197.786 229.649 193.955 230.771C190.141 231.908 186.186 233.272 182.524 235.469L182.588 235.346C183.503 246.402 184.496 258.398 185.545 271.069L185.546 271.075V271.082C185.486 280.443 185.424 290.184 185.36 300.166C185.27 313.65 185.183 326.694 185.102 338.788L184.956 338.643C200.054 338.737 214.141 338.824 226.772 338.902L226.644 339.026C226.667 320.231 226.686 304.681 226.699 293.824C226.714 288.404 226.726 284.157 226.734 281.258C226.742 279.814 226.748 278.707 226.752 277.955C226.759 277.208 226.772 276.821 226.772 276.821Z" fill="#263238"/>
<path d="M191.052 165.859C189.674 163.731 189.541 160.889 190.714 158.647C191.887 156.406 194.322 154.846 196.894 154.69L208.684 156.376C207.54 162.864 206.396 169.352 205.252 175.84C204.924 177.703 204.539 179.68 203.213 181.056C201.957 182.359 200.04 182.888 198.207 182.876C194.214 182.847 190.356 180.302 188.838 176.692C187.32 173.083 188.231 168.623 191.052 165.859Z" fill="#263238"/>
<path d="M226.772 240.668C236.621 240.647 247.271 230.509 247.463 220.887L248.516 168.162C249.333 152.617 240.755 139.195 224.827 138.827L223.354 138.877C208.521 139.38 196.564 150.923 195.886 165.409C195.254 178.886 195.795 191.057 196.143 198.264C196.862 213.184 211.13 215.568 211.13 215.568C211.164 215.569 209.901 228.701 212.001 232.575C216.702 241.25 220.444 240.505 226.772 240.668Z" fill="#FFBF9D"/>
<path d="M211.011 215.586C211.011 215.586 220.661 215.811 230.699 209.166C230.699 209.166 226.141 220.468 210.849 219.64L211.011 215.586Z" fill="#FF9A6C"/>
<path d="M202.891 177.372C202.89 178.499 203.866 179.429 205.071 179.452C206.273 179.474 207.251 178.58 207.252 177.453C207.253 176.327 206.277 175.395 205.074 175.372C203.869 175.35 202.891 176.245 202.891 177.372Z" fill="#263238"/>
<path d="M199.667 171.191C199.947 171.46 201.557 170.208 203.905 170.135C206.249 170.029 208.015 171.15 208.259 170.861C208.379 170.733 208.086 170.239 207.317 169.732C206.56 169.226 205.282 168.751 203.819 168.807C202.358 168.865 201.146 169.432 200.458 169.995C199.756 170.56 199.529 171.071 199.667 171.191Z" fill="#263238"/>
<path d="M224.265 177.373C224.264 178.5 225.24 179.43 226.445 179.452C227.647 179.475 228.625 178.581 228.625 177.454C228.626 176.327 227.65 175.396 226.447 175.373C225.242 175.351 224.265 176.246 224.265 177.373Z" fill="#263238"/>
<path d="M222.697 171.339C222.978 171.608 224.591 170.357 226.937 170.283C229.281 170.177 231.046 171.299 231.291 171.009C231.411 170.881 231.121 170.389 230.349 169.88C229.592 169.373 228.314 168.899 226.852 168.955C225.389 169.013 224.178 169.581 223.489 170.143C222.788 170.708 222.56 171.219 222.697 171.339Z" fill="#263238"/>
<path d="M214.902 189.251C214.908 189.12 213.44 188.923 211.065 188.707C210.463 188.668 209.891 188.57 209.776 188.174C209.62 187.756 209.848 187.115 210.115 186.424C210.628 184.988 211.165 183.482 211.729 181.904C213.966 175.469 215.563 170.188 215.297 170.102C215.03 170.017 213.002 175.162 210.766 181.595C210.228 183.182 209.715 184.694 209.227 186.14C209.024 186.814 208.66 187.582 208.997 188.449C209.174 188.881 209.625 189.184 210.013 189.272C210.402 189.373 210.739 189.369 211.036 189.376C213.421 189.421 214.897 189.381 214.902 189.251Z" fill="#263238"/>
<path d="M217.057 197.618C217.596 198.158 218.336 198.411 219.099 198.428C219.92 198.447 220.651 198.048 221.234 197.524C222.251 196.611 222.444 195.135 222.252 193.874C222.217 193.645 222.128 193.447 222.015 193.269C222.005 193.153 221.984 193.039 221.94 192.93C221.667 192.263 221.123 191.686 220.421 191.424C219.686 191.151 218.961 191.127 218.2 191.322C216.958 191.642 216.099 192.859 215.917 194.039C215.714 195.348 216.104 196.661 217.057 197.618Z" fill="#FF9A6C"/>
<path d="M222.638 191.295C222.272 191.188 221.681 193.612 219.14 194.843C216.603 196.08 214.023 195.197 213.922 195.532C213.851 195.676 214.398 196.138 215.507 196.426C216.593 196.715 218.276 196.74 219.83 195.988C221.381 195.232 222.278 193.952 222.604 192.977C222.943 191.985 222.812 191.32 222.638 191.295Z" fill="#263238"/>
<path d="M222.093 163.417C222.347 164.033 224.68 163.658 227.446 163.889C230.217 164.065 232.466 164.778 232.812 164.206C232.965 163.933 232.557 163.36 231.637 162.786C230.726 162.214 229.285 161.689 227.625 161.565C225.965 161.444 224.46 161.752 223.471 162.185C222.474 162.617 221.983 163.124 222.093 163.417Z" fill="#263238"/>
<path d="M200.29 162.716C200.722 163.223 202.32 162.628 204.264 162.536C206.204 162.379 207.868 162.765 208.228 162.206C208.385 161.937 208.107 161.423 207.37 160.954C206.644 160.487 205.443 160.125 204.108 160.21C202.773 160.297 201.632 160.808 200.974 161.365C200.306 161.924 200.099 162.469 200.29 162.716Z" fill="#263238"/>
<path d="M247.957 178.955C248.214 178.836 258.347 175.566 258.376 185.782C258.405 195.998 247.901 193.919 247.882 193.626C247.863 193.333 247.957 178.955 247.957 178.955Z" fill="#FFBF9D"/>
<path d="M251.065 189.747C251.111 189.714 251.248 189.871 251.557 190.008C251.857 190.141 252.373 190.233 252.918 190.032C254.022 189.632 254.947 187.917 254.993 186.075C255.016 185.145 254.815 184.261 254.476 183.528C254.154 182.782 253.658 182.261 253.102 182.166C252.548 182.042 252.155 182.369 252.028 182.657C251.889 182.942 251.956 183.146 251.9 183.164C251.871 183.19 251.675 182.993 251.758 182.571C251.801 182.368 251.923 182.127 252.168 181.93C252.418 181.73 252.787 181.627 253.175 181.667C253.981 181.719 254.71 182.442 255.082 183.246C255.5 184.053 255.749 185.048 255.722 186.092C255.66 188.151 254.587 190.08 253.077 190.511C252.341 190.701 251.728 190.486 251.41 190.245C251.085 189.993 251.029 189.766 251.065 189.747Z" fill="#FF9A6C"/>
<path d="M234.934 154.637C236.17 153.438 237.972 152.999 239.701 152.794C244.204 152.26 248.857 152.995 252.959 154.888C255.113 155.883 257.188 157.266 258.351 159.298C259.514 161.33 259.531 164.116 257.892 165.806C260.893 167.593 262.202 171.668 260.784 174.81C259.366 177.952 255.403 179.757 252.029 178.797C251.662 182.182 247.774 184.141 244.832 182.315C244.113 181.869 243.468 181.308 242.951 180.66C240.947 178.152 240.746 173.396 241.3 170.262C239.205 170.283 237.229 169.103 235.942 167.489C234.654 165.875 233.976 163.873 233.572 161.865C233.067 159.359 233.079 156.438 234.934 154.637Z" fill="#263238"/>
<path d="M238.736 127.584C239.449 127.729 256.599 132.703 260.091 145.658C263.584 158.612 262.042 162.42 262.042 162.42C262.042 162.42 263.011 163.086 263.755 164.066C264.423 164.944 263.093 168.869 260.851 168.27C244.345 159.811 224.266 157.762 201.793 156.985L184.635 155.66C179.79 155.893 178.187 154.537 180.295 153.49C181.912 152.687 195.921 148.222 195.921 148.222L198.732 146.486L206.477 137.34C206.477 137.34 205.692 135.946 207.502 134.946C209.312 133.945 224.664 124.73 238.736 127.584Z" fill="#138FC8"/>
<g opacity="0.3">
<path d="M254.129 136.088C254.129 136.088 235.566 131.905 226.896 135.307C227.231 135.168 227.567 135.029 227.904 134.891C225.18 135.856 222.456 136.822 219.732 137.787C218.352 138.276 216.741 138.747 215.491 137.996C215.491 137.996 219.984 134.549 228.01 132.465C236.036 130.382 248.578 130.074 254.129 136.088Z" fill="black"/>
</g>
<path d="M254.396 136.202C254.396 136.202 253.87 135.719 252.788 135.017C251.709 134.316 250.076 133.374 247.892 132.587C245.72 131.783 242.999 131.139 239.928 130.941C236.874 130.739 233.408 130.934 230.065 132.17C228.393 132.765 226.843 133.529 225.358 134.268C223.886 135.033 222.432 135.697 221.104 136.467C219.787 137.235 218.573 138.021 217.309 138.486C216.057 139.009 214.787 139.018 213.635 138.965C209.018 138.728 206.251 137.613 206.478 137.34C206.478 137.329 206.52 137.537 206.823 137.72C207.117 137.893 207.582 138.102 208.207 138.278C209.453 138.638 211.302 139.018 213.625 139.164C214.77 139.233 216.112 139.231 217.395 138.705C218.692 138.236 219.928 137.447 221.24 136.69C222.549 135.939 224.016 135.274 225.487 134.514C226.971 133.78 228.512 133.022 230.164 132.434C233.462 131.215 236.877 131.015 239.911 131.199C242.956 131.382 245.657 132 247.822 132.774C249.998 133.531 251.634 134.439 252.727 135.108C253.274 135.445 253.688 135.722 253.962 135.921C254.24 136.112 254.396 136.202 254.396 136.202Z" fill="#263238"/>
<g opacity="0.3">
<path d="M261.365 151.055C258.003 150.815 255.509 149.797 252.217 148.867C248.71 147.876 245.226 147.046 241.771 145.893C239.149 145.018 236.035 144.184 234.422 142.187C234.077 143.533 234.411 144.796 235.369 145.82C236.327 146.845 239.565 148.201 240.908 148.654C248.56 151.233 253.866 152.975 261.917 154.047C261.901 153.228 261.365 151.055 261.365 151.055Z" fill="black"/>
</g>
<path d="M259.644 144.238C261.714 145.279 262.98 145.972 262.921 147.75C262.873 149.229 262.444 151.015 260.938 151.177C260.478 151.227 260.02 151.107 259.574 150.989C251.937 148.965 244.299 146.94 236.662 144.916C235.887 144.711 235.047 144.461 234.594 143.814C233.897 142.819 234.545 141.357 235.61 140.747C236.675 140.137 237.984 140.148 239.217 140.206C246.227 140.531 252.974 142.105 259.644 144.238Z" fill="#138FC8"/>
<path d="M234.927 144.168C234.964 144.146 234.538 143.892 234.369 143.139C234.207 142.431 234.389 141.151 235.517 140.337C236.669 139.582 238.428 139.417 240.256 139.63C242.112 139.841 244.153 140.101 246.282 140.444C250.543 141.116 254.333 142.084 256.991 143.024C258.325 143.479 259.38 143.915 260.107 144.218C260.405 144.346 260.679 144.464 260.941 144.577C261.133 144.656 261.236 144.693 261.24 144.684C261.245 144.676 261.15 144.621 260.966 144.525C260.711 144.397 260.443 144.263 260.153 144.118C259.438 143.783 258.392 143.317 257.06 142.836C254.408 141.843 250.603 140.839 246.328 140.165C244.192 139.821 242.147 139.569 240.283 139.371C238.422 139.172 236.614 139.346 235.395 140.176C234.2 141.077 234.056 142.428 234.258 143.163C234.358 143.549 234.541 143.81 234.68 143.965C234.831 144.112 234.923 144.174 234.927 144.168Z" fill="#263238"/>
<path d="M204.046 140.21L218.676 140.856L217.17 144.799L201.307 143.445L204.046 140.21Z" fill="white"/>
<path d="M225.286 154.303C225.302 154.227 218.85 152.898 210.877 151.335C202.902 149.772 196.426 148.567 196.41 148.644C196.394 148.721 202.845 150.049 210.82 151.612C218.793 153.175 225.271 154.38 225.286 154.303Z" fill="#263238"/>
<path d="M206.739 228.074L210.866 220.792L226.772 240.668L248.94 213.935L252.182 222.087L234.987 251.477L227.692 241.815L225.962 242.062L219.943 252.277L206.739 228.074Z" fill="#E0E0E0"/>
<path d="M241.133 242.646C241.15 242.658 240.978 242.917 240.66 243.383C240.342 243.848 239.883 244.524 239.334 245.375C238.234 247.074 236.799 249.495 235.482 252.338L235.366 252.59L235.212 252.356C235.067 252.133 234.911 251.895 234.754 251.655C232.884 248.894 230.97 246.533 229.683 244.755C229.033 243.871 228.523 243.143 228.185 242.631C227.848 242.118 227.675 241.826 227.692 241.816C227.711 241.804 227.917 242.074 228.284 242.565C228.687 243.094 229.218 243.79 229.858 244.63C231.188 246.372 233.128 248.71 235.011 251.491C235.169 251.733 235.326 251.974 235.472 252.198L235.203 252.216C236.534 249.357 238.008 246.94 239.158 245.264C239.732 244.425 240.219 243.765 240.567 243.318C240.914 242.871 241.117 242.635 241.133 242.646Z" fill="#263238"/>
<path d="M259.112 167.571C259.126 167.56 259.284 167.709 259.53 168.012C259.777 168.313 260.094 168.785 260.395 169.415C261.001 170.656 261.455 172.647 260.918 174.737C260.374 176.827 259.008 178.369 257.871 179.18C257.301 179.595 256.792 179.863 256.428 180.014C256.064 180.166 255.853 180.223 255.846 180.207C255.819 180.152 256.655 179.866 257.738 179.012C258.812 178.179 260.099 176.67 260.621 174.664C261.136 172.656 260.737 170.732 260.196 169.5C259.659 168.247 259.061 167.607 259.112 167.571Z" fill="#455A64"/>
<path d="M225.962 242.062C225.969 242.065 225.942 242.137 225.884 242.272C225.812 242.43 225.724 242.625 225.615 242.863C225.373 243.377 225.007 244.121 224.518 245.048C223.541 246.9 222.057 249.48 220.06 252.355L219.93 252.543L219.819 252.343C218.692 250.305 217.455 248.07 216.157 245.723C213.59 241.03 211.267 236.782 209.564 233.671C208.747 232.145 208.079 230.9 207.598 230.002C207.383 229.588 207.21 229.254 207.077 228.997C206.961 228.766 206.904 228.642 206.914 228.637C206.923 228.632 206.998 228.746 207.131 228.968C207.278 229.218 207.468 229.543 207.703 229.946C208.205 230.833 208.902 232.063 209.756 233.569C211.478 236.671 213.829 240.903 216.427 245.58C217.717 247.931 218.947 250.169 220.068 252.211L219.827 252.198C221.835 249.347 223.348 246.794 224.367 244.968C224.854 244.073 225.246 243.352 225.533 242.823C225.658 242.593 225.759 242.404 225.842 242.252C225.913 242.124 225.954 242.059 225.962 242.062Z" fill="#263238"/>
<path d="M164.596 275.882L156.108 299.639L143.397 285.195L126.485 295.455L147.996 323.574C153.822 331.686 163.436 334.232 168.691 333.007C179.4 330.51 185.097 316.968 185.097 316.968L185.037 303.989L182.75 284.747L164.596 275.882Z" fill="#455A64"/>
<path d="M164.917 251.478C164.917 251.478 197.591 286.159 204.291 292.513C207.49 295.547 214.245 299.612 214.245 299.612L204.114 300.764L164.917 251.478Z" fill="#E0E0E0"/>
<g opacity="0.3">
<path d="M155.053 303.289C155.053 303.289 168.452 306.335 177.594 306.828C186.736 307.321 210.635 307.166 210.635 307.166L205.928 303.222L155.053 303.289Z" fill="black"/>
</g>
<path d="M162.673 247.007L104.096 245.604L155.053 303.289L209.125 304.728L162.673 247.007Z" fill="#263238"/>
<path d="M137.433 268.435C137.499 266.885 136.071 265.66 134.488 265.772C133.625 265.832 132.498 265.937 131.114 266.119C127.539 266.59 117.071 272.041 116.856 274.112C116.542 277.153 118.151 278.27 118.151 278.27C118.151 278.27 116.167 281.026 117.007 283.225C117.728 285.11 120.872 285.665 120.872 285.665C120.872 285.665 118.647 288.374 121.103 290.169C121.954 290.792 123.664 291.986 124.064 292.394C124.064 292.394 124.433 293.563 124.771 293.994C125.889 295.423 127.586 296.305 129.424 296.409L130.024 296.443C131.179 296.509 132.314 296.15 133.21 295.433C137.261 292.192 148.711 282.818 148.862 280.317C148.862 280.317 151.045 278.539 150.099 276.779C149.153 275.019 145.842 275.908 145.842 275.908C145.842 275.908 147.417 274.653 146.58 272.803C145.743 270.955 139.816 271.311 137.132 271.742C134.996 272.085 129.039 273.229 129.039 273.229C129.039 273.229 136.916 270.302 137.344 268.961C137.397 268.793 137.425 268.616 137.433 268.435Z" fill="#FFBF9D"/>
<path d="M148.861 280.317C148.871 280.335 148.591 280.512 148.074 280.819C147.559 281.127 146.799 281.55 145.846 282.047C143.943 283.048 141.251 284.316 138.216 285.573C135.18 286.829 132.385 287.854 130.35 288.56C129.333 288.913 128.505 289.188 127.931 289.37C127.357 289.551 127.036 289.643 127.029 289.624C127.022 289.605 127.33 289.478 127.892 289.264C128.503 289.034 129.306 288.732 130.277 288.368C132.292 287.613 135.07 286.56 138.101 285.307C141.129 284.052 143.827 282.818 145.75 281.865C146.713 281.392 147.486 280.998 148.018 280.72C148.551 280.445 148.85 280.3 148.861 280.317Z" fill="#FF9A6C"/>
<path d="M146.206 275.828C146.209 275.848 145.9 275.922 145.341 276.039C144.782 276.167 143.973 276.338 142.983 276.592C140.998 277.083 138.3 277.912 135.349 278.923C133.874 279.433 132.454 279.884 131.198 280.364C129.938 280.843 128.824 281.326 127.897 281.749C126.969 282.171 126.233 282.542 125.724 282.798C125.215 283.055 124.936 283.203 124.924 283.184C124.919 283.175 124.983 283.128 125.108 283.045C125.233 282.962 125.421 282.845 125.667 282.701C126.16 282.412 126.885 282.013 127.805 281.565C128.724 281.117 129.835 280.613 131.097 280.117C132.361 279.619 133.776 279.161 135.251 278.65C138.205 277.638 140.927 276.835 142.932 276.394C143.933 276.164 144.752 276.023 145.318 275.929C145.887 275.846 146.202 275.809 146.206 275.828Z" fill="#FF9A6C"/>
<path d="M129.039 273.23C129.057 273.264 128.58 273.543 127.78 273.938C126.981 274.336 125.854 274.837 124.614 275.388C123.372 275.938 122.264 276.464 121.47 276.861C120.676 277.258 120.187 277.513 120.164 277.476C120.145 277.445 120.596 277.127 121.37 276.682C122.143 276.237 123.246 275.677 124.491 275.125C125.736 274.573 126.873 274.103 127.691 273.754C128.511 273.407 129.02 273.192 129.039 273.23Z" fill="#FF9A6C"/>
<path d="M145.269 284.993C145.284 285.007 145.096 285.231 144.738 285.621C144.377 286.009 143.842 286.558 143.156 287.211C141.792 288.527 139.787 290.219 137.634 292.135C137.098 292.613 136.591 293.108 136.06 293.546C135.531 293.984 134.996 294.379 134.466 294.725C133.403 295.418 132.344 295.892 131.411 296.147C130.48 296.411 129.685 296.451 129.148 296.42C128.878 296.419 128.671 296.375 128.531 296.356C128.391 296.333 128.319 296.317 128.32 296.307C128.324 296.278 128.619 296.316 129.149 296.307C129.678 296.303 130.45 296.233 131.352 295.951C132.255 295.677 133.279 295.196 134.314 294.504C134.831 294.157 135.354 293.765 135.872 293.331C136.391 292.898 136.893 292.407 137.435 291.922C139.597 289.998 141.617 288.337 143.013 287.062C143.715 286.43 144.271 285.905 144.656 285.543C145.037 285.178 145.253 284.98 145.269 284.993Z" fill="#FF9A6C"/>
<path d="M145.884 245.012L120.172 244.695C119.641 244.689 119.349 245.297 119.694 245.692L125.296 252.096L150.674 252.848C151.176 252.849 151.47 252.295 151.18 251.895L146.381 245.266C146.267 245.109 146.082 245.014 145.884 245.012Z" fill="#E0E0E0"/>
<path d="M125.162 252.371L119.478 245.873C119.245 245.605 119.195 245.243 119.347 244.926C119.5 244.609 119.817 244.414 120.175 244.419L145.887 244.735C146.174 244.736 146.446 244.878 146.613 245.108L151.411 251.736C151.607 252.006 151.632 252.356 151.476 252.65C151.319 252.945 151.012 253.127 150.673 253.126L125.162 252.371ZM145.906 245.291C145.898 245.29 145.889 245.289 145.88 245.289L120.168 244.973C120.033 244.971 119.918 245.042 119.862 245.161C119.804 245.28 119.823 245.412 119.91 245.513L125.43 251.824L150.683 252.572C150.802 252.572 150.913 252.506 150.972 252.395C151.031 252.284 151.022 252.158 150.949 252.056L146.15 245.427C146.092 245.349 146.003 245.299 145.906 245.291Z" fill="#263238"/>
<path d="M167.591 315.901C167.523 315.895 167.789 314.651 167.632 312.643C167.487 310.652 166.789 307.865 165 305.337C163.209 302.81 160.785 301.19 158.929 300.356C157.06 299.504 155.775 299.31 155.793 299.246C155.795 299.235 155.875 299.243 156.027 299.267C156.177 299.294 156.403 299.321 156.684 299.393C157.251 299.518 158.062 299.756 159.019 300.162C160.924 300.957 163.422 302.583 165.253 305.166C167.082 307.75 167.759 310.605 167.849 312.628C167.901 313.646 167.844 314.472 167.763 315.035C167.733 315.317 167.68 315.533 167.653 315.68C167.622 315.826 167.601 315.902 167.591 315.901Z" fill="#263238"/>
<path d="M254.768 269.785C254.768 269.785 267.603 300.832 273.422 312.036C279.452 323.645 288.414 343.096 306.371 332.928C321.065 324.607 307.754 280.92 307.754 280.92L294.534 286.753L274.976 256.185L254.768 269.785Z" fill="#455A64"/>
<path d="M262.321 219.8C262.008 218.864 260.925 218.411 260.014 218.833C258.653 219.464 256.645 220.962 256.171 224.398C255.436 229.717 256.45 233.471 255.175 234.863C253.899 236.255 237.898 237.36 236.66 239.643C235.467 241.844 236.172 243.83 236.118 244.955C236.1 245.359 235.927 245.735 235.637 246.024C234.91 246.75 233.681 248.391 234.858 250.362C235.155 250.86 235.181 251.46 234.919 251.976C234.45 252.9 234.081 254.496 235.73 256.145C235.883 256.299 236.016 256.473 236.103 256.671C236.583 257.765 238.452 261.655 241.12 262.451C243.435 263.142 246.068 263.147 247.265 263.104C247.684 263.089 248.093 263.23 248.409 263.5C249.759 264.647 254.241 267.446 255.569 269.142C255.569 269.142 272.088 257.861 273.122 257.328C273.122 257.328 265.678 246.232 265.304 241.143C264.906 235.722 261.411 229.396 262.352 224.312C262.763 222.091 262.616 220.682 262.321 219.8Z" fill="#FFBF9D"/>
<path d="M254.768 269.784C254.766 269.781 254.797 269.756 254.858 269.709C254.933 269.655 255.025 269.589 255.139 269.506C255.404 269.321 255.771 269.065 256.238 268.738C257.222 268.065 258.629 267.101 260.394 265.892C263.978 263.464 269.014 260.052 274.893 256.068L275.016 255.985L275.097 256.107C277.225 259.304 279.532 262.82 281.91 266.504C287.341 275.007 292.256 282.704 295.825 288.294C297.61 291.062 299.058 293.307 300.071 294.879C300.562 295.644 300.947 296.245 301.222 296.672C301.343 296.867 301.44 297.022 301.515 297.142C301.579 297.249 301.61 297.305 301.606 297.308C301.601 297.31 301.561 297.26 301.488 297.158C301.407 297.043 301.302 296.893 301.17 296.704C300.884 296.285 300.482 295.694 299.97 294.942C298.937 293.407 297.453 291.176 295.643 288.407C292.01 282.874 287.121 275.151 281.651 266.663C279.274 262.981 276.973 259.462 274.855 256.261L275.058 256.3C269.152 260.248 264.095 263.629 260.495 266.035C258.71 267.216 257.287 268.157 256.293 268.815C255.814 269.125 255.438 269.369 255.166 269.545C255.047 269.62 254.95 269.68 254.873 269.729C254.805 269.769 254.771 269.788 254.768 269.784Z" fill="#263238"/>
<path d="M309.741 303.045C309.722 303.054 309.61 302.869 309.422 302.528C309.206 302.127 308.946 301.644 308.642 301.079C307.978 299.865 307.055 298.171 305.68 296.565C304.305 294.96 302.672 293.866 301.38 293.346C300.088 292.809 299.197 292.757 299.207 292.698C299.209 292.68 299.43 292.678 299.826 292.729C300.222 292.777 300.79 292.901 301.461 293.149C302.806 293.63 304.509 294.731 305.914 296.372C307.318 298.012 308.218 299.741 308.835 300.983C309.141 301.609 309.374 302.121 309.529 302.477C309.685 302.835 309.76 303.036 309.741 303.045Z" fill="#263238"/>
</svg>
