<svg width="340" height="390" viewBox="0 0 340 390" fill="none" xmlns="http://www.w3.org/2000/svg">
<rect width="340" height="390" rx="20" fill="white"/>
<path d="M218.182 77.27C210.175 93.3817 192.271 98.9805 178.193 89.7773C164.115 80.5725 159.192 60.0499 167.199 43.9375C175.204 27.8258 193.107 22.2262 207.186 31.4309C221.264 40.6349 226.187 61.1591 218.182 77.27Z" fill="#F5F5F5"/>
<path d="M212.116 73.3055C206.015 85.5826 192.372 89.85 181.642 82.8355C170.914 75.8217 167.162 60.1812 173.263 47.904C179.365 35.626 193.008 31.3586 203.737 38.3732C214.464 45.3869 218.216 61.0267 212.116 73.3055Z" fill="#EBEBEB"/>
<path d="M212.458 72.603C212.337 72.5312 212.74 71.4985 213.276 69.5875C213.799 67.682 214.43 64.8435 214.428 61.293C214.426 59.5239 214.267 57.5864 213.869 55.5623C213.455 53.5452 212.824 51.4377 211.873 49.3839C211.402 48.3559 210.866 47.3333 210.239 46.3544C209.617 45.3716 208.932 44.4075 208.157 43.5129C207.384 42.6174 206.553 41.7516 205.639 40.9771C204.727 40.201 203.754 39.4889 202.727 38.8547C201.691 38.237 200.63 37.7128 199.558 37.2846C198.485 36.854 197.394 36.5522 196.314 36.3228C195.231 36.0904 194.151 35.9835 193.094 35.9469C192.035 35.9032 190.996 35.9703 189.99 36.1005C187.976 36.3548 186.1 36.9422 184.415 37.6855C182.733 38.446 181.247 39.3859 179.97 40.3788C177.412 42.3756 175.722 44.5706 174.643 46.1384C173.568 47.721 173.05 48.6851 172.931 48.6102C172.841 48.5587 173.158 47.4698 174.095 45.7008C175.036 43.9505 176.653 41.5098 179.262 39.251C180.564 38.1285 182.104 37.0576 183.872 36.1801C185.644 35.3198 187.634 34.631 189.792 34.3058C190.868 34.1396 191.984 34.0452 193.123 34.0725C194.262 34.0928 195.428 34.1919 196.597 34.4282C197.765 34.6614 198.945 34.9789 200.105 35.436C201.265 35.8907 202.411 36.4539 203.526 37.1208C204.636 37.8041 205.684 38.5739 206.665 39.4179C207.647 40.2611 208.539 41.2017 209.364 42.1783C210.192 43.1533 210.919 44.2032 211.573 45.2718C212.233 46.3373 212.794 47.4488 213.279 48.5626C214.258 50.7911 214.882 53.0663 215.259 55.2308C215.621 57.4 215.716 59.4647 215.64 61.3312C215.481 65.0768 214.631 67.983 213.9 69.8605C213.153 71.745 212.546 72.6584 212.458 72.603Z" fill="#E0E0E0"/>
<path d="M188.282 75.3317L186.402 79.245L183.357 77.3191L185.186 73.512C182.272 71.3958 179.898 68.4849 178.945 65.9241L182.668 62.7199C183.569 64.9756 185.309 67.3047 187.385 68.9357L190.188 63.0997C187.26 60.0211 184.104 56.341 186.504 51.3444C188.284 47.6409 192.156 45.9444 197.269 48.357L199.132 44.478L202.179 46.4031L200.349 50.2118C202.532 51.8654 204.42 53.9683 205.508 56.2498L201.921 59.5858C200.854 57.5906 199.556 55.9955 198.134 54.8224L195.28 60.7629C198.225 63.8072 201.319 67.4498 198.954 72.3747C197.208 76.0095 193.382 77.6904 188.282 75.3317ZM192.655 57.9642L195.037 53.0026C193.222 52.402 192.095 53.0112 191.541 54.1641C190.954 55.3871 191.548 56.6289 192.655 57.9642ZM193.849 69.6962C194.436 68.4724 193.872 67.2517 192.814 65.8984L190.498 70.7203C192.205 71.2983 193.312 70.8139 193.849 69.6962Z" fill="#E0E0E0"/>
<path d="M46.6635 137.486C42.7372 145.388 33.957 148.134 27.0523 143.62C20.1476 139.105 17.7336 129.041 21.6599 121.139C25.5862 113.238 34.3664 110.491 41.2704 115.006C48.1758 119.52 50.5898 129.585 46.6635 137.486Z" fill="#F5F5F5"/>
<path d="M43.6899 135.542C40.6979 141.562 34.0074 143.655 28.7449 140.215C23.4837 136.776 21.6436 129.105 24.6356 123.084C27.6283 117.063 34.3188 114.97 39.5807 118.41C44.8418 121.85 46.6819 129.52 43.6899 135.542Z" fill="#EBEBEB"/>
<path d="M43.8568 135.198C43.7976 135.162 43.9955 134.656 44.258 133.719C44.5144 132.784 44.8238 131.393 44.8238 129.651C44.8224 128.784 44.7442 127.833 44.549 126.841C44.3464 125.852 44.037 124.818 43.5705 123.81C43.3393 123.306 43.0762 122.805 42.7688 122.324C42.4642 121.842 42.1282 121.37 41.7474 120.931C41.3687 120.492 40.9614 120.068 40.5132 119.688C40.0658 119.307 39.5891 118.958 39.0846 118.648C38.5766 118.344 38.0564 118.087 37.5308 117.878C37.0044 117.666 36.4693 117.519 35.9396 117.406C35.4085 117.292 34.8794 117.24 34.3606 117.221C33.8418 117.199 33.3318 117.232 32.8388 117.297C31.8507 117.421 30.9307 117.709 30.1045 118.073C29.2796 118.446 28.5507 118.907 27.9244 119.394C26.6698 120.373 25.8409 121.449 25.3118 122.219C24.7842 122.995 24.5305 123.468 24.472 123.431C24.4278 123.406 24.5836 122.872 25.0432 122.005C25.5043 121.147 26.2972 119.949 27.5769 118.842C28.2154 118.291 28.9709 117.766 29.8379 117.336C30.7063 116.914 31.6828 116.576 32.7408 116.417C33.2692 116.335 33.8159 116.289 34.3749 116.302C34.9338 116.312 35.505 116.361 36.0783 116.477C36.6515 116.591 37.2295 116.747 37.7987 116.971C38.3678 117.194 38.9295 117.471 39.4769 117.797C40.0209 118.133 40.535 118.51 41.0158 118.924C41.4972 119.338 41.9351 119.8 42.3397 120.278C42.7457 120.756 43.1027 121.271 43.4236 121.795C43.7473 122.317 44.022 122.863 44.2607 123.409C44.7408 124.501 45.0468 125.618 45.2318 126.679C45.4092 127.743 45.4562 128.756 45.4188 129.67C45.3406 131.507 44.9237 132.932 44.5654 133.854C44.1975 134.776 43.8996 135.224 43.8568 135.198Z" fill="#E0E0E0"/>
<path d="M32.0003 136.536L31.0789 138.455L29.5856 137.511L30.4826 135.643C29.0532 134.606 27.889 133.178 27.4219 131.922L29.247 130.35C29.6897 131.457 30.5424 132.599 31.5604 133.398L32.9346 130.537C31.4985 129.026 29.9508 127.222 31.1279 124.772C32.0003 122.956 33.8996 122.123 36.4074 123.307L37.3213 121.404L38.8153 122.348L37.9177 124.216C38.9887 125.027 39.9142 126.059 40.448 127.177L38.6888 128.813C38.1652 127.835 37.5287 127.052 36.831 126.477L35.4316 129.39C36.8759 130.883 38.3937 132.669 37.2329 135.085C36.3782 136.868 34.502 137.692 32.0003 136.536ZM34.145 128.019L35.3133 125.586C34.4232 125.291 33.871 125.59 33.599 126.155C33.3114 126.754 33.6024 127.364 34.145 128.019ZM34.7305 133.772C35.0188 133.171 34.7414 132.573 34.2232 131.909L33.0876 134.274C33.9247 134.557 34.4674 134.32 34.7305 133.772Z" fill="#E0E0E0"/>
<path d="M247.513 197.073C243.587 204.974 234.807 207.72 227.902 203.207C220.997 198.692 218.583 188.628 222.51 180.725C226.436 172.824 235.216 170.078 242.12 174.592C249.025 179.107 251.439 189.172 247.513 197.073Z" fill="#F5F5F5"/>
<path d="M244.54 195.128C241.548 201.149 234.856 203.242 229.594 199.802C224.333 196.362 222.493 188.691 225.485 182.671C228.478 176.649 235.169 174.556 240.43 177.996C245.691 181.437 247.532 189.106 244.54 195.128Z" fill="#EBEBEB"/>
<path d="M244.707 194.784C244.648 194.749 244.846 194.242 245.108 193.305C245.365 192.37 245.674 190.978 245.673 189.237C245.672 188.37 245.594 187.419 245.399 186.427C245.196 185.438 244.886 184.404 244.42 183.397C244.189 182.893 243.926 182.391 243.618 181.911C243.314 181.429 242.978 180.956 242.597 180.518C242.218 180.078 241.811 179.654 241.363 179.274C240.915 178.894 240.438 178.544 239.934 178.234C239.426 177.93 238.906 177.674 238.38 177.464C237.854 177.253 237.319 177.105 236.789 176.992C236.258 176.878 235.729 176.826 235.21 176.807C234.691 176.785 234.181 176.818 233.688 176.883C232.7 177.008 231.78 177.295 230.954 177.66C230.129 178.033 229.4 178.494 228.774 178.98C227.519 179.959 226.69 181.036 226.161 181.805C225.634 182.581 225.381 183.053 225.322 183.017C225.277 182.991 225.433 182.457 225.893 181.59C226.354 180.732 227.147 179.535 228.427 178.427C229.065 177.877 229.821 177.352 230.688 176.921C231.556 176.499 232.532 176.161 233.59 176.002C234.118 175.92 234.666 175.874 235.224 175.888C235.783 175.898 236.354 175.946 236.927 176.062C237.5 176.177 238.079 176.332 238.648 176.556C239.217 176.779 239.778 177.055 240.326 177.382C240.87 177.717 241.384 178.095 241.865 178.508C242.346 178.922 242.784 179.383 243.189 179.862C243.595 180.34 243.952 180.855 244.272 181.379C244.596 181.901 244.87 182.447 245.109 182.993C245.589 184.085 245.895 185.201 246.08 186.262C246.257 187.326 246.304 188.339 246.267 189.254C246.189 191.09 245.772 192.516 245.414 193.437C245.048 194.363 244.75 194.811 244.707 194.784Z" fill="#E0E0E0"/>
<path d="M232.85 196.122L231.929 198.042L230.435 197.097L231.332 195.23C229.903 194.193 228.739 192.765 228.271 191.509L230.097 189.937C230.539 191.044 231.392 192.186 232.41 192.985L233.784 190.123C232.348 188.613 230.8 186.809 231.977 184.358C232.85 182.543 234.749 181.71 237.257 182.894L238.171 180.991L239.665 181.935L238.767 183.803C239.838 184.614 240.764 185.645 241.298 186.764L239.538 188.4C239.015 187.422 238.378 186.639 237.681 186.064L236.282 188.977C237.726 190.47 239.244 192.256 238.083 194.672C237.228 196.455 235.352 197.279 232.85 196.122ZM234.995 187.605L236.163 185.172C235.273 184.877 234.721 185.176 234.449 185.741C234.161 186.34 234.452 186.95 234.995 187.605ZM235.58 193.358C235.868 192.758 235.592 192.159 235.073 191.495L233.937 193.86C234.774 194.144 235.317 193.906 235.58 193.358Z" fill="#E0E0E0"/>
<path d="M25.4141 313.274C25.4141 313.162 87.8911 313.071 164.943 313.071C242.022 313.071 304.486 313.163 304.486 313.274C304.486 313.386 242.022 313.477 164.943 313.477C87.8918 313.478 25.4141 313.386 25.4141 313.274Z" fill="#263238"/>
<path d="M140.988 352.008L142.49 363.312L241.791 363.611C241.791 363.611 242.964 353.652 241.791 352.307C240.618 350.961 140.988 352.008 140.988 352.008Z" fill="#E0E0E0"/>
<path d="M242.675 357.66C242.675 357.772 220.089 357.795 192.235 357.713C164.371 357.631 141.791 357.473 141.791 357.361C141.791 357.249 164.372 357.225 192.236 357.307C220.09 357.39 242.675 357.547 242.675 357.66Z" fill="#263238"/>
<path d="M242.433 360.634C242.433 360.746 219.979 360.837 192.287 360.837C164.585 360.837 142.135 360.745 142.135 360.634C142.135 360.522 164.584 360.431 192.287 360.431C219.978 360.431 242.433 360.522 242.433 360.634Z" fill="#263238"/>
<path d="M225.87 318.072L159.447 318.349L140.988 352.148L241.792 352.447L225.87 318.072Z" fill="white"/>
<path d="M225.87 318.072C225.87 318.072 225.971 318.264 226.159 318.658C226.351 319.064 226.629 319.65 226.991 320.416C227.723 321.979 228.796 324.268 230.178 327.217C232.946 333.158 236.947 341.747 241.901 352.38L241.999 352.59L241.791 352.589C220.45 352.541 190.682 352.474 157.766 352.4C152.062 352.382 146.453 352.365 140.988 352.349L140.672 352.348L140.84 352.041C147.42 340.006 153.643 328.622 159.313 318.253L159.36 318.167H159.447C179.174 318.118 195.789 318.077 207.483 318.048C213.309 318.045 217.908 318.044 221.061 318.042C222.623 318.047 223.825 318.05 224.647 318.052C225.046 318.056 225.35 318.059 225.564 318.061C225.769 318.064 225.87 318.072 225.87 318.072C225.87 318.072 225.76 318.081 225.551 318.086C225.333 318.09 225.025 318.095 224.621 318.102C223.794 318.111 222.585 318.125 221.013 318.143C217.854 318.168 213.247 318.203 207.41 318.249C195.734 318.318 179.144 318.416 159.448 318.532L159.582 318.446C153.921 328.822 147.706 340.213 141.136 352.255L140.988 351.947C146.453 351.963 152.062 351.978 157.766 351.995C190.681 352.116 220.45 352.226 241.791 352.304L241.68 352.513C236.782 341.875 232.826 333.282 230.09 327.338C228.729 324.366 227.672 322.059 226.951 320.483C226.597 319.703 226.327 319.106 226.139 318.693C225.959 318.288 225.87 318.072 225.87 318.072Z" fill="#263238"/>
<path d="M151.011 357.66L149.168 361.674H156.622L155.829 357.66H151.011Z" fill="#0EA5E9"/>
<path d="M172.84 354.693L170.996 358.708H178.45L177.657 354.693H172.84Z" fill="#455A64"/>
<path d="M204.229 357.66L203.586 361.674H209.839L209.046 357.66H204.229Z" fill="#0EA5E9"/>
<path d="M242.09 354.693C242.09 354.805 219.505 354.829 191.651 354.747C163.787 354.664 141.207 354.506 141.207 354.394C141.207 354.282 163.788 354.257 191.651 354.34C219.506 354.423 242.09 354.581 242.09 354.693Z" fill="#263238"/>
<path d="M228.618 346.831H231.081V347.85H223.898V346.831H226.35V343.309H228.618L228.618 346.831Z" fill="#0EA5E9"/>
<path d="M218.076 344.191H221.466L222.097 343.309H224.411L220.871 347.849H218.638L215.086 343.309H217.446L218.076 344.191ZM218.74 345.138L219.771 346.591L220.803 345.138H218.74Z" fill="#0EA5E9"/>
<path d="M209.813 343.309L211.474 344.717L213.112 343.309H215.701L212.78 345.605L215.575 347.849H213.02L211.416 346.539L209.836 347.849H207.385L210.18 345.657L207.201 343.309H209.813Z" fill="#0EA5E9"/>
<path d="M203.125 343.874H152.738L151.816 345.423H203.125V343.874Z" fill="#E0E0E0"/>
<path d="M221.753 321.544H162.429L161.508 323.094H222.337L221.753 321.544Z" fill="#E0E0E0"/>
<path d="M222.859 324.111H178.708L177.787 325.66H223.443L222.859 324.111Z" fill="#E0E0E0"/>
<path d="M203.127 346.584H151.666L150.725 348.134H203.127V346.584Z" fill="#E0E0E0"/>
<path d="M153.887 340.531H228.453L223.737 328.116H159.552L153.887 340.531Z" fill="#F5F5F5"/>
<path d="M153.887 340.531L154.864 338.39H227.64L228.453 340.531H153.887Z" fill="#E0E0E0"/>
<path d="M224.577 335.899H210.656L210.952 334.323H223.791L224.577 335.899Z" fill="#E0E0E0"/>
<path d="M223.442 332.78H191.836L192.132 331.204H222.657L223.442 332.78Z" fill="#E0E0E0"/>
<path d="M169.332 335.899H161.18L161.827 334.323H169.98L169.332 335.899Z" fill="#E0E0E0"/>
<path d="M170.878 332.28H162.725L163.372 330.703H171.525L170.878 332.28Z" fill="#E0E0E0"/>
<path d="M171.027 326.348H160.939L161.68 324.861H171.768L171.027 326.348Z" fill="#0EA5E9"/>
<path d="M66.4076 177.898C70.8202 190.263 65.6596 204.39 54.8796 209.452C44.0996 214.514 31.7834 208.593 27.3709 196.229C22.9577 183.863 28.1189 169.737 38.8989 164.675C49.679 159.612 61.9951 165.533 66.4076 177.898Z" fill="#0EA5E9"/>
<g opacity="0.1">
<path d="M38.8989 164.674C28.1189 169.736 22.9577 183.863 27.3709 196.228C27.3709 196.228 41.3374 190.492 42.3758 182.607C43.4134 174.722 38.8989 164.674 38.8989 164.674Z" fill="white"/>
</g>
<path d="M61.2915 179.886C64.6466 189.287 60.723 200.026 52.5277 203.874C44.3323 207.722 34.9701 203.221 31.6156 193.821C28.2605 184.42 32.1841 173.681 40.3795 169.834C48.5742 165.985 57.9364 170.486 61.2915 179.886Z" fill="#0EA5E9"/>
<g opacity="0.2">
<path d="M61.2915 179.886C64.6466 189.287 60.723 200.026 52.5277 203.874C44.3323 207.722 34.9701 203.221 31.6156 193.821C28.2605 184.42 32.1841 173.681 40.3795 169.834C48.5742 165.985 57.9364 170.486 61.2915 179.886Z" fill="black"/>
</g>
<path d="M61.9646 180.399C65.2742 189.673 61.4036 200.268 53.3184 204.064C45.2332 207.86 35.9968 203.42 32.6872 194.146C29.3776 184.872 33.2482 174.277 41.3334 170.48C49.4186 166.684 58.655 171.125 61.9646 180.399Z" fill="#0EA5E9"/>
<g opacity="0.2">
<path d="M61.9646 180.399C65.2742 189.673 61.4036 200.268 53.3184 204.064C45.2332 207.86 35.9968 203.42 32.6872 194.146C29.3776 184.872 33.2482 174.277 41.3334 170.48C49.4186 166.684 58.655 171.125 61.9646 180.399Z" fill="white"/>
</g>
<path d="M47.391 185.543L45.8576 181.247C45.8637 181.244 45.8698 181.242 45.876 181.239C46.5573 181.02 47.3019 180.903 48.0792 180.9C48.7537 180.969 49.2522 181.136 49.2522 181.136L49.2542 180.98L49.28 179.162L49.2862 178.744L48.3321 178.253L48.0696 178.57C47.0836 178.484 46.0188 178.553 45.0362 178.945L44.193 176.582L43.3402 176.291L43.5517 176.883L42.6718 177.297L43.53 179.702C40.7494 181.381 40.0518 183.92 40.827 186.09C41.883 189.049 44.3643 188.778 46.6294 188.386L48.1485 192.643C46.6852 193.156 45.0729 193.192 43.8598 192.768L43.7924 195.309C45.0994 195.814 47.1047 195.667 48.9693 194.941L49.6058 196.725L48.8863 197.08L49.8118 197.304L51.3336 196.589L50.483 194.206C53.2744 192.497 53.9979 189.971 53.2234 187.799C52.1673 184.841 49.6561 185.151 47.391 185.543ZM45.71 185.81C44.5044 185.954 43.5395 185.86 43.175 184.839C42.8411 183.903 43.124 182.875 44.3582 182.022L45.71 185.81ZM49.6547 191.886L48.3104 188.118C49.5527 187.958 50.5442 188.064 50.9161 189.107C51.2425 190.022 50.9256 191.015 49.6547 191.886Z" fill="#0EA5E9"/>
<g opacity="0.3">
<path d="M47.391 185.543L45.8576 181.247C45.8637 181.244 45.8698 181.242 45.876 181.239C46.5573 181.02 47.3019 180.903 48.0792 180.9C48.7537 180.969 49.2522 181.136 49.2522 181.136L49.2542 180.98L49.28 179.162L49.2862 178.744L48.3321 178.253L48.0696 178.57C47.0836 178.484 46.0188 178.553 45.0362 178.945L44.193 176.582L43.3402 176.291L43.5517 176.883L42.6718 177.297L43.53 179.702C40.7494 181.381 40.0518 183.92 40.827 186.09C41.883 189.049 44.3643 188.778 46.6294 188.386L48.1485 192.643C46.6852 193.156 45.0729 193.192 43.8598 192.768L43.7924 195.309C45.0994 195.814 47.1047 195.667 48.9693 194.941L49.6058 196.725L48.8863 197.08L49.8118 197.304L51.3336 196.589L50.483 194.206C53.2744 192.497 53.9979 189.971 53.2234 187.799C52.1673 184.841 49.6561 185.151 47.391 185.543ZM45.71 185.81C44.5044 185.954 43.5395 185.86 43.175 184.839C42.8411 183.903 43.124 182.875 44.3582 182.022L45.71 185.81ZM49.6547 191.886L48.3104 188.118C49.5527 187.958 50.5442 188.064 50.9161 189.107C51.2425 190.022 50.9256 191.015 49.6547 191.886Z" fill="black"/>
</g>
<path d="M49.6439 193.918L50.4952 196.302L48.9734 197.017L48.1302 194.654C46.2656 195.38 44.2596 195.527 42.9527 195.022L43.0207 192.48C44.2338 192.904 45.8461 192.867 47.3101 192.354L45.7903 188.097C43.5252 188.49 41.0432 188.76 39.9872 185.801C39.212 183.63 39.909 181.09 42.6902 179.412L41.832 177.006L43.3539 176.292L44.1971 178.654C45.6013 178.094 47.1598 177.909 48.4287 178.184L48.4348 180.691C47.2163 180.493 46.0474 180.619 45.0178 180.953L46.5526 185.253C48.8177 184.861 51.3296 184.551 52.385 187.51C53.1602 189.683 52.436 192.21 49.6439 193.918ZM44.8703 185.521L43.5178 181.732C42.2836 182.585 42.0007 183.613 42.3346 184.549C42.6997 185.571 43.6653 185.665 44.8703 185.521ZM50.0777 188.818C49.7058 187.775 48.7143 187.669 47.472 187.83L48.8163 191.598C50.0872 190.728 50.4041 189.734 50.0777 188.818Z" fill="#0EA5E9"/>
<path d="M41.8899 186.986C41.8865 187.004 41.6315 186.95 41.2834 186.697C40.9393 186.451 40.5123 185.968 40.2913 185.282C40.0716 184.596 40.124 183.911 40.2471 183.467C40.3688 183.015 40.5327 182.785 40.5449 182.796C40.5687 182.811 40.4429 183.06 40.3545 183.5C40.2641 183.934 40.2335 184.578 40.4388 185.22C40.6455 185.861 41.0325 186.329 41.3473 186.592C41.6635 186.861 41.9001 186.957 41.8899 186.986Z" fill="white"/>
<path d="M42.8768 178.912C42.8366 178.931 42.6925 178.633 42.5544 178.247C42.4164 177.86 42.3375 177.531 42.3776 177.513C42.4178 177.494 42.5619 177.792 42.7 178.178C42.8373 178.565 42.9169 178.893 42.8768 178.912Z" fill="white"/>
<path d="M41.5645 168.766C41.5672 168.778 41.3945 168.849 41.0803 168.969C40.9225 169.026 40.7301 169.099 40.5118 169.199C40.2929 169.296 40.0392 169.394 39.7706 169.535C39.4986 169.668 39.2015 169.813 38.8921 169.996C38.5766 170.164 38.2556 170.377 37.9135 170.593C37.241 171.047 36.525 171.592 35.8205 172.235C35.1208 172.887 34.502 173.571 33.9709 174.227C33.7139 174.563 33.463 174.877 33.2522 175.194C33.0305 175.5 32.8414 175.802 32.6701 176.078C32.4919 176.349 32.3539 176.613 32.224 176.837C32.0921 177.06 31.9887 177.259 31.9064 177.424C31.7378 177.75 31.6392 177.929 31.6297 177.923C31.6202 177.918 31.6997 177.728 31.8534 177.39C31.9282 177.219 32.0241 177.014 32.1499 176.784C32.2736 176.553 32.4056 176.283 32.5796 176.006C32.7462 175.723 32.9312 175.415 33.1508 175.101C33.3582 174.777 33.6078 174.457 33.8648 174.114C34.3946 173.447 35.0168 172.752 35.7233 172.094C36.4352 171.444 37.1608 170.898 37.8435 170.448C38.1903 170.234 38.5167 170.024 38.837 169.862C39.1512 169.684 39.4531 169.543 39.7298 169.417C40.0032 169.282 40.2616 169.193 40.4846 169.104C40.707 169.012 40.9028 168.949 41.064 168.902C41.3836 168.803 41.5618 168.754 41.5645 168.766Z" fill="white"/>
<path d="M306.381 117.256C309.838 126.944 305.795 138.013 297.349 141.978C288.903 145.944 279.254 141.305 275.797 131.617C272.339 121.929 276.383 110.862 284.829 106.895C293.274 102.93 302.923 107.568 306.381 117.256Z" fill="#0EA5E9"/>
<g opacity="0.1">
<path d="M284.829 106.896C276.383 110.862 272.339 121.929 275.797 131.618C275.797 131.618 286.739 127.123 287.552 120.946C288.366 114.768 284.829 106.896 284.829 106.896Z" fill="white"/>
</g>
<path d="M302.374 118.814C305.003 126.178 301.928 134.592 295.508 137.608C289.087 140.622 281.751 137.097 279.123 129.731C276.495 122.366 279.569 113.953 285.99 110.937C292.41 107.922 299.746 111.449 302.374 118.814Z" fill="#0EA5E9"/>
<g opacity="0.2">
<path d="M302.374 118.814C305.003 126.178 301.928 134.592 295.508 137.608C289.087 140.622 281.751 137.097 279.123 129.731C276.495 122.366 279.569 113.953 285.99 110.937C292.41 107.922 299.746 111.449 302.374 118.814Z" fill="black"/>
</g>
<path d="M302.901 119.215C305.493 126.481 302.461 134.783 296.127 137.757C289.792 140.732 282.555 137.252 279.962 129.986C277.369 122.72 280.401 114.419 286.736 111.445C293.071 108.47 300.307 111.95 302.901 119.215Z" fill="#0EA5E9"/>
<g opacity="0.2">
<path d="M302.901 119.215C305.493 126.481 302.461 134.783 296.127 137.757C289.792 140.732 282.555 137.252 279.962 129.986C277.369 122.72 280.401 114.419 286.736 111.445C293.071 108.47 300.307 111.95 302.901 119.215Z" fill="white"/>
</g>
<path d="M291.482 123.246L290.28 119.88C290.285 119.878 290.29 119.876 290.295 119.873C290.828 119.702 291.412 119.61 292.021 119.607C292.549 119.662 292.94 119.793 292.94 119.793L292.941 119.67L292.962 118.246L292.966 117.919L292.218 117.534L292.013 117.782C291.241 117.715 290.406 117.77 289.636 118.076L288.976 116.225L288.308 115.997L288.474 116.461L287.784 116.784L288.457 118.669C286.278 119.984 285.732 121.973 286.339 123.674C287.166 125.992 289.111 125.78 290.885 125.473L292.076 128.808C290.929 129.211 289.666 129.239 288.716 128.906L288.663 130.898C289.687 131.293 291.258 131.179 292.719 130.61L293.218 132.008L292.654 132.285L293.379 132.461L294.571 131.901L293.905 130.033C296.092 128.694 296.659 126.715 296.052 125.013C295.223 122.696 293.256 122.939 291.482 123.246ZM290.165 123.456C289.22 123.568 288.464 123.495 288.179 122.694C287.917 121.96 288.138 121.156 289.105 120.488L290.165 123.456ZM293.255 128.216L292.202 125.265C293.176 125.138 293.952 125.222 294.244 126.039C294.499 126.755 294.251 127.534 293.255 128.216Z" fill="#0EA5E9"/>
<g opacity="0.3">
<path d="M291.482 123.246L290.28 119.88C290.285 119.878 290.29 119.876 290.295 119.873C290.828 119.702 291.412 119.61 292.021 119.607C292.549 119.662 292.94 119.793 292.94 119.793L292.941 119.67L292.962 118.246L292.966 117.919L292.218 117.534L292.013 117.782C291.241 117.715 290.406 117.77 289.636 118.076L288.976 116.225L288.308 115.997L288.474 116.461L287.784 116.784L288.457 118.669C286.278 119.984 285.732 121.973 286.339 123.674C287.166 125.992 289.111 125.78 290.885 125.473L292.076 128.808C290.929 129.211 289.666 129.239 288.716 128.906L288.663 130.898C289.687 131.293 291.258 131.179 292.719 130.61L293.218 132.008L292.654 132.285L293.379 132.461L294.571 131.901L293.905 130.033C296.092 128.694 296.659 126.715 296.052 125.013C295.223 122.696 293.256 122.939 291.482 123.246ZM290.165 123.456C289.22 123.568 288.464 123.495 288.179 122.694C287.917 121.96 288.138 121.156 289.105 120.488L290.165 123.456ZM293.255 128.216L292.202 125.265C293.176 125.138 293.952 125.222 294.244 126.039C294.499 126.755 294.251 127.534 293.255 128.216Z" fill="black"/>
</g>
<path d="M293.247 129.808L293.914 131.676L292.722 132.236L292.061 130.385C290.601 130.953 289.029 131.069 288.004 130.672L288.058 128.681C289.008 129.013 290.271 128.985 291.418 128.583L290.227 125.247C288.453 125.555 286.508 125.766 285.681 123.448C285.074 121.747 285.62 119.757 287.799 118.442L287.127 116.558L288.319 115.998L288.98 117.848C290.08 117.409 291.3 117.265 292.295 117.48L292.299 119.444C291.345 119.288 290.429 119.387 289.622 119.649L290.824 123.018C292.599 122.71 294.567 122.468 295.394 124.786C296.002 126.489 295.435 128.469 293.247 129.808ZM289.507 123.23L288.448 120.261C287.481 120.93 287.259 121.734 287.521 122.468C287.807 123.269 288.563 123.342 289.507 123.23ZM293.587 125.812C293.295 124.995 292.518 124.912 291.545 125.038L292.598 127.99C293.595 127.308 293.843 126.53 293.587 125.812Z" fill="#0EA5E9"/>
<path d="M287.172 124.377C287.169 124.391 286.969 124.349 286.697 124.151C286.427 123.957 286.093 123.58 285.919 123.042C285.747 122.504 285.788 121.967 285.884 121.62C285.98 121.267 286.108 121.086 286.118 121.095C286.137 121.106 286.038 121.301 285.968 121.646C285.897 121.986 285.874 122.491 286.034 122.994C286.196 123.496 286.499 123.863 286.745 124.069C286.994 124.278 287.18 124.354 287.172 124.377Z" fill="white"/>
<path d="M287.945 118.051C287.913 118.066 287.8 117.832 287.692 117.529C287.584 117.226 287.522 116.968 287.553 116.953C287.584 116.938 287.698 117.172 287.806 117.475C287.914 117.779 287.977 118.036 287.945 118.051Z" fill="white"/>
<path d="M286.917 110.101C286.919 110.11 286.783 110.167 286.537 110.259C286.413 110.304 286.263 110.361 286.092 110.44C285.92 110.516 285.721 110.592 285.511 110.703C285.298 110.807 285.065 110.922 284.823 111.064C284.576 111.195 284.324 111.362 284.057 111.532C283.53 111.887 282.969 112.314 282.416 112.819C281.868 113.329 281.384 113.865 280.967 114.379C280.766 114.642 280.57 114.888 280.404 115.137C280.23 115.377 280.083 115.613 279.949 115.829C279.809 116.041 279.701 116.247 279.599 116.424C279.496 116.598 279.415 116.755 279.35 116.884C279.218 117.14 279.141 117.279 279.133 117.275C279.126 117.27 279.188 117.122 279.308 116.857C279.367 116.723 279.442 116.562 279.541 116.382C279.638 116.201 279.741 115.99 279.877 115.773C280.008 115.552 280.153 115.311 280.325 115.065C280.487 114.811 280.682 114.56 280.884 114.292C281.299 113.769 281.786 113.224 282.34 112.709C282.897 112.2 283.466 111.772 284.001 111.419C284.273 111.252 284.529 111.087 284.779 110.959C285.026 110.819 285.262 110.709 285.479 110.61C285.693 110.505 285.895 110.435 286.07 110.365C286.244 110.293 286.398 110.244 286.524 110.207C286.775 110.13 286.915 110.092 286.917 110.101Z" fill="white"/>
<path d="M305.741 198.669C303.837 211.85 292.978 220.767 281.487 218.583C269.995 216.399 262.223 203.944 264.127 190.762C266.03 177.58 276.888 168.666 288.38 170.849C299.871 173.033 307.644 185.488 305.741 198.669Z" fill="#0EA5E9"/>
<g opacity="0.1">
<path d="M288.381 170.85C276.889 168.667 266.03 177.581 264.127 190.763C264.127 190.763 278.64 194.291 283.132 188.206C287.624 182.12 288.381 170.85 288.381 170.85Z" fill="white"/>
</g>
<path d="M300.476 197.281C299.029 207.302 290.775 214.079 282.039 212.42C273.302 210.76 267.394 201.292 268.841 191.271C270.288 181.249 278.543 174.472 287.279 176.133C296.015 177.792 301.923 187.26 300.476 197.281Z" fill="#0EA5E9"/>
<g opacity="0.2">
<path d="M300.476 197.281C299.029 207.302 290.775 214.079 282.039 212.42C273.302 210.76 267.394 201.292 268.841 191.271C270.288 181.249 278.543 174.472 287.279 176.133C296.015 177.792 301.923 187.26 300.476 197.281Z" fill="black"/>
</g>
<path d="M300.814 198.122C299.387 208.008 291.243 214.695 282.624 213.057C274.005 211.419 268.176 202.078 269.604 192.192C271.031 182.306 279.175 175.62 287.794 177.257C296.413 178.894 302.242 188.236 300.814 198.122Z" fill="#0EA5E9"/>
<g opacity="0.2">
<path d="M300.814 198.122C299.387 208.008 291.243 214.695 282.624 213.057C274.005 211.419 268.176 202.078 269.604 192.192C271.031 182.306 279.175 175.62 287.794 177.257C296.413 178.894 302.242 188.236 300.814 198.122Z" fill="white"/>
</g>
<path d="M286.055 193.723L286.716 189.144C286.723 189.145 286.729 189.146 286.736 189.148C287.416 189.371 288.103 189.72 288.766 190.185C289.309 190.65 289.656 191.093 289.656 191.093L289.73 190.961L290.584 189.429L290.781 189.077L290.193 188.085L289.824 188.197C289.024 187.53 288.086 186.948 287.07 186.69L287.434 184.171L286.842 183.409L286.751 184.041L285.812 183.863L285.442 186.427C282.307 186.181 280.551 187.922 280.217 190.237C279.762 193.391 281.998 194.654 284.105 195.684L283.449 200.222C281.969 199.777 280.581 198.838 279.742 197.746L278.521 199.869C279.403 201.086 281.177 202.168 283.096 202.673L282.821 204.574L282.047 204.443L282.732 205.191L284.354 205.5L284.721 202.958C287.879 203.185 289.651 201.471 289.985 199.156C290.441 196.002 288.163 194.753 286.055 193.723ZM284.502 192.938C283.411 192.335 282.632 191.674 282.789 190.584C282.933 189.586 283.645 188.882 285.086 188.9L284.502 192.938ZM285.079 200.485L285.659 196.469C286.79 197.08 287.585 197.767 287.425 198.879C287.283 199.855 286.559 200.509 285.079 200.485Z" fill="#0EA5E9"/>
<g opacity="0.3">
<path d="M286.055 193.723L286.716 189.144C286.723 189.145 286.729 189.146 286.736 189.148C287.416 189.371 288.103 189.72 288.766 190.185C289.309 190.65 289.656 191.093 289.656 191.093L289.73 190.961L290.584 189.429L290.781 189.077L290.193 188.085L289.824 188.197C289.024 187.53 288.086 186.948 287.07 186.69L287.434 184.171L286.842 183.409L286.751 184.041L285.812 183.863L285.442 186.427C282.307 186.181 280.551 187.922 280.217 190.237C279.762 193.391 281.998 194.654 284.105 195.684L283.449 200.222C281.969 199.777 280.581 198.838 279.742 197.746L278.521 199.869C279.403 201.086 281.177 202.168 283.096 202.673L282.821 204.574L282.047 204.443L282.732 205.191L284.354 205.5L284.721 202.958C287.879 203.185 289.651 201.471 289.985 199.156C290.441 196.002 288.163 194.753 286.055 193.723ZM284.502 192.938C283.411 192.335 282.632 191.674 282.789 190.584C282.933 189.586 283.645 188.882 285.086 188.9L284.502 192.938ZM285.079 200.485L285.659 196.469C286.79 197.08 287.585 197.767 287.425 198.879C287.283 199.855 286.559 200.509 285.079 200.485Z" fill="black"/>
</g>
<path d="M284.14 202.208L283.773 204.75L282.151 204.442L282.515 201.923C280.596 201.418 278.821 200.335 277.939 199.118L279.161 196.995C279.999 198.087 281.388 199.027 282.869 199.472L283.524 194.933C281.416 193.904 279.18 192.639 279.636 189.485C279.971 187.17 281.726 185.428 284.861 185.675L285.232 183.11L286.854 183.418L286.49 185.937C287.941 186.306 289.353 187.087 290.307 188.084L289.164 190.221C288.218 189.319 287.165 188.722 286.136 188.387L285.475 192.971C287.582 194.001 289.861 195.25 289.406 198.404C289.072 200.721 287.299 202.436 284.14 202.208ZM283.921 192.188L284.504 188.148C283.064 188.131 282.352 188.835 282.208 189.833C282.05 190.923 282.829 191.584 283.921 192.188ZM286.843 198.13C287.004 197.017 286.209 196.33 285.077 195.719L284.497 199.736C285.978 199.76 286.703 199.105 286.843 198.13Z" fill="#0EA5E9"/>
<path d="M280.713 191.64C280.702 191.653 280.509 191.454 280.329 191.029C280.149 190.612 280.006 189.944 280.132 189.227C280.259 188.51 280.617 187.959 280.925 187.656C281.235 187.344 281.479 187.248 281.485 187.264C281.499 187.29 281.278 187.427 281.001 187.748C280.725 188.063 280.404 188.592 280.285 189.262C280.168 189.932 280.283 190.563 280.43 190.977C280.577 191.397 280.735 191.621 280.713 191.64Z" fill="white"/>
<path d="M285.249 185.362C285.207 185.355 285.22 185.014 285.279 184.602C285.339 184.19 285.422 183.862 285.465 183.87C285.508 183.878 285.494 184.219 285.435 184.631C285.375 185.043 285.292 185.371 285.249 185.362Z" fill="white"/>
<path d="M288.776 175.937C288.773 175.949 288.593 175.905 288.271 175.817C288.111 175.771 287.913 175.718 287.682 175.671C287.451 175.622 287.191 175.552 286.897 175.51C286.604 175.459 286.285 175.405 285.938 175.374C285.593 175.326 285.222 175.314 284.832 175.292C284.052 175.273 283.194 175.306 282.299 175.429C281.406 175.562 280.566 175.772 279.813 176.01C279.441 176.141 279.083 176.257 278.759 176.401C278.43 176.528 278.132 176.671 277.859 176.803C277.583 176.927 277.346 177.068 277.132 177.18C276.918 177.291 276.738 177.398 276.593 177.488C276.3 177.664 276.134 177.757 276.129 177.746C276.124 177.735 276.278 177.622 276.564 177.426C276.705 177.327 276.881 177.209 277.093 177.09C277.304 176.968 277.54 176.817 277.815 176.686C278.086 176.546 278.385 176.395 278.714 176.26C279.039 176.11 279.398 175.987 279.773 175.85C280.53 175.601 281.377 175.384 282.28 175.25C283.183 175.125 284.05 175.097 284.837 175.125C285.23 175.151 285.604 175.169 285.952 175.224C286.3 175.261 286.622 175.324 286.915 175.383C287.21 175.433 287.47 175.512 287.701 175.57C287.932 175.626 288.128 175.69 288.286 175.748C288.605 175.859 288.779 175.924 288.776 175.937Z" fill="white"/>
<path d="M177.503 207.721H78.1828C76.3896 207.721 74.9358 206.053 74.9358 203.996V46.4525C74.9358 44.3957 76.3896 42.728 78.1828 42.728H177.503C179.296 42.728 180.75 44.3957 180.75 46.4525V203.995C180.75 206.053 179.297 207.721 177.503 207.721Z" fill="white"/>
<path d="M177.502 207.721C177.496 207.689 177.953 207.777 178.738 207.418C179.125 207.236 179.574 206.902 179.976 206.36C180.363 205.813 180.699 205.031 180.71 204.091C180.703 200.313 180.694 194.752 180.681 187.591C180.667 173.256 180.648 152.523 180.624 126.905C180.618 114.094 180.611 100.061 180.603 84.9978C180.6 77.4653 180.596 69.6755 180.594 61.6516C180.592 57.6393 180.591 53.5685 180.59 49.4423C180.588 48.4127 180.586 47.3792 180.584 46.3433C180.562 45.3543 180.154 44.3887 179.49 43.7475C179.161 43.4238 178.768 43.1882 178.35 43.0525C177.93 42.9082 177.5 42.909 177.033 42.9137C176.116 42.9137 175.196 42.9145 174.273 42.9145C144.74 42.9191 112.273 42.9246 78.1932 42.9308C77.1787 42.9215 76.1934 43.5268 75.6324 44.4893C75.3563 44.9705 75.1802 45.5251 75.1271 46.0969C75.0958 46.6639 75.1183 47.3012 75.1115 47.8994C75.1115 50.3283 75.1115 52.7502 75.1115 55.1636C75.1115 59.991 75.1108 64.7864 75.1108 69.5468C75.1101 79.0675 75.1088 88.4485 75.1081 97.6665C75.1047 116.103 75.1013 133.885 75.0979 150.826C75.0924 167.766 75.087 183.864 75.0816 198.928C75.0816 199.87 75.0809 200.808 75.0802 201.741L75.0795 203.138C75.0843 203.603 75.0618 204.073 75.1142 204.503C75.2189 205.38 75.6249 206.196 76.2178 206.751C76.8115 207.317 77.5738 207.585 78.3442 207.557C81.5123 207.559 84.622 207.561 87.6704 207.563C93.7666 207.568 99.6166 207.572 105.201 207.576C127.535 207.604 145.609 207.625 158.104 207.641C164.347 207.657 169.194 207.671 172.487 207.679C174.128 207.688 175.38 207.695 176.228 207.7C177.071 207.707 177.502 207.721 177.502 207.721C177.502 207.721 177.071 207.735 176.228 207.742C175.381 207.746 174.128 207.753 172.487 207.762C169.195 207.771 164.347 207.784 158.104 207.8C145.608 207.816 127.535 207.838 105.201 207.865C99.6173 207.869 93.7666 207.874 87.6704 207.878C84.6226 207.881 81.513 207.882 78.3442 207.884C77.5336 207.917 76.6775 207.623 76.0363 207.008C75.3889 206.403 74.9442 205.511 74.8286 204.552C74.7701 204.065 74.796 203.604 74.7898 203.14L74.7892 201.743C74.7885 200.809 74.7885 199.871 74.7878 198.93C74.783 183.864 74.7776 167.767 74.7715 150.827C74.7681 133.887 74.7647 116.104 74.7613 97.6681C74.7606 88.4501 74.7592 79.069 74.7586 69.5483C74.7586 64.788 74.7579 59.9925 74.7579 55.1651C74.7579 52.7518 74.7579 50.3299 74.7579 47.901C74.7654 47.2848 74.7402 46.7052 74.7756 46.0578C74.8347 45.4198 75.0312 44.7997 75.34 44.2638C75.9628 43.1913 77.0665 42.5151 78.1946 42.526C112.274 42.5315 144.741 42.5369 174.275 42.5424C175.197 42.5424 176.117 42.5432 177.035 42.5432C177.482 42.5377 177.981 42.5362 178.441 42.6968C178.902 42.8474 179.336 43.1087 179.7 43.4659C180.432 44.1726 180.883 45.2427 180.906 46.3332C180.907 47.3737 180.909 48.4103 180.91 49.4438C180.909 53.57 180.907 57.6408 180.906 61.6532C180.903 69.677 180.9 77.4669 180.897 84.9993C180.89 100.063 180.882 114.095 180.875 126.906C180.851 152.525 180.832 173.258 180.819 187.593C180.803 194.755 180.79 200.317 180.781 204.094C180.765 205.056 180.415 205.849 180.018 206.401C179.604 206.948 179.145 207.281 178.752 207.458C178.359 207.647 178.034 207.682 177.824 207.714C177.611 207.721 177.502 207.721 177.502 207.721Z" fill="#263238"/>
<path d="M170.403 59.0645H85.9963V62.0441H170.403V59.0645Z" fill="#E0E0E0"/>
<path d="M170.403 69.1357H85.9963V72.1153H170.403V69.1357Z" fill="#F5F5F5"/>
<path d="M170.49 76.6611H85.6604V79.6407H170.49V76.6611Z" fill="#E0E0E0"/>
<path d="M170.49 82.2842H85.6604V85.2638H170.49V82.2842Z" fill="#F5F5F5"/>
<path d="M170.49 97.3818H85.6604V100.361H170.49V97.3818Z" fill="#E0E0E0"/>
<path d="M170.49 172.085H85.6604V175.065H170.49V172.085Z" fill="#E0E0E0"/>
<path d="M170.49 195.808H85.6604V198.787H170.49V195.808Z" fill="#E0E0E0"/>
<path d="M112.15 190.742H85.6604V193.721H112.15V190.742Z" fill="#E0E0E0"/>
<path d="M130.731 190.742H116.58V193.721H130.731V190.742Z" fill="#E0E0E0"/>
<path d="M170.258 190.742H136.012V193.721H170.258V190.742Z" fill="#E0E0E0"/>
<path d="M170.258 177.651H85.4277V180.63H170.258V177.651Z" fill="#F5F5F5"/>
<path d="M170.186 183.557H85.3557V186.537H170.186V183.557Z" fill="#F5F5F5"/>
<path d="M169.738 106.223H100.75V109.203H169.738V106.223Z" fill="#F5F5F5"/>
<path d="M170.59 64.1851H86.1838V67.1647H170.59V64.1851Z" fill="#F5F5F5"/>
<path d="M111.915 90.0859H85.6604V94.2082H111.915V90.0859Z" fill="#0EA5E9"/>
<path d="M85.4332 50.6426C85.4332 51.6644 84.711 52.4928 83.8202 52.4928C82.9294 52.4928 82.2073 51.6644 82.2073 50.6426C82.2073 49.6208 82.9294 48.7925 83.8202 48.7925C84.711 48.7925 85.4332 49.6208 85.4332 50.6426Z" fill="#E0E0E0"/>
<path d="M89.5855 50.6426C89.5855 51.6644 88.8634 52.4928 87.9726 52.4928C87.0818 52.4928 86.3596 51.6644 86.3596 50.6426C86.3596 49.6208 87.0818 48.7925 87.9726 48.7925C88.8634 48.7925 89.5855 49.6208 89.5855 50.6426Z" fill="#E0E0E0"/>
<path d="M93.7381 50.6426C93.7381 51.6644 93.016 52.4928 92.1252 52.4928C91.2344 52.4928 90.5122 51.6644 90.5122 50.6426C90.5122 49.6208 91.2344 48.7925 92.1252 48.7925C93.016 48.7925 93.7381 49.6208 93.7381 50.6426Z" fill="#E0E0E0"/>
<path d="M90.096 105.422H85.8501V110.005H90.096V105.422Z" fill="#E0E0E0"/>
<path d="M169.738 112.926H100.75V115.906H169.738V112.926Z" fill="#F5F5F5"/>
<path d="M90.096 112.125H85.8501V116.708H90.096V112.125Z" fill="#E0E0E0"/>
<path d="M169.738 119.63H100.75V122.609H169.738V119.63Z" fill="#F5F5F5"/>
<path d="M90.096 118.828H85.8501V123.411H90.096V118.828Z" fill="#E0E0E0"/>
<path d="M169.738 126.333H100.75V129.313H169.738V126.333Z" fill="#F5F5F5"/>
<path d="M90.096 125.531H85.8501V130.115H90.096V125.531Z" fill="#E0E0E0"/>
<path d="M169.689 134.78H85.8501V167.184H169.689V134.78Z" fill="#F5F5F5"/>
<path d="M169.689 134.78H85.8501V142.242H169.689V134.78Z" fill="#EBEBEB"/>
<path d="M169.688 142.243C169.688 142.355 150.951 142.446 127.844 142.446C104.729 142.446 85.9963 142.354 85.9963 142.243C85.9963 142.131 104.729 142.04 127.844 142.04C150.951 142.039 169.688 142.131 169.688 142.243Z" fill="#E0E0E0"/>
<path d="M169.688 150.982C169.688 151.094 150.951 151.185 127.844 151.185C104.729 151.185 85.9963 151.094 85.9963 150.982C85.9963 150.871 104.729 150.779 127.844 150.779C150.951 150.779 169.688 150.87 169.688 150.982Z" fill="#E0E0E0"/>
<path d="M169.688 159.722C169.688 159.834 150.951 159.925 127.844 159.925C104.729 159.925 85.9963 159.833 85.9963 159.722C85.9963 159.61 104.729 159.519 127.844 159.519C150.951 159.518 169.688 159.61 169.688 159.722Z" fill="#E0E0E0"/>
<path d="M102.232 166.964C102.134 166.964 102.055 159.861 102.055 151.101C102.055 142.339 102.134 135.237 102.232 135.237C102.329 135.237 102.409 142.338 102.409 151.101C102.409 159.861 102.33 166.964 102.232 166.964Z" fill="#E0E0E0"/>
<path d="M157.964 166.964C157.866 166.964 157.787 159.861 157.787 151.101C157.787 142.339 157.867 135.237 157.964 135.237C158.062 135.237 158.141 142.338 158.141 151.101C158.141 159.861 158.061 166.964 157.964 166.964Z" fill="#E0E0E0"/>
<path d="M138.885 145.375H106.547V148.134H138.885V145.375Z" fill="#E0E0E0"/>
<path d="M138.885 153.819H106.547V156.578H138.885V153.819Z" fill="#E0E0E0"/>
<path d="M95.2892 153.746H89.0142V156.505H95.2892V153.746Z" fill="#E0E0E0"/>
<path d="M95.0683 145.375H88.7932V148.134H95.0683V145.375Z" fill="#E0E0E0"/>
<path d="M166.926 145.375H161.022V148.134H166.926V145.375Z" fill="#E0E0E0"/>
<path d="M166.926 153.892H161.022V156.652H166.926V153.892Z" fill="#E0E0E0"/>
<path d="M156.72 245.255H57.3996C55.6064 245.255 54.1526 243.587 54.1526 241.53V83.9867C54.1526 81.9298 55.6064 80.2622 57.3996 80.2622H156.72C158.513 80.2622 159.967 81.9298 159.967 83.9867V241.53C159.967 243.587 158.513 245.255 156.72 245.255Z" fill="white"/>
<path d="M156.719 245.255C156.712 245.224 157.169 245.311 157.955 244.952C158.342 244.771 158.791 244.436 159.193 243.894C159.579 243.347 159.916 242.566 159.926 241.625C159.919 237.847 159.91 232.286 159.897 225.126C159.883 210.791 159.864 190.058 159.84 164.439C159.834 151.629 159.827 137.596 159.819 122.532C159.816 115 159.813 107.21 159.81 99.186C159.809 95.1737 159.807 91.1036 159.806 86.9774C159.804 85.9478 159.802 84.9143 159.8 83.8777C159.779 82.8894 159.37 81.923 158.706 81.2819C158.377 80.9582 157.984 80.7226 157.567 80.5861C157.146 80.441 156.717 80.4426 156.249 80.4473C155.332 80.4473 154.412 80.448 153.489 80.448C123.957 80.4527 91.4889 80.4582 57.4094 80.4644C56.3955 80.4551 55.4095 81.0604 54.8485 82.0229C54.5724 82.5041 54.3963 83.0587 54.3432 83.6304C54.312 84.1975 54.3344 84.8348 54.3276 85.433C54.3276 87.8619 54.3276 90.2838 54.3276 92.6972C54.3276 97.5246 54.3269 102.32 54.3269 107.08C54.3262 116.601 54.3249 125.982 54.3242 135.2C54.3208 153.636 54.3174 171.419 54.314 188.359C54.3086 205.3 54.3024 221.397 54.2977 236.462C54.297 237.404 54.297 238.341 54.2963 239.275L54.2956 240.672C54.3004 241.137 54.278 241.607 54.3303 242.037C54.435 242.913 54.841 243.729 55.434 244.285C56.0276 244.85 56.7899 245.119 57.5603 245.09C60.7284 245.093 63.8381 245.094 66.8865 245.097C72.9827 245.101 78.8328 245.105 84.4176 245.11C106.752 245.137 124.825 245.159 137.32 245.175C143.563 245.191 148.41 245.204 151.704 245.213C153.344 245.221 154.597 245.229 155.444 245.233C156.287 245.241 156.719 245.255 156.719 245.255C156.719 245.255 156.287 245.269 155.445 245.276C154.598 245.281 153.345 245.288 151.704 245.296C148.412 245.305 143.563 245.318 137.321 245.335C124.825 245.35 106.752 245.372 84.4183 245.399C78.8341 245.403 72.9834 245.408 66.8872 245.413C63.8394 245.415 60.7298 245.416 57.561 245.419C56.7504 245.452 55.8943 245.158 55.2531 244.542C54.6057 243.938 54.161 243.045 54.0454 242.087C53.9869 241.6 54.0128 241.139 54.0066 240.675L54.006 239.278C54.0053 238.344 54.0053 237.407 54.0046 236.465C53.9998 221.399 53.9937 205.303 53.9883 188.363C53.9849 171.423 53.9815 153.639 53.9781 135.203C53.9774 125.985 53.976 116.604 53.9754 107.083C53.9754 102.323 53.9747 97.5277 53.9747 92.7003C53.9747 90.287 53.9747 87.8651 53.9747 85.4362C53.9822 84.82 53.957 84.2404 53.9924 83.593C54.0508 82.955 54.248 82.3349 54.5561 81.799C55.1796 80.7265 56.2826 80.0502 57.4107 80.0612C91.4903 80.0666 123.958 80.0721 153.491 80.0768C154.413 80.0768 155.333 80.0775 156.251 80.0775C156.698 80.0721 157.197 80.0705 157.657 80.2312C158.118 80.3817 158.553 80.6438 158.916 81.0003C159.648 81.707 160.099 82.7763 160.122 83.8676C160.123 84.9081 160.125 85.9447 160.126 86.9782C160.125 91.1044 160.123 95.1752 160.122 99.1868C160.119 107.211 160.116 115 160.113 122.533C160.106 137.596 160.098 151.629 160.091 164.44C160.068 190.058 160.049 210.792 160.035 225.126C160.019 232.288 160.006 237.85 159.998 241.628C159.981 242.59 159.632 243.383 159.234 243.934C158.82 244.481 158.361 244.814 157.968 244.991C157.575 245.18 157.25 245.215 157.04 245.248C156.827 245.256 156.719 245.255 156.719 245.255Z" fill="#263238"/>
<path d="M149.709 96.5986H105.102V99.5782H149.709V96.5986Z" fill="#E0E0E0"/>
<path d="M149.709 106.67H105.102V109.65H149.709V106.67Z" fill="#F5F5F5"/>
<path d="M149.709 114.196H64.8792V117.175H149.709V114.196Z" fill="#E0E0E0"/>
<path d="M149.709 119.818H64.8792V122.798H149.709V119.818Z" fill="#F5F5F5"/>
<path d="M149.709 134.916H64.8792V137.895H149.709V134.916Z" fill="#E0E0E0"/>
<path d="M149.709 209.619H64.8792V212.599H149.709V209.619Z" fill="#E0E0E0"/>
<path d="M149.709 233.341H64.8792V236.321H149.709V233.341Z" fill="#E0E0E0"/>
<path d="M91.3686 228.276H64.8792V231.255H91.3686V228.276Z" fill="#E0E0E0"/>
<path d="M109.948 228.276H95.7971V231.255H109.948V228.276Z" fill="#E0E0E0"/>
<path d="M149.473 228.276H115.227V231.255H149.473V228.276Z" fill="#E0E0E0"/>
<path d="M149.475 215.185H64.6448V218.165H149.475V215.185Z" fill="#F5F5F5"/>
<path d="M149.401 221.091H64.5706V224.071H149.401V221.091Z" fill="#F5F5F5"/>
<path d="M148.952 143.757H79.9651V146.737H148.952V143.757Z" fill="#F5F5F5"/>
<path d="M149.807 101.719H105.199V104.699H149.807V101.719Z" fill="#F5F5F5"/>
<path d="M91.1333 127.62H64.8792V131.742H91.1333V127.62Z" fill="#0EA5E9"/>
<path d="M67.0927 99.7513H63.7817V97.1406H73.4364V99.7513H70.1411V108.78H67.0927V99.7513Z" fill="#0EA5E9"/>
<path d="M81.2605 106.519H76.7025L75.8552 108.78H72.7449L77.5028 97.1416H80.5057L85.2793 108.78H82.1071L81.2605 106.519ZM80.3677 104.091L78.9818 100.366L77.596 104.091H80.3677Z" fill="#0EA5E9"/>
<path d="M92.3642 108.779L90.1318 105.172L87.9299 108.779H84.4497L88.376 102.893L84.619 97.1406H88.053L90.2086 100.499L92.3336 97.1406H95.6289L91.8719 102.761L95.8751 108.78L92.3642 108.779Z" fill="#0EA5E9"/>
<path d="M64.65 88.1773C64.65 89.1991 63.9278 90.0275 63.037 90.0275C62.1462 90.0275 61.4241 89.1991 61.4241 88.1773C61.4241 87.1555 62.1462 86.3271 63.037 86.3271C63.9278 86.3271 64.65 87.1555 64.65 88.1773Z" fill="#E0E0E0"/>
<path d="M68.8023 88.1768C68.8023 89.1986 68.0802 90.027 67.1894 90.027C66.2986 90.027 65.5764 89.1986 65.5764 88.1768C65.5764 87.155 66.2986 86.3267 67.1894 86.3267C68.0802 86.3267 68.8023 87.155 68.8023 88.1768Z" fill="#E0E0E0"/>
<path d="M72.9549 88.1773C72.9549 89.1991 72.2328 90.0275 71.342 90.0275C70.4512 90.0275 69.729 89.1991 69.729 88.1773C69.729 87.1555 70.4512 86.3271 71.342 86.3271C72.2328 86.3271 72.9549 87.1555 72.9549 88.1773Z" fill="#E0E0E0"/>
<path d="M69.3126 142.956H65.0667V147.539H69.3126V142.956Z" fill="#E0E0E0"/>
<path d="M148.952 150.461H79.9651V153.441H148.952V150.461Z" fill="#F5F5F5"/>
<path d="M69.3126 149.659H65.0667V154.242H69.3126V149.659Z" fill="#E0E0E0"/>
<path d="M148.952 157.164H79.9651V160.144H148.952V157.164Z" fill="#F5F5F5"/>
<path d="M69.3126 156.362H65.0667V160.946H69.3126V156.362Z" fill="#E0E0E0"/>
<path d="M148.952 163.868H79.9651V166.847H148.952V163.868Z" fill="#F5F5F5"/>
<path d="M69.3126 163.065H65.0667V167.649H69.3126V163.065Z" fill="#E0E0E0"/>
<path d="M148.905 172.314H65.0667V204.718H148.905V172.314Z" fill="#F5F5F5"/>
<path d="M148.905 172.314H65.0667V179.776H148.905V172.314Z" fill="#EBEBEB"/>
<path d="M148.907 179.777C148.907 179.889 130.17 179.979 107.063 179.979C83.9477 179.979 65.2151 179.888 65.2151 179.777C65.2151 179.665 83.9477 179.574 107.063 179.574C130.17 179.574 148.907 179.665 148.907 179.777Z" fill="#E0E0E0"/>
<path d="M148.907 188.516C148.907 188.629 130.17 188.719 107.063 188.719C83.9477 188.719 65.2151 188.628 65.2151 188.516C65.2151 188.405 83.9477 188.313 107.063 188.313C130.17 188.313 148.907 188.404 148.907 188.516Z" fill="#E0E0E0"/>
<path d="M148.907 197.256C148.907 197.368 130.17 197.458 107.063 197.458C83.9477 197.458 65.2151 197.367 65.2151 197.256C65.2151 197.144 83.9477 197.053 107.063 197.053C130.17 197.053 148.907 197.144 148.907 197.256Z" fill="#E0E0E0"/>
<path d="M81.4485 204.498C81.3506 204.498 81.2717 197.396 81.2717 188.635C81.2717 179.873 81.3513 172.771 81.4485 172.771C81.5458 172.771 81.6253 179.872 81.6253 188.635C81.6253 197.396 81.5464 204.498 81.4485 204.498Z" fill="#E0E0E0"/>
<path d="M137.181 204.498C137.083 204.498 137.004 197.396 137.004 188.635C137.004 179.873 137.084 172.771 137.181 172.771C137.279 172.771 137.358 179.872 137.358 188.635C137.358 197.396 137.279 204.498 137.181 204.498Z" fill="#E0E0E0"/>
<path d="M118.099 182.909H85.762V185.668H118.099V182.909Z" fill="#E0E0E0"/>
<path d="M118.099 191.353H85.762V194.113H118.099V191.353Z" fill="#E0E0E0"/>
<path d="M74.506 191.28H68.231V194.039H74.506V191.28Z" fill="#E0E0E0"/>
<path d="M74.287 182.909H68.012V185.668H74.287V182.909Z" fill="#E0E0E0"/>
<path d="M146.141 182.909H140.237V185.668H146.141V182.909Z" fill="#E0E0E0"/>
<path d="M146.141 191.426H140.237V194.186H146.141V191.426Z" fill="#E0E0E0"/>
<path d="M282.355 182.493H207.506C206.316 182.493 205.352 181.387 205.352 180.022V61.5355C205.352 60.1705 206.316 59.0645 207.506 59.0645H282.355C283.545 59.0645 284.51 60.1705 284.51 61.5355V180.022C284.51 181.387 283.545 182.493 282.355 182.493Z" fill="white"/>
<path d="M282.355 182.493C282.349 182.467 282.697 182.537 283.271 182.233C283.551 182.08 283.877 181.807 284.132 181.361C284.4 180.918 284.512 180.3 284.474 179.593C284.466 176.76 284.455 172.596 284.44 167.233C284.427 156.493 284.408 140.964 284.384 121.777C284.377 112.181 284.37 101.67 284.362 90.3868C284.359 84.745 284.356 78.9098 284.353 72.8992C284.352 69.8938 284.35 66.8448 284.349 63.7544C284.347 62.9846 284.346 62.2116 284.344 61.4363C284.325 60.714 283.976 60.0198 283.446 59.6236C283.181 59.427 282.876 59.3014 282.561 59.2616C282.253 59.2375 281.885 59.2554 281.55 59.2499C280.863 59.2499 280.173 59.2507 279.482 59.2507C257.361 59.2554 233.041 59.2609 207.514 59.2671C206.775 59.2577 206.063 59.7632 205.739 60.519C205.568 60.9004 205.516 61.3006 205.528 61.7545V63.1203C205.528 64.94 205.528 66.7535 205.528 68.5616C205.528 72.1777 205.527 75.7696 205.527 79.3349C205.526 86.4665 205.525 93.4935 205.524 100.398C205.521 114.207 205.517 127.527 205.514 140.216C205.509 152.905 205.503 164.963 205.498 176.248C205.511 177.645 205.465 179.087 205.526 180.413C205.617 181.052 205.957 181.633 206.433 181.972C206.669 182.143 206.937 182.257 207.211 182.303C207.479 182.346 207.786 182.325 208.081 182.331C210.454 182.333 212.783 182.335 215.067 182.337C219.633 182.342 224.015 182.346 228.198 182.35C244.925 182.378 258.462 182.399 267.824 182.415C272.499 182.431 276.129 182.445 278.598 182.453C279.826 182.462 280.763 182.469 281.4 182.474C282.032 182.479 282.355 182.493 282.355 182.493C282.355 182.493 282.032 182.507 281.401 182.514C280.763 182.519 279.826 182.526 278.599 182.534C276.13 182.543 272.499 182.556 267.825 182.573C258.463 182.588 244.926 182.61 228.199 182.637C224.016 182.641 219.634 182.646 215.067 182.651C212.784 182.653 210.455 182.655 208.082 182.657C207.785 182.651 207.494 182.676 207.17 182.626C206.856 182.574 206.551 182.445 206.281 182.25C205.738 181.864 205.347 181.201 205.242 180.469C205.188 180.095 205.212 179.747 205.206 179.401L205.205 178.354C205.205 177.656 205.205 176.953 205.204 176.248C205.198 164.963 205.193 152.905 205.188 140.216C205.184 127.527 205.181 114.207 205.177 100.398C205.177 93.4935 205.175 86.4665 205.175 79.3349C205.175 75.7696 205.174 72.1777 205.174 68.5616C205.174 66.7535 205.174 64.94 205.174 63.1203V61.7545C205.159 61.299 205.222 60.7702 205.423 60.3373C205.803 59.4465 206.647 58.8498 207.514 58.8615C233.041 58.867 257.361 58.8724 279.482 58.8779C280.174 58.8779 280.863 58.8787 281.55 58.8787C281.9 58.8849 282.22 58.8646 282.595 58.8935C282.961 58.9395 283.316 59.0861 283.624 59.3147C284.239 59.7749 284.643 60.583 284.665 61.4215C284.667 62.2022 284.668 62.9799 284.669 63.7552C284.668 66.8456 284.667 69.8946 284.665 72.8999C284.663 78.9098 284.659 84.745 284.656 90.3875C284.648 101.671 284.642 112.182 284.635 121.778C284.611 140.965 284.592 156.494 284.578 167.234C284.564 172.596 284.552 176.761 284.545 179.594C284.579 180.297 284.457 180.952 284.177 181.396C283.911 181.849 283.574 182.122 283.286 182.272C282.996 182.425 282.755 182.467 282.596 182.488C282.436 182.498 282.355 182.493 282.355 182.493Z" fill="#263238"/>
<path d="M276.769 71.2852H213.516V73.5144H276.769V71.2852Z" fill="#E0E0E0"/>
<path d="M276.769 78.8193H213.516V81.0486H276.769V78.8193Z" fill="#F5F5F5"/>
<path d="M276.835 84.4492H213.375V86.6785H276.835V84.4492Z" fill="#E0E0E0"/>
<path d="M276.835 88.6558H213.375V90.885H276.835V88.6558Z" fill="#F5F5F5"/>
<path d="M276.835 99.9497H213.375V102.179H276.835V99.9497Z" fill="#E0E0E0"/>
<path d="M276.835 155.834H213.375V158.064H276.835V155.834Z" fill="#E0E0E0"/>
<path d="M276.835 173.581H213.375V175.81H276.835V173.581Z" fill="#E0E0E0"/>
<path d="M233.191 169.792H213.375V172.021H233.191V169.792Z" fill="#E0E0E0"/>
<path d="M247.092 169.792H236.506V172.021H247.092V169.792Z" fill="#E0E0E0"/>
<path d="M276.66 169.792H251.041V172.021H276.66V169.792Z" fill="#E0E0E0"/>
<path d="M276.661 159.999H213.201V162.228H276.661V159.999Z" fill="#F5F5F5"/>
<path d="M276.607 164.417H213.146V166.647H276.607V164.417Z" fill="#F5F5F5"/>
<path d="M276.271 106.565H224.662V108.794H276.271V106.565Z" fill="#F5F5F5"/>
<path d="M276.909 75.1157H213.656V77.345H276.909V75.1157Z" fill="#F5F5F5"/>
<path d="M233.015 94.4917H213.375V97.5758H233.015V94.4917Z" fill="#0EA5E9"/>
<path d="M213.206 64.9853C213.206 65.7497 212.666 66.369 211.999 66.369C211.333 66.369 210.793 65.7497 210.793 64.9853C210.793 64.2209 211.333 63.6016 211.999 63.6016C212.666 63.6008 213.206 64.2209 213.206 64.9853Z" fill="#E0E0E0"/>
<path d="M216.311 64.9853C216.311 65.7497 215.771 66.369 215.105 66.369C214.438 66.369 213.898 65.7497 213.898 64.9853C213.898 64.2209 214.438 63.6016 215.105 63.6016C215.771 63.6008 216.311 64.2209 216.311 64.9853Z" fill="#E0E0E0"/>
<path d="M219.417 64.9853C219.417 65.7497 218.877 66.369 218.21 66.369C217.544 66.369 217.004 65.7497 217.004 64.9853C217.004 64.2209 217.544 63.6016 218.21 63.6016C218.877 63.6008 219.417 64.2209 219.417 64.9853Z" fill="#E0E0E0"/>
<path d="M216.692 105.965H213.516V109.394H216.692V105.965Z" fill="#E0E0E0"/>
<path d="M276.271 111.58H224.662V113.809H276.271V111.58Z" fill="#F5F5F5"/>
<path d="M216.692 110.979H213.516V114.408H216.692V110.979Z" fill="#E0E0E0"/>
<path d="M276.271 116.594H224.662V118.823H276.271V116.594Z" fill="#F5F5F5"/>
<path d="M216.692 115.994H213.516V119.423H216.692V115.994Z" fill="#E0E0E0"/>
<path d="M276.271 121.608H224.662V123.838H276.271V121.608Z" fill="#F5F5F5"/>
<path d="M216.692 121.009H213.516V124.437H216.692V121.009Z" fill="#E0E0E0"/>
<path d="M276.234 127.927H213.516V152.168H276.234V127.927Z" fill="#F5F5F5"/>
<path d="M276.234 127.927H213.516V133.51H276.234V127.927Z" fill="#EBEBEB"/>
<path d="M276.236 133.51C276.236 133.622 262.219 133.713 244.933 133.713C227.64 133.713 213.627 133.621 213.627 133.51C213.627 133.398 227.64 133.307 244.933 133.307C262.219 133.307 276.236 133.398 276.236 133.51Z" fill="#E0E0E0"/>
<path d="M276.236 140.048C276.236 140.16 262.219 140.251 244.933 140.251C227.64 140.251 213.627 140.16 213.627 140.048C213.627 139.936 227.64 139.845 244.933 139.845C262.219 139.845 276.236 139.936 276.236 140.048Z" fill="#E0E0E0"/>
<path d="M276.236 146.586C276.236 146.698 262.219 146.788 244.933 146.788C227.64 146.788 213.627 146.697 213.627 146.586C213.627 146.473 227.64 146.383 244.933 146.383C262.219 146.382 276.236 146.473 276.236 146.586Z" fill="#E0E0E0"/>
<path d="M225.773 152.004C225.675 152.004 225.596 146.69 225.596 140.137C225.596 133.582 225.675 128.269 225.773 128.269C225.87 128.269 225.949 133.582 225.949 140.137C225.949 146.69 225.87 152.004 225.773 152.004Z" fill="#E0E0E0"/>
<path d="M267.464 152.004C267.366 152.004 267.287 146.69 267.287 140.137C267.287 133.582 267.367 128.269 267.464 128.269C267.562 128.269 267.641 133.582 267.641 140.137C267.641 146.69 267.561 152.004 267.464 152.004Z" fill="#E0E0E0"/>
<path d="M253.191 135.853H229V137.918H253.191V135.853Z" fill="#E0E0E0"/>
<path d="M253.191 142.17H229V144.235H253.191V142.17Z" fill="#E0E0E0"/>
<path d="M220.579 142.115H215.885V144.179H220.579V142.115Z" fill="#E0E0E0"/>
<path d="M220.413 135.853H215.719V137.918H220.413V135.853Z" fill="#E0E0E0"/>
<path d="M274.167 135.853H269.75V137.918H274.167V135.853Z" fill="#E0E0E0"/>
<path d="M274.167 142.225H269.75V144.289H274.167V142.225Z" fill="#E0E0E0"/>
<path d="M109.694 351.387L141.45 330.531V327.148L46.6385 326.868L40.6035 350.984L109.694 351.387Z" fill="#455A64"/>
<g opacity="0.3">
<path d="M111.15 341.852C111.15 341.852 127.738 332.14 127.132 331.344C126.525 330.549 109.24 331.344 109.24 331.344L111.15 341.852Z" fill="black"/>
</g>
<path d="M169.934 230.482L177.899 209.657L208.046 204.676L217.782 231.841L195.285 273.719L169.934 230.482Z" fill="#FFBF9D"/>
<path d="M221.915 130.142C221.667 127.986 220.2 126.081 218.365 125.532C216.53 124.984 214.44 125.825 213.305 127.568C213.004 124.344 208.849 123.393 206.596 125.353C204.344 127.313 203.59 130.751 202.98 133.918L200.576 134.645C197.469 134.733 194.494 137.065 193.292 140.353C192.09 143.642 192.726 147.709 194.849 150.313C192.864 153.271 192.763 157.708 194.61 160.781C196.458 163.853 200.109 165.322 203.225 164.245C202.421 169.155 205.09 174.508 209.187 176.204C213.284 177.899 218.318 175.733 220.432 171.365C223.207 172.127 226.324 170.87 228.073 168.284C229.822 165.699 230.109 161.923 228.776 159.029C231.549 157.676 233.555 154.456 233.772 151.008C233.989 147.56 232.407 144.043 229.832 142.248C232.184 139.71 232.531 135.098 230.594 132.134C228.655 129.171 224.697 128.262 221.915 130.142Z" fill="#263238"/>
<path d="M213.792 152.692C215.697 148.943 211.77 142.477 208.752 139.858C209.982 137.526 209.683 135.123 207.956 133.251C206.228 131.379 206.283 130.882 204.016 130.064C202.146 124.05 195.599 120.594 190.399 122.875C187.073 118.575 181.032 118.717 176.44 121.019C175.318 121.581 174.21 122.257 172.995 122.431C172.103 122.559 171.202 122.409 170.303 122.403C165.364 122.373 160.986 127.007 159.676 132.471C159.466 133.344 157.474 135.899 157.075 136.681C156.55 137.706 155.73 138.233 155.313 139.322C153.873 143.078 155.914 144.338 156.107 146.899C156.271 149.074 155.557 148.988 154.984 151.07C154.697 152.113 154.068 153.015 153.873 154.086C153.309 157.19 156.523 159.803 156.338 162.966C156.301 163.612 156.119 164.235 156.036 164.875C155.868 166.184 156.13 167.56 156.759 168.668C157.245 169.524 157.957 170.267 158.123 171.271C158.249 172.032 158.033 172.807 157.984 173.58C157.863 175.47 162.126 182.058 163.626 182.854L205.131 177.14C208.187 175.942 210.374 172.303 210.265 168.602C210.246 167.986 210.18 167.325 210.455 166.796C210.688 166.344 211.12 166.09 211.492 165.785C213.976 163.746 213.825 159.494 213.154 156.076C213.06 155.598 212.96 155.107 213.014 154.62C213.092 153.911 213.478 153.308 213.792 152.692Z" fill="#263238"/>
<path d="M177.592 120.853C177.592 120.853 178.76 120.009 181.16 119.456C182.354 119.216 183.879 119.072 185.585 119.512C187.287 119.922 189.123 121.052 190.596 122.917L190.327 122.842C192.561 121.851 195.38 121.815 198.029 123.027C200.654 124.207 203.199 126.66 204.324 130.171L204.124 129.951C204.837 130.218 205.603 130.5 206.269 131.089C206.922 131.682 207.401 132.363 207.969 132.97C208.547 133.573 209.128 134.338 209.467 135.241C209.808 136.145 209.927 137.187 209.756 138.17C209.632 138.945 209.362 139.668 209.041 140.275L208.96 139.793C211.086 141.74 212.716 144.17 213.796 146.819C214.313 148.149 214.671 149.588 214.583 151.051C214.562 151.783 214.334 152.493 214.043 153.129C213.735 153.717 213.416 154.244 213.33 154.795C213.238 155.335 213.402 155.939 213.51 156.579C213.625 157.211 213.712 157.841 213.772 158.466C213.892 159.715 213.903 160.954 213.72 162.135C213.556 163.315 213.141 164.431 212.515 165.31C212.189 165.732 211.816 166.106 211.43 166.394C211.05 166.674 210.719 166.936 210.589 167.316C210.451 167.699 210.469 168.167 210.483 168.632C210.491 169.107 210.483 169.581 210.431 170.03C210.333 170.933 210.113 171.758 209.836 172.487C209.279 173.952 208.477 175.01 207.754 175.742C207.015 176.464 206.349 176.881 205.879 177.097C205.65 177.222 205.459 177.27 205.337 177.319C205.214 177.362 205.149 177.378 205.146 177.367C205.103 177.279 206.192 177.003 207.592 175.536C208.268 174.795 209.012 173.748 209.514 172.331C209.764 171.626 209.957 170.835 210.035 169.979C210.078 169.55 210.077 169.112 210.063 168.653C210.046 168.192 209.999 167.668 210.178 167.125C210.367 166.563 210.813 166.228 211.171 165.951C211.534 165.671 211.85 165.339 212.142 164.955C212.692 164.158 213.063 163.145 213.206 162.034C213.366 160.928 213.348 159.743 213.221 158.538C213.159 157.935 213.07 157.325 212.953 156.712C212.856 156.114 212.644 155.446 212.757 154.677C212.877 153.925 213.251 153.341 213.531 152.784C213.771 152.234 213.966 151.646 213.98 150.998C214.054 149.716 213.727 148.373 213.229 147.112C212.2 144.599 210.588 142.215 208.574 140.378L208.347 140.171L208.493 139.895C208.784 139.346 209.02 138.705 209.126 138.037C209.436 136.302 208.689 134.627 207.526 133.493C206.95 132.87 206.439 132.161 205.886 131.663C205.335 131.166 204.632 130.893 203.937 130.632L203.79 130.576L203.737 130.411C202.702 127.132 200.312 124.78 197.817 123.633C195.303 122.456 192.627 122.459 190.5 123.363L190.342 123.43L190.233 123.287C188.847 121.486 187.124 120.378 185.496 119.945C183.867 119.481 182.381 119.574 181.205 119.765C178.839 120.211 177.619 120.946 177.592 120.853Z" fill="#455A64"/>
<path d="M202.446 154.329C201.565 145.902 195.816 136.963 188.044 133.994C183.145 132.123 179.562 132.669 177.111 132.724C171.619 132.85 167.624 136.607 167.624 136.607C165.415 137.58 158.098 147.68 158.801 157.282C159.583 167.949 160.903 180.937 163.011 188.638C167.249 204.124 178.104 204.345 178.104 204.345C178.102 204.321 178.581 211.945 178.581 211.945L192.57 223.514L205.551 206.117L202.446 154.329Z" fill="#FFBF9D"/>
<path d="M165.725 171.378C165.831 172.459 166.715 173.246 167.699 173.14C168.682 173.035 169.396 172.077 169.291 170.997C169.185 169.917 168.301 169.129 167.319 169.233C166.333 169.339 165.619 170.299 165.725 171.378Z" fill="#263238"/>
<path d="M162.751 162.733C163.005 162.962 164.202 161.594 166.11 161.275C168.013 160.927 169.558 161.815 169.731 161.512C169.818 161.376 169.531 160.936 168.856 160.53C168.191 160.125 167.104 159.806 165.916 160.013C164.729 160.222 163.794 160.893 163.285 161.504C162.765 162.119 162.628 162.633 162.751 162.733Z" fill="#263238"/>
<path d="M176.141 178.122C176.135 177.996 174.918 177.963 172.96 178.006C172.466 178.031 171.99 177.998 171.859 177.63C171.692 177.246 171.818 176.609 171.97 175.919C172.254 174.489 172.551 172.99 172.862 171.419C174.082 165.023 174.89 159.794 174.664 159.741C174.439 159.687 173.268 164.828 172.047 171.226C171.758 172.801 171.481 174.304 171.219 175.741C171.116 176.407 170.892 177.181 171.249 177.977C171.434 178.372 171.83 178.614 172.155 178.658C172.482 178.714 172.756 178.673 173 178.649C174.949 178.442 176.15 178.248 176.141 178.122Z" fill="#263238"/>
<path d="M178.105 204.346C178.105 204.346 187.548 203.353 195.944 195.438C195.944 195.438 192.38 207.439 178.353 208.301L178.105 204.346Z" fill="#FF9A6C"/>
<path d="M162.201 153.386C162.657 153.782 163.96 152.908 165.643 152.443C167.313 151.918 168.826 151.96 169.054 151.362C169.149 151.075 168.827 150.643 168.11 150.342C167.403 150.04 166.298 149.931 165.145 150.27C163.993 150.612 163.075 151.317 162.589 151.972C162.091 152.632 161.996 153.187 162.201 153.386Z" fill="#263238"/>
<path d="M184.992 168.891C185.129 169.967 184.447 170.986 183.472 171.17C182.498 171.354 181.596 170.634 181.459 169.558C181.322 168.483 182.004 167.463 182.977 167.28C183.953 167.095 184.855 167.817 184.992 168.891Z" fill="#263238"/>
<path d="M188.965 159.167C188.77 159.461 187.311 158.486 185.394 158.732C183.477 158.948 182.178 160.257 181.944 160.013C181.831 159.907 182.01 159.398 182.573 158.809C183.127 158.223 184.109 157.599 185.303 157.454C186.498 157.311 187.551 157.69 188.177 158.133C188.817 158.577 189.063 159.033 188.965 159.167Z" fill="#263238"/>
<path d="M188.115 147.999C187.785 148.545 186.257 148.214 184.476 148.414C182.69 148.551 181.223 149.165 180.827 148.686C180.65 148.451 180.84 147.921 181.452 147.365C182.056 146.813 183.103 146.29 184.329 146.174C185.554 146.06 186.657 146.378 187.324 146.811C188.002 147.245 188.258 147.733 188.115 147.999Z" fill="#263238"/>
<path d="M202.148 169.636C201.999 168.454 202.83 165.469 203.823 165.114C206.476 164.169 211.402 163.59 212.466 171.491C213.921 182.292 202.433 182.064 202.375 181.757C202.329 181.518 202.665 173.715 202.148 169.636Z" fill="#FFBF9D"/>
<path d="M205.697 177.211C205.734 177.17 205.879 177.314 206.176 177.411C206.466 177.505 206.944 177.521 207.406 177.222C208.345 176.627 208.938 174.667 208.721 172.712C208.613 171.725 208.308 170.821 207.9 170.099C207.506 169.361 206.986 168.887 206.471 168.874C205.955 168.83 205.647 169.237 205.572 169.56C205.487 169.886 205.576 170.091 205.528 170.117C205.506 170.149 205.302 169.972 205.317 169.514C205.327 169.291 205.403 169.017 205.597 168.77C205.794 168.52 206.112 168.353 206.466 168.334C207.201 168.264 207.957 168.914 208.406 169.706C208.895 170.494 209.258 171.507 209.38 172.616C209.613 174.803 208.916 177.011 207.615 177.704C206.98 178.019 206.396 177.889 206.076 177.684C205.75 177.47 205.668 177.236 205.697 177.211Z" fill="#FF9A6C"/>
<path d="M156.723 157.689C158.452 156.002 159.429 153.94 158.981 151.387C160.3 151.606 161.342 149.524 161.918 148.146C162.493 146.768 163.315 145.984 163.065 144.483C163.016 144.186 162.959 143.874 163.047 143.589C163.185 143.143 163.616 142.931 163.988 142.725C165.906 141.667 167.283 139.418 167.502 136.99C169.652 137.663 171.949 137.709 174.118 137.124C175.303 138.582 177.159 139.277 178.866 138.902C180.573 138.526 182.073 137.092 182.702 135.234C183.446 136.491 184.78 137.153 186.098 137.308C187.415 137.463 188.738 137.177 190.039 136.892C189.846 139.892 191.905 142.858 194.498 143.314C194.848 143.376 195.251 143.427 195.451 143.762C195.66 144.111 195.539 144.579 195.46 144.992C194.955 147.604 196.784 150.48 199.107 150.726C197.741 152.357 198.306 155.503 200.124 156.38C200.497 156.56 200.981 156.771 200.987 157.235C200.989 157.411 200.913 157.575 200.839 157.73C200.274 158.918 199.725 160.204 199.811 161.554C199.897 162.904 200.876 164.27 202.05 164.131C201.517 164.859 201.049 165.759 201.155 166.701C201.262 167.643 202.078 170.567 202.906 170.573C205.028 170.589 207.8 165.944 207.965 165.587C210.099 160.984 206.157 156.961 205.233 151.856C204.309 146.751 202.101 142.03 199.285 137.937C198.104 136.22 196.803 134.592 195.27 133.291C193.523 131.807 191.519 130.782 189.526 129.788C186.926 128.49 184.26 127.207 181.434 126.928C176.171 126.409 171.157 129.421 166.735 132.736C165.054 133.996 163.387 135.333 162.059 137.063C160.47 139.132 159.432 141.678 158.573 144.253C157.332 147.974 156.411 151.918 156.581 155.897" fill="#263238"/>
<path d="M182.418 180.566C181.424 179.796 179.961 179.977 179.116 180.954C178.27 181.931 178.116 183.587 178.742 184.762C179.369 185.937 180.704 186.534 181.865 186.185C183.026 185.835 183.927 184.582 184.032 183.211C184.107 182.227 183.708 181.119 182.898 180.787" fill="#FF9A6C"/>
<path d="M182.79 178.281C182.474 178.296 182.681 180.7 181.037 182.612C179.399 184.529 177.142 184.517 177.155 184.854C177.138 185.008 177.693 185.264 178.638 185.184C179.566 185.114 180.886 184.618 181.891 183.448C182.893 182.277 183.241 180.827 183.226 179.833C183.218 178.819 182.932 178.251 182.79 178.281Z" fill="#263238"/>
<path d="M147.297 144.438C148.367 149.144 152.563 152.641 156.795 152.354C161.027 152.067 164.835 148.028 165.414 143.21C167.065 144.823 169.648 145.024 171.474 143.682C173.3 142.339 174.22 139.563 173.632 137.169C176.53 138.292 179.92 136.273 181.245 133.11C182.57 129.947 182.031 126.029 180.357 123.091C178.573 119.958 175.549 117.795 172.31 117.336C169.072 116.878 165.68 118.133 163.285 120.674C158.88 118.188 152.809 121.549 151.765 127.052C147.028 129.046 144.724 136.392 147.269 141.389" fill="#263238"/>
<path d="M172.412 124.43C172.39 124.402 172.568 124.132 172.996 123.779C173.418 123.424 174.107 122.993 175.038 122.76C175.962 122.521 177.138 122.487 178.356 122.923C179.559 123.356 180.843 124.251 181.577 125.817C182.154 127.005 181.955 128.704 180.958 129.439L180.975 128.868C181.844 129.663 182.373 130.724 182.608 131.716C182.86 132.712 182.845 133.642 182.725 134.376C182.47 135.868 181.864 136.514 181.84 136.472C181.753 136.418 182.219 135.704 182.347 134.314C182.487 132.985 182.153 130.798 180.605 129.425L180.267 129.125L180.622 128.854C181.273 128.356 181.475 127.114 181.004 126.147C180.403 124.848 179.25 123.98 178.173 123.567C177.076 123.136 175.992 123.111 175.122 123.271C173.349 123.594 172.481 124.557 172.412 124.43Z" fill="#455A64"/>
<path d="M174.192 227.098C176.099 230.885 193.859 264.758 193.859 264.758C193.859 264.758 214.272 215.904 214.272 216.805C214.272 217.706 230.328 282.694 230.328 282.694L228.115 313.079H168.418L174.192 227.098Z" fill="white"/>
<path d="M239.154 216.384C239.154 217.194 244.331 237.977 244.331 237.977C244.331 237.977 248.096 241.216 248.331 244.995C248.567 248.774 248.331 250.663 248.331 250.663C248.331 250.663 265.038 272.256 265.038 275.765C265.038 279.274 265.038 281.973 265.038 281.973C265.038 281.973 288.804 293.04 288.569 299.517C288.334 305.995 279.203 315.156 275.438 315.695C271.672 316.235 260.244 310.015 257.421 308.126C254.597 306.236 232.246 284.961 232.246 284.961L239.154 216.384Z" fill="#0EA5E9"/>
<path d="M206.167 202.11C206.782 202.815 215.494 209.957 215.494 209.957L239.155 216.385L233.539 313.749L212.986 313.08C212.986 313.08 208.735 225.599 207.301 219.019C205.866 212.439 206.167 202.11 206.167 202.11Z" fill="#0EA5E9"/>
<path d="M177.791 206.067L169.935 213.202L144.486 217.608L149.198 313.078H169.888C169.888 313.078 175.828 238.521 176.033 232.176C176.238 225.832 178.132 211.488 178.132 211.488L177.791 206.067Z" fill="#0EA5E9"/>
<path d="M130.447 253.814C130.447 252.563 133.718 245.56 133.936 244.81C134.154 244.06 133.282 242.059 135.026 237.307C136.77 232.555 140.429 215.917 144.487 217.609C148.544 219.3 147.459 277.838 147.459 277.838L147.783 281.762C147.783 281.762 135.898 297.832 133.282 299.082C130.665 300.333 114.596 313.261 113.719 313.749C108.783 316.494 94.623 302.488 95.1017 300.117L103.639 291.417C103.639 291.417 112.804 279.637 116.293 277.887C116.293 277.887 117.502 269.269 118.851 269.17C120.2 269.071 121.072 270.321 121.072 270.321L130.447 253.814Z" fill="#0EA5E9"/>
<path d="M99.2267 301.777C98.6079 301.812 92.7823 306.793 92.7823 306.793C92.7823 306.793 89.9052 298.08 85.6471 298.741C81.3889 299.401 71.8376 310.621 71.8376 310.621C71.8376 310.621 68.3853 310.489 67.234 311.941C66.0828 313.392 65.9679 315.421 66.4282 316.519C66.8886 317.618 71.2617 324.745 72.7577 324.217C74.2537 323.689 74.2537 323.161 74.2537 323.161C74.2537 323.161 76.5555 325.801 78.3962 324.877C80.2377 323.953 81.7337 322.633 81.7337 322.633C81.7337 322.633 84.6107 325.537 89.2137 324.349C93.8173 323.161 108.913 315.21 109.708 314.169C110.504 313.129 113.956 309.985 110.274 307.597C106.592 305.209 101.528 301.644 99.2267 301.777Z" fill="#FFBF9D"/>
<path d="M84.9226 306.186C84.9444 306.172 84.9342 306.77 84.3786 307.498C84.1297 307.868 83.7523 308.272 83.5436 308.859C83.3273 309.448 83.4592 310.2 83.7108 310.969C84.244 312.526 84.6853 314.526 84.6275 316.779C84.5914 317.883 84.3385 319.191 83.4599 320.039C83.0397 320.454 82.4732 320.744 81.8721 320.709C81.2724 320.68 80.7209 320.323 80.3 319.869C77.3107 315.87 76.7782 310.637 77.8826 307.474C78.3837 305.869 79.148 304.763 79.7362 304.11C80.0334 303.783 80.2864 303.557 80.4645 303.418C80.644 303.28 80.7413 303.213 80.7481 303.225C80.7692 303.257 80.3904 303.548 79.8342 304.221C79.2874 304.896 78.5755 305.998 78.1185 307.57C77.6412 309.125 77.4814 311.144 77.873 313.283C78.0641 314.352 78.383 315.446 78.823 316.524C79.2759 317.584 79.7716 318.726 80.5407 319.572C80.9262 319.986 81.3954 320.281 81.8905 320.307C82.3814 320.337 82.8636 320.101 83.2355 319.737C84.008 319.002 84.2576 317.827 84.3011 316.762C84.3732 314.578 83.9733 312.623 83.4735 311.063C83.2328 310.28 83.0948 309.435 83.3593 308.773C83.6143 308.128 84.0128 307.747 84.2725 307.396C84.8444 306.719 84.8927 306.175 84.9226 306.186Z" fill="#FF9A6C"/>
<path d="M88.8418 321.021C88.8275 321.03 88.6909 320.8 88.5202 320.326C88.3543 319.855 88.1577 319.129 88.121 318.188C88.0857 317.253 88.2176 316.09 88.7235 314.936C89.2206 313.789 90.0835 312.661 91.2749 311.939L91.3741 312.309C90.4038 312.439 89.3382 312.35 88.3114 311.972C87.4968 311.675 86.7494 311.232 86.1055 310.659C85.7886 310.367 85.4901 309.992 85.3684 309.515C85.2446 309.038 85.333 308.536 85.5132 308.143C85.8784 307.34 86.5325 306.867 87.1411 306.593C87.7613 306.315 88.3774 306.215 88.9329 306.197C90.0502 306.173 90.9233 306.43 91.5162 306.593C92.1092 306.769 92.4309 306.89 92.4254 306.916C92.42 306.945 92.0861 306.875 91.487 306.747C90.8893 306.631 90.0162 306.425 88.9431 306.484C88.4093 306.518 87.8252 306.632 87.2513 306.905C86.6828 307.175 86.1075 307.62 85.8043 308.312C85.6553 308.65 85.5955 309.042 85.6927 309.404C85.7873 309.768 86.0307 310.084 86.3231 310.349C86.9235 310.878 87.645 311.304 88.4182 311.584C89.396 311.945 90.4106 312.034 91.334 311.917L92.2459 311.803L91.4333 312.287C90.3086 312.956 89.4769 314.011 88.9866 315.09C88.4882 316.175 88.3352 317.279 88.3393 318.181C88.3713 320.012 88.9098 321 88.8418 321.021Z" fill="#FF9A6C"/>
<path d="M99.2454 319.674C99.1801 319.674 99.1944 318.792 98.9843 317.407C98.7789 316.025 98.2791 314.148 97.3258 312.307C96.3642 310.47 95.1593 309.076 94.1957 308.213C93.2328 307.345 92.5488 306.941 92.5794 306.875C92.5902 306.85 92.7684 306.933 93.0826 307.107C93.4001 307.273 93.836 307.57 94.346 307.983C94.8601 308.392 95.4265 308.954 96.0025 309.637C96.5662 310.333 97.1326 311.158 97.629 312.098C98.1152 313.045 98.4804 314.007 98.747 314.907C98.9986 315.812 99.1611 316.651 99.2311 317.364C99.3066 318.075 99.3284 318.656 99.3052 319.055C99.2903 319.456 99.2699 319.675 99.2454 319.674Z" fill="#FF9A6C"/>
<path d="M76.23 324.696C76.2157 324.718 76.0396 324.602 75.7377 324.363C75.4358 324.123 75.0115 323.755 74.5157 323.259C73.5345 322.273 72.2316 320.718 71.4245 318.562C70.6214 316.397 70.6703 314.16 71.0838 312.715C71.2851 311.985 71.5407 311.436 71.7543 311.088C71.9664 310.74 72.1119 310.574 72.1276 310.588C72.1895 310.631 71.6502 311.362 71.3245 312.793C70.9879 314.201 70.9825 316.332 71.7502 318.403C72.524 320.475 73.7582 322.02 74.6844 323.047C75.6221 324.077 76.2647 324.644 76.23 324.696Z" fill="#FF9A6C"/>
<path d="M77.9303 316.206C77.9976 316.14 79.0271 317.572 79.7547 319.678C80.4932 321.78 80.6067 323.631 80.5183 323.637C80.4123 323.656 80.1457 321.876 79.4256 319.829C78.7184 317.777 77.8419 316.275 77.9303 316.206Z" fill="#FF9A6C"/>
<path d="M143.07 224.821C143.167 224.812 144.422 240.306 145.872 259.424C147.322 278.549 148.418 294.056 148.32 294.066C148.223 294.076 146.969 278.584 145.519 259.46C144.07 240.341 142.973 224.831 143.07 224.821Z" fill="#263238"/>
<path d="M237.444 222.53C237.456 222.53 237.467 222.76 237.476 223.198C237.483 223.672 237.491 224.31 237.502 225.114C237.523 226.777 237.506 229.184 237.458 232.159C237.363 238.108 237.026 246.32 236.528 255.376C236.03 264.436 235.587 272.634 235.365 278.574C235.252 281.544 235.169 283.948 235.124 285.61C235.096 286.412 235.075 287.05 235.058 287.523C235.039 287.961 235.024 288.19 235.011 288.19C234.999 288.19 234.991 287.96 234.987 287.521C234.987 287.047 234.986 286.409 234.986 285.606C234.988 283.942 235.033 281.536 235.115 278.562C235.273 272.616 235.677 264.408 236.174 255.35C236.672 246.295 237.048 238.094 237.208 232.151C237.289 229.18 237.343 226.774 237.365 225.112C237.382 224.309 237.396 223.671 237.406 223.198C237.419 222.76 237.432 222.53 237.444 222.53Z" fill="#263238"/>
<path d="M221.687 313.079C221.681 313.076 221.696 312.969 221.729 312.763C221.768 312.539 221.82 312.238 221.885 311.853C222 311.049 222.143 309.853 222.325 308.318C222.665 305.238 223.137 300.779 223.673 295.262C224.757 284.23 226.168 268.977 227.692 252.129C228.103 247.532 228.503 243.054 228.887 238.76C228.981 237.685 229.073 236.623 229.165 235.573C229.208 235.053 229.251 234.536 229.294 234.022L229.31 233.831C229.303 233.846 229.319 233.911 229.348 233.926C229.361 233.945 229.38 233.96 229.4 233.96C229.412 233.963 229.388 233.965 229.378 233.966C229.297 233.99 229.195 234.041 229.099 234.094C228.904 234.203 228.711 234.33 228.52 234.459C226.997 235.519 225.569 236.686 224.193 237.808L223.461 238.405L223.967 237.553C225.251 235.39 226.486 233.271 227.356 231.107C227.451 230.835 227.561 230.561 227.609 230.289C227.685 229.999 227.687 229.786 227.569 229.545C227.342 229.045 227.053 228.561 226.778 228.089C226.216 227.148 225.644 226.248 225.086 225.379C222.844 221.908 220.814 218.918 219.144 216.441C217.48 213.979 216.161 212.029 215.246 210.675C214.809 210.015 214.468 209.501 214.225 209.135C214.12 208.968 214.037 208.836 213.972 208.732C213.917 208.639 213.891 208.591 213.895 208.588C213.898 208.584 213.932 208.627 213.993 208.714C214.063 208.814 214.153 208.939 214.267 209.098C214.518 209.456 214.872 209.958 215.326 210.602C216.258 211.941 217.602 213.871 219.296 216.304C220.988 218.763 223.038 221.735 225.3 225.196C225.864 226.063 226.441 226.961 227.011 227.906C227.292 228.384 227.581 228.857 227.829 229.4C227.98 229.667 227.982 230.094 227.894 230.368C227.837 230.68 227.726 230.956 227.628 231.242C226.743 233.467 225.518 235.579 224.229 237.765L224.004 237.51C225.384 236.377 226.804 235.21 228.348 234.129C228.544 233.997 228.741 233.866 228.952 233.747C229.059 233.689 229.164 233.631 229.302 233.589C229.348 233.582 229.382 233.57 229.448 233.577C229.495 233.588 229.544 233.61 229.58 233.645C229.618 233.69 229.648 233.785 229.647 233.831L229.632 234.03C229.59 234.554 229.547 235.081 229.504 235.611C229.414 236.662 229.323 237.725 229.231 238.799C228.85 243.096 228.452 247.574 228.045 252.171C226.521 269.021 225.071 284.269 223.922 295.295C223.355 300.809 222.846 305.265 222.462 308.339C222.258 309.875 222.094 311.066 221.956 311.87C221.875 312.253 221.811 312.553 221.764 312.776C221.718 312.979 221.692 313.081 221.687 313.079Z" fill="#263238"/>
<path d="M163.977 313.034C163.971 313.037 163.947 312.94 163.904 312.746C163.859 312.533 163.799 312.246 163.724 311.883C163.589 311.118 163.448 309.983 163.257 308.52C162.915 305.591 162.456 301.348 161.961 296.096C160.949 285.596 159.691 271.074 158.379 255.027C157.98 250.044 157.593 245.207 157.225 240.608C157.136 239.458 157.049 238.323 156.963 237.205C156.921 236.643 156.88 236.086 156.838 235.533L156.81 235.113L156.803 235.008C156.813 234.958 156.766 234.992 156.837 234.801C156.899 234.682 157.041 234.681 157.063 234.689C157.116 234.693 157.156 234.705 157.187 234.718C157.453 234.817 157.652 234.955 157.866 235.09C159.515 236.212 160.998 237.447 162.437 238.624L162.218 238.871C161.081 236.962 160.032 235.104 159.181 233.221C158.97 232.75 158.78 232.271 158.628 231.773C158.565 231.516 158.489 231.268 158.499 230.966C158.484 230.818 158.569 230.698 158.6 230.565C158.641 230.427 158.696 230.316 158.752 230.209C159.186 229.323 159.679 228.539 160.143 227.761C162.038 224.69 163.78 222.087 165.213 219.937C166.65 217.813 167.785 216.136 168.574 214.969C168.958 214.413 169.256 213.979 169.471 213.667C169.566 213.53 169.642 213.422 169.703 213.335C169.756 213.26 169.785 213.225 169.788 213.228C169.791 213.231 169.77 213.272 169.723 213.352C169.668 213.444 169.598 213.558 169.511 213.702C169.305 214.022 169.018 214.467 168.651 215.038C167.878 216.218 166.767 217.916 165.359 220.065C163.949 222.232 162.226 224.854 160.354 227.93C159.897 228.704 159.405 229.5 158.992 230.357C158.936 230.464 158.886 230.571 158.857 230.674C158.835 230.779 158.756 230.878 158.774 230.988C158.766 231.197 158.833 231.439 158.892 231.672C159.038 232.141 159.225 232.608 159.436 233.071C160.281 234.921 161.337 236.776 162.472 238.666L162.97 239.496L162.253 238.913C160.82 237.749 159.322 236.514 157.703 235.419C157.503 235.291 157.286 235.152 157.096 235.083C157.07 235.072 157.052 235.069 157.044 235.069L157.036 235.067C157.028 235.034 157.041 235.022 157.039 235.003C157.052 234.972 156.987 234.908 157.022 234.944C157.031 234.948 157.04 234.947 157.046 234.942L157.05 234.938C157.211 234.937 157.095 234.941 157.131 234.943L157.132 234.955L157.135 235.006L157.143 235.108L157.172 235.513C157.214 236.061 157.256 236.614 157.299 237.171C157.388 238.29 157.477 239.424 157.568 240.573C157.939 245.171 158.33 250.006 158.733 254.99C160.044 271.035 161.263 285.56 162.211 296.067C162.675 301.322 163.095 305.567 163.395 308.5C163.565 309.962 163.684 311.103 163.795 311.867C163.856 312.232 163.904 312.518 163.94 312.732C163.969 312.93 163.982 313.032 163.977 313.034Z" fill="#263238"/>
<path d="M229.506 310.182C248.075 296.128 264.366 279.177 278.572 259.573C290.682 261.368 305.951 261.083 322.146 260.19L271.994 310.182H229.506Z" fill="white"/>
<path d="M229.506 310.182C230.637 310.178 246.138 310.12 271.994 310.022L271.902 310.061C285.591 296.401 303.054 278.973 322.03 260.037L322.155 260.394C322.011 260.402 321.855 260.409 321.698 260.418C314.033 260.836 306.544 261.118 299.316 261.09C292.091 261.055 285.12 260.725 278.551 259.76L278.697 259.694C266.214 276.901 253.761 289.608 244.556 297.846C239.953 301.98 236.176 305.049 233.565 307.101C232.267 308.134 231.258 308.859 230.567 309.386C229.933 309.861 229.644 310.078 229.506 310.182C229.794 309.953 230.99 309.002 233.506 307.001C236.096 304.919 239.853 301.823 244.434 297.668C253.596 289.386 266.001 276.658 278.447 259.455L278.504 259.376L278.593 259.389C285.143 260.342 292.102 260.663 299.318 260.692C306.536 260.715 314.02 260.43 321.682 260.012C321.838 260.004 321.994 259.996 322.138 259.988L322.647 259.961L322.262 260.344C303.268 279.256 285.787 296.661 272.085 310.303L272.045 310.343H271.993C246.138 310.244 230.636 310.186 229.506 310.182Z" fill="#263238"/>
<path d="M286.389 298.945C286.389 298.945 290.824 297.461 291.009 296.295C291.193 295.129 291.009 292.798 291.009 292.798C291.009 292.798 287.589 288.664 286.389 290.36C285.187 292.056 285.464 293.767 285.927 294.448C286.389 295.129 286.389 295.129 286.389 295.129L283.986 296.613C283.986 296.613 275.855 294.917 274.007 295.659C272.159 296.4 272.344 298.414 274.007 299.686C275.67 300.958 280.105 300.852 280.105 300.852L280.752 302.866C280.752 302.866 268.093 299.792 266.892 300.852C265.691 301.912 265.599 303.608 267.816 304.668C267.816 304.668 267.17 305.303 268.371 306.682C269.572 308.059 270.218 307.848 270.218 307.848C270.218 307.848 266.337 308.589 266.892 314.207C266.892 314.207 266.799 316.432 271.604 316.538C276.409 316.644 281.953 315.478 282.876 313.889C283.801 312.299 283.985 310.603 283.985 310.603C283.985 310.603 285.926 310.179 285.833 307.424C285.741 304.668 285.741 304.668 285.741 304.668C285.741 304.668 287.404 304.139 287.126 302.442C286.851 300.747 286.389 298.945 286.389 298.945Z" fill="#FFBF9D"/>
<path d="M275.576 311.305C275.529 311.403 274.246 310.704 272.71 309.743C271.173 308.782 269.966 307.923 270.013 307.825C270.06 307.727 271.343 308.426 272.88 309.387C274.415 310.348 275.623 311.206 275.576 311.305Z" fill="#FF9A6C"/>
<path d="M280.1 308.044C280.083 308.1 279.401 307.861 278.299 307.486C277.198 307.111 275.672 306.613 273.969 306.142C272.266 305.674 270.709 305.322 269.579 305.082C268.449 304.842 267.747 304.699 267.754 304.641C267.759 304.589 268.473 304.63 269.618 304.799C270.763 304.967 272.338 305.277 274.052 305.748C275.765 306.222 277.29 306.767 278.377 307.214C279.464 307.659 280.117 307.994 280.1 308.044Z" fill="#FF9A6C"/>
<path d="M283.419 304.081C283.359 304.177 282.742 303.759 281.92 303.443C281.101 303.117 280.391 303.014 280.394 302.896C280.391 302.789 281.156 302.71 282.034 303.059C282.916 303.4 283.478 303.999 283.419 304.081Z" fill="#FF9A6C"/>
<path d="M283.83 301.586C283.851 301.688 282.898 301.961 281.722 301.748C280.545 301.543 279.709 300.952 279.756 300.862C279.8 300.753 280.661 301.154 281.777 301.346C282.89 301.55 283.817 301.468 283.83 301.586Z" fill="#FF9A6C"/>
<path d="M286.342 299.342C286.288 299.341 286.265 299.07 286.146 298.677C286.03 298.286 285.793 297.767 285.383 297.365C284.972 296.964 284.488 296.777 284.133 296.708C283.775 296.634 283.539 296.652 283.53 296.591C283.52 296.542 283.751 296.419 284.156 296.421C284.554 296.421 285.131 296.585 285.613 297.056C286.094 297.527 286.327 298.155 286.389 298.605C286.454 299.064 286.384 299.346 286.342 299.342Z" fill="#FF9A6C"/>
<path d="M289.193 296.011C289.234 296.109 288.355 296.44 287.366 295.955C286.371 295.482 285.963 294.529 286.053 294.494C286.137 294.424 286.622 295.168 287.503 295.58C288.375 296.015 289.177 295.893 289.193 296.011Z" fill="#FF9A6C"/>
<path d="M125.677 281.359C125.563 281.391 125.172 278.551 123.755 275.465C122.365 272.362 120.562 270.365 120.65 270.276C120.678 270.242 121.165 270.693 121.84 271.554C122.514 272.413 123.355 273.706 124.069 275.277C124.781 276.849 125.221 278.38 125.448 279.508C125.675 280.636 125.718 281.352 125.677 281.359Z" fill="#263238"/>
<path d="M133.321 254.093C133.339 254.087 133.421 254.326 133.558 254.774C133.707 255.29 133.893 255.934 134.117 256.708C134.583 258.367 135.224 260.714 135.957 263.455L135.629 263.514C135.603 262.061 135.55 260.473 135.459 258.825C135.24 254.824 134.834 251.222 134.48 248.626C134.303 247.387 134.156 246.354 134.041 245.554C133.932 244.829 133.882 244.425 133.906 244.419C133.93 244.414 134.025 244.806 134.176 245.522C134.322 246.24 134.521 247.281 134.726 248.578C135.144 251.168 135.592 254.781 135.811 258.799C135.903 260.455 135.949 262.049 135.963 263.508L135.976 264.884L135.635 263.566C134.925 260.817 134.327 258.455 133.916 256.777C133.729 255.989 133.574 255.335 133.45 254.811C133.348 254.351 133.302 254.099 133.321 254.093Z" fill="#263238"/>
<path d="M108.634 350.984H32.6213C30.8751 350.984 29.3811 349.546 29.0785 347.573L17.0554 282.535C16.6678 280.009 18.3624 277.693 20.5982 277.693L97.3233 276.109C99.0451 276.109 100.525 277.509 100.855 279.447L112.164 346.068C112.597 348.616 110.897 350.984 108.634 350.984Z" fill="#455A64"/>
<path d="M141.057 327.146C141.063 327.159 140.901 327.269 140.587 327.465C140.243 327.677 139.784 327.957 139.208 328.311C137.972 329.048 136.236 330.082 134.106 331.352C129.754 333.901 123.796 337.392 117.213 341.248C115.413 342.293 113.659 343.312 111.987 344.283L111.783 344.401L111.74 344.145C110.599 337.407 109.602 331.517 108.882 327.266C108.545 325.188 108.273 323.511 108.077 322.311C107.994 321.759 107.928 321.317 107.876 320.977C107.834 320.673 107.817 320.513 107.827 320.511C107.837 320.508 107.875 320.664 107.937 320.963C108.003 321.299 108.088 321.736 108.196 322.284C108.415 323.479 108.721 325.147 109.101 327.216C109.851 331.461 110.891 337.341 112.079 344.068L111.832 343.93C113.502 342.955 115.255 341.934 117.053 340.886C123.654 337.071 129.629 333.618 133.994 331.096C136.145 329.875 137.897 328.879 139.147 328.17C139.735 327.846 140.204 327.587 140.556 327.393C140.879 327.219 141.051 327.134 141.057 327.146Z" fill="#263238"/>
<path d="M174.848 313.17C175.645 311.15 182.241 294.449 191.121 271.96C195.654 260.596 199.861 250.363 203.028 243.023C204.601 239.348 205.923 236.401 206.854 234.376C207.316 233.386 207.68 232.608 207.94 232.052C208.06 231.805 208.155 231.607 208.23 231.453C208.298 231.319 208.334 231.252 208.34 231.256C208.345 231.259 208.319 231.332 208.262 231.472C208.196 231.632 208.11 231.836 208.003 232.091C207.758 232.656 207.414 233.445 206.976 234.449C206.083 236.496 204.796 239.46 203.252 243.151C200.145 250.519 195.975 260.768 191.442 272.131C186.914 283.477 182.815 293.75 179.835 301.217C178.336 304.933 177.103 307.929 176.238 309.993C175.806 311 175.466 311.792 175.223 312.358C175.111 312.61 175.021 312.812 174.951 312.969C174.888 313.105 174.853 313.173 174.848 313.17Z" fill="#263238"/>
<g opacity="0.3">
<path d="M144.486 246.241C144.774 246.912 141.514 289.951 141.514 289.951L147.783 281.761L144.486 246.241Z" fill="black"/>
</g>
<g opacity="0.3">
<path d="M236.682 249.046L241.884 294.064L235.012 287.586L236.682 249.046Z" fill="black"/>
</g>
<path d="M109.693 351.387C109.687 351.388 109.669 351.327 109.64 351.205C109.608 351.06 109.568 350.882 109.52 350.664C109.415 350.153 109.272 349.456 109.091 348.573C108.738 346.753 108.246 344.114 107.665 340.847C106.503 334.314 104.975 325.272 103.314 315.28C100.039 295.633 97.6423 281.259 97.2812 279.093C97.2874 279.092 97.3051 279.153 97.3343 279.275C97.3663 279.42 97.4057 279.598 97.4547 279.816C97.5594 280.326 97.7029 281.025 97.8837 281.907C98.2367 283.727 98.7283 286.365 99.3097 289.632C100.471 296.165 102 305.208 103.662 315.204C106.935 334.844 109.332 349.222 109.693 351.387Z" fill="#263238"/>
</svg>
