<svg width="736" height="606" viewBox="0 0 736 606" fill="none" xmlns="http://www.w3.org/2000/svg">
<rect width="736" height="606" rx="20" fill="white"/>
<path d="M709.244 503.955H26.7563V504.296H709.244V503.955Z" fill="#EBEBEB"/>
<path d="M120.284 516.955H98.3613V517.296H120.284V516.955Z" fill="#EBEBEB"/>
<path d="M333.421 513.251H260.358V513.592H333.421V513.251Z" fill="#EBEBEB"/>
<path d="M171.136 529.631H121.65V529.972H171.136V529.631Z" fill="#EBEBEB"/>
<path d="M603.23 513.081H544.273V513.422H603.23V513.081Z" fill="#EBEBEB"/>
<path d="M624.028 513.081H615.384V513.422H624.028V513.081Z" fill="#EBEBEB"/>
<path d="M533.011 521.574H459.454V521.915H533.011V521.574Z" fill="#EBEBEB"/>
<path d="M350.274 443.081H86.699C82.4034 443.081 78.9077 439.585 78.9077 435.289V64.7913C78.9077 60.4957 82.4034 57 86.699 57H350.274C354.569 57 358.064 60.4957 358.064 64.7913V435.289C358.064 439.585 354.569 443.081 350.274 443.081ZM86.699 57.3426C82.5904 57.3426 79.249 60.6841 79.249 64.7926V435.291C79.249 439.399 82.5904 442.741 86.699 442.741H350.274C354.382 442.741 357.723 439.399 357.723 435.291V64.7913C357.723 60.6841 354.382 57.3412 350.274 57.3412L86.699 57.3426Z" fill="#EBEBEB"/>
<path d="M645.513 443.081H381.939C377.643 443.081 374.149 439.585 374.149 435.289V64.7913C374.149 60.4957 377.645 57 381.939 57H645.513C649.81 57 653.304 60.4957 653.304 64.7913V435.289C653.305 439.585 649.81 443.081 645.513 443.081ZM381.939 57.3426C377.832 57.3426 374.49 60.6841 374.49 64.7926V435.291C374.49 439.399 377.832 442.741 381.939 442.741H645.513C649.621 442.741 652.963 439.399 652.963 435.291V64.7913C652.963 60.6841 649.621 57.3412 645.513 57.3412L381.939 57.3426Z" fill="#EBEBEB"/>
<path d="M567.766 389.855H558.701V503.958H567.766V389.855Z" fill="#F5F5F5"/>
<path d="M571.708 389.855H563.821V503.958H571.708V389.855Z" fill="#F0F0F0"/>
<path d="M356.363 389.855H347.298V503.958H356.363V389.855Z" fill="#F5F5F5"/>
<path d="M360.306 389.855H352.419V503.958H360.306V389.855Z" fill="#F0F0F0"/>
<path d="M602.119 389.855H593.054V503.958H602.119V389.855Z" fill="#F5F5F5"/>
<path d="M606.061 389.855H598.174V503.958H606.061V389.855Z" fill="#F0F0F0"/>
<path d="M390.715 389.855H381.65V503.958H390.715V389.855Z" fill="#F5F5F5"/>
<path d="M347.298 392.017L606.061 392.017V387.694L347.298 387.694V392.017Z" fill="#F0F0F0"/>
<path d="M347.299 392.017H386.771V387.694H347.299V392.017Z" fill="#E6E6E6"/>
<path d="M394.658 389.855H386.771V503.958H394.658V389.855Z" fill="#F0F0F0"/>
<path d="M476.712 304.594H452.233V387.692H476.712V304.594Z" fill="#EBEBEB"/>
<path d="M543.071 387.693H461.827L449.559 290.433H530.802L543.071 387.693Z" fill="#E0E0E0"/>
<path d="M547.848 387.693H463.929L451.66 290.433H535.578L547.848 387.693Z" fill="#F0F0F0"/>
<path d="M500.769 387.693H484.486L489.072 290.433H505.354L500.769 387.693Z" fill="#FAFAFA"/>
<path d="M519.433 387.693H503.403L507.989 290.433H524.018L519.433 387.693Z" fill="#FAFAFA"/>
<path d="M614.999 80.9707H403.929V246.114H614.999V80.9707Z" fill="#E6E6E6"/>
<path d="M621.331 80.9707H406.888V246.114H621.331V80.9707Z" fill="#F0F0F0"/>
<path d="M614.999 246.113H403.929V251.64H614.999V246.113Z" fill="#E6E6E6"/>
<path d="M624.707 246.113H410.264V251.64H624.707V246.113Z" fill="#F0F0F0"/>
<path d="M612.467 237.247V89.835L415.755 89.835V237.247L612.467 237.247Z" fill="#FAFAFA"/>
<path d="M523.405 237.248L537.602 89.835H562.165L547.968 237.248H523.405Z" fill="white"/>
<path d="M461.408 237.248L475.605 89.835H500.168L485.97 237.248H461.408Z" fill="white"/>
<path d="M419.858 187.279C419.483 187.279 419.18 186.975 419.18 186.601V95.6032C419.18 95.2292 419.483 94.9248 419.858 94.9248C420.233 94.9248 420.536 95.2278 420.536 95.6032V186.601C420.536 186.975 420.233 187.279 419.858 187.279Z" fill="#F0F0F0"/>
<path d="M553.245 237.248L567.442 89.835H577.018L562.82 237.248H553.245Z" fill="white"/>
<path d="M612.466 237.248V89.8359H611.34V237.248H612.466Z" fill="#E6E6E6"/>
<path opacity="0.5" d="M623.428 105.909H412.358L411.543 93.2812H622.612L623.428 105.909Z" fill="#E0E0E0"/>
<path opacity="0.5" d="M623.428 126.667H412.358L411.543 114.04H622.612L623.428 126.667Z" fill="#E0E0E0"/>
<path opacity="0.5" d="M623.428 147.426H412.358L411.543 134.797H622.612L623.428 147.426Z" fill="#E0E0E0"/>
<path opacity="0.5" d="M623.428 168.183H412.358L411.543 155.556H622.612L623.428 168.183Z" fill="#E0E0E0"/>
<path opacity="0.5" d="M623.428 188.942H412.358L411.543 176.314H622.612L623.428 188.942Z" fill="#E0E0E0"/>
<path opacity="0.5" d="M623.428 209.699H412.358L411.543 197.071H622.612L623.428 209.699Z" fill="#E0E0E0"/>
<path opacity="0.5" d="M623.428 116.289H412.358L411.543 103.661H622.612L623.428 116.289Z" fill="#E0E0E0"/>
<path opacity="0.5" d="M623.428 137.047H412.358L411.543 124.418H622.612L623.428 137.047Z" fill="#E0E0E0"/>
<path opacity="0.5" d="M623.428 157.803H412.358L411.543 145.176H622.612L623.428 157.803Z" fill="#E0E0E0"/>
<path opacity="0.5" d="M623.428 178.563H412.358L411.543 165.936H622.612L623.428 178.563Z" fill="#E0E0E0"/>
<path opacity="0.5" d="M623.428 199.32H412.358L411.543 186.692H622.612L623.428 199.32Z" fill="#E0E0E0"/>
<path opacity="0.5" d="M623.428 220.078H412.358L411.543 207.45H622.612L623.428 220.078Z" fill="#E0E0E0"/>
<path d="M162.17 162.93H190.825C194.456 162.93 197.4 159.986 197.4 156.355V145.341C197.4 141.71 194.456 138.766 190.825 138.766H162.17C158.539 138.766 155.595 141.709 155.595 145.341V156.355C155.595 159.986 158.539 162.93 162.17 162.93Z" fill="#F5F5F5"/>
<path d="M162.17 138.766H190.825C194.456 138.766 197.4 135.821 197.4 132.191V121.177C197.4 117.546 194.456 114.602 190.825 114.602H162.17C158.539 114.602 155.595 117.546 155.595 121.177V132.191C155.595 135.823 158.539 138.766 162.17 138.766Z" fill="#F5F5F5"/>
<path d="M171.533 114.602H181.463C182.721 114.602 183.741 113.583 183.741 112.324V108.508C183.741 107.249 182.721 106.229 181.463 106.229H171.533C170.274 106.229 169.254 107.249 169.254 108.508V112.324C169.254 113.581 170.274 114.602 171.533 114.602Z" fill="#E0E0E0"/>
<path d="M162.17 187.092H190.825C194.456 187.092 197.4 184.148 197.4 180.517V169.503C197.4 165.872 194.456 162.928 190.825 162.928H162.17C158.539 162.928 155.595 165.872 155.595 169.503V180.517C155.595 184.149 158.539 187.092 162.17 187.092Z" fill="#F5F5F5"/>
<path d="M314.112 170.309C314.112 170.309 312.728 187.092 259.655 187.092C206.582 187.092 205.198 170.309 205.198 170.309H314.112Z" fill="#F0F0F0"/>
<path d="M151.29 190.489H109.226V488.369H151.29V190.489Z" fill="#F0F0F0"/>
<path d="M324.744 488.369H117.302V503.959H324.744V488.369Z" fill="#F0F0F0"/>
<path d="M151.29 488.368H332.822L332.822 190.488H151.29L151.29 488.368Z" fill="#F5F5F5"/>
<path d="M167.828 366.636H316.284V296.341H167.828V366.636Z" fill="#F0F0F0"/>
<path d="M167.828 452.612H316.284V382.317H167.828V452.612Z" fill="#F0F0F0"/>
<path d="M167.828 477.964H316.284V467.249H167.828V477.964Z" fill="#F0F0F0"/>
<path d="M279.787 301.906H204.322C201.08 301.906 198.427 299.252 198.427 296.011C198.427 292.769 201.079 290.115 204.322 290.115H279.787C283.029 290.115 285.683 292.767 285.683 296.011C285.683 299.254 283.031 301.906 279.787 301.906Z" fill="#F5F5F5"/>
<path d="M167.828 280.66H316.284V210.365H167.828V280.66Z" fill="#F0F0F0"/>
<path d="M279.787 215.931H204.322C201.08 215.931 198.427 213.279 198.427 210.036C198.427 206.794 201.079 204.141 204.322 204.141H279.787C283.029 204.141 285.683 206.793 285.683 210.036C285.683 213.279 283.031 215.931 279.787 215.931Z" fill="#F5F5F5"/>
<path d="M279.787 387.882H204.322C201.08 387.882 198.427 385.229 198.427 381.987C198.427 378.745 201.079 376.092 204.322 376.092H279.787C283.029 376.092 285.683 378.745 285.683 381.987C285.683 385.23 283.031 387.882 279.787 387.882Z" fill="#F5F5F5"/>
<path d="M338.425 187.093H151.289V190.489H338.425V187.093Z" fill="#F0F0F0"/>
<path d="M103.347 190.489H151.289V187.093H103.347V190.489Z" fill="#E6E6E6"/>
<path d="M367.999 565.603C514.164 565.603 632.653 558.683 632.653 550.147C632.653 541.611 514.164 534.691 367.999 534.691C221.835 534.691 103.346 541.611 103.346 550.147C103.346 558.683 221.835 565.603 367.999 565.603Z" fill="#F5F5F5"/>
<path d="M630.153 414.841H105.847L96.1748 405.688H639.825L630.153 414.841Z" fill="#407BFF"/>
<path opacity="0.5" d="M630.153 414.841H105.847L96.1748 405.688H639.825L630.153 414.841Z" fill="#455A64"/>
<path d="M585.198 419.77H150.803L142.788 414.841H593.213L585.198 419.77Z" fill="#407BFF"/>
<path opacity="0.5" d="M585.198 419.77H150.803L142.788 414.841H593.213L585.198 419.77Z" fill="black"/>
<path d="M147.363 550.147H141.129L160.475 419.77H174.38L147.363 550.147Z" fill="#407BFF"/>
<path opacity="0.5" d="M147.363 550.147H141.129L160.475 419.77H174.38L147.363 550.147Z" fill="black"/>
<path d="M181.141 550.147H174.907L194.253 419.77H208.158L181.141 550.147Z" fill="#407BFF"/>
<path opacity="0.5" d="M181.141 550.147H174.907L194.253 419.77H208.158L181.141 550.147Z" fill="black"/>
<path d="M588.637 550.147H594.871L575.525 419.77H561.62L588.637 550.147Z" fill="#407BFF"/>
<path opacity="0.5" d="M588.637 550.147H594.871L575.525 419.77H561.62L588.637 550.147Z" fill="black"/>
<path d="M554.86 550.147H561.094L541.748 419.77H527.843L554.86 550.147Z" fill="#407BFF"/>
<path opacity="0.5" d="M554.86 550.147H561.094L541.748 419.77H527.843L554.86 550.147Z" fill="black"/>
<path d="M332.895 111.861L350.521 113.038C351.913 113.13 353.14 113.985 353.712 115.257L355.567 119.391C355.966 120.279 356.7 120.96 357.599 121.33C359.824 122.244 361.967 123.306 364.019 124.506C364.858 124.997 365.844 125.167 366.793 124.944L371.204 123.911C372.562 123.593 373.986 124.05 374.905 125.1L386.536 138.395C387.454 139.446 387.719 140.917 387.222 142.221L385.611 146.455C385.265 147.364 385.302 148.364 385.677 149.263C386.593 151.455 387.361 153.722 387.972 156.048C388.219 156.988 388.796 157.807 389.622 158.319L393.471 160.707C394.657 161.442 395.34 162.772 395.247 164.164L394.07 181.79C393.977 183.182 393.123 184.409 391.851 184.981L387.718 186.836C386.83 187.235 386.149 187.969 385.779 188.867C384.865 191.092 383.803 193.235 382.603 195.287C382.112 196.126 381.942 197.113 382.165 198.06L383.2 202.473C383.518 203.832 383.06 205.255 382.011 206.174L368.714 217.805C367.665 218.723 366.192 218.988 364.888 218.491L360.652 216.879C359.742 216.533 358.743 216.57 357.845 216.945C355.654 217.861 353.388 218.628 351.064 219.238C350.123 219.485 349.306 220.063 348.793 220.888L346.403 224.742C345.667 225.928 344.337 226.61 342.945 226.517L325.319 225.341C323.927 225.248 322.7 224.394 322.128 223.121L320.271 218.986C319.873 218.098 319.139 217.417 318.24 217.047C316.017 216.134 313.874 215.072 311.824 213.872C310.984 213.381 309.999 213.212 309.051 213.434L304.638 214.469C303.28 214.787 301.857 214.33 300.938 213.28L289.307 199.984C288.388 198.934 288.124 197.461 288.62 196.158L290.23 191.928C290.576 191.017 290.54 190.018 290.164 189.12C289.247 186.925 288.477 184.656 287.867 182.328C287.62 181.387 287.042 180.57 286.217 180.056L282.37 177.67C281.184 176.935 280.502 175.605 280.594 174.213L281.771 156.587C281.864 155.195 282.718 153.968 283.99 153.396L288.119 151.543C289.007 151.145 289.688 150.411 290.058 149.511C290.972 147.283 292.037 145.138 293.238 143.085C293.729 142.244 293.899 141.258 293.676 140.311L292.643 135.905C292.325 134.547 292.782 133.123 293.832 132.205L307.128 120.574C308.179 119.655 309.651 119.39 310.954 119.887L315.19 121.498C316.099 121.843 317.098 121.807 317.996 121.432C320.188 120.516 322.454 119.748 324.781 119.138C325.722 118.891 326.541 118.313 327.053 117.487L329.441 113.637C330.172 112.452 331.502 111.768 332.895 111.861ZM304.572 166.962C303.342 185.374 317.262 201.308 335.694 202.539C354.106 203.769 370.041 189.828 371.271 171.416C372.501 153.004 358.56 137.069 340.148 135.839C321.714 134.61 305.8 148.551 304.572 166.962Z" fill="#0EA5E9"/>
<path d="M402.461 185.73L408.517 183.683C409.165 183.463 409.882 183.62 410.38 184.09L411.385 185.037C411.727 185.36 412.183 185.528 412.654 185.531C413.488 185.535 414.318 185.591 415.136 185.697C415.604 185.758 416.076 185.652 416.46 185.377L417.582 184.571C418.137 184.173 418.869 184.113 419.482 184.416L425.212 187.251C425.825 187.554 426.222 188.172 426.241 188.856L426.282 190.236C426.296 190.708 426.498 191.148 426.831 191.482C427.412 192.069 427.96 192.693 428.469 193.355C428.757 193.729 429.166 193.988 429.632 194.065L430.994 194.289C431.67 194.399 432.229 194.874 432.448 195.523L434.495 201.579C434.715 202.227 434.558 202.944 434.089 203.442L433.141 204.447C432.818 204.789 432.65 205.245 432.647 205.716C432.643 206.552 432.587 207.38 432.481 208.199C432.419 208.667 432.526 209.14 432.801 209.523L433.607 210.645C434.007 211.201 434.067 211.932 433.762 212.545L430.927 218.275C430.624 218.888 430.006 219.285 429.322 219.305L427.941 219.344C427.468 219.358 427.029 219.56 426.694 219.893C426.109 220.474 425.484 221.02 424.823 221.529C424.449 221.817 424.19 222.227 424.113 222.692L423.889 224.056C423.779 224.732 423.304 225.291 422.655 225.51L416.599 227.557C415.951 227.777 415.234 227.62 414.736 227.15L413.731 226.202C413.389 225.878 412.933 225.71 412.462 225.708C411.628 225.704 410.799 225.648 409.98 225.542C409.512 225.481 409.04 225.587 408.658 225.863L407.536 226.669C406.98 227.068 406.248 227.127 405.636 226.824L399.905 223.99C399.293 223.687 398.895 223.069 398.876 222.385L398.837 221.007C398.823 220.534 398.621 220.095 398.288 219.76C397.706 219.173 397.158 218.548 396.647 217.886C396.359 217.512 395.95 217.253 395.484 217.177L394.123 216.954C393.448 216.843 392.888 216.368 392.67 215.72L390.622 209.664C390.402 209.015 390.559 208.299 391.029 207.801L391.975 206.799C392.298 206.456 392.466 206 392.469 205.529C392.473 204.694 392.529 203.864 392.636 203.044C392.697 202.575 392.591 202.103 392.315 201.72L391.511 200.6C391.111 200.045 391.051 199.313 391.355 198.7L394.19 192.97C394.493 192.357 395.112 191.96 395.795 191.941L397.175 191.901C397.648 191.888 398.087 191.686 398.422 191.353C399.009 190.771 399.632 190.224 400.294 189.715C400.668 189.427 400.928 189.017 401.004 188.552L401.228 187.189C401.337 186.51 401.812 185.95 402.461 185.73ZM406.079 207.809C407.289 211.386 411.168 213.308 414.75 212.097C418.327 210.888 420.248 207.005 419.038 203.427C417.829 199.85 413.946 197.929 410.368 199.138C406.786 200.349 404.87 204.231 406.079 207.809Z" fill="#138FC8" fill-opacity="0.4"/>
<path opacity="0.5" d="M402.461 185.73L408.517 183.683C409.165 183.463 409.882 183.62 410.38 184.09L411.385 185.037C411.727 185.36 412.183 185.528 412.654 185.531C413.488 185.535 414.318 185.591 415.136 185.697C415.604 185.758 416.076 185.652 416.46 185.377L417.582 184.571C418.137 184.173 418.869 184.113 419.482 184.416L425.212 187.251C425.825 187.554 426.222 188.172 426.241 188.856L426.282 190.236C426.296 190.708 426.498 191.148 426.831 191.482C427.412 192.069 427.96 192.693 428.469 193.355C428.757 193.729 429.166 193.988 429.632 194.065L430.994 194.289C431.67 194.399 432.229 194.874 432.448 195.523L434.495 201.579C434.715 202.227 434.558 202.944 434.089 203.442L433.141 204.447C432.818 204.789 432.65 205.245 432.647 205.716C432.643 206.552 432.587 207.38 432.481 208.199C432.419 208.667 432.526 209.14 432.801 209.523L433.607 210.645C434.007 211.201 434.067 211.932 433.762 212.545L430.927 218.275C430.624 218.888 430.006 219.285 429.322 219.305L427.941 219.344C427.468 219.358 427.029 219.56 426.694 219.893C426.109 220.474 425.484 221.02 424.823 221.529C424.449 221.817 424.19 222.227 424.113 222.692L423.889 224.056C423.779 224.732 423.304 225.291 422.655 225.51L416.599 227.557C415.951 227.777 415.234 227.62 414.736 227.15L413.731 226.202C413.389 225.878 412.933 225.71 412.462 225.708C411.628 225.704 410.799 225.648 409.98 225.542C409.512 225.481 409.04 225.587 408.658 225.863L407.536 226.669C406.98 227.068 406.248 227.127 405.636 226.824L399.905 223.99C399.293 223.687 398.895 223.069 398.876 222.385L398.837 221.007C398.823 220.534 398.621 220.095 398.288 219.76C397.706 219.173 397.158 218.548 396.647 217.886C396.359 217.512 395.95 217.253 395.484 217.177L394.123 216.954C393.448 216.843 392.888 216.368 392.67 215.72L390.622 209.664C390.402 209.015 390.559 208.299 391.029 207.801L391.975 206.799C392.298 206.456 392.466 206 392.469 205.529C392.473 204.694 392.529 203.864 392.636 203.044C392.697 202.575 392.591 202.103 392.315 201.72L391.511 200.6C391.111 200.045 391.051 199.313 391.355 198.7L394.19 192.97C394.493 192.357 395.112 191.96 395.795 191.941L397.175 191.901C397.648 191.888 398.087 191.686 398.422 191.353C399.009 190.771 399.632 190.224 400.294 189.715C400.668 189.427 400.928 189.017 401.004 188.552L401.228 187.189C401.337 186.51 401.812 185.95 402.461 185.73ZM406.079 207.809C407.289 211.386 411.168 213.308 414.75 212.097C418.327 210.888 420.248 207.005 419.038 203.427C417.829 199.85 413.946 197.929 410.368 199.138C406.786 200.349 404.87 204.231 406.079 207.809Z" fill="#138FC8" fill-opacity="0.2"/>
<path d="M367.863 251.899L375.374 238.892C376.606 236.758 375.065 234.09 372.601 234.09H357.582C355.119 234.09 353.578 236.757 354.81 238.892L362.32 251.899C363.552 254.032 366.631 254.032 367.863 251.899Z" fill="#138FC8"/>
<path d="M121.886 400.251H305.889C308.567 400.251 310.685 398.06 310.598 395.38L306.244 263.832C306.155 261.154 303.892 258.962 301.212 258.962H117.21C114.531 258.962 112.413 261.153 112.502 263.832L116.856 395.38C116.943 398.06 119.208 400.251 121.886 400.251Z" fill="#455A64"/>
<path d="M123.389 400.251H307.392C310.07 400.251 312.188 398.06 312.099 395.38L307.745 263.832C307.656 261.154 305.393 258.962 302.714 258.962H118.712C116.034 258.962 113.916 261.153 114.005 263.832L118.359 395.38C118.446 398.06 120.711 400.251 123.389 400.251Z" fill="#407BFF"/>
<g opacity="0.6">
<path d="M123.389 400.251H307.392C310.07 400.251 312.188 398.06 312.099 395.38L307.745 263.832C307.656 261.154 305.393 258.962 302.714 258.962H118.712C116.034 258.962 113.916 261.153 114.005 263.832L118.359 395.38C118.446 398.06 120.711 400.251 123.389 400.251Z" fill="#455A64"/>
</g>
<path d="M125.758 400.013H347.985C350.3 400.013 352.309 401.36 353.236 403.294C353.768 404.407 352.953 405.688 351.699 405.688H122.044C120.79 405.688 119.975 404.407 120.507 403.294C121.434 401.36 123.443 400.013 125.758 400.013Z" fill="#407BFF"/>
<path opacity="0.6" d="M347.984 400.013H170.65C168.335 400.013 166.325 401.36 165.398 403.294C164.866 404.407 165.681 405.688 166.935 405.688H351.697C352.952 405.688 353.766 404.407 353.234 403.294C352.309 401.36 350.299 400.013 347.984 400.013Z" fill="#263238"/>
<path opacity="0.3" d="M241.982 403.621H288.118C289.255 403.621 290.184 404.552 290.184 405.688H239.917C239.915 404.552 240.845 403.621 241.982 403.621Z" fill="white"/>
<path opacity="0.9" d="M307.702 390.626L303.664 268.591C303.629 267.548 302.748 266.695 301.705 266.695H120.233C119.19 266.695 118.364 267.548 118.4 268.591L122.439 390.626C122.473 391.668 123.354 392.521 124.397 392.521H305.868C306.912 392.521 307.737 391.668 307.702 390.626Z" fill="white"/>
<path d="M158.15 392.527H133.125L161.964 266.695H186.99L158.15 392.527Z" fill="white"/>
<path d="M174.089 392.527H165.086L193.925 266.695H202.929L174.089 392.527Z" fill="white"/>
<path d="M266.125 392.527H257.122L285.96 266.695H294.965L266.125 392.527Z" fill="white"/>
<path opacity="0.4" d="M209.42 263.042C209.446 263.83 210.107 264.47 210.894 264.47C211.682 264.47 212.3 263.831 212.274 263.042C212.248 262.254 211.588 261.614 210.8 261.614C210.013 261.614 209.394 262.253 209.42 263.042Z" fill="white"/>
<path d="M268 249.606C270.425 253.484 273.027 257.6 275.63 261.549C278.271 265.51 280.922 269.463 283.645 273.342C289.083 281.095 294.746 288.667 300.797 295.494C303.84 298.852 306.963 302.094 310.149 304.679L311.325 305.618C311.591 305.808 311.793 306.018 312.136 306.224C312.724 306.649 313.528 307.064 314.331 307.501C316.004 308.345 317.975 309.099 320.035 309.765C322.093 310.467 324.264 311.081 326.483 311.631C328.7 312.211 330.969 312.724 333.264 313.203C337.833 314.178 342.609 315.062 347.209 315.854L347.204 325.432C344.58 325.817 342.118 326.001 339.565 326.186C337.029 326.379 334.49 326.426 331.929 326.445C326.807 326.425 321.643 326.106 316.284 325.204C313.606 324.714 310.883 324.093 308.026 323.121C306.583 322.608 305.142 322.051 303.623 321.243C302.881 320.887 302.088 320.385 301.325 319.922L299.558 318.689C294.967 315.371 291.073 311.777 287.416 308.051C280.155 300.598 273.839 292.708 267.905 284.61C264.941 280.56 262.093 276.449 259.358 272.268C256.603 268.061 253.958 263.948 251.362 259.46L268 249.606Z" fill="#FFC3BD"/>
<path d="M245.036 252.232C243.696 264.22 272.23 292.856 272.23 292.856L291.542 276.745C291.542 276.745 282.423 261.096 272.786 249.154C261.81 235.553 246.55 238.698 245.036 252.232Z" fill="#0EA5E9"/>
<path opacity="0.3" d="M260.642 260.763C253.012 252.629 249.367 250.458 244.98 253.713C245.566 266.374 272.227 292.856 272.227 292.856C274.029 279.264 267.1 270.535 260.642 260.763Z" fill="black"/>
<path d="M289.99 271.214L292.023 277.116L270.403 294.859L266.128 290.416L289.99 271.214Z" fill="#0EA5E9"/>
<path opacity="0.3" d="M289.377 271.431L291.41 277.333L269.79 295.076L265.515 290.633L289.377 271.431Z" fill="#0EA5E9"/>
<path d="M346.226 315.655L361.223 318.235L352.966 331.354C351.009 331.675 343.166 327.424 339.707 322.161L346.226 315.655Z" fill="#FFC3BD"/>
<path d="M370.461 327.145L364.468 333.943L352.966 331.353L361.223 318.234L370.461 327.145Z" fill="#FFC3BD"/>
<path d="M260.578 240.78C260.578 240.78 276.97 279.303 265.157 351.043C244.598 351.043 206.929 351.043 196.925 351.043C196.091 340.57 200.9 289.475 189.086 240.122C189.086 240.122 200.701 237.776 211.826 237.238C220.531 236.818 233.143 236.539 240.831 237.24C250.97 238.162 260.578 240.78 260.578 240.78Z" fill="#0EA5E9"/>
<path opacity="0.3" d="M204.331 252.308C205.75 260.43 203.862 279.863 196.906 302.318C196.282 285.036 194.547 264.998 190.205 245.033L190.203 244.936C194.681 244.477 202.98 244.694 204.331 252.308Z" fill="black"/>
<path d="M213.568 204.579C215.722 213.911 218.141 231.012 211.828 237.239C211.828 237.239 214.553 244.97 231.893 244.97C250.962 244.97 240.832 237.24 240.832 237.24C230.34 234.755 230.34 227.034 231.901 219.782L213.568 204.579Z" fill="#FFC3BD"/>
<path d="M233.078 245.688L237.147 250.024C237.394 250.288 237.454 250.674 237.298 250.999L235.257 255.278C235.118 255.569 234.832 255.76 234.511 255.775L231.411 255.925C231.109 255.94 230.823 255.798 230.651 255.551L227.794 251.441C227.569 251.116 227.589 250.681 227.843 250.378L231.771 245.722C232.108 245.322 232.719 245.305 233.078 245.688Z" fill="white"/>
<path d="M232.405 244.971C229.262 249.571 229.086 255.479 229.086 255.479C229.086 255.479 206.937 247.907 207.939 236.814C207.939 236.814 211.671 235.005 213.606 233.535C213.606 233.535 214.336 240.527 232.405 244.971Z" fill="#263238"/>
<path d="M232.405 244.972C235.547 249.572 236.59 254.813 236.59 254.813C236.59 254.813 246.862 247.782 243.942 236.815C243.942 236.815 240.651 236.117 237.901 235.52C237.901 235.52 239.177 242.598 232.405 244.972Z" fill="#263238"/>
<path d="M234.915 255.319C236.309 259.85 246.571 293.453 246.83 301.497C246.833 301.568 246.826 301.628 246.811 301.697C245.865 306.028 241.576 313.613 239.825 316.593C239.521 317.112 238.758 317.06 238.53 316.503C237.328 313.575 234.421 306.548 232.524 302.438C232.485 302.357 232.466 302.276 232.461 302.186C231.552 287.512 231.314 264.7 230.86 255.571C230.839 255.154 231.17 254.814 231.587 254.814H234.222C234.541 254.813 234.821 255.014 234.915 255.319Z" fill="white"/>
<path opacity="0.2" d="M221.043 210.783L231.893 219.774C231.518 221.49 231.24 223.23 231.178 224.923C227.183 224.348 221.57 219.984 221.004 215.821C220.721 213.745 220.739 211.75 221.043 210.783Z" fill="black"/>
<path d="M240.289 176.826C242.872 178.753 247.277 186.896 241.636 189.017C235.995 191.138 233.975 172.111 240.289 176.826Z" fill="#263238"/>
<path d="M210.203 193.391C212.791 205.819 213.673 213.202 220.95 218.928C231.895 227.54 246.569 220.105 247.752 207.285C248.818 195.746 244.407 177.36 231.388 173.731C218.562 170.157 207.615 180.962 210.203 193.391Z" fill="#FFC3BD"/>
<path d="M211.828 202.757L217.053 199.269L217.385 196.244C217.867 191.849 217.048 187.41 215.03 183.476C215.03 183.476 240.371 184.424 243.521 176.489C246.672 168.553 237.724 162.598 237.724 162.598C237.724 162.598 228.755 167.733 222.693 168.154C216.631 168.575 198.11 160.998 198.11 176.657C189.943 179.183 190.201 192.653 211.828 202.757Z" fill="#263238"/>
<path d="M199.056 177.271C199.056 177.271 195.701 174.599 198.203 166.465C195.131 168.002 193.653 176.305 199.056 177.271Z" fill="#263238"/>
<path d="M206.533 207.809C208.732 210.49 211.941 211.954 214.752 212.252C218.979 212.698 220.255 208.793 218.378 205.21C216.69 201.984 212.456 197.866 208.55 199.083C204.704 200.278 204.019 204.743 206.533 207.809Z" fill="#FFC3BD"/>
<path d="M270.922 392.528H227.318C223.395 368.849 220.246 351.039 220.246 351.039H265.157C265.157 351.039 267.687 368.557 270.922 392.528Z" fill="#263238"/>
<path d="M198.581 392.528C197.599 368.849 196.859 351.039 196.859 351.039H240.893C240.893 351.039 241.117 369.073 241.203 392.528H198.581Z" fill="#263238"/>
<path d="M229.765 194.794C229.913 195.813 230.575 196.58 231.243 196.506C231.912 196.432 232.334 195.546 232.187 194.528C232.039 193.51 231.377 192.743 230.708 192.816C230.04 192.889 229.618 193.775 229.765 194.794Z" fill="#263238"/>
<path d="M241.326 193.522C241.474 194.54 242.136 195.307 242.804 195.233C243.473 195.16 243.895 194.274 243.748 193.256C243.6 192.237 242.938 191.47 242.269 191.544C241.599 191.618 241.177 192.504 241.326 193.522Z" fill="#263238"/>
<path d="M237.724 194.435C237.724 194.435 240.903 200.057 243.875 202.612C242.309 204.493 239.122 204.063 239.122 204.063L237.724 194.435Z" fill="#ED847E"/>
<path d="M234.419 207.212C235.072 207.282 235.779 207.287 236.54 207.204C236.707 207.186 236.826 207.036 236.808 206.871C236.79 206.706 236.644 206.587 236.475 206.603C231.983 207.097 229.427 204.2 229.402 204.17C229.294 204.043 229.103 204.029 228.976 204.138C228.849 204.247 228.835 204.437 228.944 204.564C229.036 204.673 230.948 206.843 234.419 207.212Z" fill="#263238"/>
<path d="M225.591 191.466C225.823 191.49 226.058 191.378 226.181 191.163C227.468 188.891 229.634 188.759 229.725 188.755C230.057 188.739 230.315 188.457 230.3 188.124C230.285 187.791 230.007 187.528 229.675 187.547C229.556 187.551 226.757 187.694 225.128 190.566C224.964 190.857 225.065 191.225 225.356 191.389C225.431 191.433 225.512 191.458 225.591 191.466Z" fill="#263238"/>
<path d="M245.661 189.012C245.798 189.027 245.938 188.996 246.061 188.914C246.338 188.728 246.413 188.353 246.228 188.076C244.35 185.268 241.56 185.193 241.444 185.194C241.109 185.189 240.835 185.455 240.831 185.79C240.825 186.123 241.097 186.404 241.423 186.404C241.534 186.405 243.718 186.495 245.223 188.749C245.327 188.903 245.489 188.995 245.661 189.012Z" fill="#263238"/>
<path d="M202.108 259.302L199.083 264.523C198.059 266.313 197.06 268.125 196.09 269.949C194.134 273.591 192.239 277.26 190.439 280.949C188.675 284.647 186.98 288.367 185.467 292.096C184.732 293.96 184.006 295.836 183.371 297.702L182.409 300.5L181.594 303.287L181.389 303.985L181.287 304.333C181.252 304.451 181.272 304.379 181.256 304.41C181.221 304.427 181.195 304.563 181.158 304.72C181.102 305.074 181.104 305.651 181.164 306.32C181.274 307.675 181.644 309.368 182.174 311.103C183.259 314.589 184.779 318.34 186.535 322.016C189.986 329.422 194.198 336.902 198.33 344.202L190.783 350.1C187.556 346.869 184.674 343.573 181.828 340.102C179.002 336.64 176.326 333.033 173.782 329.231C171.3 325.386 168.872 321.419 166.909 316.817C165.925 314.509 165.019 312.053 164.396 309.15C164.097 307.691 163.884 306.107 163.874 304.301C163.884 303.379 163.925 302.434 164.092 301.39L164.212 300.672L164.299 300.234L164.475 299.356C165.326 294.615 166.646 290.157 168.076 285.75C169.511 281.356 171.212 277.125 173.005 272.951C174.817 268.791 176.793 264.733 178.903 260.753C179.967 258.767 181.057 256.799 182.183 254.841C183.311 252.849 184.438 251.011 185.787 248.93L202.108 259.302Z" fill="#FFC3BD"/>
<path d="M189.087 240.123C177.078 241.878 164.706 283.701 164.706 283.701L190.552 298.019C190.552 298.019 201.027 278.128 206.02 263.356C211.252 247.88 201.967 238.24 189.087 240.123Z" fill="#0EA5E9"/>
<path d="M165.234 277.812L164.14 283.958L190.701 298.565L194.237 293.513L165.234 277.812Z" fill="#0EA5E9"/>
<path opacity="0.3" d="M165.234 277.812L164.14 283.958L190.701 298.565L194.237 293.513L165.234 277.812Z" fill="#0EA5E9"/>
<path d="M194.919 341.376L207.621 339.163L201.102 353.864C201.102 353.864 189.508 353.797 190.04 347.821L194.919 341.376Z" fill="#FFC3BD"/>
<path d="M217.097 346.552L211.131 358.43L201.102 353.864L207.621 339.163L217.097 346.552Z" fill="#FFC3BD"/>
<path d="M614.113 400.251H430.11C427.432 400.251 425.314 398.061 425.403 395.381L429.757 263.833C429.846 261.155 432.11 258.963 434.788 258.963H618.791C621.469 258.963 623.587 261.154 623.499 263.833L619.144 395.381C619.056 398.061 616.791 400.251 614.113 400.251Z" fill="#407BFF"/>
<path opacity="0.6" d="M614.113 400.251H430.11C427.432 400.251 425.314 398.061 425.403 395.381L429.757 263.833C429.846 261.155 432.11 258.963 434.788 258.963H618.791C621.469 258.963 623.587 261.154 623.499 263.833L619.144 395.381C619.056 398.061 616.791 400.251 614.113 400.251Z" fill="#263238"/>
<path d="M612.611 400.251H428.609C425.931 400.251 423.813 398.061 423.902 395.381L428.256 263.833C428.345 261.155 430.608 258.963 433.287 258.963H617.29C619.968 258.963 622.087 261.154 621.998 263.833L617.644 395.381C617.553 398.061 615.289 400.251 612.611 400.251Z" fill="#455A64"/>
<path d="M610.241 400.013H388.015C385.7 400.013 383.691 401.36 382.764 403.294C382.231 404.407 383.046 405.688 384.301 405.688H613.955C615.209 405.688 616.024 404.407 615.492 403.294C614.565 401.36 612.556 400.013 610.241 400.013Z" fill="#407BFF"/>
<path opacity="0.6" d="M610.241 400.013H576.182C573.867 400.013 571.858 401.36 570.931 403.294C570.398 404.407 571.213 405.688 572.468 405.688H613.955C615.209 405.688 616.024 404.407 615.492 403.294C614.565 401.36 612.556 400.013 610.241 400.013Z" fill="#263238"/>
<path opacity="0.2" d="M494.017 403.621H447.881C446.744 403.621 445.814 404.552 445.814 405.688H496.082C496.084 404.552 495.153 403.621 494.017 403.621Z" fill="black"/>
<path opacity="0.9" d="M428.297 390.626L432.336 268.592C432.37 267.549 433.252 266.696 434.295 266.696H615.765C616.808 266.696 617.634 267.549 617.599 268.592L613.56 390.626C613.525 391.669 612.644 392.522 611.601 392.522H430.13C429.087 392.522 428.263 391.669 428.297 390.626Z" fill="white"/>
<path d="M557.354 392.528H532.329L561.168 266.696H586.193L557.354 392.528Z" fill="white"/>
<path d="M448.704 392.528H439.701L468.54 266.696H477.543L448.704 392.528Z" fill="white"/>
<path d="M577.865 392.528H568.862L597.7 266.696H606.704L577.865 392.528Z" fill="white"/>
<path opacity="0.4" d="M526.579 263.043C526.553 263.831 525.892 264.471 525.105 264.471C524.316 264.471 523.699 263.832 523.725 263.043C523.751 262.255 524.411 261.615 525.199 261.615C525.987 261.615 526.605 262.254 526.579 263.043Z" fill="black"/>
<path d="M513.319 204.578C511.166 213.91 508.746 231.011 515.061 237.238C515.061 237.238 512.336 244.969 494.995 244.969C475.927 244.969 486.056 237.239 486.056 237.239C496.55 234.754 496.549 227.033 494.987 219.781L513.319 204.578Z" fill="#B55B52"/>
<path d="M541.097 248.927C542.446 251.008 543.574 252.846 544.702 254.838C545.829 256.797 546.919 258.764 547.982 260.75C550.092 264.73 552.069 268.789 553.88 272.948C555.674 277.122 557.373 281.353 558.809 285.747C560.239 290.154 561.559 294.612 562.41 299.353L562.586 300.231L562.673 300.669L562.793 301.387C562.96 302.432 563.001 303.377 563.012 304.298C563.001 306.106 562.786 307.688 562.489 309.147C561.866 312.05 560.96 314.506 559.976 316.814C558.012 321.417 555.585 325.382 553.103 329.228C550.559 333.03 547.884 336.637 545.057 340.099C542.212 343.569 539.329 346.865 536.104 350.097L528.557 344.199C532.69 336.899 536.901 329.419 540.352 322.013C542.107 318.337 543.628 314.586 544.713 311.1C545.242 309.366 545.614 307.673 545.723 306.317C545.783 305.648 545.783 305.071 545.728 304.717C545.691 304.562 545.666 304.425 545.63 304.408C545.615 304.376 545.634 304.449 545.6 304.33L545.498 303.982L545.293 303.284L544.478 300.497L543.516 297.699C542.882 295.833 542.156 293.957 541.419 292.093C539.907 288.364 538.211 284.644 536.448 280.946C534.647 277.257 532.753 273.588 530.797 269.946C529.826 268.122 528.827 266.308 527.804 264.52L524.777 259.299L541.097 248.927Z" fill="#B65B52"/>
<path d="M537.801 240.123C549.81 241.879 562.182 283.702 562.182 283.702L536.336 298.02C536.336 298.02 525.862 278.128 520.869 263.357C515.637 247.881 524.921 238.241 537.801 240.123Z" fill="#263238"/>
<path opacity="0.3" d="M529.981 263.041L528.029 280.963C529.981 285.263 531.892 289.206 533.38 292.224C533.939 284.99 533.926 273.36 529.981 263.041Z" fill="black"/>
<path d="M561.654 277.811L562.749 283.957L536.186 298.564L532.651 293.512L561.654 277.811Z" fill="#407BFF"/>
<path opacity="0.3" d="M561.654 277.811L562.749 283.957L536.186 298.564L532.651 293.512L561.654 277.811Z" fill="#263238"/>
<path d="M531.968 341.375L519.266 339.162L525.785 353.863C525.785 353.863 537.379 353.796 536.847 347.82L531.968 341.375Z" fill="#B55B52"/>
<path d="M509.79 346.551L515.756 358.429L525.785 353.863L519.266 339.162L509.79 346.551Z" fill="#B55B52"/>
<path d="M466.309 240.781C466.309 240.781 449.917 279.304 461.73 351.044C482.289 351.044 519.958 351.044 529.962 351.044C530.795 340.571 525.987 289.476 537.801 240.123C537.801 240.123 526.186 237.777 515.061 237.239C506.356 236.819 493.744 236.54 486.055 237.241C475.917 238.163 466.309 240.781 466.309 240.781Z" fill="#263238"/>
<path opacity="0.3" d="M458.975 273.729C458.101 281.182 457.501 289.863 457.46 299.732C466.742 293.685 470.045 279.817 471.355 269.771L458.975 273.729Z" fill="black"/>
<path d="M475.527 259.459C472.931 263.947 470.284 268.061 467.531 272.267C464.795 276.448 461.948 280.559 458.983 284.609C453.05 292.709 446.734 300.597 439.472 308.05C435.816 311.776 431.921 315.37 427.331 318.688L425.563 319.921C424.8 320.384 424.007 320.886 423.266 321.242C421.747 322.05 420.305 322.607 418.863 323.12C416.007 324.092 413.283 324.713 410.605 325.203C405.246 326.107 400.082 326.425 394.959 326.444C392.4 326.425 389.86 326.379 387.324 326.185C384.771 326 382.309 325.815 379.685 325.431L379.68 315.853C384.28 315.06 389.056 314.177 393.624 313.202C395.92 312.722 398.19 312.21 400.405 311.63C402.625 311.081 404.795 310.466 406.854 309.764C408.913 309.098 410.884 308.344 412.558 307.5C413.36 307.064 414.164 306.649 414.753 306.223C415.095 306.019 415.296 305.807 415.564 305.617L416.74 304.678C419.926 302.093 423.05 298.851 426.092 295.493C432.141 288.666 437.806 281.094 443.244 273.341C445.967 269.462 448.618 265.509 451.259 261.548C453.862 257.599 456.464 253.483 458.889 249.605L475.527 259.459Z" fill="#B65B52"/>
<path d="M481.852 252.231C483.194 264.219 456.496 293.282 456.496 293.282L435.346 276.744C435.346 276.744 444.465 261.095 454.102 249.153C465.076 235.552 480.338 238.697 481.852 252.231Z" fill="#263238"/>
<path d="M436.897 271.214L434.864 277.116L456.484 294.859L460.759 290.416L436.897 271.214Z" fill="#407BFF"/>
<path opacity="0.3" d="M436.897 271.214L434.864 277.116L456.484 294.859L460.759 290.416L436.897 271.214Z" fill="#263238"/>
<path d="M379.682 315.899L364.467 316.131L370.597 330.368C372.481 330.988 380.886 328 385.117 323.334L379.682 315.899Z" fill="#B55B52"/>
<path d="M353.962 323.507L362.28 333.942L370.598 330.368L364.467 316.131L353.962 323.507Z" fill="#B55B52"/>
<path d="M481.769 193.523C481.621 194.541 480.959 195.308 480.29 195.234C479.622 195.161 479.2 194.275 479.347 193.257C479.495 192.238 480.157 191.471 480.825 191.545C481.494 191.619 481.916 192.505 481.769 193.523Z" fill="#263238"/>
<path d="M482.057 194.434C482.057 194.434 478.878 200.056 475.906 202.611C477.472 204.492 480.659 204.062 480.659 204.062L482.057 194.434Z" fill="#A02724"/>
<path d="M480.323 201.97C478.046 201.97 475.981 198.684 475.616 194.481C475.375 191.694 475.971 189.143 477.175 187.826C477.725 187.224 478.385 186.903 479.083 186.9C479.086 186.9 479.09 186.9 479.094 186.9C481.37 186.9 483.436 190.186 483.801 194.389C484.042 197.176 483.445 199.727 482.241 201.044C481.691 201.646 481.031 201.967 480.332 201.97C480.332 201.97 480.327 201.97 480.323 201.97ZM479.096 187.582C479.093 187.582 479.09 187.582 479.088 187.582C478.577 187.584 478.103 187.82 477.68 188.284C476.602 189.467 476.071 191.818 476.298 194.421C476.62 198.146 478.462 201.286 480.324 201.286C480.327 201.286 480.33 201.286 480.332 201.286C480.843 201.283 481.317 201.047 481.74 200.583C482.819 199.401 483.349 197.049 483.124 194.446C482.799 190.722 480.956 187.582 479.096 187.582Z" fill="#263238"/>
<path d="M485.389 189.012C485.525 189.027 485.666 188.996 485.789 188.914C486.066 188.728 486.141 188.353 485.955 188.076C484.077 185.268 481.287 185.193 481.171 185.194C480.837 185.189 480.562 185.455 480.558 185.79C480.553 186.123 480.824 186.404 481.151 186.404C481.261 186.405 483.445 186.495 484.951 188.749C485.054 188.903 485.217 188.995 485.389 189.012Z" fill="#263238"/>
<path d="M516.683 193.391C514.095 205.819 513.214 213.202 505.937 218.928C494.991 227.54 480.318 220.105 479.134 207.285C478.068 195.746 482.48 177.36 495.499 173.731C508.324 170.157 519.271 180.962 516.683 193.391Z" fill="#B55B52"/>
<path d="M533.642 392.528C534.623 368.85 530.027 351.04 530.027 351.04H485.993C485.993 351.04 491.105 369.074 491.019 392.528H533.642Z" fill="#0EA5E9"/>
<path d="M489.71 197.128C487.283 195.915 484.25 183.781 485.084 179.46C485.918 175.137 495.701 170.511 505.331 172.255C514.962 174 519.092 177.38 520.951 186.133C522.886 195.233 515.871 210.371 512.401 211.537C507.756 213.098 502.875 212.419 499.794 210.475C496.7 208.522 495.093 194.626 489.71 197.128Z" fill="#263238"/>
<path d="M487.162 183.819C482.459 184.085 477.986 176.615 482.308 169.941C486.631 163.268 493.987 164.709 493.987 164.709C493.987 164.709 492.014 168.539 498.574 167.742C505.134 166.946 517.325 168.766 521.592 173.352C526.848 179.003 523.675 190.113 515.75 187.383C507.826 184.653 487.162 183.819 487.162 183.819Z" fill="#263238"/>
<path d="M485.899 183.997C484.136 183.997 482.275 183.066 480.827 181.403C478.883 179.171 477.455 175.182 479.275 170.686C479.346 170.511 479.545 170.427 479.72 170.498C479.895 170.569 479.979 170.767 479.908 170.941C478.203 175.151 479.531 178.873 481.343 180.953C482.945 182.793 485.072 183.653 486.897 183.192C487.08 183.144 487.264 183.258 487.312 183.439C487.358 183.622 487.246 183.808 487.063 183.853C486.684 183.951 486.294 183.997 485.899 183.997Z" fill="#263238"/>
<path d="M497.421 195.561C497.671 199.02 496.351 202.29 494.516 204.44C491.757 207.674 488.143 205.719 487.037 201.829C486.042 198.328 486.28 192.425 489.949 190.618C493.565 188.838 497.135 191.606 497.421 195.561Z" fill="#B55B52"/>
<path d="M455.967 392.528H504.907C508.83 368.85 506.643 351.04 506.643 351.04H461.731C461.731 351.04 459.202 368.558 455.967 392.528Z" fill="#0EA5E9"/>
</svg>
