<svg width="300" height="300" viewBox="0 0 300 300" fill="none" xmlns="http://www.w3.org/2000/svg">
<g opacity="0.1">
<path d="M298.468 3.79688H183.071L166.245 23.0771V94.1895H60.3381C54.3564 94.1895 49.5078 99.2395 49.5078 105.47V246.756C49.5078 252.986 54.3564 258.037 60.3381 258.037H240.252V300H297.563V201.266H274.672V197.238H298.468C299.315 197.238 300 196.525 300 195.644V172.358V161.312V5.39236C300 4.51146 299.315 3.79688 298.468 3.79688Z" fill="black"/>
<path d="M40.9357 248.318H35.4892V235.531C35.4892 233.941 34.2504 232.65 32.7229 232.65H28.6267V73.3299H55.5239V80.3536H101.357L122.069 58.7413L101.357 37.1297H74.4598V30.1061H28.6267V24.9286C28.6267 23.0096 27.1327 21.4536 25.2903 21.4536H24.7689H24.2476C22.4051 21.4536 20.9112 23.0096 20.9112 24.9286V232.65H16.815C15.2868 232.65 14.0487 233.941 14.0487 235.531V248.318H8.60221C7.0747 248.318 5.83594 249.608 5.83594 251.199V252.1C5.83594 253.691 7.0747 254.981 8.60221 254.981H16.8157H24.7697H32.7236H40.9371C42.4646 254.981 43.7034 253.691 43.7034 252.1V251.199C43.7027 249.608 42.4639 248.318 40.9357 248.318Z" fill="black"/>
</g>
<path d="M177.239 0L160.414 19.2802C160.414 19.2802 179.89 23.6034 179.89 23.4227C179.89 23.2435 177.239 0 177.239 0Z" fill="#0EA5E9"/>
<path d="M175.707 19.2559C176.778 19.2559 177.239 18.5611 177.239 17.6604V0H292.637C293.484 0 294.169 0.714586 294.169 1.59548V191.847C294.169 192.728 293.484 193.441 292.637 193.441H161.946C161.099 193.441 160.414 192.728 160.414 191.847V19.281L175.707 19.2559Z" fill="#E9ECED"/>
<path d="M199.054 46.2819H198.794V21.0146C185.396 21.0146 174.535 32.3273 174.535 46.2819C174.535 60.2372 185.396 71.5499 198.794 71.5499C212.169 71.5499 223.014 60.2767 223.052 46.3556H199.054V46.2819Z" fill="#0EA5E9"/>
<path d="M222.901 43.4463C221.649 31.7843 212.777 22.5235 201.59 21.187V43.4463H222.901Z" fill="#F36D6D"/>
<path d="M280.637 32.3169H235.68V34.289H280.637V32.3169Z" fill="#0EA5E9"/>
<path d="M275.104 38.8062H235.68V40.7783H275.104V38.8062Z" fill="#0EA5E9"/>
<path d="M267.034 45.2959H235.68V47.268H267.034V45.2959Z" fill="#0EA5E9"/>
<path d="M272.798 22.1675H235.68V27.3253H272.798V22.1675Z" fill="#0284C7"/>
<path d="M223.052 114.86C223.052 128.814 212.191 140.127 198.793 140.127C185.396 140.127 174.535 128.814 174.535 114.86C174.535 100.906 185.396 89.5938 198.793 89.5938C212.19 89.5938 223.052 100.906 223.052 114.86Z" fill="#0EA5E9"/>
<path d="M223.052 114.86C223.052 124.821 217.519 133.434 209.478 137.55L198.793 114.86H223.052Z" fill="#303E51"/>
<path d="M198.793 114.86C198.793 114.86 204.226 90.0775 206.706 90.9683C212.422 93.0209 217.17 97.2363 220.05 102.676C221.963 106.288 198.793 114.86 198.793 114.86Z" fill="#F3CC65"/>
<path d="M198.793 114.86V89.5938C203.768 89.5938 208.394 91.1535 212.244 93.8289L198.793 114.86Z" fill="#0284C7"/>
<path d="M223.052 114.86H198.793L218.845 100.635C221.5 104.687 223.052 109.585 223.052 114.86Z" fill="#F36D6D"/>
<path d="M240.982 92.3179H235.68V97.8409H240.982V92.3179Z" fill="#0EA5E9"/>
<path d="M280.634 92.3984H243.285V97.9215H280.634V92.3984Z" fill="#0EA5E9"/>
<path d="M280.634 102.504H243.285V108.026H280.634V102.504Z" fill="#0EA5E9"/>
<path d="M280.634 112.608H243.285V118.131H280.634V112.608Z" fill="#0EA5E9"/>
<path d="M280.634 122.714H243.285V128.238H280.634V122.714Z" fill="#0EA5E9"/>
<path d="M280.634 132.819H243.285V138.342H280.634V132.819Z" fill="#0EA5E9"/>
<path d="M240.982 102.424H235.68V107.946H240.982V102.424Z" fill="#303E51"/>
<path d="M240.982 122.633H235.68V128.157H240.982V122.633Z" fill="#0284C7"/>
<path d="M240.982 112.529H235.68V118.052H240.982V112.529Z" fill="#F36D6D"/>
<path d="M240.982 132.738H235.68V138.261H240.982V132.738Z" fill="#F3CC65"/>
<path d="M294.169 157.515H160.414V168.56H294.169V157.515Z" fill="#0284C7"/>
<path d="M277.868 172.885H174.727V175.286H277.868V172.885Z" fill="#0EA5E9"/>
<path d="M277.868 161.837H174.727V164.238H277.868V161.837Z" fill="#0EA5E9"/>
<path d="M277.868 177.928H174.727V180.329H277.868V177.928Z" fill="#0EA5E9"/>
<path d="M277.868 182.97H174.727V185.371H277.868V182.97Z" fill="#0EA5E9"/>
<path d="M258.005 90.3926C263.987 90.3926 268.836 95.4433 268.836 101.673V242.959C268.836 249.189 263.987 254.24 258.006 254.24H54.5029C48.5212 254.24 43.6719 249.189 43.6719 242.959V101.673C43.6719 95.4433 48.5212 90.3926 54.5029 90.3926H258.005Z" fill="#303E51"/>
<path d="M245.361 100.879H62.5859V243.751H245.361V100.879Z" fill="#4B647C"/>
<mask id="mask0_28013_199" style="mask-type:luminance" maskUnits="userSpaceOnUse" x="62" y="100" width="184" height="144">
<path d="M245.361 100.879H62.5859V243.751H245.361V100.879Z" fill="white"/>
</mask>
<g mask="url(#mask0_28013_199)">
<path d="M59.3088 246.3C58.4411 246.3 57.7383 245.541 57.7383 244.605V100.024C57.7383 99.088 58.4411 98.3286 59.3088 98.3286H246.543C247.41 98.3286 248.113 99.088 248.113 100.024V244.605C248.113 245.541 247.41 246.3 246.543 246.3H59.3088Z" fill="#F7F7F7"/>
<path d="M85.4544 135.039H77.0586V181.67H85.4544V135.039Z" fill="#0EA5E9"/>
<path d="M99.356 135.039H90.9609V181.67H99.356V135.039Z" fill="#0EA5E9"/>
<path d="M113.263 135.039H104.867V181.67H113.263V135.039Z" fill="#0EA5E9"/>
<path d="M127.165 135.039H118.77V181.67H127.165V135.039Z" fill="#0EA5E9"/>
<path d="M141.067 135.039H132.672V181.67H141.067V135.039Z" fill="#0EA5E9"/>
<path d="M154.97 135.039H146.574V181.67H154.97V135.039Z" fill="#0EA5E9"/>
<path d="M85.4544 164.016H77.0586V181.67H85.4544V164.016Z" fill="#F36D6D"/>
<path d="M99.356 153.044H90.9609V181.67H99.356V153.044Z" fill="#F36D6D"/>
<path d="M113.263 158.353H104.867V181.669H113.263V158.353Z" fill="#F36D6D"/>
<path d="M127.165 162.017H118.77V181.669H127.165V162.017Z" fill="#F36D6D"/>
<path d="M141.067 148.768H132.672V181.67H141.067V148.768Z" fill="#F36D6D"/>
<path d="M154.97 155.022H146.574V181.67H154.97V155.022Z" fill="#F36D6D"/>
<path d="M229.159 114.699H77.0586V128.207H229.159V114.699Z" fill="#0284C7"/>
<path d="M229.163 135.039H166.5V146.344H229.163V135.039Z" fill="#0284C7"/>
<path d="M229.165 202.831H174.703V212.476H229.165V202.831Z" fill="#F36D6D"/>
<path d="M229.163 153.044H166.5V156.226H229.163V153.044Z" fill="#0EA5E9"/>
<path d="M229.163 159.335H166.5V162.516H229.163V159.335Z" fill="#0EA5E9"/>
<path d="M229.163 171.917H166.5V175.099H229.163V171.917Z" fill="#0EA5E9"/>
<path d="M229.159 189.903H77.0586V193.084H229.159V189.903Z" fill="#0EA5E9"/>
<path d="M229.159 196.367H77.0586V199.548H229.159V196.367Z" fill="#0EA5E9"/>
<path d="M229.159 217.695H77.0586V220.876H229.159V217.695Z" fill="#0EA5E9"/>
<path d="M229.159 224.098H77.0586V227.279H229.159V224.098Z" fill="#0EA5E9"/>
<path d="M166.496 202.831H77.0586V206.012H166.496V202.831Z" fill="#0284C7"/>
<path d="M166.496 209.294H77.0586V212.475H166.496V209.294Z" fill="#0EA5E9"/>
<path d="M229.163 165.627H166.5V168.807H229.163V165.627Z" fill="#0EA5E9"/>
<path d="M186.513 178.208H166.5V181.389H186.513V178.208Z" fill="#0EA5E9"/>
</g>
<path opacity="0.5" d="M67.7598 100.879H62.5859V243.751H67.7598V100.879Z" fill="#404049"/>
<path d="M257.752 166.774C260.689 166.774 263.071 169.255 263.071 172.316C263.071 175.375 260.689 177.856 257.752 177.856C254.813 177.856 252.434 175.375 252.434 172.316C252.434 169.255 254.813 166.774 257.752 166.774Z" fill="#222E3A"/>
<path opacity="0.2" d="M62.5859 192.271V100.879H183.499L62.5859 192.271Z" fill="white"/>
<path d="M291.733 197.469H234.422V296.203H291.733V197.469Z" fill="#404049"/>
<path d="M284.522 207.605H241.629V219.619H284.522V207.605Z" fill="#4B647C"/>
<path d="M287.227 230.882H238.926V291.698H287.227V230.882Z" fill="#31313A"/>
<path d="M247.754 232.57H240.547V238.201H247.754V232.57Z" fill="#DAA318"/>
<path d="M257.486 232.57H250.277V238.201H257.486V232.57Z" fill="#DAA318"/>
<path d="M247.754 242.705H240.547V248.337H247.754V242.705Z" fill="#303E51"/>
<path d="M257.217 242.705H250.008V248.337H257.217V242.705Z" fill="#303E51"/>
<path d="M266.677 242.705H259.469V248.337H266.677V242.705Z" fill="#303E51"/>
<path d="M276.138 242.705H268.93V248.337H276.138V242.705Z" fill="#303E51"/>
<path d="M285.599 242.705H278.391V248.337H285.599V242.705Z" fill="#303E51"/>
<path d="M276.138 253.124H268.93V258.756H276.138V253.124Z" fill="#303E51"/>
<path d="M285.599 253.124H278.391V258.756H285.599V253.124Z" fill="#303E51"/>
<path d="M247.754 253.124H240.547V258.756H247.754V253.124Z" fill="#4B647C"/>
<path d="M257.217 253.124H250.008V258.756H257.217V253.124Z" fill="#4B647C"/>
<path d="M266.677 253.124H259.469V258.756H266.677V253.124Z" fill="#4B647C"/>
<path d="M276.138 263.541H268.93V269.173H276.138V263.541Z" fill="#303E51"/>
<path d="M285.599 263.541H278.391V269.173H285.599V263.541Z" fill="#303E51"/>
<path d="M247.754 263.541H240.547V269.173H247.754V263.541Z" fill="#4B647C"/>
<path d="M257.217 263.541H250.008V269.173H257.217V263.541Z" fill="#4B647C"/>
<path d="M266.677 263.541H259.469V269.173H266.677V263.541Z" fill="#4B647C"/>
<path d="M276.138 273.96H268.93V279.592H276.138V273.96Z" fill="#BB4C3D"/>
<path d="M285.599 273.96H278.391V279.592H285.599V273.96Z" fill="#303E51"/>
<path d="M247.754 273.96H240.547V279.592H247.754V273.96Z" fill="#4B647C"/>
<path d="M257.217 273.96H250.008V279.592H257.217V273.96Z" fill="#4B647C"/>
<path d="M266.677 273.96H259.469V279.592H266.677V273.96Z" fill="#4B647C"/>
<path d="M276.138 284.378H268.93V290.009H276.138V284.378Z" fill="#3A7FB3"/>
<path d="M285.599 284.378H278.391V290.009H285.599V284.378Z" fill="#303E51"/>
<path d="M247.754 284.378H240.547V290.009H247.754V284.378Z" fill="#4B647C"/>
<path d="M257.217 284.378H250.008V290.009H257.217V284.378Z" fill="#4B647C"/>
<path d="M266.677 284.378H259.469V290.009H266.677V284.378Z" fill="#303E51"/>
<path d="M35.0997 244.521H29.6532V231.734C29.6532 230.143 28.4145 228.853 26.887 228.853H22.7908V21.1307C22.7908 19.2117 21.2968 17.6558 19.4543 17.6558H18.4117C16.5692 17.6558 15.0752 19.2117 15.0752 21.1307V228.852H10.9791C9.45083 228.852 8.21278 230.143 8.21278 231.734V244.52H2.76627C1.23877 244.52 0 245.81 0 247.401V248.302C0 249.893 1.23877 251.183 2.76627 251.183H10.9798H26.8877H35.1012C36.6287 251.183 37.8675 249.893 37.8675 248.302V247.401C37.8668 245.811 36.628 244.521 35.0997 244.521Z" fill="#E9ECED"/>
<path d="M18.933 17.6558H18.4117C16.5692 17.6558 15.0753 19.2117 15.0753 21.1307V228.852H10.9791C9.45083 228.852 8.21279 230.143 8.21279 231.734V244.52H2.76628C1.23878 244.52 0 245.81 0 247.401V248.302C0 249.893 1.23878 251.183 2.76628 251.183H10.9798H18.9337L18.933 17.6558Z" fill="#CBCFD1"/>
<path d="M95.5199 76.5563H49.6875V33.3325H95.5199L116.232 54.944L95.5199 76.5563Z" fill="#E26464"/>
<path d="M68.6234 69.5327L49.6875 76.5563V33.3325H68.6234V69.5327Z" fill="#BF5858"/>
<path d="M68.6261 26.3091H22.793V69.5337H68.6261V26.3091Z" fill="#F36D6D"/>
</svg>
