<svg width="300" height="300" viewBox="0 0 300 300" fill="none" xmlns="http://www.w3.org/2000/svg">
<g clip-path="url(#clip0_28013_322)">
<path d="M300 0H0V300H300V0Z" fill="white"/>
<path d="M159.604 47.4854C106.058 37.3118 52.1009 118.42 36.2318 194.016C20.3627 269.613 148.586 279.038 206.331 270.182C238.923 265.183 241.021 197.717 232.668 146.454C226.222 106.895 212.416 83.2419 208.662 66.4913C200.042 28.0341 180.632 51.4807 159.604 47.4854Z" fill="#E7ECFF"/>
<path d="M216.666 61.1911C210.54 66.3212 241.443 136.734 238.542 186.634C235.641 236.533 281.947 222.678 278.534 150.651C275.122 78.6238 229.048 45.7713 216.666 61.1911C222.793 56.0612 204.284 76.6111 216.666 61.1911Z" fill="#E7ECFF"/>
<path d="M53.2395 118.645C34.2363 117.992 40.0153 57.9539 53.2395 38.7618C66.4638 19.5698 107.053 38.0923 112.226 45.031C117.399 51.9698 77.9817 87.3647 68.5115 102.778C59.0412 118.191 58.188 118.815 53.2395 118.645Z" fill="#E7ECFF"/>
<mask id="mask0_28013_322" style="mask-type:luminance" maskUnits="userSpaceOnUse" x="0" y="0" width="300" height="300">
<path d="M300 0H0V300H300V0Z" fill="white"/>
</mask>
<g mask="url(#mask0_28013_322)">
<path d="M107.094 287.107V300H185.864C185.864 300 185.976 273.683 188.004 257.059C190.033 240.434 112.068 282.536 107.094 287.107Z" fill="url(#paint0_linear_28013_322)"/>
<path d="M177.773 113.174L246.304 118.035C246.304 118.035 248.862 65.4589 254.831 36.6573C254.831 36.6573 211.915 31.9221 181.789 36.6573C181.789 36.6573 178.022 71.8393 177.773 113.174Z" fill="url(#paint1_linear_28013_322)"/>
<path d="M256.492 38.8245L254.831 36.6572C254.831 36.6572 246.873 78.1504 246.305 118.035H248.01C248.01 118.035 247.966 81.7402 256.492 38.8245Z" fill="url(#paint2_linear_28013_322)"/>
<path opacity="0.2" d="M185.382 85.1333C179.648 87.9408 181.302 41.866 185.382 37.8871C189.462 33.9082 248.578 36.7502 250.378 38.3608C252.178 39.9712 249.43 58.2555 247.536 59.1081C245.641 59.9607 239.018 62.0201 229.54 73.4957C220.062 84.9713 208.788 75.0856 202.82 74.1074C196.851 73.1292 186.986 84.348 185.382 85.1333Z" fill="#A492F9"/>
<path d="M232.852 53.9861C226.416 50.7851 217.642 62.4433 222.878 71.86C228.115 81.2768 236.926 68.298 237.683 63.5136C238.441 58.7295 235.315 55.2112 232.852 53.9861Z" fill="white"/>
<path d="M242.893 113.173C241.382 117.405 200.356 107.991 185.909 110.455C171.462 112.919 185.846 90.8147 191.728 83.4878C197.609 76.1607 205.756 93.2833 212.956 97.1326C220.156 100.982 236.346 65.7126 244.03 60.7111C251.714 55.7095 244.314 109.194 242.893 113.173Z" fill="#C5ABE3"/>
<path opacity="0.5" d="M216.793 111.149C210.54 106.98 231.33 74.6816 238.84 71.0071C246.351 67.3327 243.083 97.2718 239.814 106.105C236.546 114.938 216.793 111.149 216.793 111.149Z" fill="#C5ABE3"/>
<path d="M186.984 66.402C183.384 66.9704 190.872 64.0556 203.139 58.6446C215.405 53.2336 217.015 59.1073 223.268 61.1915C229.52 63.2757 234.826 60.1229 238.805 60.2309C242.784 60.3388 233.405 62.6125 216.826 62.423C200.247 62.2335 186.984 66.402 186.984 66.402Z" fill="#4F63F9"/>
<path d="M201.029 69.5642C197.707 68.335 214.926 66.2168 224.223 64.0155C233.519 61.8143 234.787 65.7844 235.759 65.9665C236.73 66.1487 223.07 65.6512 214.383 66.4916C205.696 67.3321 201.89 69.8828 201.029 69.5642Z" fill="#4F63F9"/>
<path d="M181.289 44.248C182.76 47.8862 183.065 37.0603 196.836 35.7678C210.608 34.4754 247.743 38.2279 250.76 39.1465C253.776 40.0649 254.345 37.0334 254.345 37.0334C254.345 37.0334 218.202 34.3334 202.902 34.9019C187.602 35.4703 182.547 36.3667 182.108 36.986C181.669 37.6053 181.289 44.248 181.289 44.248Z" fill="#93C2FF"/>
<path d="M211.622 147.455C209.451 148.255 208.32 158.108 210.827 164.266C213.335 170.424 220.105 176.28 224.609 178.382C229.112 180.483 224.514 158.298 220.061 152.992C215.609 147.687 211.622 147.455 211.622 147.455Z" fill="#4B81EE"/>
<path d="M129.003 128.449C126.746 130.161 122.53 138.592 115.851 140.724C109.173 142.856 104.332 139.335 101.423 143.938C98.5147 148.54 116.704 181.65 119.404 216.892C122.104 252.135 106.473 291.498 106.473 291.498C106.473 291.498 127.586 293.374 136.315 294.056C155.736 295.571 178.662 284.819 189.462 279.845C189.988 273.57 182.641 173.55 179.988 151.192C177.336 128.835 177.715 128.266 167.104 126.182C156.494 124.098 149.22 121.474 149.22 121.474L129.003 128.449Z" fill="url(#paint3_linear_28013_322)"/>
<path opacity="0.5" d="M128.802 290.136C127.219 289.508 140.474 275.156 147.204 261.94C153.934 248.724 158.34 233.519 159.761 232.808C161.182 232.098 170.282 261.656 171.842 274.73C173.403 287.803 149.285 296.022 128.802 290.136Z" fill="#E392AD"/>
<path opacity="0.5" d="M129.186 146.455C128.713 147.378 132.415 171.268 133.783 172.891C135.151 174.513 145.388 171.429 153.51 163.839C161.631 156.249 157.677 143.917 156.114 143.435C154.551 142.952 152.248 152.022 146.546 153.25C137.126 155.28 130.037 144.793 129.186 146.455Z" fill="#FFBB9A"/>
<path d="M127.289 138.891C127.289 138.891 136.229 221.582 143.946 241.477C151.662 261.371 153.231 268.193 151.594 271.034C149.957 273.877 133.952 258.893 130.302 207.837C126.652 156.782 127.289 138.891 127.289 138.891Z" fill="url(#paint4_linear_28013_322)"/>
<path d="M137.127 291.682C128.49 292.111 153.253 259.098 161.41 222.151C169.568 185.203 159.973 149.108 159.973 149.108C159.973 149.108 170.37 186.263 164.095 230.781C157.821 275.298 142.96 291.391 137.127 291.682Z" fill="url(#paint5_linear_28013_322)"/>
<path d="M203.102 204.811C200.545 205.238 190.457 194.438 185.905 182.791C185.905 182.791 186.955 192.023 188.845 204.93C188.845 204.945 188.852 204.953 188.845 204.961C188.852 204.975 188.852 204.983 188.852 204.983C189.31 208.14 189.827 211.531 190.39 215.048C190.39 215.048 190.39 215.055 190.39 215.07C191.402 221.408 192.565 228.188 193.862 234.938C198.842 260.806 193.157 269.468 191.027 271.178C188.89 272.88 179.23 274.448 167.005 282.548C162.415 285.593 159.632 286.208 158.042 285.24C157.93 285.173 157.825 285.098 157.72 285.008C157.225 284.595 156.865 284.003 156.625 283.253C156.617 283.223 156.61 283.193 156.602 283.163C155.77 280.486 156.347 275.97 157.202 271.178C159.047 260.806 166.727 230.821 165.872 196.005C165.017 161.19 155.425 131.205 154.007 128.145C152.582 125.093 149.995 124.261 149.995 124.261L149.215 121.478C151.187 120.878 164.162 125.588 165.587 125.363C167.005 125.138 181.787 120.03 192.4 121.426C192.4 121.426 196.562 123.811 196.847 142.291C196.847 142.291 201.685 152.521 204.805 159.196C207.932 165.878 205.66 204.39 203.102 204.811Z" fill="url(#paint6_linear_28013_322)"/>
<path d="M149.995 124.259C149.995 124.259 153.745 129.973 156.872 141.483C159.998 152.993 162.21 244.896 162.21 244.896C162.21 244.896 168.517 210.048 166.345 180.94C164.174 151.832 156.967 127.925 154.882 124.259C152.798 120.593 149.219 121.474 149.219 121.474L149.995 124.259Z" fill="#E392AD"/>
<path d="M126.304 278.085C125.606 280.2 124.811 281.888 123.904 283.065C117.079 291.93 104.449 291.99 98.9364 291.533C98.8914 291.533 98.8539 291.533 98.8239 291.525H98.8164C97.2114 291.39 96.244 291.21 96.244 291.21C97.2639 289.695 98.2239 288 99.1464 286.148C99.1539 286.133 99.1614 286.11 99.1689 286.095C99.8439 284.738 100.496 283.298 101.111 281.783C106.309 269.168 109.804 251.498 112.121 234.96C112.129 234.908 112.136 234.855 112.144 234.803C112.474 232.455 112.781 230.138 113.059 227.865C115.594 207.458 116.359 190.305 116.411 188.978C116.194 190.733 112.766 218.843 109.744 222.008C106.616 225.278 88.9913 231.81 87.5738 230.25C86.1488 228.69 80.7488 214.62 84.7314 196.568C88.7063 178.523 99.5064 161.048 99.5064 161.048C96.5289 150.105 97.1889 143.94 97.1889 143.94C107.329 137.25 118.031 138.495 120.304 137.078C122.576 135.653 127.407 124.763 128.442 125.385L129.004 128.445C129.004 128.445 127.789 131.205 127.504 133.62C127.219 136.035 126.934 158.768 129.207 184.538C131.254 207.683 132.529 259.425 126.304 278.085Z" fill="url(#paint7_linear_28013_322)"/>
<path d="M128.441 125.389C128.441 125.389 124.954 136.447 125.187 150.546C125.42 164.645 127.608 238.919 127.84 258.245C128.072 277.571 121.48 285.659 121.48 285.659C121.48 285.659 130.681 282.119 132.882 251.613C135.083 221.108 127.702 151.328 127.315 141.483C126.928 131.637 129.845 129.19 129.845 129.19L128.441 125.389Z" fill="#E392AD"/>
<path d="M128.444 125.389C128.444 125.389 125.975 128.587 121.483 135.863C116.99 143.14 110.004 152.592 110.004 153.729C110.004 156.28 114.426 156.28 116.156 157.066C117.886 157.852 113.276 164.788 112.917 169.619C112.558 174.451 120.259 219.734 122.817 235.366C125.375 250.998 127.008 266.077 127.249 266.345C127.49 266.613 128.975 214.334 127.388 186.056C125.801 157.777 123.919 140.298 125.428 133.192C126.938 126.087 128.444 125.389 128.444 125.389Z" fill="url(#paint8_linear_28013_322)"/>
<path d="M152.016 121.71C152.016 121.71 163.029 125.803 172.029 133.003C181.029 140.203 179.514 142.841 179.608 143.938C179.703 145.035 173.261 148.73 172.787 149.108C172.313 149.487 177.894 157.161 179.651 167.203C181.408 177.245 164.829 244.508 163.029 249.624C161.229 254.74 159.016 262.123 159.016 262.123C159.016 262.123 167.861 224.716 168.05 189.091C168.24 153.466 154.17 127.659 152.016 121.71Z" fill="url(#paint9_linear_28013_322)"/>
<path d="M112.348 233.614C111.73 238.465 128.805 234.14 143.043 195.868C148.105 182.261 159.433 189.656 165.022 187.098C170.612 184.54 171.846 170.329 171.846 170.329C171.846 170.329 153.067 169.515 144.644 174.3C136.222 179.085 112.82 204.245 112.82 204.245L112.806 227.955L112.348 233.614Z" fill="#D07CAD"/>
<path d="M111.306 222.719C111.437 232.068 124.948 221.156 126.582 205.95C127.694 195.604 127.079 190.319 127.079 190.319C127.079 190.319 125.019 184.919 119.903 187.193C114.787 189.466 111.235 217.674 111.306 222.719Z" fill="#4B81EE"/>
<path d="M179.598 142.202C179.705 144.514 175.253 146.551 172.221 146.456C169.19 146.361 161.07 145.208 161.07 145.208C161.07 145.208 161.239 145.975 161.233 145.945C161.226 145.915 165.921 145.776 168.479 146.661C171.037 147.545 172.79 149.108 172.79 149.108C172.79 149.108 178.142 147.498 180.179 145.887C182.216 144.277 179.598 142.202 179.598 142.202Z" fill="#B588AD"/>
<path d="M159.177 156.645C159.154 156.668 159.139 156.69 159.124 156.713L159.147 156.705L159.207 156.69C160.062 156.533 167.367 155.16 168.499 155.288C169.707 155.43 170.562 158.91 170.607 159.338C170.659 159.765 169.804 160.095 169.804 160.095C169.804 160.095 170.607 160.005 171.274 160.148C171.934 160.29 172.504 164.078 172.459 164.738C172.407 165.405 171.844 165.637 171.844 165.637C171.844 165.637 172.744 167.722 172.744 169.62C172.744 171.51 168.357 174.405 166.797 177.742C166.797 177.742 163.174 178.522 162.604 176.04C162.604 176.04 156.207 181.935 153.867 183C153.162 183.323 152.202 183.368 151.137 183.3C148.647 183.135 145.549 182.318 143.562 182.715C140.719 183.285 121.392 203.1 114.094 209.543C114.094 209.543 112.534 196.38 120.964 186.6C120.964 186.6 129.064 179.52 136.317 173.55C143.562 167.58 150.454 156.143 150.949 155.573C151.452 155.003 156.567 152.73 159.477 147.263C159.484 147.263 159.484 147.263 159.492 147.255C159.769 147.113 164.239 144.833 166.587 142.215C169.002 139.515 170.209 137.955 171.769 137.67C173.337 137.385 174.754 138.593 175.249 140.865C175.497 141.998 174.934 144.008 173.329 146.01C171.739 148.005 169.107 149.993 165.237 151.095C165.237 151.095 161.389 153.548 159.177 156.645Z" fill="url(#paint10_linear_28013_322)"/>
<path d="M173.329 146.01C171.739 148.005 169.107 149.993 165.237 151.095C165.237 151.095 161.389 153.548 159.177 156.645L159.574 156.57L159.207 156.69L159.147 156.705L159.124 156.713C159.124 156.713 154.834 157.395 154.407 157.538C154.354 157.553 154.272 157.553 154.167 157.545H154.152C153.372 157.44 151.369 156.593 150.949 155.573C151.452 155.003 156.567 152.73 159.477 147.263C159.484 147.263 159.484 147.263 159.492 147.255C162.559 146.37 162.957 149.333 163.834 150.39C164.719 151.448 173.329 146.01 173.329 146.01Z" fill="url(#paint11_linear_28013_322)"/>
<path opacity="0.5" d="M172.744 169.62C172.744 171.51 168.357 174.405 166.797 177.742C166.797 177.742 163.174 178.522 162.604 176.04C162.604 176.04 156.207 181.935 153.867 183C153.162 183.323 152.202 183.368 151.137 183.3C154.504 183.45 161.607 174.69 162.507 171.653C163.407 168.623 161.367 167.393 160.662 166.868C159.949 166.35 159.342 162.465 158.014 161.895C156.687 161.333 156.259 158.768 155.592 158.348C154.932 157.92 154.129 157.553 154.129 157.553L154.152 157.545H154.167L159.177 156.645L159.574 156.57L159.207 156.69C160.062 156.533 167.367 155.16 168.499 155.288C169.707 155.43 170.562 158.91 170.607 159.338C170.659 159.765 169.804 160.095 169.804 160.095C169.804 160.095 170.607 160.005 171.274 160.148C171.934 160.29 172.504 164.078 172.459 164.738C172.407 165.405 171.844 165.638 171.844 165.638C171.844 165.638 172.744 167.723 172.744 169.62Z" fill="url(#paint12_linear_28013_322)"/>
<path d="M167.29 141.425C167.29 141.425 166.276 142.571 166.512 143.732C166.749 144.892 171.354 144.111 173.329 142.737C175.304 141.363 174.984 139.659 173.795 138.986C172.607 138.313 167.29 141.425 167.29 141.425Z" fill="#E392AD"/>
<path d="M171.663 137.882C170.491 137.704 166.121 141.704 166.654 143.434C167.187 145.165 173.759 143.069 174.47 141.008C175.181 138.948 171.663 137.882 171.663 137.882Z" fill="#FFC4B1"/>
<path d="M170.586 138.258C170.586 138.258 172.527 138.758 173.474 139.705C174.421 140.653 174.208 141.176 174.398 141.175C174.587 141.174 175.218 139.765 173.328 138.669C171.437 137.574 170.586 138.258 170.586 138.258Z" fill="#FFE4DB"/>
<path d="M166.717 142.537C166.717 142.537 167.532 141.761 168.148 142.202C168.764 142.642 168.534 144.055 168.534 144.055C168.534 144.055 166.087 144.324 166.717 142.537Z" fill="#FFE4DB"/>
<path opacity="0.5" d="M162.84 150C163.518 151.921 159.089 147.525 160.041 147.132C160.993 146.74 162.319 148.524 162.84 150Z" fill="#E392AD"/>
<path d="M170.605 159.338C170.605 159.338 163.314 159.055 157.582 161.187L169.803 160.095C169.803 160.095 170.412 159.667 170.605 159.338Z" fill="#E392AD"/>
<path d="M171.844 165.638C171.844 165.638 167.91 164.977 160.414 166.556L171.844 165.638Z" fill="#E392AD"/>
<path d="M162.605 176.04C162.605 176.04 166.301 172.875 167.26 172.378C168.219 171.881 170.457 171.667 170.457 171.667C170.457 171.667 167.58 172.342 167.366 172.556C167.153 172.769 169.995 172.769 169.995 172.769C169.995 172.769 167.731 173.242 166.803 173.432C165.874 173.621 165.093 174.19 164.927 174.593C164.761 174.995 164.936 176.615 164.096 176.89C163.257 177.165 162.605 176.04 162.605 176.04Z" fill="#E392AD"/>
<path opacity="0.3" d="M135.604 176.682C134.979 181.989 144.21 181.237 149.997 180.023C155.783 178.808 160.166 170.996 160.414 168.932C160.662 166.868 159.241 164.1 157.583 162.324C155.926 160.548 154.724 159.177 152.941 157.55C151.159 155.923 147.997 160.932 144.643 165.5C141.289 170.069 135.889 174.272 135.604 176.682Z" fill="white"/>
<path opacity="0.5" d="M153.364 158.363C151.978 158.606 151.41 161.471 151.41 161.471C151.41 161.471 153.515 160.074 153.364 158.363Z" fill="url(#paint13_linear_28013_322)"/>
<path opacity="0.5" d="M157.1 161.471C157.1 161.471 154.258 162.146 154.151 164.384C154.045 166.623 157.1 161.471 157.1 161.471Z" fill="url(#paint14_linear_28013_322)"/>
<path opacity="0.5" d="M159.194 166.374C159.194 166.374 157.186 167.591 156.43 169.069C158.223 168.908 159.194 166.374 159.194 166.374Z" fill="url(#paint15_linear_28013_322)"/>
<path d="M124.57 110.834C124.57 110.834 128.631 121.682 130.129 136.745C130.129 136.745 136.128 144.561 144.086 143.898C152.044 143.234 151.949 131.582 151.949 131.582C151.949 131.582 148.667 118.747 146.566 112.849L124.57 110.834Z" fill="url(#paint16_linear_28013_322)"/>
<path d="M127.026 119.071C127.026 119.071 134.224 124.232 141.76 127.386C149.296 130.539 148.48 118.896 148.48 118.896L146.566 112.848C146.566 112.848 135.552 113.962 124.566 110.835L127.026 119.071Z" fill="#E392AD"/>
<path d="M126.095 111.39C122.428 110.495 132.786 127.547 138.791 133.611C144.797 139.674 141.733 134.152 138.791 127.046C135.85 119.941 132.596 112.57 131.152 112.296C129.708 112.021 126.095 111.39 126.095 111.39Z" fill="url(#paint17_linear_28013_322)"/>
<path d="M128.087 196.306C127.599 215.948 119.447 225.653 119.447 225.653C117.647 226.486 115.539 227.213 113.282 227.828C102.977 230.663 89.5816 231.346 88.1866 230.476C86.4841 229.418 84.1141 222.053 85.0591 210.781C86.0041 199.508 92.7841 186.623 97.1416 186.106C101.499 185.581 105.384 190.98 107.942 190.748C110.499 190.508 118.359 185.678 118.884 185.49C118.907 185.483 118.929 185.475 118.959 185.468C119.514 185.31 120.684 185.49 120.684 185.49L120.962 186.6C115.659 193.68 110.162 223.763 116.229 223.665C122.289 223.568 126.294 198.06 126.294 198.06L128.087 196.306Z" fill="url(#paint18_linear_28013_322)"/>
<path d="M231.183 116.963C231.183 116.963 228.205 129.69 226.975 131.768C225.745 133.853 224.445 134.584 223.117 137.629C221.79 140.682 221.86 167.108 217.69 179.993C213.528 192.878 199.338 174.27 199.338 174.27C199.338 174.27 211.81 154.62 213.843 137.138C213.933 136.388 214 135.638 214.045 134.895C214.045 134.895 205.135 132.188 204.265 129.188C204.258 129.165 204.25 129.15 204.25 129.135C204.25 129.128 204.25 129.128 204.243 129.12C203.95 127.965 203.703 126.548 203.425 125.01C203.425 125.01 203.425 125.003 203.418 124.995C202.968 122.498 202.428 119.715 201.49 117.368C201.4 117.143 201.303 116.918 201.205 116.693C199.615 113.123 196.848 109.53 196.848 108.368C196.848 107.138 200.163 104.865 203.958 107.61C206.538 109.485 206.83 111.623 206.913 113.333C206.943 114.128 206.935 114.833 207.085 115.38C207.303 116.153 207.783 116.58 208.248 116.813C208.818 117.09 209.358 117.09 209.358 117.09L209.26 115.478L231.183 116.963Z" fill="url(#paint19_linear_28013_322)"/>
<path d="M209.356 117.087C209.356 117.087 213.707 118.2 216.505 123.956C219.304 129.711 216.817 119.609 212.021 118.034C212.021 118.034 215.502 118.698 220.441 122.606C225.379 126.513 228.647 119.159 229.216 118.413C229.784 117.667 230.729 118.845 230.729 118.845L231.181 116.962L209.262 115.477L209.356 117.087Z" fill="url(#paint20_linear_28013_322)"/>
<path d="M213.846 137.138C213.936 136.388 214.004 135.638 214.049 134.895C214.049 134.895 205.139 132.188 204.269 129.188C204.261 129.165 204.254 129.15 204.254 129.135C205.896 131.123 218.721 134.708 219.396 135.563C219.921 136.23 217.349 137.37 213.846 137.138Z" fill="url(#paint21_linear_28013_322)"/>
<path d="M198.094 111.129C198.094 111.129 199.706 114.561 202.017 114.34C203.995 114.151 203.652 109.186 202.331 108.187C201.01 107.187 198.094 111.129 198.094 111.129Z" fill="#E392AD"/>
<path opacity="0.3" d="M203.427 125.01C203.427 125.01 203.427 125.003 203.419 124.995C202.97 122.498 202.43 119.715 201.492 117.368C201.402 117.143 201.305 116.918 201.207 116.693C204.349 118.095 206.33 112.658 206.33 112.658C206.33 112.658 206.502 112.568 206.915 113.333C206.945 114.128 206.937 114.833 207.087 115.38C207.305 116.153 207.785 116.58 208.25 116.813C209.652 121.238 204.267 129.188 203.427 125.01Z" fill="#E392AD"/>
<path d="M196.968 108.902C196.573 107.774 200.736 107.377 201.968 107.898C203.199 108.419 203.865 113.201 201.968 113.819C200.07 114.436 197.699 110.996 196.968 108.902Z" fill="#FFC4B1"/>
<path d="M197.144 109.355C197.144 109.355 197.421 108.466 199.694 108.182C201.968 107.898 202.797 109.077 202.797 109.077C202.797 109.077 202.856 107.161 199.197 107.671C195.538 108.182 197.144 109.355 197.144 109.355Z" fill="#FFE4DB"/>
<path d="M200.047 113.325C200.047 113.325 201.398 112.374 202.796 113.227C202.796 113.227 202.106 115.247 200.047 113.325Z" fill="#FFE4DB"/>
<path opacity="0.3" d="M205.853 129.782C204.037 128.288 208 122.156 208.963 119.171C209.927 116.187 216.985 121.445 218.832 128.787C220.679 136.129 209.595 132.861 205.853 129.782Z" fill="white"/>
<path d="M132.883 191.66L135.63 189.091C135.63 189.091 134.681 193.042 134.113 193.184C133.544 193.326 132.883 191.66 132.883 191.66Z" fill="#C2096F"/>
<path d="M229.818 179.1C229.683 179.4 229.533 179.708 229.368 180.023C224.561 189.165 207.648 204.405 205.376 204.885C203.036 205.38 198.558 204.248 194.223 195.645C189.888 187.05 192.018 164.385 196.143 160.763C200.261 157.14 202.961 162.608 205.661 157.988C207.243 155.28 208.623 151.493 209.771 149.055C210.581 147.323 211.271 146.28 211.826 146.79C211.826 146.79 210.018 151.853 210.963 158.108C211.916 164.363 223.001 179.235 224.988 176.678C226.976 174.128 221.006 155.505 221.006 155.505L221.096 152.813C227.568 167.603 229.818 179.1 229.818 179.1Z" fill="url(#paint22_linear_28013_322)"/>
<path d="M229.818 179.1C229.683 179.4 229.533 179.708 229.368 180.023C227.028 179.408 224.103 178.133 220.458 175.823C208.068 167.978 208.038 154.883 209.77 149.055C210.58 147.323 211.27 146.28 211.825 146.79C211.825 146.79 210.018 151.853 210.963 158.108C211.915 164.363 223 179.235 224.988 176.678C226.975 174.128 221.005 155.505 221.005 155.505L221.095 152.813C227.568 167.603 229.818 179.1 229.818 179.1Z" fill="#A4A6FF"/>
<path d="M223.61 145.53C223.595 145.583 223.58 145.643 223.565 145.695C222.432 149.535 219.335 172.89 219.335 172.89C205.857 160.853 211.452 148.103 211.452 148.103C212.127 143.895 212.27 140.513 212.345 140.085C212.412 139.658 213.485 139.673 213.485 139.673C213.485 139.673 213.207 141.735 213.717 142.568C216.395 146.978 222.86 145.268 222.762 143.753C222.665 142.238 222.425 142.2 222.425 142.2L222.545 140.978C222.545 140.978 224.645 141.841 223.61 145.53Z" fill="url(#paint23_linear_28013_322)"/>
<path d="M222.423 142.202L222.074 144.561C222.074 144.561 222.836 144.784 223.093 143.513C223.349 142.242 222.423 142.202 222.423 142.202Z" fill="#E33D6F"/>
<path d="M129.844 134.203C129.844 134.203 134.514 143.945 142.329 143.519C150.145 143.092 151.694 132.625 151.322 129.19L151.945 131.913C151.945 131.913 153.319 143.519 143.94 144.75C134.561 145.982 130.237 137.817 130.125 136.745C130.014 135.673 129.844 134.203 129.844 134.203Z" fill="#E392AD"/>
<path d="M125.187 150.546C125.187 150.546 117.344 156.604 116.953 156.853C116.562 157.101 111.091 155.254 110.309 154.259C109.528 153.264 110.309 155.929 111.73 157.386C113.152 158.842 116.54 157.854 116.536 157.953C116.531 158.052 116.271 159.256 116.271 159.256C116.271 159.256 117.38 156.343 121.642 153.549C124.305 151.803 125.187 151.773 125.187 151.773V150.546Z" fill="#B588AD"/>
<path d="M128.09 196.305C127.602 215.948 119.45 225.653 119.45 225.653C117.65 226.485 115.543 227.213 113.285 227.828C112.715 227.168 112.197 226.223 111.732 224.94C108.8 216.825 117.207 190.733 118.962 185.468C119.517 185.31 120.687 185.49 120.687 185.49L120.965 186.6C115.662 193.68 110.165 223.763 116.233 223.665C122.293 223.568 126.297 198.06 126.297 198.06L128.09 196.305Z" fill="#E392AD"/>
<path d="M137.127 187.718C137.127 187.718 135.169 193.013 133.662 194.993C133.302 195.465 132.972 195.75 132.694 195.72C131.269 195.578 113.727 213.053 113.727 213.053C113.727 213.053 115.287 194.175 120.964 186.6C120.964 186.6 127.534 180.833 129.162 178.568C131.074 175.92 132.372 176.835 132.372 176.835C132.372 176.835 128.644 184.635 133.474 192.736L135.627 189.091L137.127 187.718Z" fill="url(#paint24_linear_28013_322)"/>
<path opacity="0.8" d="M185.911 182.787C185.911 182.787 183.78 163.13 185.911 153.466C188.043 143.803 195.054 145.856 195.527 144.877C196.001 143.898 190.506 141.932 186.622 145.425C182.738 148.919 182.738 170.045 185.911 182.787Z" fill="url(#paint25_linear_28013_322)"/>
<path d="M196.852 142.287C192.731 141.435 190.316 148.54 186.479 148.114C182.642 147.687 189.917 123.746 192.4 121.422C196.095 125.363 196.671 137.099 196.732 138.517C196.793 139.935 196.852 142.287 196.852 142.287Z" fill="#E392AD"/>
<path d="M97.1899 143.938C98.6564 141.577 109.784 158.228 111.446 165.592C113.108 172.957 113.151 177.742 112.156 177.956C111.162 178.169 105.122 163.106 103.417 160.548C101.712 157.99 99.5089 161.045 99.5089 161.045C99.5089 161.045 96.4341 149.425 97.1899 143.938Z" fill="#E392AD"/>
<path opacity="0.8" d="M114.218 188.078C114.218 188.078 110.452 180.385 99.6523 180.023C99.6523 180.023 108.223 184.544 110.001 190.131L114.218 188.078Z" fill="url(#paint26_linear_28013_322)"/>
<path opacity="0.8" d="M110.45 189.94C110.45 189.94 109.304 191.038 107.943 190.748C106.581 190.457 101.172 185.776 97.1428 186.105C93.1137 186.434 89.5977 194.865 89.5977 194.865C89.5977 194.865 91.6342 187.291 97.0698 184.536C102.505 181.782 110.45 189.94 110.45 189.94Z" fill="url(#paint27_linear_28013_322)"/>
<path opacity="0.8" d="M90.5586 201.119C90.5586 201.119 94.6388 190.686 107.093 190.645L105.555 189.417C105.555 189.417 93.4955 187.003 90.5586 201.119Z" fill="url(#paint28_linear_28013_322)"/>
<path opacity="0.8" d="M204.808 159.198C203.41 159.908 194.718 165.024 194.15 177.387C194.15 177.387 194.098 167.919 197.348 163.745C200.597 159.572 202.453 159.93 202.453 159.93C202.453 159.93 197.845 159.034 195.145 162.064C192.445 165.095 192.122 174.955 192.122 174.955C192.122 174.955 190.313 166.419 194.434 159.256C198.555 152.093 204.269 158.047 204.269 158.047L204.808 159.198Z" fill="url(#paint29_linear_28013_322)"/>
<path d="M185.909 182.787C185.909 182.787 181.598 177.529 181.314 170.519C181.03 163.508 185.381 155.726 185.381 155.726C185.381 155.726 183.019 168.529 185.909 182.787Z" fill="#E392AD"/>
<path opacity="0.8" d="M200.926 203.916C194.222 195.645 219.587 184.051 223.82 183.139C228.053 182.227 218.25 195.142 211.812 200.014C205.375 204.886 203.521 206.057 200.926 203.916Z" fill="url(#paint30_linear_28013_322)"/>
<path opacity="0.5" d="M191.029 271.178C188.892 272.88 179.232 274.448 167.007 282.548C162.417 285.593 159.634 286.208 158.044 285.24C157.932 285.173 157.827 285.098 157.722 285.008C157.174 284.58 156.799 283.995 156.627 283.253C156.619 283.223 156.612 283.193 156.604 283.163C154.579 273.548 170.734 218.82 175.309 199.268C179.877 179.715 181.647 168.15 182.929 167.978C184.204 167.805 185.172 178.403 185.907 182.79C186.627 187.035 188.719 203.88 188.847 204.93C188.847 204.945 188.854 204.953 188.847 204.96C188.607 204.24 182.547 186.308 177.777 208.118C172.909 230.363 156.837 273.368 162.364 277.95C167.899 282.533 181.129 273.78 187.377 260.52C193.534 247.463 190.489 216.06 190.392 215.07C191.404 221.408 192.567 228.188 193.864 234.938C198.844 260.805 193.159 269.468 191.029 271.178Z" fill="url(#paint31_linear_28013_322)"/>
<path opacity="0.8" d="M98.8147 291.525C97.2097 291.39 96.2422 291.21 96.2422 291.21C97.2622 289.695 98.2222 288 99.1446 286.148C98.1697 288.66 97.4647 291.345 98.8147 291.525Z" fill="url(#paint32_linear_28013_322)"/>
<path opacity="0.8" d="M127.55 259.38C128.382 265.545 127.655 272.085 126.305 278.085C125.608 280.2 124.813 281.888 123.905 283.065C117.08 291.93 104.45 291.99 98.9375 291.533C101.99 291.69 124.093 285.968 123.905 276.6C123.718 267.098 123.41 223.95 110.45 246.495C111.058 244.163 111.68 239.175 112.123 234.96C112.13 234.908 112.138 234.855 112.145 234.803C112.543 231.053 112.805 227.955 112.805 227.955L113.06 227.865L119.45 225.653C126.823 216.008 127.55 203.423 127.55 203.423C127.55 203.423 129.118 214.853 126.463 219.495C123.808 224.138 120.875 223.605 121.483 227.828C122.09 232.05 125.045 240.81 127.55 259.38Z" fill="url(#paint33_linear_28013_322)"/>
<path opacity="0.8" d="M88.1911 230.475C86.0117 228.119 106.805 220.173 109.033 218.74C111.26 217.306 110.99 226.56 112.806 227.955C112.806 227.955 96.0547 231.884 88.1911 230.475Z" fill="url(#paint34_linear_28013_322)"/>
<path opacity="0.8" d="M137.127 187.718C137.127 187.718 135.169 193.013 133.662 194.993C131.809 193.898 129.927 191.558 129.387 186.63C128.232 176.108 132.372 176.835 132.372 176.835C132.372 176.835 128.645 184.635 133.474 192.735L135.627 189.091L137.127 187.718Z" fill="#E392AD"/>
<path d="M120.964 186.601C120.964 186.601 114.45 201.927 118.335 208.521L125.683 201.499C125.683 201.499 120.283 217.698 117.594 219.119C114.905 220.54 113.727 213.053 113.727 213.053C113.727 213.053 114.424 196.24 120.964 186.601Z" fill="#E392AD"/>
<path d="M211.623 147.455C211.623 147.455 209.752 155.637 213.004 162.703C216.256 169.768 219.673 170.341 219.673 170.341L221.54 157.226C221.54 157.226 223.236 162.688 222.809 167.977C222.383 173.266 220.206 173.88 220.206 173.88C220.206 173.88 205.505 165.2 211.623 147.455Z" fill="#E392AD"/>
<path d="M160.665 256.519C160.33 254.977 177.886 184.537 177.886 184.537C177.886 184.537 174.095 212.345 169.273 232.808C164.451 253.271 160.665 256.519 160.665 256.519Z" fill="#391861"/>
<path d="M123.834 238.366C121.906 230.062 125.128 273.054 125.426 276.369C125.724 279.684 128.601 272.733 127.247 260.708C125.893 248.684 123.834 238.366 123.834 238.366Z" fill="#E392AD"/>
<path d="M135.626 189.09C135.626 189.09 130.914 189.499 132.371 176.835C132.371 176.835 128.881 182.842 132.882 191.661L135.626 189.09Z" fill="#FEB1C8"/>
<path d="M127.289 138.89C127.289 138.89 136.172 153.31 146.333 150.546C156.494 147.782 156.109 133.152 156.109 133.152C156.109 133.152 156.675 148.749 146.049 151.78C135.423 154.812 127.32 139.611 127.32 139.611L127.289 138.89Z" fill="#E392AD"/>
<path d="M185.909 288.837C178.662 282.687 158.546 298.414 145.299 300C132.051 301.587 120.683 294.624 115.496 293.061C110.309 291.498 107.091 294.201 107.091 294.201L107.09 291.681C107.09 291.681 111.027 291.419 117.935 292.072C125.12 292.752 135.489 294.329 146.356 293.203C167.672 290.995 189.461 279.845 189.461 279.845L186.122 281.621L185.909 288.837Z" fill="#D07CAD"/>
<path d="M165.266 283.637C165.266 283.637 170.894 283.54 177.146 282.024C183.399 280.508 189.462 276.597 189.462 276.597L189.251 272.09C189.251 272.09 182.602 273.687 177.364 276.056C172.125 278.424 165.266 283.637 165.266 283.637Z" fill="#D07CAD"/>
<path d="M107.09 291.681C107.09 291.681 118.125 291.86 123.809 288.836C129.493 285.813 129.967 259.382 129.967 259.382C129.967 259.382 127.692 277.759 123.903 283.065C120.114 288.371 107.09 291.681 107.09 291.681Z" fill="#D07CAD"/>
<path opacity="0.8" d="M204.809 159.198C204.809 159.198 197.251 171.957 196.472 185.403C195.692 198.849 193.136 181.242 194.437 172.887C195.738 164.532 204.809 159.198 204.809 159.198Z" fill="url(#paint35_linear_28013_322)"/>
<path opacity="0.2" d="M165.591 125.363C164.093 127.595 177.728 134.372 181.678 134.777C185.627 135.182 191.73 122.357 191.73 122.357C191.73 122.357 187.333 119.38 165.591 125.363Z" fill="white"/>
<path opacity="0.2" d="M98.8463 143.377C98.2778 144.276 105.999 151.666 107.515 152.85C109.03 154.034 118.267 139.947 118.836 138.89C119.404 137.834 106.994 137.834 98.8463 143.377Z" fill="white"/>
<path opacity="0.2" d="M95.8256 194.401C91.1681 197.666 85.0615 217.508 87.4298 222.245C89.7982 226.982 105.383 215.503 110.001 207.837C114.619 200.171 108.84 190.603 108.84 190.603C108.84 190.603 102.706 189.577 95.8256 194.401Z" fill="white"/>
<path opacity="0.5" d="M206.841 155.726C206.841 155.726 200.254 168.573 198.269 175.822C196.283 183.072 195.922 195.08 196.849 196.927C197.775 198.774 209.996 185.843 211.488 181.935C212.98 178.027 205.662 165.237 206.088 161.898C206.515 158.558 206.841 155.726 206.841 155.726Z" fill="#E392AD"/>
<path opacity="0.2" d="M185.912 191.825C179.422 185.108 176.692 227.177 177.773 235.227C178.854 243.277 187.811 251.045 189.585 250.477C191.359 249.908 191.359 231.908 189.464 214.477C187.57 197.045 185.912 191.825 185.912 191.825Z" fill="white"/>
<path opacity="0.2" d="M188.798 268.761C186.05 266.203 191.261 253.627 192.871 247.552C194.482 241.476 196.495 255.394 194.482 262.434C192.469 269.473 188.798 268.761 188.798 268.761Z" fill="white"/>
<path d="M140.566 46.2163C140.566 46.2163 145.178 47.387 147.712 51.3054C150.245 55.2238 150 69.4344 150 69.4344L140.566 46.2163Z" fill="url(#paint36_linear_28013_322)"/>
<path d="M159.592 99.2327C159.592 99.2402 159.584 99.2552 159.577 99.2777C158.377 104.61 154.492 110.07 149.999 111.968C144.179 114.435 129.592 112.635 124.567 110.835C122.782 110.198 121.109 108.435 119.459 106.11C119.452 106.103 119.444 106.095 119.444 106.095C116.452 101.888 113.504 95.8427 110.032 91.2677C109.372 90.4052 108.749 89.5727 108.157 88.7552C103.897 82.8901 101.369 78.1652 100.364 71.8052C99.2317 64.5526 110.054 55.2076 111.449 53.6102C123.224 40.1777 135.749 43.8077 141.719 49.2077C143.714 51.0152 145.214 53.0252 146.324 54.9003L146.339 54.9228C148.544 58.6577 149.219 61.8528 149.219 61.8528C149.219 61.8528 149.384 63.6078 149.767 65.8727C149.819 66.2177 149.887 66.5777 149.954 66.9452C150.179 68.1602 150.726 69.9977 151.071 71.2128C151.649 73.2453 153.554 77.2353 155.631 82.0428C155.856 82.5603 156.081 83.0853 156.306 83.6028C158.046 87.7427 159.599 91.8978 159.906 94.6802C160.064 96.1277 159.944 97.6727 159.592 99.2327Z" fill="url(#paint37_linear_28013_322)"/>
<path d="M146.339 54.9226C146.339 54.9226 144.705 58.9134 132.907 59.8659C121.11 60.8259 114.434 55.7476 111.734 58.8676C109.034 61.995 113.722 78.0526 117.142 75.0676C117.142 75.0676 115.927 77.7676 116.654 84.0526C117.374 90.3377 116.422 89.5652 114.719 89.6177C114.082 89.6402 111.382 89.3252 108.157 88.7552C103.897 82.8901 101.369 78.1652 100.364 71.8052C99.2317 64.5526 110.054 55.2076 111.449 53.6101C123.224 40.1777 135.749 43.8077 141.719 49.2077C143.714 51.0152 145.214 53.0252 146.324 54.9003L146.339 54.9226Z" fill="url(#paint38_linear_28013_322)"/>
<path d="M111.875 91.1292C111.875 91.1292 107.114 88.7109 103.562 89.99C100.009 91.2689 101.217 98.0925 104.77 101.219C108.322 104.345 111.307 104.629 115.214 105.908C119.122 107.187 118.554 101.432 118.554 101.432C118.554 101.432 117.63 93.3318 111.875 91.1292Z" fill="url(#paint39_linear_28013_322)"/>
<path d="M108.464 56.4556C107.627 58.8713 98.1049 60.1978 95.9075 64.2951C93.71 68.3924 94.1285 71.356 94.7564 72.2189C95.3842 73.0819 96.6913 67.1609 102.438 63.3713C108.185 59.5818 108.464 56.4556 108.464 56.4556Z" fill="url(#paint40_linear_28013_322)"/>
<path d="M113.982 96.0554C113.982 96.0554 108.465 92.9764 105.244 93.5922C102.023 94.2079 103.901 99.159 105.244 100.887C106.586 102.615 108.938 103.018 108.938 103.018C108.938 103.018 105.694 102.391 104.841 98.9447C103.988 95.4987 105.765 94.8592 107.115 94.5394C108.465 94.2197 107.243 96.5904 107.825 99.7263C108.407 102.862 110.596 103.457 111.84 103.563C113.083 103.67 110.561 101.574 110.561 99.0513C110.561 96.5289 112.23 101.041 114.397 100.33C116.565 99.6198 113.982 96.0554 113.982 96.0554Z" fill="url(#paint41_linear_28013_322)"/>
<path d="M130.129 70.3558C137.17 70.6663 140.564 68.3925 140.564 68.3925C140.564 68.3925 145.583 64.7926 147.297 63.7504C149.012 62.7083 149.604 65.4439 149.604 65.4439C149.604 65.4439 150.698 71.9371 153.739 77.7438C153.739 77.7438 149.042 80.877 145.743 80.1399C142.444 79.403 142.948 77.0331 140.817 74.1525C136.933 72.1346 136.364 75.8767 136.364 75.8767C136.364 75.8767 137.691 82.2777 135.559 85.8509C133.427 89.4242 124.105 92.3254 119.459 89.2643C114.812 86.203 115.854 78.2688 115.854 78.2688C115.854 78.2688 121.667 70.7086 130.129 70.3558Z" fill="url(#paint42_linear_28013_322)"/>
<path opacity="0.6" d="M110.68 94.5398C107.718 93.671 110.419 99.6912 112.906 99.8332C115.393 99.9753 113.19 97.4174 113.013 96.6713C112.835 95.9253 113.983 96.0556 113.983 96.0556C113.983 96.0556 112.104 95.0299 110.68 94.5398Z" fill="#BF7988"/>
<path d="M122.753 85.0194C122.753 85.0194 120.85 80.9736 124.919 77.1681C128.988 73.3625 134.408 81.2537 134.408 81.2537L122.753 85.0194Z" fill="url(#paint43_linear_28013_322)"/>
<path d="M122.877 85.6765C123.44 87.7772 132.364 83.5026 134.279 82.6513C136.193 81.7999 133.396 80.84 132.34 79.5595C131.283 78.2789 129.276 76.9169 125.936 78.3695C122.596 79.8223 122.38 83.8198 122.877 85.6765Z" fill="#E392AD"/>
<path d="M133.382 82.8116C132.827 83.0035 131.676 83.4901 130.326 84.0247C128.283 84.8265 125.802 85.7449 124.267 85.9505C123.547 86.0464 123.04 85.9847 122.883 85.6763C122.752 85.4227 122.67 84.9293 122.691 84.3056C122.732 82.318 123.767 79.0077 127.378 78.2127C127.42 78.2059 127.461 78.1921 127.502 78.1921C132.156 77.267 134.856 82.3113 133.382 82.8116Z" fill="#FFE4EC"/>
<path d="M130.693 82.2978C130.693 82.9078 130.562 83.4972 130.322 84.0249C128.28 84.8268 125.799 85.7451 124.264 85.9507C123.599 85.5602 123.051 84.9912 122.688 84.3059C122.729 82.3183 123.764 79.008 127.375 78.213C127.416 78.2062 127.458 78.1924 127.499 78.1924C129.336 78.6518 130.693 80.3171 130.693 82.2978Z" fill="#7F6186"/>
<path d="M129.155 82.3013C129.155 83.8026 127.938 85.0195 126.437 85.0195C124.936 85.0195 123.719 83.8025 123.719 82.3013C123.719 80.8 124.936 79.583 126.437 79.583C127.938 79.583 129.155 80.8 129.155 82.3013Z" fill="url(#paint44_linear_28013_322)"/>
<path d="M133.315 80.7506C133.315 80.7506 131.355 77.3822 126.61 78.6174C121.864 79.8526 122.803 85.4866 122.803 85.4866C122.803 85.4866 121.035 81.3849 124.62 78.3757C128.417 75.188 132.622 79.3056 133.315 80.7506Z" fill="#6C2A51"/>
<path d="M128.352 81.2533C128.352 81.2533 129.433 80.0704 130.781 80.4099L128.352 81.2533Z" fill="white"/>
<path d="M145.186 77.7048C145.186 77.7048 143.208 72.0152 145.3 69.418C147.392 66.8209 150.589 72.04 150.589 72.04L145.186 77.7048Z" fill="url(#paint45_linear_28013_322)"/>
<path d="M145.185 78.3511C144.308 77.2877 143.965 73.3679 146.436 71.1802C148.908 68.9925 151.095 73.0033 151.703 74.7656C152.311 76.528 149.675 77.7433 148.096 78.0675C146.517 78.3915 145.332 78.5288 145.185 78.3511Z" fill="#E392AD"/>
<path d="M151.053 76.101C150.676 76.4985 150.031 76.8892 149.305 77.2181C148.524 77.5746 147.646 77.8555 146.906 77.9926C146.282 78.116 145.748 78.1297 145.446 77.9994C145.302 77.9309 145.206 77.8349 145.186 77.7048C144.912 76.2381 144.919 74.3534 145.405 72.9415C145.659 72.1877 146.056 71.5708 146.611 71.2144C146.892 71.0362 147.208 70.9265 147.571 70.8992C150.038 70.6934 152.348 74.744 151.053 76.101Z" fill="#FFE4EC"/>
<path d="M149.593 75.4568C149.593 76.0804 149.49 76.6836 149.305 77.2181C148.524 77.5745 147.646 77.8555 146.906 77.9926C146.68 78.1159 146.433 78.1776 146.173 78.1776C145.919 78.1776 145.672 78.1159 145.446 77.9994C145.302 77.9308 145.206 77.8349 145.186 77.7048C144.912 76.2381 144.919 74.3534 145.405 72.9415C145.659 72.1877 146.056 71.5708 146.611 71.2144C148.277 71.3721 149.593 73.2158 149.593 75.4568Z" fill="#7F6186"/>
<path d="M148.236 75.4567C148.236 76.6149 147.681 77.6087 146.906 77.9925C146.68 78.1158 146.433 78.1775 146.173 78.1775C145.919 78.1775 145.672 78.1158 145.446 77.9993C145.302 77.9307 145.206 77.8348 145.186 77.7046C144.912 76.238 144.919 74.3532 145.405 72.9414C145.645 72.8111 145.899 72.7427 146.173 72.7427C147.311 72.7427 148.236 73.9558 148.236 75.4567Z" fill="url(#paint46_linear_28013_322)"/>
<path d="M145.006 76.4269C145.006 76.4269 145.18 72.1122 147.692 71.2613C150.203 70.4106 151.427 74.4883 151.427 74.4883C151.427 74.4883 150.507 70.2284 148.593 70.0763C146.679 69.9244 144.67 72.0818 145.006 76.4269Z" fill="#6C2A51"/>
<path d="M148.383 74.1522C148.383 74.1522 149.464 72.9693 150.812 73.3088L148.383 74.1522Z" fill="white"/>
<path d="M138.283 86.6211C138.283 86.6211 138.237 89.7794 138.735 90.5964C139.232 91.4135 141.762 90.8009 141.762 90.8009C141.762 90.8009 139.635 91.7333 138.261 90.703C136.888 89.6728 138.283 86.6211 138.283 86.6211Z" fill="url(#paint47_linear_28013_322)"/>
<path d="M135.605 97.1465C135.605 97.1465 148.537 99.0872 153.369 92.7397C153.369 92.7397 151.326 96.8741 145.553 97.8556C140.816 98.6609 135.605 97.1465 135.605 97.1465Z" fill="#CE7988"/>
<path d="M137.439 94.4541C137.439 94.4541 135.056 96.0215 135.663 99.2156C135.663 99.2156 132.934 96.5384 137.439 94.4541Z" fill="url(#paint48_linear_28013_322)"/>
<path d="M113.57 105.404C115.214 105.908 118.387 103.984 118.387 103.984C118.387 103.984 117.961 106.042 116.54 106.094C115.119 106.145 113.57 105.404 113.57 105.404Z" fill="#FEB1C8"/>
<path d="M159.575 99.2773C158.375 104.61 154.49 110.07 149.997 111.967C144.177 114.435 129.59 112.635 124.565 110.835C122.78 110.197 121.107 108.435 119.457 106.11C119.817 106.432 125.69 111.637 136.137 111.892C146.93 112.162 154.46 107.715 156.02 106.095C157.49 104.58 159.35 99.8623 159.575 99.2773Z" fill="#E392AD"/>
<path d="M141.033 68.3921C141.033 68.3921 140.484 65.55 141.033 63.525V66.9C141.033 66.9 141.224 63.1492 143.787 61.7992L141.587 65.9052C141.587 65.9052 145.062 61.1774 146.848 60.4341C148.633 59.6909 149.494 63.0108 149.687 63.5131C149.881 64.0155 149.613 65.4433 149.613 65.4433C149.613 65.4433 148.032 63.5605 141.033 68.3921Z" fill="url(#paint49_linear_28013_322)"/>
<path d="M130.301 70.9407C130.301 70.9407 127.692 68.0463 124.828 67.4814L128.944 70.4768C128.944 70.4768 125.088 67.6216 123.054 68.098C123.054 68.098 121.601 67.9493 119.784 69.7338C117.461 72.0166 115.434 77.6738 115.434 77.6738C115.434 77.6738 123.873 71.89 130.301 70.9407Z" fill="url(#paint50_linear_28013_322)"/>
<path opacity="0.4" d="M116.28 92.55C119.738 88.0974 128.902 99.9394 134.41 105.529C139.917 111.118 131.107 111.627 124.57 109.288C118.033 106.95 119.169 100.296 117.389 97.1461C115.609 93.9965 116.28 92.55 116.28 92.55Z" fill="url(#paint51_linear_28013_322)"/>
<path d="M151.7 69.3531L155.792 66.7368C155.792 66.7368 155.748 64.8523 154.982 65.0966C154.215 65.3408 151.266 67.59 151.266 67.59L151.7 69.3531Z" fill="#8075BA"/>
<path opacity="0.5" d="M155.278 81.0749C154.978 81.456 154.279 82.5502 153.888 82.7863C150.844 84.6458 142.998 85.9719 141.994 71.4692C141.837 69.2744 146.437 66.6205 149.795 66.0946C149.705 65.7212 149.673 65.332 149.599 64.9814C145.406 65.7054 140.487 69.1447 140.365 70.5927C140.322 71.1185 140.392 71.8883 140.583 72.818L140.493 72.4522C140.493 72.4522 136.387 71.0347 133.711 74.868C133.536 74.586 133.364 74.3498 133.211 74.1744C131.787 72.5893 120.785 72.6046 115.848 78.9681C113.79 81.6202 118.301 90.9178 122.87 92.8992C127.03 94.7054 134.361 92.8001 135.767 87.4349C136.784 83.571 135.747 79.2423 134.561 76.514C134.894 75.8281 136.754 72.4977 140.854 73.9381C141.581 76.6359 143.107 80.1416 145.438 82.7023C148.388 85.9413 153.545 85.453 156.112 83.1515C155.855 82.6259 155.535 81.6009 155.278 81.0749ZM126.313 92.4269C120.854 92.9223 114.956 84.3944 116.788 80.2409C119.108 74.9901 130.21 72.9248 132.025 75.8893C139.587 88.2278 130.603 92.0459 126.313 92.4269Z" fill="#E15153"/>
<path d="M154.98 65.0981C148.586 62.2022 141.613 67.4073 141.438 69.4574C141.263 71.5151 142.94 77.4899 146.495 81.3081C150.051 85.1262 156.197 84.0703 158.028 80.4046C159.86 76.7389 157.648 66.3023 154.98 65.0981ZM154.946 81.3919C151.899 83.2133 144.051 84.5089 143.065 70.3109C142.827 66.8968 150.862 63.3759 154.977 66.6453C158.224 69.2212 158.824 79.0675 154.946 81.3919Z" fill="url(#paint52_linear_28013_322)"/>
<path d="M154.944 81.3919C151.898 83.2133 144.049 84.5089 143.064 70.311C142.826 66.8969 150.861 63.376 154.975 66.6453C158.222 69.2213 158.823 79.0676 154.944 81.3919Z" fill="#CFC7B8"/>
<path d="M134.282 72.963C132.86 71.4083 121.858 71.4236 116.913 77.6498C114.851 80.2486 119.351 89.348 123.917 91.2913C128.075 93.0595 135.411 91.193 136.824 85.9421C138.236 80.6837 135.705 74.5177 134.282 72.963ZM127.361 90.8266C121.901 91.3143 116.014 82.9617 117.852 78.8998C120.178 73.7556 131.282 71.7361 133.094 74.6396C140.641 86.7189 131.651 90.4531 127.361 90.8266Z" fill="url(#paint53_linear_28013_322)"/>
<path d="M127.36 90.8268C121.9 91.3145 116.013 82.9619 117.851 78.9C120.177 73.7558 131.282 71.7363 133.094 74.6398C140.64 86.7191 131.65 90.4533 127.36 90.8268Z" fill="#CFC7B8"/>
<path d="M135.568 75.3772C135.568 75.3772 137.371 71.1647 141.922 72.7291L141.567 71.2721C141.567 71.2721 137.448 69.8823 134.77 73.6484L135.568 75.3772Z" fill="#382A8D"/>
<path d="M116.532 80.9526C116.532 80.9526 114.942 81.5835 114.309 82.078C113.676 82.5725 107.887 89.4268 107.887 89.4268L109.384 89.8748C109.384 89.8748 114.557 84.9701 115.321 84.3051C116.086 83.6402 117.289 83.2474 117.289 83.2474L116.532 80.9526Z" fill="url(#paint54_linear_28013_322)"/>
<path d="M114.521 81.9286C113.875 82.4669 114.121 83.3424 114.633 83.7515C115.144 84.1607 116.957 83.1559 117.102 82.8401C117.247 82.5242 116.725 80.9526 116.725 80.9526C116.725 80.9526 114.979 81.5472 114.521 81.9286Z" fill="#5CF1FF"/>
<path d="M144.293 75.3775C146.613 71.2132 152.841 78.7136 154.052 79.9452C155.263 81.1767 156.948 78.7274 156.948 78.7274C156.948 78.7274 155.654 82.6951 150.52 81.6956C145.385 80.6961 144.293 75.3775 144.293 75.3775Z" fill="#5CF1FF"/>
<path d="M119.539 84.208C121.859 80.0438 128.087 87.5442 129.298 88.7757C130.51 90.0073 132.194 87.558 132.194 87.558C132.194 87.558 130.9 91.5257 125.766 90.5262C120.631 89.5267 119.539 84.208 119.539 84.208Z" fill="#5CF1FF"/>
<path d="M126.737 72.6797C126.443 72.8548 130.825 72.7232 132.22 73.7521C133.615 74.781 135.256 77.8074 135.956 77.6388C136.656 77.4704 135.331 74.0951 133.669 72.9038C132.007 71.7125 127.234 72.3835 126.737 72.6797Z" fill="#5CF1FF"/>
<path d="M148.536 64.8357C148.108 65.0683 151.597 64.6371 153.84 65.5938C156.083 66.5504 157.076 69.7271 157.293 69.7812C157.509 69.8354 156.747 66.0812 154.934 65.1785C153.12 64.2762 149.963 64.0595 148.536 64.8357Z" fill="#5CF1FF"/>
<path d="M156.795 81.6199C155.725 81.9656 157.168 79.1878 157.708 78.329C158.247 77.4703 158.7 81.0046 156.795 81.6199Z" fill="#FAFBF9"/>
<path d="M135.246 88.1139C134.324 88.4115 135.567 86.0196 136.031 85.2802C136.496 84.5407 136.886 87.5839 135.246 88.1139Z" fill="#FAFBF9"/>
<path d="M138.259 89.9526C138.778 91.2587 143.133 90.0755 145.933 89.2643C148.733 88.4532 150.142 87.3192 150.175 86.251C150.209 85.1828 147.292 82.2743 144.966 79.9108C142.641 77.5472 140.817 76.682 139.254 77.4399C137.69 78.1978 137.359 87.6863 138.259 89.9526Z" fill="url(#paint55_linear_28013_322)"/>
<path opacity="0.3" d="M149.223 88.226C151.666 87.0559 148.397 83.5979 146.881 82.7452C145.366 81.8926 143.25 78.1031 140.566 79.7611C137.881 81.4189 137.014 89.8377 138.561 90.6494C140.108 91.4611 142.47 90.2088 143.821 90.0681C145.172 89.9275 146.55 90.695 147.876 88.8517L149.223 88.226Z" fill="url(#paint56_linear_28013_322)"/>
<path d="M148.135 88.7722C148.135 88.7722 150.517 87.8166 150.794 86.6184C151.072 85.4202 149.669 85.6038 147.056 85.0418C144.443 84.4798 142.702 85.8829 141.272 87.4915C139.842 89.1002 138.45 89.8985 138.561 90.6496C138.673 91.4005 141.5 91.0036 142.15 90.6564C142.8 90.3091 142.963 89.9825 143.821 90.0683C144.679 90.1541 146.146 89.7345 146.799 89.2441C147.451 88.7538 148.135 88.7722 148.135 88.7722Z" fill="url(#paint57_linear_28013_322)"/>
<path opacity="0.5" d="M148.517 84.5556C146.209 83.7023 142.88 85.34 141.085 85.0761C139.29 84.8121 140.034 82.3042 141.085 80.8717C142.136 79.4392 144.532 81.5243 145.836 82.5425C147.14 83.5606 148.517 84.5556 148.517 84.5556Z" fill="#E7ECFF"/>
<path d="M147.297 88.9568C148.111 88.0506 148.737 87.6633 149.074 87.7951C149.588 87.9961 148.159 88.9187 147.874 88.8516C147.59 88.7846 147.297 88.9568 147.297 88.9568Z" fill="#D1A1C8"/>
<path d="M147.297 88.9565C147.297 88.9565 149.116 86.6062 148.835 85.3654C148.554 84.1245 147.366 82.377 147.366 82.377C147.366 82.377 149.08 84.0003 150.1 85.5161C151.119 87.0319 149.844 88.058 148.732 88.4529C147.62 88.8479 147.297 88.9565 147.297 88.9565Z" fill="url(#paint58_linear_28013_322)"/>
<path opacity="0.5" d="M138.258 90.348C139.584 91.6978 142.733 93.9374 146.074 93.5111C149.414 93.0848 150.472 86.2511 150.472 86.2511C150.472 86.2511 150.053 86.1606 148.987 85.9924C147.921 85.8242 146.879 84.1307 143.947 85.4864C141.686 86.5314 140.437 89.5194 138.258 90.348Z" fill="#FEB1C8"/>
<path d="M142.262 90.4424C142.262 90.4424 143.103 89.5779 143.706 89.3529C144.31 89.1279 144.402 89.7556 144.255 89.8976C144.109 90.0397 143.363 89.9568 142.925 90.1581C142.487 90.3596 142.262 90.4424 142.262 90.4424Z" fill="#D1A1C8"/>
<path d="M129.169 71.0366C129.169 71.0366 125.158 68.4915 122.554 68.6438C119.949 68.796 117.143 73.0831 116.825 74.5781C116.507 76.0731 119.923 73.8791 123.581 72.6787C127.24 71.4785 129.169 71.0366 129.169 71.0366Z" fill="url(#paint59_linear_28013_322)"/>
<path d="M141.688 67.9484C141.688 67.9484 144.406 61.571 146.658 60.8132C148.737 60.1133 148.942 63.1944 148.4 64.3592C147.858 65.5239 145.84 65.0112 141.688 67.9484Z" fill="#E392AD"/>
<path d="M142.262 99.4066C142.262 99.4066 146.929 99.8388 149.919 98.021C149.919 98.021 149.5 101.858 147.297 102.071C145.095 102.285 142.262 99.4066 142.262 99.4066Z" fill="url(#paint60_linear_28013_322)"/>
<path d="M111.598 51.1888C111.598 51.1888 123.49 35.9746 134.174 35.7091C144.859 35.4436 146.021 48.4178 144.998 49.106C143.975 49.7942 145.753 38.8643 134.412 37.4841C125.635 36.4159 114.12 47.5175 111.598 51.1888Z" fill="url(#paint61_linear_28013_322)"/>
<path d="M151.596 52.1176C147.756 55.5301 145.844 54.1276 145.844 54.1276C145.844 54.1276 144.561 55.3201 137.879 55.8301C131.204 56.3401 125.444 56.5276 125.444 56.5276C125.376 58.305 124.566 59.1525 124.566 59.1525C121.776 56.8801 111.449 55.1326 110.001 59.49C108.561 63.8475 110.879 72.3675 110.879 72.3675C110.879 72.3675 109.034 76.6349 108.749 80.7525C108.464 84.8775 116.279 92.55 116.279 92.55L115.356 94.5375C113.579 91.695 107.369 89.7299 107.369 89.7299C99.3062 83.2199 98.0913 75.6375 97.2363 68.6774C96.3888 61.7099 107.804 59.5799 110.001 53.5199C112.206 47.4523 118.221 35.8948 127.506 35.7073C136.034 35.5348 140.594 45.2473 142.814 48.0973C143.016 48.3523 143.189 48.5473 143.354 48.6823C145.349 50.3176 151.596 52.1176 151.596 52.1176Z" fill="url(#paint62_linear_28013_322)"/>
<path d="M111.951 52.3054C111.951 52.3054 111.38 47.4533 113.44 43.5418C115.501 39.6304 119.552 39.6615 119.551 39.2579C119.551 39.2579 112.801 38.6713 110.456 44.6606C108.111 50.6499 109.248 54.4067 108.467 56.5176C107.685 58.6286 111.951 52.3054 111.951 52.3054Z" fill="url(#paint63_linear_28013_322)"/>
<path d="M151.6 52.1177C147.76 55.5301 145.847 54.1277 145.847 54.1277C145.847 54.1277 144.565 55.3201 137.882 55.8301C131.207 56.3401 125.447 56.5276 125.447 56.5276C118.022 51.3527 110.455 53.3927 110.027 53.5127C115.075 50.5052 123.445 55.2226 126.857 55.3201C130.277 55.4101 140.005 53.6102 140.005 53.6102C140.005 53.6102 131.972 47.6026 125.612 47.2651C119.26 46.9276 111.955 52.3052 111.955 52.3052C111.955 52.3052 120.31 42.9077 128.237 46.2151C136.172 49.5226 142.713 49.9201 142.818 48.0976C143.02 48.3526 143.193 48.5476 143.358 48.6826C145.352 50.3177 151.6 52.1177 151.6 52.1177Z" fill="url(#paint64_linear_28013_322)"/>
<path d="M110.377 58.7402C110.377 58.7402 102.347 67.8052 101.428 75.4173C100.509 83.0292 105.792 88.3632 105.792 88.3632C105.792 88.3632 102.64 78.3704 104.701 71.2142C106.761 64.0581 110.377 58.7402 110.377 58.7402Z" fill="url(#paint65_linear_28013_322)"/>
<path d="M110.882 72.3711C110.882 72.3711 106.903 75.8519 105.553 79.5824C104.203 83.3132 106.39 88.904 106.39 88.904L106.996 89.2639C106.996 89.2639 104.488 80.0448 110.882 72.3711Z" fill="url(#paint66_linear_28013_322)"/>
<path d="M112.828 51.411C112.828 51.411 119.737 43.0979 126.288 41.4637C132.838 39.8295 136.205 51.411 136.205 51.411C136.205 51.411 130.903 47.2367 124.517 47.2633C118.13 47.2899 112.828 51.411 112.828 51.411Z" fill="#E392AD"/>
<path d="M110.375 58.7402C110.375 58.7402 111.235 55.1764 115.854 54.1107C120.472 53.0449 124.566 59.1527 124.566 59.1527C124.566 59.1527 118.894 56.5485 110.375 58.7402Z" fill="#E392AD"/>
<path d="M94.7578 72.2188C94.7578 72.2188 96.8005 65.1713 100.282 61.9502C103.764 58.729 107.63 58.4551 107.63 58.4551C107.63 58.4551 102.629 64.4088 101.32 66.365C100.01 68.3211 97.2374 68.6776 97.2374 68.6776C97.2374 68.6776 96.184 70.5389 95.6248 71.3741C95.0658 72.2094 95.2366 72.398 94.7578 72.2188Z" fill="#E392AD"/>
<path opacity="0.5" d="M124.734 36.1155C130.182 35.9942 132.387 38.1238 133.524 40.3974C134.66 42.6711 128.044 41.247 125.408 41.7222C122.771 42.1974 128.383 40.9218 130.811 40.3974C133.239 39.873 130.487 35.6704 124.734 36.1155Z" fill="white"/>
<path opacity="0.5" d="M121.886 47.4974C125.992 47.2662 123.451 50.5633 121.065 51.8609C118.68 53.1584 116.09 52.5014 114.291 52.5127C112.492 52.5241 118.792 51.9557 121.302 50.2978C123.813 48.6398 121.886 47.4974 121.886 47.4974Z" fill="white"/>
<path opacity="0.2" d="M120.063 92.4721C111.676 90.3755 119.056 98.4857 125.525 101.944C131.994 105.402 125.943 93.942 120.063 92.4721Z" fill="#E392AD"/>
<path d="M202.082 106.618C202.082 106.618 207.747 107.671 208.481 115.352L207.087 115.38C207.087 115.38 206.886 112.871 206.326 110.781C205.762 108.678 202.082 106.618 202.082 106.618Z" fill="#A46BAD"/>
<path opacity="0.5" d="M141.703 150.705C137.279 148.987 146.537 145.669 149.171 142.202C151.806 138.734 152.303 132.624 152.942 132.695C153.582 132.766 155.927 138.805 152.516 145.342C149.105 151.879 141.703 150.705 141.703 150.705Z" fill="white"/>
<path opacity="0.3" d="M118.552 194.866C117.329 203.52 122.583 199.058 125.683 194.085C128.784 189.111 129.228 180.883 129.184 180.023C129.139 179.164 124.211 183.472 122.341 185.403C120.471 187.335 118.924 192.236 118.552 194.866Z" fill="white"/>
<path opacity="0.5" d="M223.609 145.53C222.439 146.183 220.654 146.723 218.164 146.31C213.116 145.47 212.344 140.085 212.344 140.085C212.411 139.658 213.484 139.673 213.484 139.673C213.484 139.673 213.206 141.735 213.716 142.568C216.394 146.978 222.859 145.268 222.761 143.753C222.664 142.238 222.424 142.2 222.424 142.2L222.544 140.978C222.544 140.978 224.644 141.841 223.609 145.53Z" fill="white"/>
<path d="M213.414 141.175C213.414 141.175 214.647 144.427 217.927 144.739C221.208 145.05 222.423 142.2 222.423 142.2L222.075 144.762C222.075 144.762 214.772 147.737 213.414 141.175Z" fill="#E392AD"/>
<path opacity="0.5" d="M108.842 190.603C108.842 190.603 102.653 189.407 94.894 195.19C89.8577 198.944 103.425 190.14 108.836 179.86C111.762 174.303 106.199 165.86 107.895 164.314C112.726 159.908 115.092 187.603 115.092 187.603L108.842 190.603Z" fill="#E392AD"/>
<path opacity="0.2" d="M112.818 152.18C113.026 154.455 116.893 154.508 120.777 151.571C124.662 148.635 125.278 131.677 125.562 130.919C125.846 130.161 120.287 137.856 117.925 141.365C115.563 144.873 112.674 150.61 112.818 152.18Z" fill="white"/>
<path d="M174.747 153.25C174.397 154.366 178.123 172.193 177.539 180.901C176.955 189.608 171.699 209.543 171.699 209.543C171.699 209.543 180.925 177.34 179.651 167.203C178.376 157.066 174.747 153.25 174.747 153.25Z" fill="#5E4FB8"/>
<path d="M114.719 183.969C114.719 183.969 114.324 171.612 115.092 166.029C115.861 160.445 118.371 156.257 118.371 156.257C118.371 156.257 114.392 162.344 113.473 166.556C112.554 170.769 114.719 183.969 114.719 183.969Z" fill="#5E4FB8"/>
<path d="M110.309 154.259C111.209 153.087 114.43 154.84 117.272 154.461C120.114 154.082 122.624 152.18 122.624 152.18C122.624 152.18 117.94 156.481 116.751 156.545C115.562 156.609 111.114 154.769 110.309 154.259Z" fill="#5E4FB8"/>
<path d="M210.133 162.75C210.133 162.75 218.025 173.246 222.075 175.719C226.125 178.193 228.222 176.123 228.872 176.933C229.523 177.744 229.369 180.023 229.369 180.023C229.369 180.023 214.983 176.393 210.133 162.75Z" fill="#6A5CD4"/>
<path opacity="0.5" d="M139.014 209.543C137.21 210.902 143.185 239.133 147.565 247.552C151.945 255.971 160.313 223.59 160.66 214.477C161.006 205.363 151.945 225.845 146.972 223.998C141.998 222.15 141.981 207.307 139.014 209.543Z" fill="#FFBB9A"/>
<path d="M154.32 122.651C154.32 122.651 170.335 132.879 175.303 136.21C175.303 136.21 168.065 127.079 154.32 122.651Z" fill="#5E4FB8"/>
<path d="M107.094 300.001C107.094 300.001 107.138 294.056 107.612 293.203C108.085 292.351 110.004 300.234 110.004 300.234L107.094 300.001Z" fill="#D07CAD"/>
<path d="M185.861 300C185.861 300 185.861 290.077 185.103 289.414C184.345 288.75 182.469 300.182 182.469 300.182L185.861 300Z" fill="#D07CAD"/>
<path d="M86.9054 229.682C86.9054 229.682 83.637 212.933 85.5855 199.764C87.5341 186.596 99.5118 161.045 99.5118 161.045C99.5118 161.045 85.6445 183.924 83.9097 201.119C82.175 218.313 86.9054 229.682 86.9054 229.682Z" fill="#4BFFFF"/>
<path d="M99.5106 161.045C100.363 161.329 98.9421 157.277 102.637 155.858C106.332 154.439 100.277 147.537 99.3963 144.876C98.5158 142.216 108.4 139.193 108.4 139.193C108.4 139.193 101.39 140.811 97.5374 143.716C97.5374 143.716 95.958 145.84 99.5106 161.045Z" fill="#4BFFFF"/>
<path d="M180.207 121.904C180.207 121.904 189.095 121.161 191.837 123.055C194.578 124.95 193.902 138.263 193.903 140.206C193.904 142.149 195.824 141.877 196.639 143.063C200.333 148.446 200.473 155.575 201.724 156.281C202.974 156.987 204.81 159.198 204.81 159.198L196.852 142.287C196.852 142.287 197.041 124.998 192.399 121.422C192.399 121.422 188.68 120.719 180.207 121.904Z" fill="#4BFFFF"/>
<path d="M101.108 291.281C97.504 289.191 106.589 271.698 109.503 261.466C112.416 251.234 111.302 241.05 111.302 241.05C111.302 241.05 109.118 256.884 105.332 269.268C101.546 281.652 98.2818 288.223 96.2422 291.21C96.2422 291.21 99.8183 291.821 101.108 291.281Z" fill="#4BFFFF"/>
<path d="M190.898 192.385C190.898 192.385 198.906 202.781 204.026 202.54C209.146 202.299 225.746 185.438 225.746 185.438C225.746 185.438 211.556 202.328 205.376 204.885C205.376 204.885 203.058 205.634 200.026 203.305C196.994 200.977 190.898 192.385 190.898 192.385Z" fill="#4BFFFF"/>
<path d="M188.705 271.366C187.284 269.898 193.537 265.48 194.579 256.518C195.621 247.557 193.199 231.409 193.199 231.409C193.199 231.409 196.597 245.672 195.588 258.815C194.579 271.958 188.705 271.366 188.705 271.366Z" fill="#4BFFFF"/>
<path opacity="0.8" d="M185.907 182.79C185.907 182.79 191.347 197.85 196.942 197.85C202.536 197.85 212.224 182.061 211.576 179.339C210.929 176.617 204.973 163.177 204.252 161.471C203.531 159.766 197.306 166.556 197.306 166.556C197.306 166.556 196.449 159.756 193.666 164.948C190.884 170.14 189.321 149.25 186.621 149.108C183.92 148.966 182.777 170.146 185.907 182.79Z" fill="#B892AD"/>
</g>
</g>
<defs>
<linearGradient id="paint0_linear_28013_322" x1="147.568" y1="300" x2="147.568" y2="253.193" gradientUnits="userSpaceOnUse">
<stop stop-color="#C50B79"/>
<stop offset="1" stop-color="#C01160"/>
</linearGradient>
<linearGradient id="paint1_linear_28013_322" x1="216.302" y1="118.035" x2="216.302" y2="34.5527" gradientUnits="userSpaceOnUse">
<stop stop-color="#7E8EFF"/>
<stop offset="1" stop-color="#7096FF"/>
</linearGradient>
<linearGradient id="paint2_linear_28013_322" x1="251.398" y1="118.034" x2="251.398" y2="36.6572" gradientUnits="userSpaceOnUse">
<stop stop-color="#26258A"/>
<stop offset="1" stop-color="#3C2C95"/>
</linearGradient>
<linearGradient id="paint3_linear_28013_322" x1="145.299" y1="294.201" x2="145.299" y2="121.474" gradientUnits="userSpaceOnUse">
<stop stop-color="#FF6686"/>
<stop offset="1" stop-color="#FF7C89"/>
</linearGradient>
<linearGradient id="paint4_linear_28013_322" x1="139.712" y1="271.366" x2="139.712" y2="138.891" gradientUnits="userSpaceOnUse">
<stop offset="0.016" stop-color="white"/>
<stop offset="0.9916" stop-color="#EA8CC1"/>
</linearGradient>
<linearGradient id="paint5_linear_28013_322" x1="150.716" y1="291.686" x2="150.716" y2="149.109" gradientUnits="userSpaceOnUse">
<stop offset="0.016" stop-color="white"/>
<stop offset="0.9916" stop-color="#EA8CC1"/>
</linearGradient>
<linearGradient id="paint6_linear_28013_322" x1="177.769" y1="285.662" x2="177.769" y2="121.184" gradientUnits="userSpaceOnUse">
<stop stop-color="#2B2583"/>
<stop offset="1" stop-color="#482C97"/>
</linearGradient>
<linearGradient id="paint7_linear_28013_322" x1="107.091" y1="291.681" x2="107.091" y2="125.359" gradientUnits="userSpaceOnUse">
<stop stop-color="#2B2583"/>
<stop offset="1" stop-color="#482C97"/>
</linearGradient>
<linearGradient id="paint8_linear_28013_322" x1="119.224" y1="266.346" x2="119.224" y2="125.389" gradientUnits="userSpaceOnUse">
<stop stop-color="#38328A"/>
<stop offset="1" stop-color="#5C43A2"/>
</linearGradient>
<linearGradient id="paint9_linear_28013_322" x1="165.898" y1="262.123" x2="165.898" y2="121.71" gradientUnits="userSpaceOnUse">
<stop stop-color="#38328A"/>
<stop offset="1" stop-color="#5C43A2"/>
</linearGradient>
<linearGradient id="paint10_linear_28013_322" x1="144.643" y1="209.543" x2="144.643" y2="137.629" gradientUnits="userSpaceOnUse">
<stop stop-color="#FFB595"/>
<stop offset="0.984" stop-color="#FFAEA9"/>
</linearGradient>
<linearGradient id="paint11_linear_28013_322" x1="150.949" y1="151.78" x2="173.329" y2="151.78" gradientUnits="userSpaceOnUse">
<stop offset="0.016" stop-color="white"/>
<stop offset="0.9916" stop-color="#EA9DC8"/>
</linearGradient>
<linearGradient id="paint12_linear_28013_322" x1="151.137" y1="169.303" x2="172.744" y2="169.303" gradientUnits="userSpaceOnUse">
<stop offset="0.0084" stop-color="#EA9DC8"/>
<stop offset="0.984" stop-color="#FFDBD6"/>
</linearGradient>
<linearGradient id="paint13_linear_28013_322" x1="151.41" y1="159.917" x2="153.372" y2="159.917" gradientUnits="userSpaceOnUse">
<stop offset="0.016" stop-color="white"/>
<stop offset="0.9916" stop-color="#EA9DC8"/>
</linearGradient>
<linearGradient id="paint14_linear_28013_322" x1="154.148" y1="163.21" x2="157.1" y2="163.21" gradientUnits="userSpaceOnUse">
<stop offset="0.016" stop-color="white"/>
<stop offset="0.9916" stop-color="#EA9DC8"/>
</linearGradient>
<linearGradient id="paint15_linear_28013_322" x1="156.43" y1="167.721" x2="159.194" y2="167.721" gradientUnits="userSpaceOnUse">
<stop offset="0.016" stop-color="white"/>
<stop offset="0.9916" stop-color="#EA9DC8"/>
</linearGradient>
<linearGradient id="paint16_linear_28013_322" x1="138.26" y1="143.938" x2="138.26" y2="110.834" gradientUnits="userSpaceOnUse">
<stop offset="0.016" stop-color="#FFA67F"/>
<stop offset="1" stop-color="#FF8B7C"/>
</linearGradient>
<linearGradient id="paint17_linear_28013_322" x1="133.784" y1="136.209" x2="133.784" y2="111.356" gradientUnits="userSpaceOnUse">
<stop offset="0.016" stop-color="white"/>
<stop offset="0.9916" stop-color="#F29DC8"/>
</linearGradient>
<linearGradient id="paint18_linear_28013_322" x1="106.465" y1="230.829" x2="106.465" y2="185.403" gradientUnits="userSpaceOnUse">
<stop stop-color="#38328A"/>
<stop offset="1" stop-color="#4F349B"/>
</linearGradient>
<linearGradient id="paint19_linear_28013_322" x1="214.015" y1="184.537" x2="214.015" y2="106.312" gradientUnits="userSpaceOnUse">
<stop stop-color="#FFB595"/>
<stop offset="0.984" stop-color="#FFAEA9"/>
</linearGradient>
<linearGradient id="paint20_linear_28013_322" x1="220.221" y1="125.711" x2="220.221" y2="115.476" gradientUnits="userSpaceOnUse">
<stop offset="0.016" stop-color="#FFDBD6"/>
<stop offset="0.9916" stop-color="#EA9DC8"/>
</linearGradient>
<linearGradient id="paint21_linear_28013_322" x1="204.254" y1="133.152" x2="219.464" y2="133.152" gradientUnits="userSpaceOnUse">
<stop offset="0.0084" stop-color="#EA9DC8"/>
<stop offset="0.984" stop-color="white"/>
</linearGradient>
<linearGradient id="paint22_linear_28013_322" x1="210.827" y1="204.983" x2="210.827" y2="146.661" gradientUnits="userSpaceOnUse">
<stop stop-color="#38328A"/>
<stop offset="1" stop-color="#4F349B"/>
</linearGradient>
<linearGradient id="paint23_linear_28013_322" x1="217.098" y1="172.891" x2="217.098" y2="139.673" gradientUnits="userSpaceOnUse">
<stop stop-color="#FF6686"/>
<stop offset="1" stop-color="#FF7C89"/>
</linearGradient>
<linearGradient id="paint24_linear_28013_322" x1="125.427" y1="213.053" x2="125.427" y2="176.683" gradientUnits="userSpaceOnUse">
<stop stop-color="#FF6686"/>
<stop offset="1" stop-color="#FF7C89"/>
</linearGradient>
<linearGradient id="paint25_linear_28013_322" x1="189.585" y1="182.787" x2="189.585" y2="143.435" gradientUnits="userSpaceOnUse">
<stop offset="0.0084" stop-color="#C2798B"/>
<stop offset="0.984" stop-color="white"/>
</linearGradient>
<linearGradient id="paint26_linear_28013_322" x1="106.935" y1="190.131" x2="106.935" y2="180.023" gradientUnits="userSpaceOnUse">
<stop offset="0.0084" stop-color="#C2798B"/>
<stop offset="0.984" stop-color="white"/>
</linearGradient>
<linearGradient id="paint27_linear_28013_322" x1="89.5975" y1="189.417" x2="110.45" y2="189.417" gradientUnits="userSpaceOnUse">
<stop offset="0.016" stop-color="white"/>
<stop offset="0.9916" stop-color="#C2798B"/>
</linearGradient>
<linearGradient id="paint28_linear_28013_322" x1="90.5586" y1="195.19" x2="107.093" y2="195.19" gradientUnits="userSpaceOnUse">
<stop offset="0.016" stop-color="white"/>
<stop offset="0.9916" stop-color="#C2798B"/>
</linearGradient>
<linearGradient id="paint29_linear_28013_322" x1="191.727" y1="166.556" x2="204.808" y2="166.556" gradientUnits="userSpaceOnUse">
<stop offset="0.016" stop-color="white"/>
<stop offset="0.9916" stop-color="#C2798B"/>
</linearGradient>
<linearGradient id="paint30_linear_28013_322" x1="199.805" y1="194.017" x2="224.848" y2="194.017" gradientUnits="userSpaceOnUse">
<stop offset="0.0084" stop-color="#C2798B"/>
<stop offset="0.984" stop-color="white"/>
</linearGradient>
<linearGradient id="paint31_linear_28013_322" x1="176.141" y1="285.662" x2="176.141" y2="167.976" gradientUnits="userSpaceOnUse">
<stop offset="0.0084" stop-color="#C2798B"/>
<stop offset="0.984" stop-color="white"/>
</linearGradient>
<linearGradient id="paint32_linear_28013_322" x1="97.6934" y1="291.525" x2="97.6934" y2="286.148" gradientUnits="userSpaceOnUse">
<stop offset="0.016" stop-color="white"/>
<stop offset="0.9916" stop-color="#C2798B"/>
</linearGradient>
<linearGradient id="paint33_linear_28013_322" x1="113.474" y1="291.681" x2="113.474" y2="203.423" gradientUnits="userSpaceOnUse">
<stop offset="0.016" stop-color="white"/>
<stop offset="0.9916" stop-color="#C2798B"/>
</linearGradient>
<linearGradient id="paint34_linear_28013_322" x1="88.0313" y1="224.685" x2="112.806" y2="224.685" gradientUnits="userSpaceOnUse">
<stop offset="0.0084" stop-color="#C2798B"/>
<stop offset="0.984" stop-color="white"/>
</linearGradient>
<linearGradient id="paint35_linear_28013_322" x1="191.007" y1="187.672" x2="206.787" y2="160.34" gradientUnits="userSpaceOnUse">
<stop offset="0.016" stop-color="white"/>
<stop offset="0.9916" stop-color="#C2798B"/>
</linearGradient>
<linearGradient id="paint36_linear_28013_322" x1="147.829" y1="69.7782" x2="144.01" y2="45.6708" gradientUnits="userSpaceOnUse">
<stop stop-color="#3E2987"/>
<stop offset="0.1442" stop-color="#372987"/>
<stop offset="0.6639" stop-color="#212885"/>
<stop offset="1" stop-color="#192885"/>
</linearGradient>
<linearGradient id="paint37_linear_28013_322" x1="130.128" y1="113.173" x2="130.128" y2="44.3438" gradientUnits="userSpaceOnUse">
<stop stop-color="#FFB595"/>
<stop offset="0.984" stop-color="#FFC2A9"/>
</linearGradient>
<linearGradient id="paint38_linear_28013_322" x1="127.224" y1="87.8095" x2="120.518" y2="45.4722" gradientUnits="userSpaceOnUse">
<stop offset="0.016" stop-color="white"/>
<stop offset="0.9916" stop-color="#F29DC8"/>
</linearGradient>
<linearGradient id="paint39_linear_28013_322" x1="116.466" y1="106.416" x2="104.127" y2="89.4335" gradientUnits="userSpaceOnUse">
<stop stop-color="#FFB595"/>
<stop offset="0.984" stop-color="#FF958D"/>
</linearGradient>
<linearGradient id="paint40_linear_28013_322" x1="102.562" y1="71.0905" x2="100.445" y2="57.7257" gradientUnits="userSpaceOnUse">
<stop stop-color="#3E2987"/>
<stop offset="0.5684" stop-color="#2C2F90"/>
<stop offset="1" stop-color="#243294"/>
</linearGradient>
<linearGradient id="paint41_linear_28013_322" x1="109.364" y1="103.567" x2="109.364" y2="93.5108" gradientUnits="userSpaceOnUse">
<stop offset="0.016" stop-color="white"/>
<stop offset="0.9916" stop-color="#F29DC8"/>
</linearGradient>
<linearGradient id="paint42_linear_28013_322" x1="134.747" y1="90.5526" x2="134.747" y2="63.5136" gradientUnits="userSpaceOnUse">
<stop offset="0.016" stop-color="white"/>
<stop offset="0.9916" stop-color="#F29DC8"/>
</linearGradient>
<linearGradient id="paint43_linear_28013_322" x1="122.309" y1="80.5751" x2="134.408" y2="80.5751" gradientUnits="userSpaceOnUse">
<stop offset="0.0084" stop-color="#EA9DC8"/>
<stop offset="0.984" stop-color="white"/>
</linearGradient>
<linearGradient id="paint44_linear_28013_322" x1="126.437" y1="85.0195" x2="126.437" y2="79.583" gradientUnits="userSpaceOnUse">
<stop offset="0.016" stop-color="#E0B3D1"/>
<stop offset="0.9916" stop-color="#C2798B"/>
</linearGradient>
<linearGradient id="paint45_linear_28013_322" x1="144.34" y1="73.199" x2="150.589" y2="73.199" gradientUnits="userSpaceOnUse">
<stop offset="0.016" stop-color="white"/>
<stop offset="0.9916" stop-color="#EA9DC8"/>
</linearGradient>
<linearGradient id="paint46_linear_28013_322" x1="146.62" y1="78.1776" x2="146.62" y2="72.7427" gradientUnits="userSpaceOnUse">
<stop offset="0.016" stop-color="#E0B3D1"/>
<stop offset="0.9916" stop-color="#C2798B"/>
</linearGradient>
<linearGradient id="paint47_linear_28013_322" x1="139.709" y1="91.1877" x2="139.709" y2="86.621" gradientUnits="userSpaceOnUse">
<stop offset="0.0084" stop-color="#EA9DC8"/>
<stop offset="0.984" stop-color="white"/>
</linearGradient>
<linearGradient id="paint48_linear_28013_322" x1="138.191" y1="95.4148" x2="134.768" y2="98.0964" gradientUnits="userSpaceOnUse">
<stop offset="0.016" stop-color="white"/>
<stop offset="0.9916" stop-color="#F29DC8"/>
</linearGradient>
<linearGradient id="paint49_linear_28013_322" x1="145.273" y1="68.3921" x2="145.273" y2="60.3262" gradientUnits="userSpaceOnUse">
<stop stop-color="#B877B8"/>
<stop offset="0.2337" stop-color="#9A6DBA"/>
<stop offset="0.5605" stop-color="#7762BB"/>
<stop offset="0.8276" stop-color="#615BBD"/>
<stop offset="1" stop-color="#5958BD"/>
</linearGradient>
<linearGradient id="paint50_linear_28013_322" x1="122.548" y1="78.2505" x2="123.43" y2="67.3682" gradientUnits="userSpaceOnUse">
<stop stop-color="#B877B8"/>
<stop offset="0.2337" stop-color="#9A6DBA"/>
<stop offset="0.5605" stop-color="#7762BB"/>
<stop offset="0.8276" stop-color="#615BBD"/>
<stop offset="1" stop-color="#5958BD"/>
</linearGradient>
<linearGradient id="paint51_linear_28013_322" x1="126.149" y1="110.603" x2="126.149" y2="91.5698" gradientUnits="userSpaceOnUse">
<stop offset="0.016" stop-color="white"/>
<stop offset="0.9916" stop-color="#F29DC8"/>
</linearGradient>
<linearGradient id="paint52_linear_28013_322" x1="150.719" y1="83.7103" x2="150.719" y2="64.2413" gradientUnits="userSpaceOnUse">
<stop stop-color="#26258A"/>
<stop offset="1" stop-color="#3C2C95"/>
</linearGradient>
<linearGradient id="paint53_linear_28013_322" x1="127.491" y1="91.9402" x2="127.491" y2="72.1035" gradientUnits="userSpaceOnUse">
<stop stop-color="#26258A"/>
<stop offset="1" stop-color="#3C2C95"/>
</linearGradient>
<linearGradient id="paint54_linear_28013_322" x1="112.804" y1="89.8748" x2="112.804" y2="80.9526" gradientUnits="userSpaceOnUse">
<stop stop-color="#26258A"/>
<stop offset="1" stop-color="#3C2C95"/>
</linearGradient>
<linearGradient id="paint55_linear_28013_322" x1="137.766" y1="83.8542" x2="150.176" y2="83.8542" gradientUnits="userSpaceOnUse">
<stop stop-color="#FFB595"/>
<stop offset="0.984" stop-color="#FFC2A9"/>
</linearGradient>
<linearGradient id="paint56_linear_28013_322" x1="143.949" y1="90.9211" x2="143.949" y2="79.3462" gradientUnits="userSpaceOnUse">
<stop offset="0.0084" stop-color="#F29DC8"/>
<stop offset="0.984" stop-color="white"/>
</linearGradient>
<linearGradient id="paint57_linear_28013_322" x1="144.692" y1="91.077" x2="144.692" y2="84.9155" gradientUnits="userSpaceOnUse">
<stop offset="0.0084" stop-color="#F29DC8"/>
<stop offset="0.984" stop-color="white"/>
</linearGradient>
<linearGradient id="paint58_linear_28013_322" x1="147.297" y1="85.6667" x2="150.473" y2="85.6667" gradientUnits="userSpaceOnUse">
<stop offset="0.0084" stop-color="#EA9DC8"/>
<stop offset="0.984" stop-color="#FFDBD6"/>
</linearGradient>
<linearGradient id="paint59_linear_28013_322" x1="117.057" y1="71.616" x2="129.043" y2="72.5877" gradientUnits="userSpaceOnUse">
<stop offset="0.016" stop-color="white"/>
<stop offset="0.9916" stop-color="#F29DC8"/>
</linearGradient>
<linearGradient id="paint60_linear_28013_322" x1="146.091" y1="102.083" x2="146.091" y2="98.021" gradientUnits="userSpaceOnUse">
<stop offset="0.016" stop-color="white"/>
<stop offset="0.9916" stop-color="#F29DC8"/>
</linearGradient>
<linearGradient id="paint61_linear_28013_322" x1="128.864" y1="51.6802" x2="126.51" y2="36.8161" gradientUnits="userSpaceOnUse">
<stop stop-color="#3E2987"/>
<stop offset="0.5684" stop-color="#2C2F90"/>
<stop offset="1" stop-color="#243294"/>
</linearGradient>
<linearGradient id="paint62_linear_28013_322" x1="129.435" y1="92.3079" x2="120.626" y2="36.6908" gradientUnits="userSpaceOnUse">
<stop stop-color="#3E2987"/>
<stop offset="0.5684" stop-color="#2C2F90"/>
<stop offset="1" stop-color="#243294"/>
</linearGradient>
<linearGradient id="paint63_linear_28013_322" x1="115.196" y1="55.8756" x2="112.7" y2="40.1154" gradientUnits="userSpaceOnUse">
<stop stop-color="#3E2987"/>
<stop offset="0.5684" stop-color="#2C2F90"/>
<stop offset="1" stop-color="#243294"/>
</linearGradient>
<linearGradient id="paint64_linear_28013_322" x1="110.027" y1="51.0188" x2="151.6" y2="51.0188" gradientUnits="userSpaceOnUse">
<stop offset="0.016" stop-color="white"/>
<stop offset="0.9916" stop-color="#C2798B"/>
</linearGradient>
<linearGradient id="paint65_linear_28013_322" x1="105.849" y1="88.3632" x2="105.849" y2="58.7403" gradientUnits="userSpaceOnUse">
<stop offset="0.016" stop-color="white"/>
<stop offset="0.9916" stop-color="#C2798B"/>
</linearGradient>
<linearGradient id="paint66_linear_28013_322" x1="107.998" y1="89.264" x2="107.998" y2="72.3711" gradientUnits="userSpaceOnUse">
<stop offset="0.016" stop-color="white"/>
<stop offset="0.9916" stop-color="#C2798B"/>
</linearGradient>
<clipPath id="clip0_28013_322">
<rect width="300" height="300" fill="white"/>
</clipPath>
</defs>
</svg>
