<svg xmlns="http://www.w3.org/2000/svg" width="24" height="24" viewBox="0 0 24 24" fill="none">
  <path d="M4 11.7773C4.00001 11.5961 4.06564 11.421 4.18477 11.2844C4.30389 11.1478 4.46845 11.059 4.648 11.0343L4.75 11.0273H19.75C19.94 11.0274 20.1229 11.0996 20.2618 11.2293C20.4006 11.359 20.4851 11.5366 20.498 11.7262C20.511 11.9158 20.4515 12.1032 20.3316 12.2506C20.2117 12.398 20.0402 12.4944 19.852 12.5203L19.75 12.5273H4.75C4.55109 12.5273 4.36032 12.4483 4.21967 12.3077C4.07902 12.167 4 11.9763 4 11.7773Z" fill="white"/>
  <path d="M13.1708 6.28414C13.0355 6.15082 12.9559 5.97117 12.9479 5.78143C12.94 5.59169 13.0043 5.406 13.1279 5.26183C13.2515 5.11766 13.4252 5.02575 13.6139 5.00465C13.8027 4.98355 13.9924 5.03483 14.1448 5.14814L14.2288 5.22114L20.2788 11.2451C20.4063 11.3722 20.4839 11.541 20.4973 11.7206C20.5107 11.9001 20.459 12.0785 20.3518 12.2231L20.2788 12.3081L14.2288 18.3331C14.0944 18.4663 13.9148 18.5438 13.7257 18.5501C13.5367 18.5565 13.3522 18.4911 13.2093 18.3672C13.0664 18.2432 12.9756 18.0699 12.9551 17.8818C12.9346 17.6938 12.9859 17.5049 13.0988 17.3531L13.1708 17.2701L18.6868 11.7761L13.1708 6.28414Z" fill="white"/>
</svg>