<svg width="19" height="14" viewBox="0 0 19 14" fill="none" xmlns="http://www.w3.org/2000/svg">
<path d="M18.0296 2.54306C17.8225 1.76308 17.2121 1.1488 16.4372 0.940331C15.0326 0.561523 9.40026 0.561523 9.40026 0.561523C9.40026 0.561523 3.76795 0.561523 2.3633 0.940331C1.58837 1.14883 0.978045 1.76308 0.770898 2.54306C0.394531 3.95681 0.394531 6.90646 0.394531 6.90646C0.394531 6.90646 0.394531 9.85612 0.770898 11.2699C0.978045 12.0498 1.58837 12.6385 2.3633 12.847C3.76795 13.2258 9.40026 13.2258 9.40026 13.2258C9.40026 13.2258 15.0326 13.2258 16.4372 12.847C17.2121 12.6385 17.8225 12.0498 18.0296 11.2699C18.406 9.85612 18.406 6.90646 18.406 6.90646C18.406 6.90646 18.406 3.95681 18.0296 2.54306V2.54306ZM7.55817 9.58453L7.55817 4.22839L12.2657 6.90653L7.55817 9.58453V9.58453Z" fill="#00ADEC"/>
<path d="M16.307 1.42308L16.3073 1.42316C16.9083 1.58484 17.3848 2.06307 17.5464 2.6714L18.0296 2.54306L17.5464 2.67168C17.7196 3.32206 17.8125 4.36476 17.8596 5.28061C17.8828 5.73109 17.8944 6.13851 17.9002 6.43333C17.9031 6.58064 17.9046 6.69956 17.9053 6.78136L17.9059 6.87508L17.906 6.89898L17.906 6.90482L17.906 6.90618V6.90643V6.90675L17.906 6.9081L17.906 6.91395L17.9059 6.93784L17.9053 7.03156C17.9046 7.11337 17.9031 7.23229 17.9002 7.37959C17.8944 7.67442 17.8828 8.08183 17.8596 8.53231C17.8125 9.44817 17.7196 10.4909 17.5464 11.1412L17.5464 11.1415C17.3871 11.7412 16.9171 12.2001 16.3073 12.3642L16.307 12.3643C16.0081 12.4449 15.4379 12.5138 14.7085 12.5673C13.9932 12.6199 13.1655 12.6551 12.3771 12.6787C11.5894 12.7022 10.8448 12.714 10.2969 12.7199C10.023 12.7229 9.79854 12.7243 9.64265 12.7251L9.46274 12.7257L9.41592 12.7258L9.40408 12.7258L9.40115 12.7258H9.40045H9.40029L9.40026 13.2258L9.40023 12.7258H9.40007H9.39936L9.39644 12.7258L9.3846 12.7258L9.33777 12.7257L9.15786 12.7251C9.00198 12.7243 8.7775 12.7229 8.50364 12.7199C7.95573 12.714 7.21115 12.7022 6.42347 12.6787C5.63497 12.6551 4.80731 12.6199 4.09202 12.5673C3.3626 12.5138 2.79239 12.4449 2.49349 12.3642L2.49319 12.3642C1.88343 12.2001 1.41342 11.7412 1.25415 11.1415L1.25407 11.1412C1.08093 10.4909 0.988051 9.44817 0.940916 8.53231C0.917732 8.08183 0.906121 7.67442 0.900315 7.37959C0.897414 7.23229 0.895968 7.11337 0.895247 7.03156L0.894619 6.93784L0.894542 6.91395L0.894532 6.9081L0.894531 6.90675L0.894531 6.90649V6.90647V6.90645V6.90643L0.894531 6.90618L0.894532 6.90482L0.894542 6.89898L0.894619 6.87508L0.895247 6.78136C0.895968 6.69956 0.897414 6.58064 0.900315 6.43333C0.906121 6.13851 0.917732 5.73109 0.940916 5.28061C0.988051 4.36476 1.08093 3.32206 1.25407 2.67168L1.25415 2.6714C1.4157 2.06308 1.89217 1.58487 2.49321 1.42316L2.49349 1.42308C2.79239 1.34247 3.3626 1.27354 4.09202 1.21999C4.80731 1.16747 5.63497 1.13223 6.42347 1.10865C7.21115 1.0851 7.95573 1.07331 8.50364 1.06741C8.7775 1.06447 9.00198 1.06299 9.15786 1.06226L9.33777 1.06161L9.3846 1.06153L9.39644 1.06152L9.39936 1.06152L9.40007 1.06152H9.40023L9.40026 0.561523L9.40029 1.06152H9.40045L9.40115 1.06152L9.40408 1.06152L9.41592 1.06153L9.46274 1.06161L9.64266 1.06226C9.79854 1.06299 10.023 1.06447 10.2969 1.06741C10.8448 1.07331 11.5894 1.0851 12.3771 1.10865C13.1656 1.13223 13.9932 1.16747 14.7085 1.21999C15.4379 1.27354 16.0081 1.34247 16.307 1.42308ZM7.80541 3.7938L7.05817 3.36869V4.22839L7.05817 9.58453H7.55817L7.8054 10.0191L12.5129 7.34113L13.2769 6.90654L12.5129 6.47194L7.80541 3.7938Z" stroke="white" stroke-opacity="0.2"/>
</svg>
