 <svg xmlns="http://www.w3.org/2000/svg" width="40" height="41" viewBox="0 0 40 41" fill="none">
                <path fill-rule="evenodd" clip-rule="evenodd" d="M5.73844 30.1954H1.52197C1.43392 30.1954 1.34685 30.1769 1.26643 30.1411C1.18601 30.1052 1.11404 30.0528 1.0552 29.9873C0.996356 29.9218 0.95196 29.8447 0.924898 29.7609C0.897836 29.6771 0.888714 29.5886 0.898125 29.501C1.47828 24.0987 5.37444 19.6885 10.51 18.3499C8.37703 17.183 6.92534 14.9158 6.92534 12.3212C6.92534 8.54069 10.0071 5.45559 13.7876 5.45559C17.5716 5.45559 20.6531 8.54077 20.6531 12.3212C20.6531 14.9159 19.2013 17.1832 17.0671 18.35C21.7582 19.5726 25.4137 23.3562 26.453 28.1176H27.5911L28.8024 24.3895C28.8682 24.187 28.9964 24.0106 29.1686 23.8854C29.3409 23.7603 29.5483 23.6929 29.7612 23.6929C29.9741 23.6929 30.1815 23.7603 30.3537 23.8854C30.526 24.0106 30.6541 24.187 30.7199 24.3895L31.9312 28.1176H35.8511C36.064 28.1176 36.2714 28.185 36.4437 28.3101C36.6159 28.4352 36.7441 28.6116 36.8099 28.8141C36.8757 29.0166 36.8757 29.2347 36.8099 29.4371C36.7441 29.6396 36.6159 29.816 36.4437 29.9412L33.2724 32.2453L34.4838 35.9734C34.5496 36.1759 34.5496 36.394 34.4838 36.5964C34.418 36.7989 34.2898 36.9753 34.1176 37.1005C33.9453 37.2256 33.7379 37.293 33.525 37.293C33.3121 37.293 33.1047 37.2256 32.9325 37.1005L29.7612 34.7964L26.5899 37.1005C26.4177 37.2256 26.2102 37.293 25.9974 37.293C25.7845 37.293 25.577 37.2256 25.4048 37.1005C25.2326 36.9753 25.1044 36.7989 25.0386 36.5964C24.9728 36.394 24.9728 36.1759 25.0386 35.9734L26.2499 32.2453L23.4286 30.1954H21.8367C21.9023 30.2543 21.9548 30.3263 21.9907 30.4068C22.0266 30.4872 22.0451 30.5744 22.0451 30.6625V32.727C22.0451 32.8538 22.0067 32.9777 21.9349 33.0822C21.8632 33.1867 21.7614 33.2671 21.6431 33.3126L20.6785 33.6838C20.5301 34.1966 20.325 34.6912 20.0669 35.1585L20.4861 36.105C20.5374 36.2208 20.5525 36.3495 20.5293 36.474C20.5061 36.5986 20.4457 36.7132 20.3562 36.8028L18.8966 38.2623C18.8071 38.3519 18.6924 38.4122 18.5679 38.4354C18.4433 38.4586 18.3147 38.4436 18.1988 38.3923L17.2534 37.9735C16.786 38.2321 16.291 38.4372 15.7776 38.5848L15.4064 39.5492C15.3609 39.6675 15.2806 39.7693 15.176 39.8411C15.0715 39.9128 14.9477 39.9513 14.8209 39.9513H12.7564C12.6296 39.9513 12.5058 39.9129 12.4012 39.8411C12.2967 39.7693 12.2164 39.6675 12.1708 39.5492L11.7997 38.5849C11.2861 38.4367 10.7907 38.2315 10.3228 37.973L9.37632 38.3923C9.26048 38.4436 9.13182 38.4586 9.00726 38.4354C8.88271 38.4122 8.7681 38.3519 8.67852 38.2623L7.21907 36.8028C7.12936 36.7131 7.06895 36.5984 7.04579 36.4736C7.02263 36.3489 7.03782 36.2201 7.08934 36.1042C7.08934 36.1042 7.50958 35.159 7.50965 35.1591C7.25115 34.6918 7.04577 34.1971 6.89734 33.6841L5.93209 33.3126C5.81376 33.2671 5.71201 33.1867 5.64024 33.0822C5.56848 32.9777 5.53006 32.8538 5.53005 32.727V30.6625C5.53005 30.4808 5.60832 30.3122 5.73844 30.1954ZM13.7876 19.1867C7.9884 19.1867 3.17373 23.4045 2.2415 28.9405H7.16605C7.26737 28.6971 7.38214 28.4595 7.50981 28.2288L7.08934 27.2833C7.03782 27.1674 7.02263 27.0386 7.04579 26.9139C7.06895 26.7891 7.12936 26.6744 7.21907 26.5847L8.67852 25.1252C8.76821 25.0355 8.88298 24.9751 9.00769 24.9519C9.13241 24.9288 9.2612 24.944 9.37711 24.9955L10.3226 25.4159C10.7899 25.1575 11.2848 24.9524 11.7979 24.8046L12.171 23.8377C12.2166 23.7195 12.297 23.6179 12.4015 23.5462C12.5059 23.4745 12.6297 23.4361 12.7564 23.4361H14.8209C15.0806 23.4361 15.3134 23.5961 15.4066 23.8386L15.7778 24.8048C16.2908 24.9525 16.7854 25.1575 17.2526 25.4159L18.198 24.9955C18.3139 24.944 18.4427 24.9288 18.5675 24.9519C18.6922 24.9751 18.8069 25.0355 18.8966 25.1252L20.3562 26.5847C20.4457 26.6743 20.5061 26.7889 20.5293 26.9134C20.5525 27.038 20.5374 27.1667 20.4861 27.2825L20.0671 28.2283C20.1949 28.4591 20.3097 28.6969 20.4109 28.9405H22.6802C22.7234 28.7093 22.8461 28.5004 23.0271 28.3501C23.2081 28.1998 23.4359 28.1176 23.6711 28.1176H25.1652C23.9191 22.9918 19.2986 19.1867 13.7876 19.1867ZM24.4308 29.3725L27.1326 31.3354C27.3049 31.4606 27.4331 31.637 27.4989 31.8395C27.5646 32.0419 27.5646 32.26 27.4988 32.4625L26.4668 35.6387L29.1686 33.6758C29.3409 33.5506 29.5483 33.4832 29.7612 33.4832C29.9741 33.4832 30.1815 33.5506 30.3537 33.6757L33.0555 35.6387L32.0235 32.4625C31.9577 32.26 31.9577 32.0419 32.0235 31.8395C32.0893 31.637 32.2175 31.4606 32.3897 31.3354L35.0915 29.3725H31.7519C31.539 29.3725 31.3316 29.3051 31.1594 29.1799C30.9872 29.0548 30.859 28.8784 30.7932 28.6759L29.7612 25.4998L28.7292 28.6759C28.6634 28.8784 28.5352 29.0548 28.363 29.1799C28.1907 29.3051 27.9833 29.3725 27.7704 29.3725H24.4308ZM13.7876 17.9317C16.8799 17.9317 19.3982 15.4106 19.3982 12.3212C19.3982 9.23175 16.8799 6.71049 13.7876 6.71049C10.6983 6.71049 8.18024 9.23183 8.18024 12.3212C8.18024 15.4104 10.6983 17.9317 13.7876 17.9317ZM14.7217 25.5548L14.3898 24.691H13.1868L12.8532 25.5557C12.8165 25.6507 12.7572 25.7353 12.6805 25.8023C12.6038 25.8693 12.512 25.9167 12.4129 25.9402C11.8044 26.0848 11.2229 26.3257 10.6904 26.6539C10.6036 26.7075 10.505 26.739 10.4033 26.7458C10.3015 26.7527 10.1996 26.7346 10.1064 26.6932L9.26111 26.3173L8.41115 27.1673L8.78699 28.0125C8.82843 28.1057 8.84653 28.2076 8.83971 28.3094C8.83289 28.4112 8.80136 28.5098 8.74785 28.5966C8.41918 29.1303 8.17744 29.7128 8.03169 30.3224C8.00795 30.4213 7.96052 30.513 7.89349 30.5895C7.82646 30.666 7.74184 30.7251 7.64691 30.7616L6.78495 31.0933V32.2961L7.64691 32.6279C7.74177 32.6644 7.82634 32.7234 7.89334 32.7998C7.96034 32.8763 8.00777 32.9678 8.03154 33.0667C8.17813 33.6755 8.41844 34.2582 8.7473 34.79C8.80105 34.8769 8.83276 34.9756 8.83968 35.0775C8.84659 35.1795 8.82851 35.2815 8.78699 35.3749L8.41115 36.2202L9.26158 37.0707L10.1072 36.6961C10.2001 36.6549 10.3016 36.6369 10.4029 36.6437C10.5043 36.6504 10.6025 36.6816 10.6891 36.7347C11.2229 37.0618 11.8036 37.3045 12.4145 37.4492C12.5138 37.4728 12.6058 37.5201 12.6827 37.5872C12.7595 37.6544 12.8188 37.7392 12.8555 37.8344L13.1872 38.6964H14.39L14.7218 37.8344C14.7584 37.7393 14.8177 37.6545 14.8944 37.5874C14.9712 37.5203 15.0631 37.4729 15.1623 37.4493C15.7706 37.3052 16.3519 37.0644 16.8839 36.7361C16.9706 36.6824 17.0692 36.6507 17.171 36.6437C17.2728 36.6368 17.3747 36.6547 17.468 36.6961L18.3136 37.0707L19.1645 36.2197L18.7899 35.3741C18.7488 35.2812 18.7308 35.1798 18.7375 35.0784C18.7443 34.977 18.7755 34.8788 18.8286 34.7922C19.1557 34.2583 19.3984 33.6776 19.5431 33.0685C19.5667 32.9693 19.6141 32.8773 19.6812 32.8006C19.7483 32.7238 19.8331 32.6645 19.9282 32.6279L20.7902 32.2961V31.0933L19.9282 30.7616C19.833 30.725 19.7482 30.6656 19.6811 30.5888C19.614 30.512 19.5666 30.42 19.5431 30.3207C19.3989 29.7115 19.1579 29.1295 18.8294 28.5966C18.776 28.5099 18.7445 28.4115 18.7376 28.3098C18.7307 28.2082 18.7486 28.1064 18.7899 28.0133L19.1645 27.1677L18.314 26.3173L17.4688 26.6932C17.3756 26.7346 17.2737 26.7527 17.1719 26.7458C17.0701 26.739 16.9715 26.7075 16.8847 26.6539C16.3523 26.3257 15.7708 26.0848 15.1623 25.9402C15.063 25.9166 14.971 25.8692 14.8943 25.802C14.8175 25.7349 14.7582 25.65 14.7217 25.5548ZM13.7876 27.4654C16.1239 27.4654 18.018 29.3575 18.018 31.6937C18.018 34.0299 16.1237 35.9241 13.7876 35.9241C11.4514 35.9241 9.55922 34.0299 9.55922 31.6937C9.55922 29.3574 11.4512 27.4654 13.7876 27.4654ZM13.7876 28.7203C12.1446 28.7203 10.8141 30.0507 10.8141 31.6937C10.8141 33.3368 12.1446 34.6692 13.7876 34.6692C15.4308 34.6692 16.7631 33.3368 16.7631 31.6937C16.7631 30.0507 15.4307 28.7203 13.7876 28.7203ZM37.4748 6.62383L33.9569 2.47943L30.4389 6.62383H31.7043C31.8707 6.62383 32.0303 6.68993 32.148 6.8076C32.2657 6.92527 32.3318 7.08487 32.3318 7.25128V18.3216C32.3318 18.6678 32.0507 18.949 31.7043 18.949C31.358 18.949 31.0769 18.6678 31.0769 18.3216V7.87873H29.7437C29.3675 7.87873 29.0514 7.6752 28.8955 7.33536C28.7404 6.9992 28.7903 6.62202 29.0342 6.33951L33.2446 1.37943C33.4249 1.16492 33.6695 1.04932 33.9569 1.04932C34.2365 1.04932 34.481 1.16092 34.6654 1.37504L34.6683 1.37841L38.881 6.34124C39.1206 6.62281 39.1712 6.99967 39.0162 7.33536C38.8599 7.67638 38.5416 7.87873 38.1701 7.87873H36.8349V14.8463C36.8349 15.1926 36.5537 15.4738 36.2075 15.4738C35.8611 15.4738 35.58 15.1926 35.58 14.8463V7.25128C35.58 7.08487 35.6461 6.92527 35.7638 6.8076C35.8815 6.68993 36.041 6.62383 36.2075 6.62383H37.4748ZM35.58 16.5839C35.58 16.2376 35.8611 15.9565 36.2075 15.9565C36.5537 15.9565 36.8349 16.2376 36.8349 16.5839V18.3216C36.8349 18.6678 36.5537 18.949 36.2075 18.949C35.8611 18.949 35.58 18.6678 35.58 18.3216V16.5839ZM35.58 20.0591C35.58 19.7128 35.8611 19.4317 36.2075 19.4317C36.5537 19.4317 36.8349 19.7128 36.8349 20.0591V21.7539C36.8349 22.1002 36.5537 22.3814 36.2075 22.3814C35.8611 22.3814 35.58 22.1002 35.58 21.7539V20.0591ZM32.3318 21.7539C32.3318 22.1002 32.0507 22.3814 31.7043 22.3814C31.358 22.3814 31.0769 22.1002 31.0769 21.7539V20.0591C31.0769 19.7128 31.358 19.4317 31.7043 19.4317C32.0507 19.4317 32.3318 19.7128 32.3318 20.0591V21.7539ZM28.3853 13.4231L25.5556 10.0896L22.7259 13.4231H23.6212C23.7876 13.4231 23.9472 13.4892 24.0649 13.6069C24.1825 13.7246 24.2486 13.8842 24.2486 14.0506V19.7307C24.2486 20.077 23.9675 20.3582 23.6212 20.3582C23.2749 20.3582 22.9937 20.077 22.9937 19.7307V14.678H21.9374C21.5786 14.678 21.2772 14.4839 21.1286 14.1598C20.9806 13.8392 21.0282 13.4794 21.2607 13.21L24.8762 8.95081C25.0482 8.74626 25.2814 8.6359 25.5556 8.6359C25.8222 8.6359 26.0554 8.74226 26.2312 8.94641L26.2341 8.94979L29.8518 13.2116C30.0803 13.4802 30.1287 13.8397 29.981 14.1598C29.8318 14.4851 29.5281 14.678 29.1738 14.678H28.1158V23.4599C28.1158 23.8062 27.8346 24.0874 27.4883 24.0874C27.142 24.0874 26.8609 23.8062 26.8609 23.4599V14.0506C26.8609 13.8842 26.927 13.7246 27.0446 13.6069C27.1623 13.4892 27.3219 13.4231 27.4883 13.4231H28.3853Z" fill="#212B36"/>
              </svg>