<svg xmlns="http://www.w3.org/2000/svg" width="56" height="56" viewBox="0 0 56 56" fill="none">
  <path d="M17.0977 15.1484H11.957C11.725 15.1484 11.5024 15.2406 11.3383 15.4047C11.1742 15.5688 11.082 15.7914 11.082 16.0234V21.1641C11.082 21.3961 11.1742 21.6187 11.3383 21.7828C11.5024 21.9469 11.725 22.0391 11.957 22.0391H17.0977C17.3297 22.0391 17.5523 21.9469 17.7164 21.7828C17.8805 21.6187 17.9727 21.3961 17.9727 21.1641V16.0234C17.9727 15.7914 17.8805 15.5688 17.7164 15.4047C17.5523 15.2406 17.3297 15.1484 17.0977 15.1484ZM16.2227 20.2891H12.832V16.8984H16.2227V20.2891ZM21.9102 16.0235C21.9102 15.7915 22.0023 15.5689 22.1664 15.4048C22.3305 15.2407 22.5531 15.1485 22.7852 15.1485H35.8555C36.0875 15.1485 36.3101 15.2407 36.4742 15.4048C36.6383 15.5689 36.7305 15.7915 36.7305 16.0235C36.7305 16.2556 36.6383 16.4782 36.4742 16.6423C36.3101 16.8064 36.0875 16.8985 35.8555 16.8985H22.7852C22.5531 16.8985 22.3305 16.8064 22.1664 16.6423C22.0023 16.4782 21.9102 16.2556 21.9102 16.0235ZM21.9102 21.1641C21.9102 20.932 22.0023 20.7094 22.1664 20.5453C22.3305 20.3812 22.5531 20.2891 22.7852 20.2891H35.8555C36.0875 20.2891 36.3101 20.3812 36.4742 20.5453C36.6383 20.7094 36.7305 20.932 36.7305 21.1641C36.7305 21.3961 36.6383 21.6187 36.4742 21.7828C36.3101 21.9469 36.0875 22.0391 35.8555 22.0391H22.7852C22.5531 22.0391 22.3305 21.9469 22.1664 21.7828C22.0023 21.6187 21.9102 21.3961 21.9102 21.1641ZM17.0977 26.8516H11.957C11.725 26.8516 11.5024 26.9437 11.3383 27.1078C11.1742 27.2719 11.082 27.4945 11.082 27.7266V32.8672C11.082 33.0993 11.1742 33.3218 11.3383 33.4859C11.5024 33.65 11.725 33.7422 11.957 33.7422H17.0977C17.3297 33.7422 17.5523 33.65 17.7164 33.4859C17.8805 33.3218 17.9727 33.0993 17.9727 32.8672V27.7266C17.9727 27.4945 17.8805 27.2719 17.7164 27.1078C17.5523 26.9437 17.3297 26.8516 17.0977 26.8516ZM16.2227 31.9922H12.832V28.6016H16.2227V31.9922ZM21.9102 27.7266C21.9102 27.4945 22.0023 27.2719 22.1664 27.1078C22.3305 26.9437 22.5531 26.8516 22.7852 26.8516H35.8555C36.0875 26.8516 36.3101 26.9437 36.4742 27.1078C36.6383 27.2719 36.7305 27.4945 36.7305 27.7266C36.7305 27.9586 36.6383 28.1812 36.4742 28.3453C36.3101 28.5094 36.0875 28.6016 35.8555 28.6016H22.7852C22.5531 28.6016 22.3305 28.5094 22.1664 28.3453C22.0023 28.1812 21.9102 27.9586 21.9102 27.7266ZM21.9102 32.8672C21.9102 32.6351 22.0023 32.4126 22.1664 32.2485C22.3305 32.0844 22.5531 31.9922 22.7852 31.9922H35.8555C36.0875 31.9922 36.3101 32.0844 36.4742 32.2485C36.6383 32.4126 36.7305 32.6351 36.7305 32.8672C36.7305 33.0993 36.6383 33.3218 36.4742 33.4859C36.3101 33.65 36.0875 33.7422 35.8555 33.7422H22.7852C22.5531 33.7422 22.3305 33.65 22.1664 33.4859C22.0023 33.3218 21.9102 33.0993 21.9102 32.8672ZM17.0977 38.5547H11.957C11.725 38.5547 11.5024 38.6469 11.3383 38.811C11.1742 38.9751 11.082 39.1976 11.082 39.4297V44.5703C11.082 44.8024 11.1742 45.0249 11.3383 45.189C11.5024 45.3531 11.725 45.4453 11.957 45.4453H17.0977C17.3297 45.4453 17.5523 45.3531 17.7164 45.189C17.8805 45.0249 17.9727 44.8024 17.9727 44.5703V39.4297C17.9727 39.1976 17.8805 38.9751 17.7164 38.811C17.5523 38.6469 17.3297 38.5547 17.0977 38.5547ZM16.2227 43.6953H12.832V40.3047H16.2227V43.6953ZM31.267 39.4297C31.267 39.6618 31.1748 39.8843 31.0107 40.0484C30.8466 40.2125 30.624 40.3047 30.392 40.3047H22.7852C22.5531 40.3047 22.3305 40.2125 22.1664 40.0484C22.0023 39.8843 21.9102 39.6618 21.9102 39.4297C21.9102 39.1976 22.0023 38.9751 22.1664 38.811C22.3305 38.6469 22.5531 38.5547 22.7852 38.5547H30.392C30.624 38.5547 30.8466 38.6469 31.0107 38.811C31.1748 38.9751 31.267 39.1976 31.267 39.4297ZM31.267 44.5702C31.267 44.8023 31.1748 45.0248 31.0107 45.1889C30.8466 45.353 30.624 45.4452 30.392 45.4452H22.7852C22.5531 45.4452 22.3305 45.353 22.1664 45.1889C22.0023 45.0248 21.9102 44.8023 21.9102 44.5702C21.9102 44.3381 22.0023 44.1156 22.1664 43.9515C22.3305 43.7874 22.5531 43.6952 22.7852 43.6952H30.392C30.624 43.6952 30.8466 43.7874 31.0107 43.9515C31.1748 44.1156 31.267 44.3381 31.267 44.5702ZM48.1901 42.5522C48.355 42.7155 48.4483 42.9376 48.4495 43.1696C48.4507 43.4017 48.3596 43.6247 48.1964 43.7896L42.2366 49.8088C42.1555 49.8907 42.059 49.9558 41.9527 50.0003C41.8464 50.0448 41.7323 50.0679 41.617 50.0682H41.6148C41.3828 50.0681 41.1602 49.976 40.9961 49.8119L37.6818 46.4975C37.5997 46.4164 37.5345 46.3199 37.4899 46.2136C37.4453 46.1072 37.4221 45.9931 37.4217 45.8777C37.4214 45.7624 37.4438 45.6481 37.4878 45.5414C37.5318 45.4348 37.5964 45.3379 37.678 45.2563C37.7596 45.1747 37.8564 45.1101 37.9631 45.0661C38.0697 45.0221 38.184 44.9997 38.2994 45C38.4147 45.0004 38.5289 45.0235 38.6352 45.0681C38.7416 45.1128 38.8381 45.178 38.9192 45.26L41.6117 47.9526L46.9528 42.5583C47.0336 42.4766 47.1297 42.4117 47.2357 42.3672C47.3416 42.3227 47.4553 42.2995 47.5702 42.2989C47.6851 42.2983 47.799 42.3204 47.9054 42.3639C48.0117 42.4074 48.1085 42.4714 48.1901 42.5522ZM43.8125 36.4067V8.75C43.8125 7.06136 42.4386 5.6875 40.75 5.6875H33.2031V3.71875C33.2031 3.48669 33.1109 3.26413 32.9468 3.10003C32.7827 2.93594 32.5602 2.84375 32.3281 2.84375H28.1556C27.4583 1.13958 25.7982 0 23.9062 0C22.0143 0 20.3542 1.13947 19.6569 2.84375H15.4844C15.2523 2.84375 15.0297 2.93594 14.8657 3.10003C14.7016 3.26413 14.6094 3.48669 14.6094 3.71875V5.6875H7.0625C5.37386 5.6875 4 7.06136 4 8.75V49C4 50.6886 5.37386 52.0625 7.0625 52.0625H35.0809C36.8731 54.4516 39.7278 56 42.9375 56C48.3503 56 52.7539 51.5963 52.7539 46.1836C52.7539 41.0657 48.8168 36.8508 43.8125 36.4067ZM16.3594 4.59375H20.2913C20.4877 4.59375 20.6784 4.52767 20.8327 4.40616C20.987 4.28464 21.0959 4.11475 21.1419 3.92383C21.4506 2.64392 22.5873 1.75 23.9062 1.75C25.2252 1.75 26.3619 2.64392 26.6706 3.92383C26.7166 4.11475 26.8255 4.28464 26.9798 4.40616C27.1341 4.52767 27.3248 4.59375 27.5212 4.59375H31.4531V8.53125H16.3594V4.59375ZM7.0625 50.3125C6.33877 50.3125 5.75 49.7237 5.75 49V8.75C5.75 8.02627 6.33877 7.4375 7.0625 7.4375H14.6094V9.40625C14.6094 9.63831 14.7016 9.86087 14.8657 10.025C15.0297 10.1891 15.2523 10.2812 15.4844 10.2812H32.3281C32.5602 10.2812 32.7827 10.1891 32.9468 10.025C33.1109 9.86087 33.2031 9.63831 33.2031 9.40625V7.4375H40.75C41.4737 7.4375 42.0625 8.02627 42.0625 8.75V36.4067C37.058 36.8508 33.1211 41.0657 33.1211 46.1836C33.1211 47.6577 33.4483 49.0567 34.033 50.3125H7.0625ZM42.9375 54.25C38.4897 54.25 34.8711 50.6314 34.8711 46.1836C34.8711 41.7357 38.4897 38.1172 42.9375 38.1172C47.3853 38.1172 51.0039 41.7357 51.0039 46.1836C51.0039 50.6314 47.3853 54.25 42.9375 54.25Z" fill="#1C1919"/>
</svg>