<svg xmlns="http://www.w3.org/2000/svg" width="62" height="60" viewBox="0 0 62 60" fill="none">
  <path d="M36.4788 33.5476C36.7104 31.1309 35.7168 28.4831 33.695 26.1874C33.6479 26.134 33.6009 26.0806 33.5531 26.0281C32.7344 25.1278 31.7462 24.2507 30.4432 23.2676C29.7234 22.7245 28.9726 22.1967 28.2465 21.6863C27.7381 21.3289 27.2124 20.9594 26.7036 20.589C24.5395 19.0134 22.1617 17.0353 20.9345 14.3111C19.9153 12.0489 19.8003 9.4077 20.6191 7.06477C21.3903 4.85792 22.9726 2.96494 24.9946 1.81201C24.9452 2.13856 24.9383 2.4725 24.9739 2.811L24.9207 2.78698L25.0339 3.20331C25.0871 3.46915 25.1668 3.7404 25.2706 4.00987C25.6804 5.07222 26.4926 6.18746 27.6846 7.3245C28.9719 8.55268 30.7665 9.92668 32.3497 11.1389C32.7926 11.478 33.2109 11.7982 33.5952 12.0979C35.6246 13.6801 37.1498 14.9094 38.2983 16.3234C39.5518 17.8668 40.245 19.5414 40.4798 21.5936C40.4813 21.6064 40.4877 21.6554 40.4891 21.6674C40.644 23.0943 40.5813 24.5555 40.3028 26.0103C39.7585 28.8532 38.4085 31.507 36.4788 33.5476Z" fill="url(#paint0_linear_27848_88416)"/>
  <path d="M36.6144 22.8523C29.5803 16.0244 26.3079 6.68241 25.4588 3.93663C25.3601 3.68071 25.2828 3.42054 25.2305 3.15705C25.2289 3.1512 25.2279 3.14738 25.2279 3.14738C25.2279 3.14738 25.2285 3.14769 25.2287 3.14781C25.1184 2.58591 25.1221 2.00923 25.2826 1.42676C25.2826 1.42676 17.8848 9.47036 30.3261 23.4313C30.3261 23.4313 30.3241 23.4304 30.3224 23.4296C31.4231 24.2601 32.4762 25.144 33.4045 26.1647C33.4516 26.2165 33.4979 26.2691 33.5443 26.3216C34.0528 24.7228 35.1879 23.6143 36.6144 22.8523Z" fill="url(#paint1_linear_27848_88416)"/>
  <path d="M33.7191 11.9377C31.9671 10.5718 29.4636 8.74185 27.8237 7.17745C26.8588 6.25692 25.9246 5.14364 25.459 3.93652C26.308 6.6823 29.5804 16.0243 36.6146 22.8521C37.828 22.2039 39.252 21.8061 40.6804 21.5703C40.1654 17.0692 37.5808 14.9486 33.7191 11.9377Z" fill="url(#paint2_linear_27848_88416)"/>
  <path d="M25.2829 1.42676C23.0395 2.57279 21.2633 4.61165 20.4295 6.99769C19.5957 9.38378 19.7136 12.0909 20.7514 14.3947C21.9484 17.0517 24.2356 19.0418 26.586 20.753C27.822 21.653 29.1018 22.5083 30.3227 23.4296C30.3245 23.4304 30.3265 23.4313 30.3265 23.4313C17.8851 9.47036 25.2829 1.42676 25.2829 1.42676Z" fill="url(#paint3_linear_27848_88416)"/>
  <path d="M36.1956 34.1228C38.4186 31.9675 39.9187 29.0939 40.5016 26.0483C39.0948 25.0835 37.8014 24.0036 36.6151 22.8521C35.1885 23.6141 34.0534 24.7227 33.5449 26.3214C35.4274 28.4591 36.7166 31.3249 36.1956 34.1228Z" fill="url(#paint4_linear_27848_88416)"/>
  <path d="M40.5017 26.0483C40.779 24.6 40.8497 23.1128 40.6904 21.6453C40.6877 21.6199 40.6839 21.5956 40.681 21.5703C39.2527 21.806 37.8287 22.2039 36.6152 22.8521C37.8016 24.0036 39.095 25.0835 40.5017 26.0483Z" fill="url(#paint5_linear_27848_88416)"/>
  <path d="M29.9777 24.5812C27.136 22.4749 24.4335 21.1842 21.4459 17.5029C20.9176 19.175 20.6733 20.9682 20.7417 22.7351C22.8088 22.2066 26.3154 21.9579 29.9777 24.5812Z" fill="url(#paint6_linear_27848_88416)"/>
  <path d="M31.175 40.7392C31.1343 41.1369 31.0323 41.5245 30.8442 41.8934C32.3834 40.0051 33.7761 37.9357 34.4616 35.594C35.1471 33.2523 35.0514 30.5923 33.7631 28.5229C33.4441 28.0104 33.0621 27.5061 32.6423 27.0229C32.4207 26.7709 32.1984 26.5319 31.9759 26.305C31.9476 26.2764 31.9198 26.2474 31.8914 26.2191C31.8889 26.2166 31.8863 26.2141 31.8838 26.2115C31.3268 25.6574 30.7328 25.147 30.1448 24.7051C30.0891 24.6633 30.0337 24.6224 29.9781 24.5813C26.3158 21.958 22.8093 22.2066 20.7422 22.7351V22.7353C31.4465 31.5474 31.6402 38.1792 31.175 40.7392Z" fill="url(#paint7_linear_27848_88416)"/>
  <path d="M20.7422 22.7354C20.7422 22.7354 25.4553 26.844 28.8038 34.6838C28.8039 34.684 28.8039 34.6841 28.804 34.6843C29.6917 35.5439 30.3789 36.6 30.7207 37.7638C31.0061 38.7354 31.2745 39.7677 31.175 40.7394C31.6403 38.1793 31.4465 31.5475 20.7422 22.7354Z" fill="url(#paint8_linear_27848_88416)"/>
  <path d="M20.7422 22.7354C20.8611 25.8058 21.925 28.7968 24.0893 30.933C25.1028 31.9334 27.3022 33.3903 28.3896 34.3089C28.5321 34.4293 28.6702 34.5547 28.8041 34.6843C28.804 34.6841 28.8039 34.684 28.8039 34.6838C25.4553 26.8439 20.7422 22.7354 20.7422 22.7354Z" fill="url(#paint9_linear_27848_88416)"/>
  <path d="M13.008 44.2908C12.8631 44.2908 12.7388 44.4156 12.7388 44.5613V47.8907C12.7388 48.0363 12.8631 48.1612 13.008 48.1612H17.136V48.7231H13.008C12.5455 48.7231 12.1797 48.3555 12.1797 47.8908V44.5614C12.1797 44.0966 12.5455 43.729 13.008 43.729H17.136V44.2909H13.008V44.2908Z" fill="#00386C"/>
  <path d="M21.9815 43.7285C22.444 43.7285 22.8098 44.0961 22.8098 44.5609V47.8903C22.8098 48.355 22.444 48.7226 21.9815 48.7226H18.6682C18.2057 48.7226 17.8398 48.355 17.8398 47.8903V44.5609C17.8398 44.0961 18.2058 43.7285 18.6682 43.7285H21.9815ZM21.9815 48.1608C22.1265 48.1608 22.2507 48.036 22.2507 47.8903V44.5609C22.2507 44.4152 22.1265 44.2904 21.9815 44.2904H18.6682C18.5232 44.2904 18.399 44.4152 18.399 44.5609V47.8903C18.399 48.0359 18.5232 48.1608 18.6682 48.1608H21.9815Z" fill="#00386C"/>
  <path d="M28.4625 43.7285H29.2287V48.7227H28.6696V44.3667L26.3986 47.0788L24.1275 44.3667V48.7227H23.5684V43.7285H24.3346L26.3986 46.1978L28.4625 43.7285Z" fill="#00386C"/>
  <path d="M34.1163 43.7354C34.5788 43.7354 34.9447 44.1098 34.9447 44.5677V46.0313C34.9447 46.4891 34.5788 46.8636 34.1163 46.8636H30.8029C30.7408 46.8636 30.6373 46.8497 30.5337 46.8359V48.7226H29.9746V43.7354H34.1163ZM34.3855 44.5678C34.3855 44.422 34.2613 44.2972 34.1163 44.2972H30.8029C30.658 44.2972 30.5337 44.422 30.5337 44.5678V46.0314C30.5337 46.177 30.658 46.2949 30.8029 46.2949H34.1163C34.2613 46.2949 34.3855 46.177 34.3855 46.0314V44.5678Z" fill="#00386C"/>
  <path d="M39.6593 43.7285C40.1218 43.7285 40.4876 44.0961 40.4876 44.5609V48.7227H39.9285V46.8984H36.0766V48.7227H35.5176V44.5609C35.5176 44.0961 35.8834 43.7285 36.3459 43.7285H39.6593ZM39.9285 46.3366V44.5609C39.9285 44.4153 39.8042 44.2904 39.6593 44.2904H36.3459C36.201 44.2904 36.0766 44.4152 36.0766 44.5609V46.3366H39.9285Z" fill="#00386C"/>
  <path d="M45.6843 43.7285H46.2435V48.7227H45.4773L41.8326 44.3667V48.7227H41.2734V43.7285H42.0396L45.6843 48.0845V43.7285Z" fill="#00386C"/>
  <path d="M51.8769 43.7285L49.592 46.843V48.7227H49.0328V46.843C48.2943 45.8233 47.5005 44.7482 46.748 43.7285H47.39L49.3159 46.1701C49.9164 45.3932 50.6137 44.5054 51.2211 43.7285H51.8769Z" fill="#00386C"/>
  <path d="M14.7264 50.6109V52.1552C14.7264 52.4614 14.4808 52.7081 14.1762 52.7081H12.0391V49.1899H12.4119V50.058H14.1762C14.4808 50.058 14.7264 50.3048 14.7264 50.6109ZM14.3535 50.6109C14.3535 50.5149 14.2716 50.4327 14.1762 50.4327H12.5938C12.4938 50.4327 12.412 50.5149 12.412 50.6109V52.1552C12.412 52.2512 12.4938 52.3335 12.5938 52.3335H14.1762C14.2716 52.3335 14.3535 52.2512 14.3535 52.1552V50.6109Z" fill="#FBB040"/>
  <path d="M17.7536 50.0581V52.1553C17.7536 52.4615 17.508 52.7082 17.1989 52.7082H15.6165C15.3119 52.7082 15.0664 52.4615 15.0664 52.1553V50.0581H15.4392V52.1553C15.4392 52.2513 15.5211 52.3335 15.6166 52.3335H17.1989C17.2989 52.3335 17.3808 52.2513 17.3808 52.1553V50.0581H17.7536Z" fill="#FBB040"/>
  <path d="M20.824 50.6476H20.4466V50.611C20.4466 50.515 20.3647 50.4327 20.2693 50.4327H18.6869C18.5914 50.4327 18.5096 50.515 18.5096 50.611V51.0176C18.5096 51.1136 18.5914 51.1958 18.6869 51.1958H20.2693C20.5785 51.1958 20.824 51.4426 20.824 51.7487V52.1553C20.824 52.4615 20.5785 52.7082 20.2693 52.7082H18.6869C18.3823 52.7082 18.1367 52.4615 18.1367 52.1553V52.1188H18.5096V52.1553C18.5096 52.2513 18.5914 52.3335 18.6869 52.3335H20.2693C20.3648 52.3335 20.4466 52.2513 20.4466 52.1553V51.7487C20.4466 51.6527 20.3647 51.5705 20.2693 51.5705H18.6869C18.3823 51.5705 18.1367 51.3238 18.1367 51.0176V50.611C18.1367 50.3049 18.3823 50.0581 18.6869 50.0581H20.2693C20.5785 50.0581 20.824 50.3049 20.824 50.611V50.6476Z" fill="#FBB040"/>
  <path d="M21.6463 49.1899V49.5645H21.2734V49.1899H21.6463ZM21.2735 50.058H21.6464V52.7081H21.2735V50.058Z" fill="#FBB040"/>
  <path d="M24.8474 50.611V52.7082H24.4745V50.611C24.4745 50.515 24.3926 50.4327 24.2972 50.4327H22.7149C22.6148 50.4327 22.533 50.515 22.533 50.611V52.7082H22.1602V50.0581H24.2973C24.6018 50.0581 24.8474 50.3049 24.8474 50.611Z" fill="#FBB040"/>
  <path d="M27.9978 50.6109V51.5704H25.6834V52.1553C25.6834 52.2512 25.7652 52.3335 25.8607 52.3335H27.9978V52.7082H25.8607C25.5561 52.7082 25.3105 52.4615 25.3105 52.1553V50.611C25.3105 50.3048 25.5561 50.0581 25.8607 50.0581H27.4431C27.7523 50.058 27.9978 50.3048 27.9978 50.6109ZM27.6204 51.1957V50.6109C27.6204 50.515 27.5431 50.4327 27.4431 50.4327H25.8607C25.7652 50.4327 25.6834 50.515 25.6834 50.6109V51.1957H27.6204Z" fill="#FBB040"/>
  <path d="M31.1306 50.6476H30.7532V50.611C30.7532 50.515 30.6713 50.4327 30.5759 50.4327H28.9935C28.898 50.4327 28.8162 50.515 28.8162 50.611V51.0176C28.8162 51.1136 28.898 51.1958 28.9935 51.1958H30.5759C30.885 51.1958 31.1306 51.4426 31.1306 51.7487V52.1553C31.1306 52.4615 30.885 52.7082 30.5759 52.7082H28.9935C28.6889 52.7082 28.4434 52.4615 28.4434 52.1553V52.1188H28.8163V52.1553C28.8163 52.2513 28.8981 52.3335 28.9936 52.3335H30.5759C30.6714 52.3335 30.7533 52.2513 30.7533 52.1553V51.7487C30.7533 51.6527 30.6714 51.5705 30.5759 51.5705H28.9936C28.689 51.5705 28.4434 51.3238 28.4434 51.0176V50.611C28.4434 50.3049 28.689 50.0581 28.9936 50.0581H30.5759C30.8851 50.0581 31.1306 50.3049 31.1306 50.611V50.6476Z" fill="#FBB040"/>
  <path d="M34.2497 50.6476H33.8724V50.611C33.8724 50.515 33.7905 50.4327 33.695 50.4327H32.1127C32.0171 50.4327 31.9353 50.515 31.9353 50.611V51.0176C31.9353 51.1136 32.0171 51.1958 32.1127 51.1958H33.695C34.0042 51.1958 34.2497 51.4426 34.2497 51.7487V52.1553C34.2497 52.4615 34.0042 52.7082 33.695 52.7082H32.1127C31.808 52.7082 31.5625 52.4615 31.5625 52.1553V52.1188H31.9354V52.1553C31.9354 52.2513 32.0171 52.3335 32.1127 52.3335H33.6951C33.7905 52.3335 33.8724 52.2513 33.8724 52.1553V51.7487C33.8724 51.6527 33.7905 51.5705 33.6951 51.5705H32.1127C31.8081 51.5705 31.5626 51.3238 31.5626 51.0176V50.611C31.5626 50.3049 31.8081 50.0581 32.1127 50.0581H33.6951C34.0043 50.0581 34.2498 50.3049 34.2498 50.611L34.2497 50.6476Z" fill="#FBB040"/>
  <path d="M36.3123 50.4326V52.1551C36.3123 52.2511 36.3942 52.3333 36.4896 52.3333H37.4536V52.708H36.4896C36.1805 52.708 35.9395 52.4613 35.9395 52.1552V49.1899H36.3123V50.058H37.4536V50.4327H36.3123V50.4326Z" fill="#FBB040"/>
  <path d="M40.4861 50.611V52.7082H38.349C38.0444 52.7082 37.7988 52.4615 37.7988 52.1553V51.1958H40.1087V50.611C40.1087 50.5151 40.0315 50.4328 39.9313 50.4328H37.7988V50.0581H39.9313C40.2406 50.0581 40.4861 50.3049 40.4861 50.611ZM40.1087 51.5705H38.1717V52.1553C38.1717 52.2513 38.2536 52.3335 38.3491 52.3335H40.1087V51.5705Z" fill="#FBB040"/>
  <path d="M43.0369 53.7546H41.3909V53.3753H43.0369C43.1324 53.3753 43.2142 53.2931 43.2142 53.1971V52.7082H41.4545C41.1498 52.7082 40.9043 52.4615 40.9043 52.1553V50.611C40.9043 50.3048 41.1499 50.0581 41.4545 50.0581H43.0369C43.346 50.0581 43.587 50.3049 43.587 50.611V53.1971C43.5871 53.5078 43.346 53.7546 43.0369 53.7546ZM43.0369 52.3335C43.1324 52.3335 43.2142 52.2513 43.2142 52.1553V50.611C43.2142 50.515 43.1323 50.4327 43.0369 50.4327H41.4545C41.3591 50.4327 41.2772 50.515 41.2772 50.611V52.1553C41.2772 52.2513 41.3591 52.3335 41.4545 52.3335H43.0369Z" fill="#FBB040"/>
  <path d="M44.4334 49.1899V52.1552C44.4334 52.2511 44.5152 52.3334 44.6107 52.3334H45.0563V52.7081H44.6107C44.3061 52.7081 44.0605 52.4614 44.0605 52.1552V49.19L44.4334 49.1899Z" fill="#FBB040"/>
  <path d="M45.8064 49.1899V49.5645H45.4336V49.1899H45.8064ZM45.4336 50.058H45.8064V52.7081H45.4336V50.058Z" fill="#FBB040"/>
  <path d="M49.0077 50.611V52.7082H48.6348V50.611C48.6348 50.515 48.553 50.4327 48.4575 50.4327H46.8752C46.7751 50.4327 46.6932 50.515 46.6932 50.611V52.7082H46.3203V50.0581H48.4574C48.7621 50.0581 49.0077 50.3049 49.0077 50.611Z" fill="#FBB040"/>
  <path d="M52.1579 50.6109V51.5704H49.8435V52.1553C49.8435 52.2512 49.9254 52.3335 50.0209 52.3335H52.1579V52.7082H50.0209C49.7162 52.7082 49.4707 52.4615 49.4707 52.1553V50.611C49.4707 50.3048 49.7162 50.0581 50.0209 50.0581H51.6032C51.9124 50.058 52.1579 50.3048 52.1579 50.6109ZM51.7805 51.1957V50.6109C51.7805 50.515 51.7033 50.4327 51.6032 50.4327H50.0208C49.9253 50.4327 49.8435 50.515 49.8435 50.6109V51.1957H51.7805Z" fill="#FBB040"/>
  <defs>
    <linearGradient id="paint0_linear_27848_88416" x1="30.3249" y1="33.5476" x2="30.3249" y2="1.81199" gradientUnits="userSpaceOnUse">
      <stop stop-color="#00ABC5"/>
      <stop offset="0.4388" stop-color="#00929E"/>
      <stop offset="1" stop-color="#007B8D"/>
    </linearGradient>
    <linearGradient id="paint1_linear_27848_88416" x1="19.8785" y1="13.8742" x2="40.7737" y2="13.8742" gradientUnits="userSpaceOnUse">
      <stop stop-color="#007B8D"/>
      <stop offset="0.5612" stop-color="#00929E"/>
      <stop offset="1" stop-color="#00ABC5"/>
    </linearGradient>
    <linearGradient id="paint2_linear_27848_88416" x1="30.1353" y1="14.4557" x2="35.7614" y2="11.2232" gradientUnits="userSpaceOnUse">
      <stop stop-color="#007B8D"/>
      <stop offset="0.2004" stop-color="#008393"/>
      <stop offset="0.4235" stop-color="#00929E"/>
      <stop offset="1" stop-color="#00AAB5"/>
    </linearGradient>
    <linearGradient id="paint3_linear_27848_88416" x1="21.6214" y1="16.0085" x2="30.6729" y2="10.8079" gradientUnits="userSpaceOnUse">
      <stop stop-color="#007B8D"/>
      <stop offset="0.3929" stop-color="#00929E"/>
      <stop offset="1" stop-color="#6AC9C8"/>
    </linearGradient>
    <linearGradient id="paint4_linear_27848_88416" x1="37.0233" y1="34.1228" x2="37.0233" y2="22.8521" gradientUnits="userSpaceOnUse">
      <stop stop-color="#B1DED3"/>
      <stop offset="0.4388" stop-color="#00B3B5"/>
      <stop offset="1" stop-color="#007B8D"/>
    </linearGradient>
    <linearGradient id="paint5_linear_27848_88416" x1="38.6947" y1="26.0484" x2="38.6947" y2="21.5703" gradientUnits="userSpaceOnUse">
      <stop stop-color="#00ABC5"/>
      <stop offset="0.4388" stop-color="#00929E"/>
      <stop offset="1" stop-color="#007B8D"/>
    </linearGradient>
    <linearGradient id="paint6_linear_27848_88416" x1="20.7305" y1="21.0421" x2="29.9777" y2="21.0421" gradientUnits="userSpaceOnUse">
      <stop stop-color="#FFCB05"/>
      <stop offset="0.6071" stop-color="#F37021"/>
      <stop offset="1" stop-color="#F04E23"/>
    </linearGradient>
    <linearGradient id="paint7_linear_27848_88416" x1="20.7421" y1="32.1437" x2="34.8829" y2="32.1437" gradientUnits="userSpaceOnUse">
      <stop stop-color="#F04E23"/>
      <stop offset="0.3929" stop-color="#F37021"/>
      <stop offset="1" stop-color="#FBB040"/>
    </linearGradient>
    <linearGradient id="paint8_linear_27848_88416" x1="20.7422" y1="31.7373" x2="31.3074" y2="31.7373" gradientUnits="userSpaceOnUse">
      <stop stop-color="#F04E23"/>
      <stop offset="0.3929" stop-color="#F37021"/>
      <stop offset="1" stop-color="#FFD400"/>
    </linearGradient>
    <linearGradient id="paint9_linear_27848_88416" x1="24.7731" y1="34.6843" x2="24.7731" y2="22.7353" gradientUnits="userSpaceOnUse">
      <stop stop-color="#F04E23"/>
      <stop offset="0.3929" stop-color="#F37021"/>
      <stop offset="1" stop-color="#FBB040"/>
    </linearGradient>
  </defs>
</svg>