<svg xmlns="http://www.w3.org/2000/svg" width="49" height="32" viewBox="0 0 49 32" fill="none">
  <path d="M12.6416 31.2895L23.1168 11.562L25.6584 16.3199L17.7174 31.2895H12.6416Z" fill="#FF2424"/>
  <path d="M28.1964 11.5464C29.9622 8.12009 33.5212 5.87373 37.5022 5.87373C40.3051 5.87373 43.037 7.02594 44.9976 9.03496L45.7335 9.78907L47.95 5.63987L47.5008 5.23591C44.7487 2.76059 41.1979 1.39746 37.5022 1.39746C34.6625 1.39746 31.8976 2.20094 29.5065 3.72104C28.0892 4.62199 26.8416 5.7492 25.8066 7.04984L28.1964 11.5464Z" fill="#FF2424"/>
  <path d="M18.9238 19.4559L21.4578 14.6836L23.9927 19.4573L21.4599 24.232L18.9238 19.4559Z" fill="#991A5A"/>
  <path d="M37.5017 31.2895C32.552 31.2895 27.8656 28.7731 25.1003 24.6769C25.1003 24.6769 24.1903 23.1468 24.0212 22.7947L17.2167 9.9805L5.89395 31.2895H0.833984L17.2169 0.436035L28.4652 21.6197C30.343 24.8239 33.8039 26.8133 37.5015 26.8133C40.3954 26.8133 43.1879 25.5977 45.1633 23.4783L45.8992 22.6886L48.1303 26.8658L47.6966 27.2704C44.9174 29.8623 41.2966 31.2895 37.5017 31.2895Z" fill="#434A5B"/>
</svg>