<svg xmlns="http://www.w3.org/2000/svg" width="24" height="25" viewBox="0 0 24 25" fill="none">
  <path d="M8.01562 16.284H5.21429C3.43908 16.284 2 15.0585 2 13.2614C2 11.4644 3.43908 10.0076 5.21429 10.0076C5.335 10.0076 5.45417 10.0144 5.57143 10.0275V10.0076H5.61564C5.58646 9.77074 5.57143 9.52942 5.57143 9.28455C5.57143 6.08983 8.1298 3.5 11.2857 3.5C13.4228 3.5 15.2859 4.6876 16.2661 6.44642C16.5056 6.41075 16.7507 6.39227 17 6.39227C19.7614 6.39227 22 8.65838 22 11.4538C22 14.0036 20.1374 15.8819 17.7143 16.2328H15.125M11.6429 10.3692V21.5M11.6429 21.5L9.10937 19.0008M11.6429 21.5L14.1094 19.0008" stroke="white" stroke-width="2" stroke-linecap="round" stroke-linejoin="round"/>
</svg>