<svg xmlns="http://www.w3.org/2000/svg" width="240" height="50" viewBox="0 0 240 50" fill="none">
  <path d="M65.0041 24.3691C64.4217 24.3691 63.8873 24.2811 63.4011 24.1053C62.9121 23.9267 62.4698 23.674 62.0741 23.3471C61.6758 23.0229 61.3283 22.6342 61.0315 22.1809C60.7348 21.7303 60.4848 21.2289 60.2815 20.6767C60.0782 20.1245 59.9272 19.5339 59.8283 18.9047C59.7266 18.2756 59.6758 17.6218 59.6758 16.9432C59.6758 16.2646 59.7238 15.6108 59.82 14.9817C59.9189 14.3525 60.0659 13.7619 60.2609 13.2097C60.4587 12.6575 60.7046 12.1561 60.9986 11.7055C61.2925 11.2522 61.6359 10.8621 62.0288 10.5352C62.4244 10.211 62.8708 9.95965 63.3681 9.78108C63.8626 9.60251 64.4079 9.51322 65.0041 9.51322C65.5838 9.51322 66.1181 9.60251 66.6071 9.78108C67.0934 9.95965 67.5357 10.211 67.934 10.5352C68.3297 10.8621 68.6758 11.2522 68.9725 11.7055C69.2692 12.1561 69.5192 12.6575 69.7225 13.2097C69.9258 13.7619 70.0783 14.3525 70.1799 14.9817C70.2788 15.6108 70.3283 16.2646 70.3283 16.9432C70.3283 17.6218 70.2802 18.2756 70.1841 18.9047C70.0879 19.5339 69.9409 20.1245 69.7431 20.6767C69.5453 21.2289 69.2994 21.7303 69.0055 22.1809C68.7115 22.6342 68.3681 23.0229 67.9752 23.3471C67.5824 23.674 67.1373 23.9267 66.6401 24.1053C66.1428 24.2811 65.5975 24.3691 65.0041 24.3691ZM68.3132 17.244C68.3132 16.7907 68.2994 16.3292 68.272 15.8594C68.2417 15.3869 68.1827 14.9267 68.0948 14.4789C68.0096 14.0311 67.8887 13.608 67.7321 13.2097C67.5783 12.8113 67.3777 12.4665 67.1305 12.1753C66.8805 11.8814 66.5769 11.6465 66.2198 11.4706C65.8599 11.2976 65.4354 11.211 64.9464 11.211C64.4794 11.211 64.0755 11.288 63.7349 11.4418C63.3914 11.5984 63.1002 11.8099 62.8612 12.0764C62.6222 12.3457 62.4258 12.6588 62.2719 13.016C62.1181 13.3731 61.9986 13.7523 61.9134 14.1534C61.8283 14.5545 61.7705 14.9652 61.7403 15.3855C61.7074 15.8031 61.6909 16.2097 61.6909 16.6053C61.6909 17.0641 61.706 17.5311 61.7362 18.0064C61.7637 18.4844 61.8214 18.9487 61.9093 19.3993C61.9972 19.8471 62.1181 20.2701 62.2719 20.6685C62.4258 21.0641 62.6291 21.4103 62.8818 21.707C63.1346 22.0037 63.4382 22.2399 63.7926 22.4158C64.147 22.5888 64.57 22.6754 65.0618 22.6754C65.5206 22.6754 65.9189 22.5971 66.2568 22.4405C66.5948 22.2811 66.886 22.0641 67.1305 21.7894C67.3722 21.5146 67.57 21.1987 67.7239 20.8416C67.8777 20.4817 67.9986 20.1012 68.0865 19.7001C68.1744 19.2962 68.2349 18.8841 68.2678 18.4638C68.2981 18.0435 68.3132 17.6369 68.3132 17.244ZM82.0481 24.2042H80.4492L75.6566 15.027L74.1154 11.0256L74.0577 11.0338L74.6882 15.2948V24.2042H72.945V11.7138L72.6525 9.67806L74.6017 9.48438L79.4025 18.81L81.0096 22.8484L81.0673 22.8402L80.305 18.5874V9.67806L82.0481 9.48438V24.2042ZM87.6155 22.6548H94.8765L94.6828 24.2042H85.7734L85.9218 22.2674V11.7138L85.6292 9.67806H94.5386V11.2275H87.5166L87.7102 13.0696V15.6369H93.8627V17.038H87.7102V20.9116L87.6155 22.6548ZM100.345 19.902V18.3979H105.187V19.902H100.345ZM110.936 23.2976L111.817 21.8429C111.947 21.9281 112.116 22.0229 112.324 22.1273C112.533 22.2344 112.767 22.3361 113.025 22.4322C113.283 22.5311 113.558 22.6122 113.849 22.6754C114.14 22.7413 114.434 22.7743 114.731 22.7743C115.132 22.7743 115.535 22.7234 115.938 22.6218C116.339 22.5229 116.703 22.3677 117.03 22.1561C117.357 21.9473 117.622 21.6822 117.826 21.3608C118.029 21.0366 118.131 20.652 118.131 20.207C118.131 19.7866 118.033 19.4185 117.838 19.1025C117.646 18.7866 117.392 18.5023 117.076 18.2495C116.757 17.9995 116.394 17.7701 115.988 17.5613C115.581 17.3553 115.166 17.1492 114.743 16.9432C114.323 16.7372 113.908 16.5229 113.499 16.3003C113.092 16.0778 112.731 15.8237 112.415 15.538C112.099 15.255 111.845 14.9322 111.653 14.5696C111.458 14.2097 111.36 13.7866 111.36 13.3003C111.36 12.6739 111.492 12.1259 111.756 11.6561C112.022 11.1836 112.368 10.7893 112.794 10.4734C113.22 10.1575 113.703 9.91844 114.245 9.75635C114.789 9.59427 115.338 9.51322 115.893 9.51322C117.267 9.51322 118.535 9.90059 119.697 10.6753L118.761 11.8704C118.322 11.6121 117.9 11.4212 117.496 11.2976C117.092 11.1739 116.642 11.1121 116.144 11.1121C115.796 11.1121 115.445 11.1478 115.094 11.2193C114.742 11.2907 114.426 11.4061 114.146 11.5654C113.866 11.722 113.636 11.9281 113.458 12.1836C113.279 12.4391 113.19 12.7509 113.19 13.119C113.19 13.4789 113.289 13.7921 113.486 14.0586C113.684 14.3223 113.942 14.5586 114.261 14.7674C114.58 14.9789 114.942 15.1767 115.349 15.3608L116.606 15.9295C117.035 16.1273 117.452 16.3443 117.859 16.5806C118.265 16.8168 118.628 17.0943 118.947 17.413C119.268 17.7317 119.526 18.1067 119.721 18.538C119.919 18.9666 120.018 19.4707 120.018 20.0504C120.018 20.7729 119.871 21.4048 119.577 21.946C119.283 22.4844 118.896 22.9322 118.415 23.2894C117.934 23.6493 117.383 23.9199 116.763 24.1012C116.144 24.2798 115.513 24.3691 114.867 24.3691C114.452 24.3691 114.068 24.3457 113.713 24.299C113.359 24.2495 113.022 24.1795 112.703 24.0888C112.382 23.9982 112.077 23.8869 111.789 23.755C111.497 23.6232 111.213 23.4707 110.936 23.2976ZM128.87 24.2042H127.028V11.2275H122.915V9.67806H132.937V11.2275H128.87V24.2042ZM136.337 24.2042H134.552L139.127 11.6149L139.465 9.67806L141.187 9.48438L146.495 24.2042H144.558L143.124 19.8484H137.944L136.337 24.2042ZM140.927 13.7454L140.491 10.6465L140.054 13.7454L138.418 18.3938H142.65L140.927 13.7454ZM151.502 18.2619H150.628V24.2042H148.856V11.7138L148.518 9.77696C148.952 9.72476 149.429 9.67668 149.948 9.63273C150.467 9.58602 151.007 9.56267 151.568 9.56267C152.381 9.56267 153.134 9.64921 153.826 9.82229C154.515 9.99262 155.113 10.2454 155.619 10.5805C156.121 10.9157 156.514 11.3333 156.797 11.8333C157.083 12.3333 157.226 12.9102 157.226 13.5641C157.226 14.2426 157.109 14.8402 156.875 15.3567C156.645 15.8731 156.329 16.3127 155.928 16.6753C155.526 17.0407 155.051 17.3388 154.502 17.5696C153.955 17.7976 153.368 17.9666 152.742 18.0764L154.114 18.4638L158.017 24.2042H155.858L151.955 18.4432C151.884 18.3525 151.804 18.299 151.716 18.2825C151.625 18.2688 151.554 18.2619 151.502 18.2619ZM150.434 10.9967L150.628 13.0984V16.799H151.774C152.362 16.799 152.881 16.7166 153.331 16.5517C153.785 16.3869 154.165 16.1644 154.473 15.8841C154.783 15.6012 155.02 15.2742 155.182 14.9034C155.344 14.5325 155.425 14.1369 155.425 13.7165C155.425 13.3484 155.373 13.0229 155.268 12.7399C155.164 12.4569 155.022 12.211 154.844 12.0022C154.662 11.7962 154.452 11.6204 154.213 11.4748C153.974 11.3292 153.72 11.2152 153.451 11.1327C153.184 11.0476 152.911 10.9858 152.631 10.9473C152.348 10.9088 152.075 10.8896 151.811 10.8896C151.539 10.8896 151.296 10.8978 151.081 10.9143C150.864 10.9308 150.649 10.9583 150.434 10.9967ZM166.638 24.2042H164.796V11.2275H160.683V9.67806H170.705V11.2275H166.638V24.2042ZM180.97 9.67806H182.808V19.1396C182.808 20.0188 182.704 20.7866 182.495 21.4432C182.286 22.0971 181.983 22.6397 181.584 23.071C181.189 23.505 180.702 23.8306 180.125 24.0476C179.551 24.2619 178.896 24.3691 178.16 24.3691C177.374 24.3691 176.705 24.2331 176.153 23.9611C175.601 23.6864 175.15 23.299 174.801 22.799C174.452 22.2962 174.2 21.6932 174.043 20.9899C173.884 20.2866 173.804 19.5091 173.804 18.6575V11.7138L173.511 9.67806L175.642 9.48438V18.8429C175.642 19.4556 175.702 20.0023 175.823 20.4831C175.941 20.9638 176.114 21.3704 176.342 21.7028C176.568 22.0353 176.841 22.288 177.163 22.4611C177.487 22.6369 177.852 22.7248 178.259 22.7248C179.207 22.7248 179.896 22.4419 180.327 21.8759C180.756 21.3127 180.97 20.4624 180.97 19.3251V9.67806ZM188.891 18.163V24.2042H187.053V11.7138L186.711 9.77696C186.906 9.74399 187.134 9.71515 187.395 9.69042C187.656 9.66295 187.932 9.6396 188.223 9.62036C188.514 9.60113 188.808 9.5874 189.105 9.57916C189.402 9.56817 189.676 9.56267 189.929 9.56267C191.025 9.56267 191.972 9.66157 192.768 9.85938C193.568 10.0572 194.226 10.3319 194.742 10.6836C195.259 11.0352 195.641 11.4555 195.888 11.9446C196.138 12.4363 196.263 12.9761 196.263 13.5641C196.263 14.4349 196.108 15.1643 195.797 15.7523C195.487 16.3402 195.025 16.8127 194.413 17.1698C193.797 17.5297 193.028 17.7852 192.105 17.9363C191.182 18.0874 190.11 18.163 188.891 18.163ZM188.697 11.0462L188.891 13.0984V16.799C189.871 16.799 190.711 16.744 191.408 16.6341C192.106 16.5242 192.678 16.3443 193.123 16.0943C193.568 15.847 193.895 15.5201 194.104 15.1135C194.31 14.7069 194.413 14.2028 194.413 13.6012C194.413 13.1698 194.288 12.788 194.038 12.4555C193.79 12.1231 193.469 11.8456 193.073 11.6231C192.68 11.4006 192.245 11.2303 191.767 11.1121C191.289 10.9967 190.821 10.9391 190.362 10.9391C190.252 10.9391 190.121 10.9404 189.97 10.9432C189.819 10.9459 189.667 10.9528 189.513 10.9638C189.356 10.972 189.205 10.983 189.06 10.9967C188.914 11.0105 188.793 11.027 188.697 11.0462ZM198.509 22.7537C198.509 22.5339 198.55 22.3278 198.632 22.1355C198.718 21.9405 198.833 21.7701 198.979 21.6245C199.124 21.4789 199.292 21.3649 199.481 21.2825C199.671 21.1973 199.876 21.1548 200.095 21.1548C200.315 21.1548 200.523 21.1973 200.718 21.2825C200.91 21.3649 201.079 21.4789 201.224 21.6245C201.37 21.7701 201.484 21.9405 201.567 22.1355C201.652 22.3278 201.694 22.5339 201.694 22.7537C201.694 22.9734 201.652 23.1822 201.567 23.38C201.484 23.5751 201.371 23.7454 201.229 23.891C201.086 24.0366 200.92 24.1534 200.73 24.2413C200.54 24.3265 200.336 24.3691 200.116 24.3691C199.896 24.3691 199.687 24.3265 199.49 24.2413C199.295 24.1534 199.124 24.0366 198.979 23.891C198.833 23.7454 198.718 23.5751 198.632 23.38C198.55 23.1822 198.509 22.9734 198.509 22.7537ZM211.518 11.2275L211.712 9.67806H220.428V11.2275H216.962V22.6548H220.622L220.428 24.2042H211.712V22.6548H215.161V11.2275H211.518ZM229.584 24.2042H227.742V11.2275H223.63V9.67806H233.652V11.2275H229.584V24.2042Z" fill="white"/>
  <path d="M46.2666 0.884766V49.1157V0.884766Z" fill="white"/>
  <path d="M46.2666 0.884766V49.1157" stroke="white" stroke-width="2.48787"/>
  <path d="M34.5447 12.4215H29.7686C29.9643 13.6351 30.0426 14.8488 30.0426 16.1015C30.0426 17.1977 29.9643 18.2547 29.8469 19.2725H36.3847V28.5507C34.5447 29.2554 33.2136 31.0171 33.2136 33.092C33.2136 33.7966 33.3702 34.5013 33.6443 35.0885C32.7439 35.8715 32.0392 36.8894 31.5694 37.9855C30.6397 37.2665 29.4954 36.8804 28.3201 36.8894C27.498 36.8894 26.715 37.0851 26.0103 37.3983V27.1414H26.4018L26.0886 26.4759C26.2452 26.2018 26.4018 25.9278 26.5192 25.6537L31.0605 27.1414V25.6146L28.0069 21.5431C28.4375 19.8598 28.6333 18.0198 28.6333 16.1407C28.6333 11.6386 27.3805 7.60628 25.3839 4.74843C25.2273 4.51354 24.875 4.51354 24.6793 4.74843C22.7218 7.60628 21.4299 11.6386 21.4299 16.1407C21.4299 18.0589 21.6648 19.8598 22.0563 21.5431L19.0027 25.6146V27.1414L23.544 25.6537C23.7006 25.9278 23.818 26.2018 23.9746 26.4759L23.6614 27.1414H24.0529V37.7506C23.1133 36.8502 21.8214 36.3413 20.4121 36.3413C19.9031 36.3413 19.3942 36.4196 18.9244 36.537C18.8677 35.779 18.6058 35.0507 18.1667 34.4301C17.7276 33.8096 17.128 33.3203 16.432 33.0145C15.7361 32.7088 14.97 32.5982 14.216 32.6946C13.462 32.791 12.7484 33.0907 12.1517 33.5618C10.6641 32.583 8.86326 32.035 6.94498 32.035H6.4752V19.3117H20.2946C20.1772 18.2547 20.0989 17.1977 20.0989 16.1407C20.0989 14.8879 20.1772 13.6351 20.3729 12.4607H8.35434C5.92713 12.4607 4.20459 14.1832 4.20459 16.6104V38.1813C4.20459 39.8647 4.98755 41.1174 6.4752 41.9004C7.06242 42.2136 7.72796 42.2919 8.39349 42.2919H34.6621C36.463 42.2919 37.9506 41.1566 38.4595 39.434C38.577 39.0425 38.6553 38.6119 38.6553 38.1813V16.493C38.6553 14.1832 36.8936 12.4607 34.5447 12.4215ZM16.2623 14.7313C16.4791 14.7313 16.6911 14.7956 16.8713 14.916C17.0516 15.0365 17.1921 15.2077 17.275 15.408C17.358 15.6083 17.3797 15.8287 17.3374 16.0413C17.2951 16.254 17.1907 16.4493 17.0374 16.6026C16.8841 16.7559 16.6888 16.8603 16.4762 16.9026C16.2636 16.9449 16.0431 16.9232 15.8428 16.8402C15.6425 16.7572 15.4714 16.6167 15.3509 16.4365C15.2305 16.2562 15.1662 16.0443 15.1662 15.8275C15.127 15.2402 15.636 14.7313 16.2623 14.7313ZM12.4258 14.7313C12.6426 14.7313 12.8545 14.7956 13.0348 14.916C13.215 15.0365 13.3555 15.2077 13.4385 15.408C13.5215 15.6083 13.5432 15.8287 13.5009 16.0413C13.4586 16.254 13.3542 16.4493 13.2009 16.6026C13.0476 16.7559 12.8523 16.8603 12.6396 16.9026C12.427 16.9449 12.2066 16.9232 12.0063 16.8402C11.806 16.7572 11.6348 16.6167 11.5144 16.4365C11.3939 16.2562 11.3296 16.0443 11.3296 15.8275C11.2905 15.2402 11.7994 14.7313 12.4258 14.7313ZM8.55007 14.7313C8.76687 14.7313 8.9788 14.7956 9.15906 14.916C9.33932 15.0365 9.47982 15.2077 9.56279 15.408C9.64575 15.6083 9.66746 15.8287 9.62516 16.0413C9.58287 16.254 9.47848 16.4493 9.32518 16.6026C9.17188 16.7559 8.97656 16.8603 8.76392 16.9026C8.55129 16.9449 8.33089 16.9232 8.1306 16.8402C7.9303 16.7572 7.7591 16.6167 7.63865 16.4365C7.5182 16.2562 7.45391 16.0443 7.45391 15.8275C7.45391 15.2402 7.96284 14.7313 8.55007 14.7313Z" fill="white"/>
  <path d="M62.4822 33.5013C62.0921 33.5013 61.7418 33.5686 61.4313 33.7033C61.1209 33.8379 60.8571 34.0316 60.6401 34.2843C60.4231 34.5371 60.2569 34.842 60.1415 35.1991C60.0234 35.5563 59.9643 35.9588 59.9643 36.4066C59.9643 36.9972 60.0577 37.511 60.2445 37.9478C60.4286 38.3846 60.7047 38.7225 61.0728 38.9615C61.4437 39.1978 61.9052 39.3159 62.4574 39.3159C62.7734 39.3159 63.0701 39.2898 63.3475 39.2376C63.6278 39.1854 63.8997 39.1181 64.1635 39.0357V39.7527C63.9052 39.8489 63.6346 39.9203 63.3517 39.967C63.0687 40.0137 62.7322 40.0371 62.342 40.0371C61.625 40.0371 61.0247 39.8874 60.5412 39.5879C60.0604 39.2912 59.7006 38.8709 59.4615 38.3269C59.2225 37.7829 59.103 37.1401 59.103 36.3983C59.103 35.8654 59.1772 35.3777 59.3255 34.9354C59.4766 34.4931 59.6964 34.1099 59.9849 33.7857C60.2706 33.4642 60.6236 33.2156 61.044 33.0398C61.4643 32.8667 61.9464 32.7802 62.4904 32.7802C62.8475 32.7802 63.1923 32.8145 63.5247 32.8832C63.8572 32.9546 64.1566 33.0563 64.4231 33.1881L64.0934 33.8846C63.8682 33.7802 63.6209 33.6909 63.3517 33.6167C63.0852 33.5398 62.7954 33.5013 62.4822 33.5013ZM70.1388 37.2802C70.1388 37.7143 70.0825 38.1016 69.9698 38.4423C69.8572 38.7857 69.6951 39.0742 69.4836 39.3077C69.272 39.5439 69.0152 39.7239 68.713 39.8475C68.4135 39.9711 68.0728 40.033 67.691 40.033C67.3366 40.033 67.0124 39.9711 66.7184 39.8475C66.4245 39.7239 66.1704 39.5439 65.9561 39.3077C65.7418 39.0742 65.5756 38.7857 65.4574 38.4423C65.3393 38.1016 65.2802 37.7143 65.2802 37.2802C65.2802 36.7005 65.3792 36.2074 65.577 35.8008C65.772 35.3942 66.0522 35.0838 66.4176 34.8695C66.783 34.6552 67.2184 34.548 67.7239 34.548C68.2075 34.548 68.6305 34.6552 68.9932 34.8695C69.3558 35.0865 69.6374 35.3983 69.838 35.8049C70.0385 36.2115 70.1388 36.7033 70.1388 37.2802ZM66.1127 37.2802C66.1127 37.706 66.169 38.0742 66.2816 38.3846C66.3943 38.6978 66.5687 38.9395 66.805 39.1099C67.0385 39.2802 67.3407 39.3654 67.7116 39.3654C68.0797 39.3654 68.3819 39.2802 68.6182 39.1099C68.8544 38.9395 69.0289 38.6978 69.1415 38.3846C69.2542 38.0742 69.3105 37.706 69.3105 37.2802C69.3105 36.8571 69.2542 36.4917 69.1415 36.184C69.0289 35.8791 68.8544 35.6428 68.6182 35.4752C68.3846 35.3077 68.0811 35.2239 67.7075 35.2239C67.1553 35.2239 66.7514 35.4052 66.4959 35.7678C66.2404 36.1332 66.1127 36.6373 66.1127 37.2802ZM74.033 34.548C74.6594 34.548 75.1347 34.7019 75.4589 35.0096C75.7803 35.3145 75.941 35.8077 75.941 36.489V39.9341H75.1498V36.5426C75.1498 36.1002 75.0482 35.7692 74.8449 35.5494C74.6443 35.3324 74.3366 35.2239 73.9218 35.2239C73.3366 35.2239 72.9245 35.3887 72.6855 35.7184C72.4465 36.0508 72.327 36.5329 72.327 37.1648V39.9341H71.5275V34.6428H72.1745L72.294 35.4052H72.3393C72.452 35.2184 72.5948 35.0618 72.7679 34.9354C72.941 34.809 73.1361 34.7129 73.3531 34.6469C73.5674 34.581 73.794 34.548 74.033 34.548ZM81.0097 38.4876C81.0097 38.8255 80.9259 39.1099 80.7583 39.3406C80.588 39.5714 80.3462 39.7445 80.0331 39.8599C79.7199 39.9753 79.3462 40.033 78.9122 40.033C78.5413 40.033 78.2199 40.0041 77.9479 39.9464C77.6786 39.8887 77.4424 39.8063 77.2391 39.6992V38.9615C77.4561 39.0659 77.7144 39.1621 78.0138 39.25C78.3133 39.3379 78.6182 39.3819 78.9287 39.3819C79.3874 39.3819 79.7199 39.3077 79.9259 39.1593C80.132 39.011 80.235 38.8091 80.235 38.5536C80.235 38.4107 80.1938 38.283 80.1114 38.1703C80.0289 38.0604 79.8916 37.9533 79.6993 37.8489C79.5042 37.7445 79.2363 37.6291 78.8957 37.5027C78.5578 37.3736 78.2652 37.2459 78.0179 37.1195C77.7734 36.9904 77.5839 36.8351 77.4493 36.6538C77.3174 36.4698 77.2514 36.2307 77.2514 35.9368C77.2514 35.489 77.4314 35.1456 77.7913 34.9066C78.1539 34.6675 78.6306 34.548 79.2212 34.548C79.5399 34.548 79.838 34.5783 80.1155 34.6387C80.393 34.7019 80.6526 34.7871 80.8943 34.8942L80.6265 35.5371C80.4067 35.4437 80.1732 35.364 79.9259 35.298C79.6787 35.2349 79.4259 35.2033 79.1677 35.2033C78.7968 35.2033 78.5124 35.2651 78.3146 35.3887C78.1168 35.5096 78.0179 35.6758 78.0179 35.8873C78.0179 36.0522 78.0633 36.1882 78.1539 36.2953C78.2473 36.4024 78.3957 36.5027 78.599 36.5961C78.7995 36.6895 79.066 36.7981 79.3984 36.9217C79.7309 37.0453 80.0179 37.1717 80.2597 37.3008C80.5015 37.4327 80.6869 37.5906 80.816 37.7747C80.9452 37.9588 81.0097 38.1964 81.0097 38.4876ZM85.8641 34.6428H86.6718V39.9341H86.0166L85.8971 39.1923H85.8559C85.746 39.3764 85.6045 39.5302 85.4314 39.6538C85.2556 39.7802 85.0592 39.875 84.8422 39.9382C84.6251 40.0014 84.3943 40.033 84.1498 40.033C83.7322 40.033 83.382 39.9657 83.099 39.831C82.816 39.6937 82.6017 39.4835 82.4561 39.2005C82.3133 38.9176 82.2418 38.5536 82.2418 38.1085V34.6428H83.0537V38.0508C83.0537 38.4931 83.1539 38.8228 83.3545 39.0398C83.5523 39.2569 83.8559 39.3654 84.2652 39.3654C84.6581 39.3654 84.9713 39.2912 85.2048 39.1428C85.4383 38.9945 85.6073 38.7761 85.7117 38.4876C85.8133 38.2019 85.8641 37.8489 85.8641 37.4286V34.6428ZM89.1773 32.4258V39.9382H88.3696V32.4258H89.1773ZM92.9067 34.548C93.3573 34.548 93.7433 34.6469 94.0647 34.8447C94.3861 35.0453 94.632 35.3255 94.8024 35.6854C94.9727 36.0426 95.0578 36.4615 95.0578 36.9423V37.4409H91.4026C91.4136 38.0618 91.5688 38.5343 91.8683 38.8585C92.1677 39.1827 92.5894 39.3448 93.1334 39.3448C93.4686 39.3448 93.7639 39.3145 94.0194 39.2541C94.2776 39.1937 94.5455 39.1044 94.823 38.9862V39.6909C94.5565 39.8091 94.2914 39.8956 94.0276 39.9505C93.7666 40.0055 93.4562 40.033 93.0963 40.033C92.5881 40.033 92.1458 39.9286 91.7694 39.7198C91.3903 39.5137 91.0963 39.2088 90.8875 38.8049C90.6787 38.4038 90.5743 37.9121 90.5743 37.3296C90.5743 36.7582 90.6691 36.2637 90.8587 35.8461C91.051 35.4313 91.3216 35.1112 91.6705 34.886C92.0194 34.6607 92.4315 34.548 92.9067 34.548ZM92.8944 35.2033C92.4658 35.2033 92.1252 35.3434 91.8724 35.6236C91.6169 35.9038 91.4658 36.2953 91.4191 36.7981H94.2172C94.2145 36.4821 94.1664 36.2046 94.073 35.9656C93.9768 35.7239 93.8326 35.5371 93.6403 35.4052C93.4452 35.2706 93.1966 35.2033 92.8944 35.2033ZM98.9274 34.548C99.5538 34.548 100.029 34.7019 100.353 35.0096C100.675 35.3145 100.835 35.8077 100.835 36.489V39.9341H100.044V36.5426C100.044 36.1002 99.9425 35.7692 99.7392 35.5494C99.5386 35.3324 99.2309 35.2239 98.8161 35.2239C98.2309 35.2239 97.8189 35.3887 97.5798 35.7184C97.3408 36.0508 97.2213 36.5329 97.2213 37.1648V39.9341H96.4219V34.6428H97.0689L97.1883 35.4052H97.2337C97.3463 35.2184 97.4892 35.0618 97.6623 34.9354C97.8353 34.809 98.0304 34.7129 98.2474 34.6469C98.4617 34.581 98.6884 34.548 98.9274 34.548ZM105.883 39.3118V39.9341H102.022V39.4066L104.927 35.2692H102.208V34.6428H105.818V35.2362L102.953 39.3118H105.883ZM109.098 34.5563C109.73 34.5563 110.198 34.6978 110.503 34.9807C110.808 35.2637 110.96 35.7156 110.96 36.3365V39.9341H110.379L110.223 39.1552H110.186C110.037 39.3475 109.882 39.5082 109.72 39.6374C109.561 39.7692 109.375 39.8681 109.164 39.9341C108.952 40 108.694 40.033 108.389 40.033C108.068 40.033 107.782 39.9766 107.532 39.864C107.282 39.7514 107.085 39.581 106.943 39.353C106.8 39.1222 106.728 38.8324 106.728 38.4835C106.728 37.956 106.937 37.5494 107.355 37.2637C107.772 36.9807 108.41 36.8269 109.267 36.8022L110.182 36.7651V36.4395C110.182 35.9835 110.083 35.6634 109.885 35.4794C109.69 35.2953 109.414 35.2033 109.057 35.2033C108.779 35.2033 108.514 35.2431 108.261 35.3228C108.011 35.4052 107.774 35.5 107.548 35.6071L107.301 35.0013C107.54 34.8777 107.813 34.7733 108.121 34.6882C108.432 34.6002 108.757 34.5563 109.098 34.5563ZM110.169 37.8159V37.3296L109.366 37.3626C108.704 37.3873 108.238 37.4945 107.969 37.684C107.697 37.8764 107.561 38.1456 107.561 38.4917C107.561 38.7939 107.653 39.0178 107.837 39.1634C108.021 39.3091 108.264 39.3819 108.566 39.3819C109.036 39.3819 109.421 39.2514 109.72 38.9904C110.019 38.7294 110.169 38.3379 110.169 37.8159ZM115.308 32.8791H117.154C118.063 32.8791 118.728 33.0577 119.149 33.4148C119.569 33.7692 119.779 34.2788 119.779 34.9437C119.779 35.2431 119.73 35.5261 119.631 35.7926C119.535 36.0618 119.377 36.2994 119.157 36.5055C118.937 36.7088 118.65 36.8695 118.296 36.9876C117.938 37.1057 117.503 37.1648 116.989 37.1648H116.128V39.9382H115.308V32.8791ZM117.076 33.5796H116.128V36.4601H116.894C117.348 36.4601 117.724 36.4107 118.024 36.3118C118.326 36.2156 118.552 36.059 118.704 35.842C118.855 35.625 118.93 35.3365 118.93 34.9766C118.93 34.5068 118.78 34.1566 118.481 33.9258C118.182 33.695 117.713 33.5796 117.076 33.5796ZM123.541 34.548C123.649 34.548 123.76 34.5535 123.875 34.5645C123.991 34.5755 124.094 34.5906 124.184 34.6099L124.081 35.3516C123.996 35.3296 123.9 35.3118 123.793 35.298C123.686 35.2871 123.585 35.2816 123.492 35.2816C123.281 35.2816 123.08 35.3241 122.89 35.4093C122.704 35.4945 122.539 35.6167 122.396 35.7761C122.256 35.9354 122.144 36.1263 122.062 36.3489C121.982 36.5742 121.943 36.8228 121.943 37.0948V39.9341H121.135V34.6428H121.802L121.889 35.6195H121.922C122.032 35.4217 122.165 35.2417 122.322 35.0796C122.476 34.9176 122.654 34.7884 122.857 34.6923C123.063 34.5961 123.291 34.548 123.541 34.548ZM127.217 34.548C127.668 34.548 128.054 34.6469 128.375 34.8447C128.697 35.0453 128.943 35.3255 129.113 35.6854C129.283 36.0426 129.368 36.4615 129.368 36.9423V37.4409H125.713C125.724 38.0618 125.879 38.5343 126.179 38.8585C126.478 39.1827 126.9 39.3448 127.444 39.3448C127.779 39.3448 128.074 39.3145 128.33 39.2541C128.588 39.1937 128.856 39.1044 129.134 38.9862V39.6909C128.867 39.8091 128.602 39.8956 128.338 39.9505C128.077 40.0055 127.768 40.033 127.411 40.033C126.903 40.033 126.459 39.9286 126.08 39.7198C125.701 39.5137 125.407 39.2088 125.198 38.8049C124.989 38.4038 124.885 37.9121 124.885 37.3296C124.885 36.7582 124.98 36.2637 125.169 35.8461C125.362 35.4313 125.632 35.1112 125.981 34.886C126.333 34.6607 126.745 34.548 127.217 34.548ZM127.205 35.2033C126.779 35.2033 126.438 35.3434 126.183 35.6236C125.927 35.9038 125.776 36.2953 125.73 36.7981H128.532C128.526 36.4821 128.477 36.2046 128.384 35.9656C128.287 35.7239 128.143 35.5371 127.951 35.4052C127.759 35.2706 127.51 35.2033 127.205 35.2033ZM136.477 34.548C137.062 34.548 137.502 34.6991 137.796 35.0013C138.092 35.3063 138.241 35.7953 138.241 36.4684V39.9341H137.45V36.5055C137.45 36.0796 137.357 35.7596 137.173 35.5453C136.987 35.331 136.712 35.2239 136.349 35.2239C135.836 35.2239 135.463 35.3722 135.232 35.6689C135.002 35.9629 134.886 36.3983 134.886 36.9753V39.9341H134.087V36.5055C134.087 36.2198 134.046 35.9821 133.963 35.7926C133.884 35.603 133.761 35.4601 133.596 35.364C133.434 35.2706 133.23 35.2239 132.982 35.2239C132.631 35.2239 132.349 35.2953 132.138 35.4382C131.926 35.5838 131.772 35.7994 131.676 36.0851C131.58 36.3709 131.532 36.7211 131.532 37.136V39.9341H130.732V34.6428H131.379L131.499 35.3928H131.544C131.649 35.2088 131.782 35.0535 131.944 34.9272C132.106 34.8035 132.286 34.7088 132.484 34.6428C132.684 34.5796 132.897 34.548 133.123 34.548C133.524 34.548 133.86 34.6222 134.132 34.7706C134.407 34.9217 134.605 35.1497 134.726 35.4546H134.771C134.944 35.1497 135.182 34.9217 135.484 34.7706C135.786 34.6222 136.117 34.548 136.477 34.548ZM139.889 34.6428H140.689V39.9341H139.889V34.6428ZM140.297 32.6648C140.429 32.6648 140.543 32.7074 140.639 32.7925C140.735 32.8777 140.783 33.0096 140.783 33.1881C140.783 33.3667 140.735 33.4986 140.639 33.5838C140.543 33.6717 140.429 33.7156 140.297 33.7156C140.16 33.7156 140.046 33.6717 139.955 33.5838C139.862 33.4986 139.815 33.3667 139.815 33.1881C139.815 33.0096 139.862 32.8777 139.955 32.7925C140.046 32.7074 140.16 32.6648 140.297 32.6648ZM145.947 34.6428H146.755V39.9341H146.099L145.984 39.1923H145.939C145.829 39.3764 145.687 39.5302 145.514 39.6538C145.341 39.7802 145.146 39.875 144.929 39.9382C144.712 40.0014 144.48 40.033 144.233 40.033C143.815 40.033 143.465 39.9657 143.182 39.831C142.899 39.6937 142.686 39.4835 142.543 39.2005C142.4 38.9176 142.329 38.5536 142.329 38.1085V34.6428H143.136V38.0508C143.136 38.4931 143.237 38.8228 143.437 39.0398C143.638 39.2569 143.943 39.3654 144.352 39.3654C144.745 39.3654 145.058 39.2912 145.292 39.1428C145.522 38.9945 145.69 38.7761 145.794 38.4876C145.896 38.2019 145.947 37.8489 145.947 37.4286V34.6428ZM154.197 34.548C154.779 34.548 155.219 34.6991 155.516 35.0013C155.812 35.3063 155.961 35.7953 155.961 36.4684V39.9341H155.169V36.5055C155.169 36.0796 155.076 35.7596 154.889 35.5453C154.705 35.331 154.43 35.2239 154.065 35.2239C153.554 35.2239 153.183 35.3722 152.952 35.6689C152.719 35.9629 152.602 36.3983 152.602 36.9753V39.9341H151.807V36.5055C151.807 36.2198 151.766 35.9821 151.683 35.7926C151.601 35.603 151.478 35.4601 151.316 35.364C151.154 35.2706 150.95 35.2239 150.702 35.2239C150.351 35.2239 150.069 35.2953 149.858 35.4382C149.643 35.5838 149.489 35.7994 149.396 36.0851C149.3 36.3709 149.252 36.7211 149.252 37.136V39.9341H148.452V34.6428H149.099L149.219 35.3928H149.26C149.367 35.2088 149.502 35.0535 149.664 34.9272C149.823 34.8035 150.003 34.7088 150.204 34.6428C150.404 34.5796 150.617 34.548 150.842 34.548C151.244 34.548 151.58 34.6222 151.852 34.7706C152.124 34.9217 152.322 35.1497 152.445 35.4546H152.487C152.66 35.1497 152.899 34.9217 153.204 34.7706C153.506 34.6222 153.837 34.548 154.197 34.548Z" fill="white"/>
</svg>