<svg xmlns="http://www.w3.org/2000/svg" width="56" height="56" viewBox="0 0 56 56" fill="none">
  <g clip-path="url(#clip0_27848_88643)">
    <path fill-rule="evenodd" clip-rule="evenodd" d="M21.7831 21.9788C21.7831 21.7467 21.8753 21.5242 22.0394 21.3601C22.2035 21.196 22.4261 21.1038 22.6581 21.1038H29.9961C30.2282 21.1038 30.4507 21.196 30.6148 21.3601C30.7789 21.5242 30.8711 21.7467 30.8711 21.9788C30.8711 22.2109 30.7789 22.4334 30.6148 22.5975C30.4507 22.7616 30.2282 22.8538 29.9961 22.8538H22.6581C22.4261 22.8538 22.2035 22.7616 22.0394 22.5975C21.8753 22.4334 21.7831 22.2109 21.7831 21.9788ZM22.6581 17.99H34.0869C34.319 17.99 34.5416 17.8978 34.7057 17.7337C34.8698 17.5696 34.9619 17.3471 34.9619 17.115C34.9619 16.8829 34.8698 16.6604 34.7057 16.4963C34.5416 16.3322 34.319 16.24 34.0869 16.24H22.6581C22.4261 16.24 22.2035 16.3322 22.0394 16.4963C21.8753 16.6604 21.7831 16.8829 21.7831 17.115C21.7831 17.3471 21.8753 17.5696 22.0394 17.7337C22.2035 17.8978 22.4261 17.99 22.6581 17.99ZM11.3376 15.2677H15.4393C16.4146 15.2677 17.2434 15.8984 17.5447 16.7727L18.9086 15.5349C18.9937 15.4576 19.0932 15.3978 19.2013 15.359C19.3095 15.3202 19.4242 15.3031 19.539 15.3087C19.6538 15.3143 19.7664 15.3424 19.8703 15.3915C19.9742 15.4406 20.0674 15.5097 20.1446 15.5948C20.3005 15.7666 20.3818 15.9934 20.3706 16.2252C20.3593 16.457 20.2565 16.6748 20.0846 16.8307L17.6677 19.0241V21.5977C17.6677 22.8265 16.668 23.8263 15.4392 23.8263H11.3375C10.1088 23.8263 9.10897 22.8265 9.10897 21.5977V17.4962C9.10919 16.2673 10.1089 15.2677 11.3376 15.2677ZM15.4393 17.0177H11.3376C11.0783 17.0177 10.8591 17.2368 10.8591 17.4962V21.5977C10.8591 21.8571 11.0782 22.0763 11.3376 22.0763H15.4393C15.6986 22.0763 15.9178 21.8571 15.9178 21.5977V20.6123L15.2479 21.2203C15.0871 21.3666 14.8774 21.4476 14.66 21.4473C14.545 21.4475 14.4312 21.4249 14.325 21.3809C14.2188 21.337 14.1223 21.2724 14.0411 21.1911L12.0496 19.1997C11.9676 19.1186 11.9023 19.0221 11.8577 18.9158C11.8131 18.8094 11.7899 18.6952 11.7896 18.5799C11.7892 18.4645 11.8117 18.3503 11.8556 18.2436C11.8996 18.137 11.9642 18.0401 12.0458 17.9585C12.1274 17.8769 12.2243 17.8123 12.3309 17.7683C12.4375 17.7243 12.5518 17.7019 12.6672 17.7022C12.7825 17.7025 12.8967 17.7257 13.003 17.7703C13.1094 17.8149 13.2059 17.8802 13.287 17.9622L14.689 19.3642L15.9176 18.2492V17.4962C15.9178 17.2368 15.6986 17.0177 15.4393 17.0177ZM20.1447 27.099C20.3006 27.2708 20.3819 27.4976 20.3707 27.7293C20.3594 27.9611 20.2566 28.179 20.0848 28.3349L17.6678 30.5283V33.102C17.6678 34.3307 16.6681 35.3304 15.4393 35.3304H11.3376C10.1089 35.3304 9.10908 34.3307 9.10908 33.102V29.0003C9.10908 27.7716 10.1088 26.7718 11.3376 26.7718H15.4393C16.4146 26.7718 17.2434 27.4026 17.5447 28.2768L18.9086 27.039C18.9937 26.9618 19.0932 26.902 19.2014 26.8632C19.3095 26.8244 19.4243 26.8073 19.5391 26.8129C19.6539 26.8185 19.7664 26.8466 19.8703 26.8957C19.9743 26.9448 20.0675 27.0138 20.1447 27.099ZM15.9178 32.1164L15.2479 32.7245C15.0871 32.8708 14.8774 32.9518 14.66 32.9515C14.545 32.9517 14.4312 32.9291 14.325 32.8851C14.2188 32.8411 14.1223 32.7766 14.0411 32.6953L12.0496 30.7039C11.9676 30.6228 11.9023 30.5263 11.8577 30.4199C11.8131 30.3136 11.7899 30.1994 11.7896 30.0841C11.7892 29.9687 11.8117 29.8544 11.8556 29.7478C11.8996 29.6411 11.9642 29.5442 12.0458 29.4627C12.1274 29.3811 12.2243 29.3165 12.3309 29.2725C12.4375 29.2285 12.5518 29.206 12.6672 29.2064C12.7825 29.2067 12.8967 29.2299 13.003 29.2745C13.1094 29.3191 13.2059 29.3843 13.287 29.4664L14.689 30.8684L15.9176 29.7534V29.0003C15.9176 28.741 15.6985 28.5218 15.439 28.5218H11.3374C11.078 28.5218 10.8589 28.741 10.8589 29.0003V33.102C10.8589 33.3613 11.0779 33.5804 11.3374 33.5804H15.439C15.6984 33.5804 15.9176 33.3613 15.9176 33.102V32.1164H15.9178ZM20.1447 38.6031C20.3006 38.775 20.3819 39.0017 20.3707 39.2335C20.3594 39.4653 20.2566 39.6831 20.0848 39.8391L17.6678 42.0325V44.6061C17.6678 45.8348 16.6681 46.8346 15.4393 46.8346H11.3376C10.1089 46.8346 9.10908 45.8348 9.10908 44.6061V40.5044C9.10908 39.2757 10.1088 38.276 11.3376 38.276H15.4393C16.4146 38.276 17.2435 38.9068 17.5448 39.781L18.9088 38.5433C18.9938 38.4661 19.0933 38.4063 19.2014 38.3675C19.3096 38.3287 19.4243 38.3116 19.5391 38.3172C19.6539 38.3227 19.7664 38.3509 19.8703 38.3999C19.9743 38.449 20.0675 38.518 20.1447 38.6031ZM15.9178 43.6206L15.2479 44.2286C15.0871 44.375 14.8774 44.456 14.66 44.4557C14.545 44.4558 14.4312 44.4333 14.325 44.3893C14.2188 44.3453 14.1223 44.2808 14.0411 44.1994L12.0496 42.2079C11.9676 42.1269 11.9023 42.0304 11.8577 41.924C11.8131 41.8176 11.7899 41.7035 11.7896 41.5881C11.7892 41.4728 11.8117 41.3585 11.8556 41.2518C11.8996 41.1452 11.9642 41.0483 12.0458 40.9667C12.1274 40.8852 12.2243 40.8205 12.3309 40.7765C12.4375 40.7326 12.5518 40.7101 12.6672 40.7104C12.7825 40.7108 12.8967 40.7339 13.003 40.7786C13.1094 40.8232 13.2059 40.8884 13.287 40.9705L14.689 42.3725L15.9176 41.2576V40.5044C15.9176 40.2451 15.6985 40.026 15.439 40.026H11.3374C11.078 40.026 10.8589 40.2451 10.8589 40.5044V44.6061C10.8589 44.8654 11.0779 45.0846 11.3374 45.0846H15.439C15.6984 45.0846 15.9176 44.8654 15.9176 44.6061V43.6206H15.9178ZM55.4642 53.0511L53.2246 55.3593C53.0474 55.5421 52.8352 55.6874 52.6007 55.7864C52.3662 55.8854 52.1141 55.9363 51.8595 55.9358C51.3651 55.9367 50.8899 55.7443 50.5353 55.3997L44.3319 49.3803C44.2338 49.2847 44.1464 49.1789 44.0711 49.0645V52.6929C44.0711 54.5165 42.5876 56.0001 40.764 56.0001H3.30728C1.48356 56 0 54.5164 0 52.6928V7.93931C0 6.1157 1.48356 4.63214 3.30728 4.63214H11.7964V4.03703C11.7964 3.80497 11.8886 3.58241 12.0527 3.41831C12.2168 3.25422 12.4394 3.16203 12.6714 3.16203H17.3771C18.1227 1.26995 19.9499 0 22.0356 0C24.1212 0 25.9485 1.26995 26.6941 3.16192H31.3997C31.6318 3.16192 31.8543 3.25411 32.0184 3.4182C32.1825 3.5823 32.2747 3.80486 32.2747 4.03692V4.63203H40.7638C42.5875 4.63203 44.071 6.11559 44.071 7.9392V28.0506C45.5385 30.0612 46.4061 32.5361 46.4061 35.2102C46.4061 37.5325 45.752 39.7047 44.6189 41.5529L47.0956 43.9831C47.3376 43.8707 47.6005 43.8106 47.8673 43.8065C48.3773 43.7934 48.8567 43.9891 49.2205 44.3422L55.4237 50.3615C56.1763 51.0923 56.1945 52.2988 55.4642 53.0511ZM43.5865 42.9916C43.3517 43.2735 43.1044 43.5447 42.8454 43.8045L45.0206 45.9392L45.7862 45.1501L43.5865 42.9916ZM44.6562 35.2104C44.6562 29.4642 39.9813 24.7894 34.235 24.7894C28.4888 24.7894 23.8139 29.4642 23.8139 35.2104C23.8139 40.9567 28.4888 45.6316 34.235 45.6316C39.9813 45.6316 44.6562 40.9567 44.6562 35.2104ZM32.2747 6.38214V8.01577H39.8125C40.0446 8.01577 40.2671 8.10795 40.4312 8.27205C40.5953 8.43614 40.6875 8.6587 40.6875 8.89077V24.8953C41.2652 25.2581 41.8116 25.6685 42.321 26.1222V7.93931C42.321 7.08061 41.6224 6.38214 40.7638 6.38214H32.2747ZM13.5464 9.48577H30.5247V4.91192H26.0549C25.8585 4.91194 25.6678 4.84589 25.5135 4.72439C25.3592 4.6029 25.2503 4.43302 25.2043 4.24211C24.8504 2.77473 23.5475 1.75 22.0356 1.75C20.5237 1.75 19.2207 2.77473 18.8668 4.24211C18.8207 4.43302 18.7118 4.6029 18.5575 4.72439C18.4032 4.84589 18.2125 4.91194 18.0161 4.91192H13.5463L13.5464 9.48577ZM12.6714 11.2358C12.4394 11.2358 12.2168 11.1436 12.0527 10.9795C11.8886 10.8154 11.7964 10.5928 11.7964 10.3608V9.76577H5.13363V50.8665H38.9375V46.4361C37.49 47.0448 35.9011 47.3817 34.2349 47.3817C32.1024 47.3817 30.0968 46.8298 28.3521 45.8623H22.6581C22.4261 45.8623 22.2035 45.7701 22.0394 45.606C21.8753 45.4419 21.7831 45.2193 21.7831 44.9873C21.7831 44.7552 21.8753 44.5326 22.0394 44.3685C22.2035 44.2044 22.4261 44.1123 22.6581 44.1123H25.9442C24.9768 43.2114 24.1616 42.1598 23.5304 40.9983H22.6581C22.4261 40.9983 22.2035 40.9062 22.0394 40.7421C21.8753 40.578 21.7831 40.3554 21.7831 40.1233C21.7831 39.8913 21.8753 39.6687 22.0394 39.5046C22.2035 39.3405 22.4261 39.2483 22.6581 39.2483H22.7533C22.296 37.9513 22.0628 36.5858 22.0639 35.2104C22.0639 34.8579 22.0799 34.5091 22.1094 34.1642C22.0075 34.0823 21.9253 33.9786 21.8688 33.8607C21.8123 33.7429 21.783 33.6138 21.7831 33.4831C21.7831 33.3087 21.8353 33.1382 21.933 32.9937C22.0306 32.8492 22.1692 32.7371 22.331 32.672C22.5672 31.5635 22.9582 30.4938 23.4925 29.4943H22.6581C22.4261 29.4943 22.2035 29.4021 22.0394 29.238C21.8753 29.0739 21.7831 28.8513 21.7831 28.6193C21.7831 28.3872 21.8753 28.1647 22.0394 28.0006C22.2035 27.8365 22.4261 27.7443 22.6581 27.7443H24.6297C26.8588 24.8831 30.3354 23.0394 34.2349 23.0394C35.901 23.0394 37.4899 23.3763 38.9375 23.985V9.76566H32.2747V10.3607C32.2747 10.5927 32.1825 10.8153 32.0184 10.9794C31.8543 11.1435 31.6318 11.2357 31.3997 11.2357L12.6714 11.2358ZM42.3211 52.6928V45.7421L41.5194 44.9553C41.2501 45.1568 40.9726 45.3471 40.6876 45.5258V51.7415C40.6876 51.9735 40.5954 52.1961 40.4313 52.3602C40.2672 52.5243 40.0447 52.6165 39.8126 52.6165H4.25863C4.02656 52.6165 3.804 52.5243 3.63991 52.3602C3.47581 52.1961 3.38363 51.9735 3.38363 51.7415V8.89066C3.38363 8.65859 3.47581 8.43603 3.63991 8.27194C3.804 8.10784 4.02656 8.01566 4.25863 8.01566H11.7964V6.38214H3.30728C2.44858 6.38214 1.75 7.08061 1.75 7.93931V52.6928C1.75 53.5514 2.44858 54.25 3.30728 54.25H40.7638C41.6225 54.25 42.3211 53.5514 42.3211 52.6928ZM54.2049 51.6176L48.0017 45.5982C47.9735 45.5709 47.9355 45.5559 47.8962 45.5564L47.8937 45.5565C47.8738 45.5565 47.8541 45.5604 47.8357 45.5681C47.8174 45.5758 47.8007 45.5871 47.7868 45.6013L45.5472 47.9095C45.512 47.9457 45.5051 47.9883 45.5056 48.0176C45.506 48.0469 45.5141 48.089 45.5504 48.1243L51.7538 54.1438C51.8119 54.2001 51.9123 54.1986 51.9688 54.1406L54.2083 51.8325C54.2647 51.7743 54.2631 51.6739 54.2049 51.6176ZM43.2213 35.2104C43.2213 40.1656 39.19 44.1967 34.235 44.1967C29.28 44.1967 25.2488 40.1656 25.2488 35.2104C25.2488 30.2553 29.28 26.2242 34.235 26.2242C39.19 26.2242 43.2213 30.2553 43.2213 35.2104ZM41.4713 35.2104C41.4713 31.2204 38.2251 27.9742 34.235 27.9742C30.2449 27.9742 26.9988 31.2204 26.9988 35.2104C26.9988 39.2004 30.2449 42.4467 34.235 42.4467C38.2251 42.4467 41.4713 39.2004 41.4713 35.2104ZM22.0356 3.17089C21.4331 3.17089 20.9418 3.6622 20.9418 4.26464C20.9418 4.86708 21.4331 5.35839 22.0356 5.35839C22.638 5.35839 23.1293 4.86708 23.1293 4.26464C23.1293 3.6622 22.638 3.17089 22.0356 3.17089Z" fill="#1C1919"/>
  </g>
  <defs>
    <clipPath id="clip0_27848_88643">
      <rect width="56" height="56" fill="white"/>
    </clipPath>
  </defs>
</svg>