<svg xmlns="http://www.w3.org/2000/svg" width="24" height="25" viewBox="0 0 24 25" fill="none">
  <path d="M22 12.7148C22 12.4951 21.9204 12.2828 21.776 12.1173C21.6316 11.9517 21.4322 11.844 21.2145 11.8141L21.0909 11.8057H2.90882C2.67849 11.8057 2.45677 11.8932 2.28846 12.0505C2.12016 12.2077 2.01781 12.423 2.00212 12.6528C1.98642 12.8826 2.05853 13.1098 2.20389 13.2885C2.34924 13.4671 2.557 13.584 2.78519 13.6154L2.90882 13.6239H21.0909C21.332 13.6239 21.5632 13.5281 21.7337 13.3576C21.9042 13.1871 22 12.9559 22 12.7148Z" fill="#1C1919"/>
  <path d="M10.8834 6.05655C11.0473 5.89496 11.1439 5.67719 11.1535 5.4472C11.1631 5.21721 11.0852 4.99212 10.9353 4.81737C10.7855 4.64262 10.575 4.53121 10.3462 4.50563C10.1174 4.48005 9.88749 4.54221 9.70276 4.67956L9.60094 4.76805L2.26751 12.07C2.11291 12.224 2.0189 12.4286 2.00265 12.6462C1.98641 12.8639 2.04901 13.0801 2.17902 13.2554L2.26751 13.3585L9.60094 20.6616C9.76375 20.823 9.98156 20.917 10.2107 20.9247C10.4399 20.9323 10.6635 20.8531 10.8367 20.7029C11.0099 20.5526 11.12 20.3425 11.1448 20.1146C11.1696 19.8866 11.1074 19.6577 10.9707 19.4737L10.8834 19.3731L4.19723 12.7136L10.8834 6.05655Z" fill="#1C1919"/>
</svg>