<svg xmlns="http://www.w3.org/2000/svg" width="40" height="41" viewBox="0 0 40 41" fill="none">
  <g clip-path="url(#clip0_28313_5243)">
    <path d="M39.933 24.8909L39.939 24.8889L33.3717 10.5596L34.9644 9.76698L34.3684 8.57366L32.8157 9.34698L32.6057 8.88899C32.5525 8.77297 32.4672 8.67467 32.3597 8.60575C32.2523 8.53683 32.1274 8.50019 31.9997 8.50019C31.8721 8.50019 31.7472 8.53683 31.6397 8.60575C31.5323 8.67467 31.4469 8.77297 31.3937 8.88899L31.2064 9.29832C30.0764 8.77348 28.8457 8.50117 27.5998 8.50033H21.9998V7.167H23.3332V5.83368H22.1872L22.6665 3.9157C23.0345 2.44296 22.139 0.950722 20.6663 0.582642C19.1935 0.214645 17.7013 1.11014 17.3332 2.58287C17.2239 3.02039 17.2239 3.47809 17.3332 3.91561L17.8125 5.8336H16.6665V7.16692H17.9999V8.50024H12.4032C11.1561 8.50124 9.92411 8.77425 8.79327 9.30023L8.60594 8.89091C8.55274 8.77489 8.46736 8.67658 8.35994 8.60766C8.25252 8.53874 8.12757 8.50211 7.99994 8.50211C7.87231 8.50211 7.74737 8.53874 7.63995 8.60766C7.53252 8.67658 7.44714 8.77489 7.39395 8.89091L7.18395 9.3489L5.6313 8.57224L5.0353 9.7669L6.62795 10.5629L0.0606758 24.8889C0.0202045 24.9759 -0.000512184 25.0708 9.61771e-06 25.1669C0.00292626 27.7429 2.09058 29.8306 4.66664 29.8335H11.3332C13.9093 29.8306 15.997 27.7429 15.9999 25.1669C15.9982 25.0711 15.9754 24.9768 15.9332 24.8909L9.34793 10.5076C10.3052 10.0633 11.3479 9.8333 12.4032 9.83365H17.9999V34.2241L15.7239 36.5001H13.3332C11.4932 36.5023 10.0021 37.9934 9.99993 39.8334C9.99993 40.0102 10.0702 40.1798 10.1952 40.3048C10.3202 40.4298 10.4898 40.5001 10.6666 40.5001H29.3331C29.5099 40.5001 29.6795 40.4298 29.8045 40.3048C29.9295 40.1798 29.9998 40.0102 29.9998 39.8334C29.9976 37.9934 28.5064 36.5023 26.6665 36.5001H24.2758L21.9998 34.2241V9.83365H27.5998C28.6551 9.8333 29.6978 10.0633 30.6551 10.5076L24.0605 24.8889C24.02 24.9759 23.9993 25.0708 23.9998 25.1669C24.0027 27.7429 26.0904 29.8306 28.6664 29.8335H35.333C37.9091 29.8306 39.9968 27.7429 39.9997 25.1669C39.9981 25.0711 39.9753 24.9768 39.933 24.8909ZM11.3332 28.5002H4.66664C3.08315 28.4984 1.71875 27.3846 1.4 25.8335H14.5999C14.2812 27.3846 12.9167 28.4984 11.3332 28.5002ZM14.2946 24.5002H1.70533L7.82928 11.1396C7.94111 11.1696 8.05878 11.1696 8.17061 11.1396L14.2946 24.5002ZM18.8845 2.37771C19.4037 1.76172 20.3239 1.6833 20.9399 2.20246C21.0032 2.25579 21.0618 2.31446 21.1152 2.37771C21.2482 2.54695 21.3407 2.74446 21.3854 2.95504C21.4301 3.16562 21.4259 3.38366 21.3732 3.59237L20.8125 5.83368H19.1872L18.6265 3.59237C18.5738 3.38366 18.5696 3.16562 18.6143 2.95505C18.6591 2.74447 18.7515 2.54696 18.8845 2.37771ZM19.3332 8.50033V7.167H20.6665V8.50033H19.3332ZM20.6665 9.83365V33.8334H19.3332V9.83365H20.6665ZM26.6665 37.8334C27.08 37.8339 27.4832 37.9623 27.8209 38.201C28.1585 38.4397 28.4141 38.7771 28.5524 39.1667H11.4472C11.5856 38.7771 11.8412 38.4397 12.1788 38.201C12.5165 37.9623 12.9197 37.8339 13.3332 37.8334H26.6665ZM22.3905 36.5001H17.6092L18.9425 35.1668H21.0572L22.3905 36.5001ZM31.8277 11.1416C31.9378 11.1804 32.0586 11.1754 32.1651 11.1276L38.2944 24.5002H25.7051L31.8277 11.1416ZM35.333 28.5002H28.6664C27.083 28.4984 25.7185 27.3846 25.3998 25.8335H38.5997C38.281 27.3846 36.9165 28.4984 35.333 28.5002Z" fill="#212B36"/>
  </g>
  <defs>
    <clipPath id="clip0_28313_5243">
      <rect width="40" height="40" fill="white" transform="translate(0 0.5)"/>
    </clipPath>
  </defs>
</svg>