<svg xmlns="http://www.w3.org/2000/svg" width="16" height="16" viewBox="0 0 16 16" fill="none">
  <path d="M4.21738 15.4954H1.15421V5.63108H4.21738V15.4954ZM2.68415 4.2855C1.70464 4.2855 0.910156 3.4742 0.910156 2.49469C0.910156 2.0242 1.09706 1.57298 1.42975 1.24029C1.76243 0.907605 2.21365 0.720703 2.68415 0.720703C3.15464 0.720703 3.60586 0.907605 3.93855 1.24029C4.27123 1.57298 4.45814 2.0242 4.45814 2.49469C4.45814 3.4742 3.66332 4.2855 2.68415 4.2855ZM15.6819 15.4954H12.6253V10.6935C12.6253 9.54909 12.6022 8.08149 11.0327 8.08149C9.44008 8.08149 9.19603 9.32483 9.19603 10.611V15.4954H6.13615V5.63108H9.074V6.97666H9.11688C9.52583 6.20163 10.5248 5.38373 12.0152 5.38373C15.1153 5.38373 15.6852 7.42519 15.6852 10.0768V15.4954H15.6819Z" fill="white"/>
  <path d="M15.1852 10.0768V14.9954H13.1253V10.6935V10.6892C13.1253 10.1392 13.1253 9.38747 12.8824 8.77423C12.755 8.4524 12.5522 8.14354 12.2297 7.9186C11.9062 7.69291 11.5048 7.58149 11.0327 7.58149C10.5695 7.58149 10.1681 7.67212 9.83165 7.85842C9.49226 8.04632 9.24884 8.31505 9.0793 8.62248C8.75319 9.21381 8.69603 9.95876 8.69603 10.611V14.9954H6.63615V6.13108H8.574V6.97666V7.47666H9.074H9.11688H9.41839L9.55909 7.21C9.88566 6.5911 10.719 5.88373 12.0152 5.88373C13.4419 5.88373 14.1743 6.34266 14.5896 7.0023C15.0383 7.715 15.1852 8.76178 15.1852 10.0768ZM3.71738 14.9954H1.65421V6.13108H3.71738V14.9954ZM2.68415 3.7855C1.9869 3.7855 1.41016 3.20421 1.41016 2.49469C1.41016 2.15681 1.54438 1.83277 1.7833 1.59385C2.02222 1.35493 2.34626 1.2207 2.68415 1.2207C3.02203 1.2207 3.34607 1.35493 3.58499 1.59385C3.82391 1.83277 3.95814 2.15681 3.95814 2.49469C3.95814 3.20415 3.38112 3.7855 2.68415 3.7855Z" stroke="white" stroke-opacity="0.2"/>
</svg>