<svg xmlns="http://www.w3.org/2000/svg" width="56" height="56" viewBox="0 0 56 56" fill="none">
  <path d="M54.9784 41.2344C54.3867 39.0239 52.0887 37.6808 49.747 38.1719L33.4261 41.6369C33.7472 40.7541 33.7479 39.7865 33.428 38.9032C33.1081 38.02 32.488 37.2772 31.6761 36.8047L22.2152 31.3414C21.8355 31.1043 21.4788 30.8323 21.1498 30.5288C20.3186 29.8102 19.2839 28.9166 17.3556 28.711C15.5236 28.5163 13.1392 28.9461 9.91813 30.0606C9.8106 29.3776 9.46296 28.7553 8.93769 28.3056C8.41242 27.8559 7.74397 27.6083 7.0525 27.6074H3.77562C3.0066 27.6082 2.26932 27.9141 1.72553 28.4579C1.18175 29.0017 0.875868 29.739 0.875 30.508V46.631C0.875868 47.4 1.18175 48.1373 1.72553 48.6811C2.26932 49.2248 3.0066 49.5307 3.77562 49.5316H7.04266C7.80361 49.5305 8.53375 49.2309 9.07601 48.697C9.61826 48.1631 9.92929 47.4377 9.94219 46.6769C12.5519 46.3105 15.867 48.2027 19.0805 50.038C21.8498 51.6196 24.4902 53.1278 26.6963 53.1278C27.1113 53.1312 27.5244 53.0711 27.9212 52.9496L51.9312 46.5161C53.0354 46.2193 53.9766 45.4963 54.548 44.5059C55.1194 43.5156 55.2742 42.3389 54.9784 41.2344ZM7.04266 47.7816H3.77562C3.47055 47.7813 3.17805 47.66 2.96233 47.4443C2.74661 47.2285 2.62529 46.936 2.625 46.631V30.508C2.62529 30.2029 2.74661 29.9104 2.96233 29.6947C3.17805 29.479 3.47055 29.3577 3.77562 29.3574H7.04266C7.34773 29.3577 7.64023 29.479 7.85595 29.6947C8.07167 29.9104 8.19299 30.2029 8.19328 30.508V46.631C8.19299 46.936 8.07167 47.2285 7.85595 47.4443C7.64023 47.66 7.34773 47.7813 7.04266 47.7816ZM51.4784 44.8285L27.4531 51.2641L27.4127 51.2761C25.725 51.8153 22.7894 50.1397 19.9511 48.5188C16.5681 46.585 13.0813 44.5966 9.94656 44.9094V31.9036C17.0942 29.3399 18.573 30.6163 20.0091 31.8522C20.4203 32.2296 20.8672 32.5663 21.3434 32.8574L30.8044 38.3196C31.0598 38.4678 31.2836 38.6649 31.4629 38.8996C31.6421 39.1343 31.7734 39.402 31.8493 39.6874C31.9251 39.9729 31.9439 40.2705 31.9047 40.5632C31.8656 40.8559 31.7691 41.1381 31.6209 41.3935C31.4726 41.649 31.2755 41.8727 31.0408 42.052C30.8061 42.2313 30.5384 42.3626 30.253 42.4384C29.9675 42.5142 29.6699 42.5331 29.3772 42.4939C29.0845 42.4547 28.8023 42.3583 28.5469 42.21L20.6478 37.6502C20.4474 37.5413 20.2124 37.5151 19.9929 37.5769C19.7733 37.6388 19.5867 37.784 19.4726 37.9815C19.3585 38.179 19.326 38.4132 19.3821 38.6343C19.4382 38.8553 19.5784 39.0458 19.7728 39.165L27.6719 43.726C28.2772 44.0763 28.9642 44.2608 29.6636 44.2608C30.2912 44.2599 30.91 44.1123 31.4705 43.8299C31.5116 43.8271 31.5525 43.8216 31.593 43.8135L50.1058 39.8935C51.5616 39.585 52.9277 40.3583 53.2853 41.6916C53.4599 42.3467 53.3678 43.0443 53.0291 43.6316C52.6905 44.2189 52.1329 44.6481 51.4784 44.8252V44.8285ZM6.86766 32.5172C6.86852 32.806 6.78366 33.0886 6.62381 33.3291C6.46397 33.5697 6.23633 33.7574 5.96974 33.8684C5.70314 33.9795 5.40958 34.009 5.12623 33.9531C4.84289 33.8972 4.5825 33.7584 4.37805 33.5545C4.1736 33.3505 4.03429 33.0904 3.97776 32.8072C3.92123 32.524 3.95002 32.2303 4.0605 31.9635C4.17097 31.6966 4.35815 31.4686 4.59833 31.3082C4.8385 31.1478 5.12088 31.0623 5.40969 31.0625C5.79553 31.0634 6.16537 31.2168 6.43852 31.4893C6.71166 31.7619 6.86592 32.1314 6.86766 32.5172ZM24.1423 22.9042H25.6233C25.9167 23.9591 26.3377 24.9743 26.8767 25.9274L25.83 26.9752C25.5554 27.2462 25.3889 27.608 25.3617 27.993C25.3345 28.3779 25.4485 28.7595 25.6823 29.0664C26.608 30.2947 27.7011 31.3874 28.9297 32.3127C29.2363 32.5471 29.618 32.6615 30.003 32.6346C30.388 32.6076 30.75 32.441 31.0209 32.1661L32.0688 31.1194C33.0216 31.6586 34.0364 32.0802 35.0908 32.375V33.856C35.0884 34.2419 35.2269 34.6154 35.4802 34.9065C35.7335 35.1976 36.0842 35.3864 36.4667 35.4375C37.9905 35.6521 39.5367 35.6521 41.0605 35.4375C41.4435 35.3866 41.7949 35.1976 42.0484 34.906C42.302 34.6144 42.4403 34.2402 42.4375 33.8538V32.375C43.4922 32.0812 44.5074 31.6603 45.4606 31.1216L46.5073 32.1683C46.7783 32.4432 47.1402 32.6098 47.5253 32.6368C47.9103 32.6637 48.292 32.5493 48.5986 32.3149C49.8268 31.3891 50.9192 30.2956 51.8438 29.0664C52.0777 28.7596 52.1919 28.3781 52.1649 27.9932C52.1379 27.6083 51.9717 27.2464 51.6972 26.9752L50.6494 25.9274C51.1885 24.9747 51.6094 23.9599 51.9028 22.9053H53.3848C53.7708 22.9079 54.1444 22.7695 54.4356 22.5162C54.7268 22.2629 54.9155 21.912 54.9664 21.5294C55.181 20.0057 55.181 18.4594 54.9664 16.9356C54.9153 16.5532 54.7265 16.2026 54.4353 15.9495C54.1441 15.6964 53.7706 15.5582 53.3848 15.5608H51.9017C51.6077 14.5059 51.1864 13.4908 50.6472 12.5377L51.695 11.491C51.968 11.2204 52.1336 10.86 52.161 10.4766C52.1883 10.0931 52.0756 9.71284 51.8438 9.40627C50.9187 8.17713 49.8256 7.084 48.5964 6.15893C48.2898 5.92451 47.9081 5.81006 47.5231 5.83704C47.1381 5.86403 46.7761 6.03059 46.5052 6.30549L45.4584 7.3533C44.5061 6.81292 43.4917 6.39019 42.4375 6.09439V4.61346C42.4401 4.22754 42.302 3.85391 42.0489 3.56257C41.7958 3.27122 41.4451 3.08216 41.0627 3.0308C39.5388 2.81851 37.9928 2.81851 36.4689 3.0308C36.0865 3.08238 35.736 3.27151 35.483 3.56281C35.2299 3.8541 35.0917 4.22761 35.0941 4.61346V6.09439C34.0385 6.38839 33.0226 6.80966 32.0688 7.34893L31.0209 6.30111C30.7498 6.02664 30.3879 5.86037 30.003 5.83339C29.6181 5.80642 29.2365 5.92059 28.9297 6.15455C27.7002 7.08097 26.6071 8.17558 25.6823 9.40627C25.4483 9.71313 25.3342 10.0948 25.3613 10.4798C25.3885 10.8647 25.5552 11.2266 25.83 11.4975L26.8767 12.5442C26.3374 13.4972 25.9165 14.5124 25.6233 15.5674H24.1423C23.7564 15.5647 23.3828 15.7029 23.0915 15.956C22.8001 16.2091 22.611 16.5597 22.5597 16.9422C22.3451 18.4659 22.3451 20.0122 22.5597 21.536C22.6123 21.9173 22.8019 22.2666 23.0932 22.5184C23.3844 22.7701 23.7574 22.9073 24.1423 22.9042ZM24.2747 17.313H26.3047C26.5037 17.313 26.6968 17.2452 26.8521 17.1207C27.0074 16.9963 27.1156 16.8226 27.1589 16.6283C27.4571 15.2957 27.984 14.0249 28.7164 12.8724C28.8229 12.7044 28.8689 12.5053 28.8471 12.3077C28.8252 12.11 28.7367 11.9258 28.5961 11.7852L27.1611 10.3491C27.9436 9.32816 28.857 8.41469 29.878 7.63221L31.313 9.0683C31.4536 9.20916 31.6381 9.29784 31.836 9.31971C32.0338 9.34158 32.2332 9.29534 32.4012 9.18861C33.5538 8.45625 34.8246 7.92928 36.1572 7.63111C36.3505 7.58777 36.5234 7.48011 36.6476 7.32573C36.7718 7.17135 36.8399 6.97939 36.8408 6.78127V4.7458C38.1162 4.57955 39.4077 4.57955 40.6831 4.7458V6.78127C40.6831 6.9803 40.7509 7.17339 40.8754 7.32868C40.9999 7.48398 41.1736 7.5922 41.3678 7.63549C42.6997 7.93192 43.9702 8.45704 45.1227 9.18752C45.2907 9.29425 45.4901 9.34049 45.6879 9.31862C45.8858 9.29674 46.0703 9.20806 46.2109 9.06721L47.647 7.63111C48.6674 8.41391 49.5804 9.32735 50.3628 10.348L48.9278 11.7841C48.7872 11.9247 48.6987 12.1089 48.6768 12.3066C48.655 12.5042 48.7011 12.7033 48.8075 12.8713C49.5399 14.023 50.0669 15.2931 50.365 16.625C50.4085 16.8191 50.5168 16.9925 50.6721 17.1168C50.8274 17.241 51.0203 17.3087 51.2192 17.3086H53.2492C53.4169 18.5839 53.4169 19.8757 53.2492 21.151H51.2181C51.0194 21.1511 50.8267 21.2189 50.6717 21.3431C50.5166 21.4674 50.4085 21.6407 50.365 21.8346C50.0672 23.1683 49.5402 24.4402 48.8075 25.5938C48.7011 25.7617 48.655 25.9609 48.6768 26.1585C48.6987 26.3561 48.7872 26.5404 48.9278 26.681L50.3639 28.1171C49.5808 29.1375 48.6674 30.0509 47.647 30.8339L46.2109 29.3989C46.0702 29.2585 45.8859 29.1702 45.6883 29.1485C45.4907 29.1269 45.2916 29.1731 45.1237 29.2797C43.9709 30.0123 42.6997 30.5393 41.3667 30.8372C41.1728 30.8807 40.9995 30.9888 40.8753 31.1439C40.7511 31.2989 40.6833 31.4916 40.6831 31.6903V33.7214C39.4077 33.8877 38.1162 33.8877 36.8408 33.7214V31.6903C36.8409 31.4915 36.7732 31.2985 36.649 31.1432C36.5247 30.9879 36.3512 30.8796 36.1572 30.8361C34.8242 30.5392 33.5532 30.0121 32.4012 29.2786C32.2332 29.1719 32.0338 29.1256 31.836 29.1475C31.6381 29.1694 31.4536 29.2581 31.313 29.3989L29.878 30.835C28.857 30.0525 27.9436 29.1391 27.1611 28.1181L28.5961 26.6875C28.7367 26.5469 28.8252 26.3627 28.8471 26.165C28.8689 25.9674 28.8229 25.7683 28.7164 25.6003C27.9838 24.4479 27.4568 23.1771 27.1589 21.8444C27.1156 21.6501 27.0074 21.4764 26.8521 21.352C26.6968 21.2275 26.5037 21.1597 26.3047 21.1597H24.2747C24.107 19.8848 24.107 18.5934 24.2747 17.3185V17.313ZM38.7625 28C40.4955 28 42.1895 27.4861 43.6304 26.5234C45.0713 25.5606 46.1944 24.1921 46.8576 22.5911C47.5207 20.99 47.6943 19.2283 47.3562 17.5286C47.0181 15.8289 46.1836 14.2677 44.9582 13.0423C43.7328 11.8169 42.1716 10.9824 40.4719 10.6443C38.7722 10.3062 37.0105 10.4798 35.4094 11.1429C33.8084 11.8061 32.4399 12.9292 31.4771 14.3701C30.5144 15.811 30.0005 17.505 30.0005 19.238C30.0031 21.561 30.9271 23.7882 32.5697 25.4308C34.2123 27.0734 36.4395 27.9974 38.7625 28ZM38.7625 12.226C40.1493 12.226 41.5051 12.6372 42.6582 13.4077C43.8113 14.1782 44.71 15.2733 45.2408 16.5546C45.7715 17.8359 45.9104 19.2458 45.6398 20.606C45.3692 21.9662 44.7014 23.2156 43.7208 24.1962C42.7401 25.1769 41.4907 25.8447 40.1305 26.1153C38.7703 26.3858 37.3604 26.247 36.0791 25.7163C34.7978 25.1855 33.7027 24.2868 32.9322 23.1337C32.1617 21.9805 31.7505 20.6248 31.7505 19.238C31.7513 17.3781 32.4902 15.5947 33.8049 14.2791C35.1196 12.9636 36.9027 12.2236 38.7625 12.2216V12.226ZM35.1236 20.066C35.0424 19.9847 34.978 19.8882 34.934 19.782C34.8901 19.6758 34.8675 19.562 34.8676 19.4471C34.8676 19.3321 34.8903 19.2184 34.9343 19.1122C34.9783 19.006 35.0428 18.9096 35.1241 18.8284C35.2054 18.7472 35.3019 18.6827 35.4081 18.6388C35.5143 18.5949 35.6281 18.5723 35.743 18.5723C35.858 18.5724 35.9717 18.5951 36.0779 18.6391C36.1841 18.6831 36.2805 18.7476 36.3617 18.8289L37.7672 20.2344L41.125 16.3811C41.2824 16.2258 41.4928 16.1358 41.7138 16.1292C41.9349 16.1227 42.1502 16.2001 42.3165 16.3459C42.4828 16.4917 42.5877 16.695 42.6102 16.915C42.6326 17.135 42.5709 17.3554 42.4375 17.5317L38.4672 22.0861C38.3883 22.1766 38.2917 22.2499 38.1833 22.3015C38.075 22.353 37.9571 22.3817 37.8372 22.3858H37.8077C37.6927 22.3859 37.5789 22.3633 37.4727 22.3194C37.3664 22.2755 37.2699 22.2111 37.1886 22.1299L35.1236 20.066Z" fill="#1C1919"/>
</svg>