<svg xmlns="http://www.w3.org/2000/svg" width="22" height="22" viewBox="0 0 22 22" fill="none">
  <g clip-path="url(#clip0_27921_459)">
    <path d="M18.8115 2.88196C16.9529 1.02338 14.4817 -0.000103952 11.8534 7.91893e-09C11.6466 7.91893e-09 11.4483 0.0821463 11.3021 0.228368C11.1559 0.374589 11.0737 0.572908 11.0737 0.779696C11.0737 0.986484 11.1559 1.1848 11.3021 1.33102C11.4483 1.47725 11.6466 1.55939 11.8534 1.55939C14.0653 1.55929 16.1448 2.42059 17.7088 3.98466C19.273 5.54873 20.1343 7.62833 20.1342 9.84028C20.1342 10.0471 20.2163 10.2454 20.3625 10.3916C20.5088 10.5379 20.7071 10.62 20.9139 10.62C21.1206 10.62 21.319 10.5379 21.4652 10.3917C21.6114 10.2455 21.6936 10.0472 21.6936 9.84038C21.6937 7.21177 20.6702 4.74055 18.8115 2.88196Z" fill="white"/>
    <path d="M15.604 9.84032C15.604 10.2709 15.9531 10.62 16.3838 10.6199C16.5905 10.6199 16.7888 10.5377 16.935 10.3915C17.0812 10.2453 17.1633 10.047 17.1633 9.84021C17.1631 6.91271 14.781 4.53069 11.8533 4.53028C11.7509 4.53027 11.6494 4.55043 11.5548 4.58961C11.4602 4.62878 11.3743 4.68621 11.3019 4.75861C11.1556 4.90482 11.0735 5.10313 11.0735 5.30992C11.0735 5.41231 11.0936 5.5137 11.1328 5.6083C11.172 5.7029 11.2294 5.78886 11.3018 5.86126C11.3742 5.93367 11.4601 5.99111 11.5547 6.0303C11.6493 6.06949 11.7507 6.08966 11.8531 6.08967C13.9212 6.08998 15.6038 7.77246 15.604 9.84032ZM13.8786 13.8157C12.6902 13.7542 12.0847 14.638 11.7944 15.0626C11.7366 15.1471 11.696 15.2422 11.6749 15.3424C11.6538 15.4426 11.6527 15.546 11.6716 15.6466C11.6905 15.7473 11.729 15.8432 11.7849 15.9289C11.8409 16.0147 11.9132 16.0886 11.9977 16.1464C12.0822 16.2042 12.1773 16.2448 12.2775 16.2659C12.3777 16.2869 12.4811 16.2881 12.5817 16.2692C12.6824 16.2503 12.7783 16.2118 12.864 16.1558C12.9498 16.0999 13.0237 16.0276 13.0815 15.943C13.4246 15.4414 13.58 15.3625 13.7908 15.3725C14.4656 15.4518 17.1233 17.3994 17.3895 18.0084C17.4562 18.1877 17.4537 18.3635 17.3821 18.5774C17.1031 19.4055 16.6412 19.9875 16.0461 20.2603C15.4808 20.5194 14.7877 20.4959 14.0422 20.1926C11.2585 19.058 8.82643 17.4746 6.81377 15.4862L6.81138 15.4839C4.82721 13.4732 3.24672 11.0443 2.11398 8.26481C1.81052 7.51869 1.78702 6.82549 2.04619 6.26027C2.31898 5.6652 2.90095 5.20331 3.72836 4.92459C3.94293 4.85265 4.11842 4.85037 4.29608 4.91649C4.90726 5.18356 6.85473 7.84118 6.93333 8.50839C6.94455 8.72712 6.86503 8.88243 6.36384 9.22488C6.27815 9.28214 6.20467 9.35583 6.14765 9.44167C6.09062 9.52751 6.05118 9.62381 6.0316 9.72499C6.01202 9.82617 6.01269 9.93023 6.03358 10.0311C6.05447 10.1321 6.09516 10.2278 6.15329 10.3129C6.21142 10.398 6.28585 10.4708 6.37227 10.5269C6.45869 10.5831 6.55538 10.6215 6.65675 10.6401C6.75813 10.6586 6.86218 10.6569 6.96288 10.635C7.06358 10.6131 7.15894 10.5714 7.24344 10.5124C7.66822 10.2224 8.55187 9.61857 8.49053 8.42605C8.42296 7.18041 5.99988 3.88167 4.84208 3.45596C4.32717 3.26405 3.78554 3.26072 3.23164 3.4466C1.98538 3.86629 1.0853 4.61459 0.628707 5.61052C0.18584 6.57672 0.199874 7.69771 0.669771 8.85291C1.88204 11.8274 3.57814 14.43 5.71087 16.5887C5.71607 16.594 5.72137 16.5992 5.72677 16.6043C7.88393 18.7331 10.4835 20.4261 13.4541 21.6369C14.0489 21.8788 14.6347 21.9999 15.195 21.9999C15.7225 21.9999 16.2275 21.8926 16.6959 21.6779C17.692 21.2214 18.4402 20.3214 18.8602 19.0743C19.0456 18.5214 19.0426 17.98 18.8522 17.4675C18.425 16.3066 15.1263 13.8835 13.8786 13.8157Z" fill="white"/>
  </g>
  <defs>
    <clipPath id="clip0_27921_459">
      <rect width="22" height="22" fill="white"/>
    </clipPath>
  </defs>
</svg>