<svg xmlns="http://www.w3.org/2000/svg" width="24" height="25" viewBox="0 0 24 25" fill="none">
  <path d="M2 12.7148C2.00001 12.4951 2.07957 12.2828 2.22396 12.1173C2.36836 11.9517 2.56782 11.844 2.78547 11.8141L2.9091 11.8057H21.0912C21.3215 11.8057 21.5432 11.8932 21.7115 12.0505C21.8798 12.2077 21.9822 12.423 21.9979 12.6528C22.0136 12.8826 21.9415 13.1098 21.7961 13.2885C21.6508 13.4671 21.443 13.584 21.2148 13.6154L21.0912 13.6239H2.9091C2.66799 13.6239 2.43676 13.5281 2.26627 13.3576C2.09578 13.1871 2 12.9559 2 12.7148Z" fill="#1C1919"/>
  <path d="M13.1166 6.05655C12.9527 5.89496 12.8561 5.67719 12.8465 5.4472C12.8369 5.21721 12.9148 4.99212 13.0647 4.81737C13.2145 4.64262 13.425 4.53121 13.6538 4.50563C13.8826 4.48005 14.1125 4.54221 14.2972 4.67956L14.3991 4.76805L21.7325 12.07C21.8871 12.224 21.9811 12.4286 21.9973 12.6462C22.0136 12.8639 21.951 13.0801 21.821 13.2554L21.7325 13.3585L14.3991 20.6616C14.2362 20.823 14.0184 20.917 13.7893 20.9247C13.5601 20.9323 13.3365 20.8531 13.1633 20.7029C12.9901 20.5526 12.88 20.3425 12.8552 20.1146C12.8304 19.8866 12.8926 19.6577 13.0293 19.4737L13.1166 19.3731L19.8028 12.7136L13.1166 6.05655Z" fill="#1C1919"/>
</svg>