<svg xmlns="http://www.w3.org/2000/svg" width="56" height="56" viewBox="0 0 56 56" fill="none">
  <path d="M16.4706 7.51078L19.4539 9.90861L18.4498 13.602C18.3195 14.0814 18.4949 14.5799 18.8969 14.8719C19.0989 15.0198 19.3427 15.0998 19.5931 15.1002C19.818 15.1002 20.0434 15.0352 20.2427 14.9046L23.4451 12.8084L26.6475 14.9046C27.0631 15.1768 27.5915 15.1639 27.9935 14.8718C28.3954 14.5798 28.5709 14.0813 28.4406 13.6019L27.4364 9.9085L30.4197 7.51067C30.807 7.19939 30.958 6.69299 30.8045 6.22048C30.6511 5.74798 30.2312 5.42697 29.7349 5.4028L25.912 5.21642L24.5533 1.63833C24.3773 1.17458 23.9424 0.875 23.4453 0.875C22.9482 0.875 22.5131 1.17469 22.337 1.63844L20.9785 5.21664L17.1555 5.40302C16.6593 5.42719 16.2395 5.74809 16.0859 6.2207C15.9324 6.69309 16.0833 7.1995 16.4706 7.51078ZM21.4324 6.94652C21.6628 6.93539 21.885 6.85724 22.0717 6.72164C22.2584 6.58605 22.4014 6.39891 22.4833 6.18319L23.4451 3.64973L24.4068 6.18297C24.4886 6.39868 24.6316 6.58582 24.8182 6.72143C25.0048 6.85705 25.227 6.93524 25.4574 6.94641L28.1642 7.07831L26.0522 8.77614C25.8724 8.92062 25.7386 9.11443 25.6673 9.33381C25.596 9.55319 25.5903 9.78861 25.6508 10.0112L26.3617 12.6263L24.0945 11.1421C23.9016 11.0157 23.6759 10.9483 23.4452 10.9483C23.2145 10.9483 22.9889 11.0157 22.796 11.1421L20.5286 12.6264L21.2396 10.0114C21.3001 9.78887 21.2944 9.55347 21.2232 9.33411C21.1519 9.11475 21.0182 8.92094 20.8384 8.77647L18.7261 7.07875L21.4324 6.94652ZM9.00444 18.3625L12.2067 20.4588C12.6225 20.7309 13.1507 20.7183 13.5527 20.4261C13.9546 20.1341 14.1302 19.6357 13.9998 19.1562L12.9956 15.4627L15.979 13.0648C16.3661 12.7536 16.5171 12.2472 16.3636 11.7747C16.2101 11.3022 15.7902 10.9813 15.294 10.9571L11.4711 10.7707L10.1126 7.19239C9.93664 6.72875 9.50177 6.42906 9.00466 6.42906C8.50755 6.42906 8.07246 6.72875 7.89636 7.1925L6.53771 10.7708L2.71472 10.9572C2.21849 10.9814 1.79871 11.3023 1.64514 11.7749C1.49158 12.2475 1.64263 12.7539 2.02992 13.0651L5.01313 15.4629L4.00906 19.1563C3.87869 19.6357 4.05413 20.1341 4.45608 20.4262C4.65814 20.5741 4.90195 20.6541 5.15236 20.6545C5.37724 20.6545 5.60266 20.5895 5.80194 20.4589L9.00444 18.3625ZM4.28535 12.6326L6.99216 12.5006C7.22253 12.4894 7.44464 12.4112 7.63123 12.2757C7.81782 12.1401 7.96079 11.953 8.0426 11.7374L9.00444 9.20391L9.96639 11.7375C10.0482 11.9531 10.1912 12.1401 10.3778 12.2757C10.5644 12.4112 10.7865 12.4894 11.0168 12.5006L13.7236 12.6326L11.6115 14.3302C11.244 14.6255 11.0865 15.1103 11.2102 15.5652L11.9211 18.1801L9.65369 16.6958C9.46077 16.5694 9.23516 16.5021 9.00453 16.5021C8.77391 16.5021 8.54831 16.5695 8.35541 16.6959L6.08807 18.1801L6.799 15.5652C6.85956 15.3426 6.85386 15.1072 6.7826 14.8878C6.71134 14.6685 6.57761 14.4747 6.39781 14.3302L4.28535 12.6326ZM30.5266 11.7747C30.373 12.2472 30.5241 12.7537 30.9113 13.065L33.8946 15.4628L32.8905 19.1562C32.7601 19.6355 32.9356 20.134 33.3375 20.4261C33.5396 20.574 33.7834 20.654 34.0338 20.6544C34.2587 20.6544 34.4841 20.5894 34.6835 20.4588L37.8858 18.3624L41.0881 20.4587C41.5037 20.7308 42.032 20.718 42.4339 20.4261C42.8359 20.1342 43.0115 19.6357 42.8813 19.156L41.8771 15.4627L44.8604 13.0648C45.2477 12.7536 45.3985 12.2472 45.2451 11.7747C45.0915 11.3022 44.6717 10.9813 44.1756 10.9571L40.3526 10.7707L38.9941 7.19261C38.8181 6.72875 38.3831 6.42906 37.8859 6.42906C37.3887 6.42906 36.9537 6.72875 36.7777 7.19239L35.4191 10.7707L31.5962 10.9571C31.1001 10.9813 30.6802 11.3022 30.5266 11.7747ZM35.8735 12.5007C36.1039 12.4895 36.326 12.4114 36.5126 12.2758C36.6992 12.1402 36.8422 11.9531 36.9239 11.7375L37.8858 9.20391L38.8476 11.7371C38.9294 11.9528 39.0724 12.14 39.259 12.2756C39.4456 12.4112 39.6678 12.4894 39.8982 12.5006L42.6049 12.6326L40.4926 14.3303C40.3129 14.4748 40.1791 14.6686 40.1079 14.8879C40.0366 15.1072 40.0309 15.3426 40.0914 15.5652L40.8024 18.1801L38.5349 16.6958C38.342 16.5695 38.1163 16.5022 37.8857 16.5022C37.6551 16.5022 37.4295 16.5695 37.2365 16.6959L34.9693 18.1801L35.6802 15.5652C35.7408 15.3426 35.7351 15.1072 35.6638 14.8879C35.5925 14.6685 35.4588 14.4747 35.2791 14.3302L33.1668 12.6325L35.8735 12.5007ZM44.0041 34.3058C40.729 34.3058 37.8029 35.8267 35.8933 38.1987C33.6753 36.0367 30.9385 34.4995 27.9771 33.7183C30.9034 32.1114 32.8917 29.0001 32.8917 25.4325C32.8917 20.2238 28.654 15.9861 23.4452 15.9861C18.2365 15.9861 13.9987 20.2238 13.9987 25.4325C13.9987 28.9975 15.9842 32.1067 18.907 33.7146C16.1492 34.4392 13.606 35.8164 11.4921 37.73C8.2351 40.6754 6.18519 44.6919 5.72002 49.0396C5.70693 49.1617 5.71967 49.2851 5.75743 49.4019C5.79518 49.5187 5.8571 49.6263 5.93916 49.7176C6.02121 49.8089 6.12157 49.8819 6.2337 49.9319C6.34583 49.9819 6.46722 50.0077 6.58999 50.0077L35.0437 50.0076C36.8583 53.0682 40.1952 55.1248 44.004 55.1248C49.7439 55.1248 54.4136 50.4551 54.4136 44.7152C54.4136 38.9753 49.744 34.3058 44.0041 34.3058ZM15.7488 25.4325C15.7488 21.1887 19.2015 17.7361 23.4453 17.7361C27.6892 17.7361 31.1418 21.1887 31.1418 25.4325C31.1418 29.676 27.69 33.1283 23.4468 33.1289H23.4439C19.2007 33.1282 15.7488 29.6758 15.7488 25.4325ZM7.59307 48.2578C8.88522 40.5654 15.535 34.8797 23.4439 34.879H23.4466C27.7489 34.8794 31.8856 36.621 34.898 39.677C34.0682 41.1708 33.5946 42.8888 33.5946 44.7155C33.5935 45.9234 33.8036 47.1222 34.2155 48.2578H7.59307ZM44.0041 53.3749C39.2292 53.3749 35.3446 49.4902 35.3446 44.7153C35.3446 39.9405 39.2292 36.0558 44.0041 36.0558C48.779 36.0558 52.6637 39.9405 52.6637 44.7153C52.6637 49.4902 48.779 53.3749 44.0041 53.3749ZM50.0018 40.2474C49.5679 39.816 48.9896 39.5806 48.38 39.5819C48.0796 39.5822 47.7823 39.6421 47.5053 39.7582C47.2283 39.8743 46.9771 40.0443 46.7663 40.2583L42.7489 44.3159L41.2402 42.8072C40.3476 41.9148 38.8954 41.9147 38.0027 42.8073C37.1103 43.6998 37.1103 45.1521 38.0027 46.0448L41.1362 49.1782C41.5824 49.6244 42.1686 49.8474 42.7548 49.8474C43.341 49.8474 43.9272 49.6243 44.3735 49.1781C45.5628 47.9888 46.7623 46.7721 47.9223 45.5955C48.6183 44.8895 49.3145 44.1835 50.0123 43.4791C50.899 42.5844 50.8942 41.1346 50.0018 40.2474ZM48.7693 42.2473C48.0704 42.9527 47.3733 43.6598 46.6761 44.3669C45.5183 45.5412 44.321 46.7557 43.1361 47.9406C43.0349 48.0416 42.8978 48.0983 42.7548 48.0983C42.6119 48.0983 42.4748 48.0416 42.3736 47.9406L39.2402 44.8073C39.1392 44.7061 39.0825 44.569 39.0825 44.426C39.0825 44.283 39.1392 44.1459 39.2402 44.0447C39.3453 43.9395 39.4834 43.8871 39.6215 43.8871C39.7595 43.8871 39.8976 43.9395 40.0027 44.0447L42.1331 46.1752C42.2144 46.2564 42.3109 46.3209 42.417 46.3648C42.5232 46.4088 42.637 46.4314 42.7519 46.4314H42.7541C42.8693 46.4312 42.9834 46.4081 43.0898 46.3636C43.1961 46.3191 43.2926 46.254 43.3737 46.1721L48.0098 41.4897C48.059 41.4397 48.1177 41.4001 48.1824 41.373C48.2471 41.3459 48.3165 41.332 48.3867 41.3319C48.5315 41.3266 48.6658 41.3867 48.7677 41.4882C48.9772 41.6964 48.9778 42.037 48.7693 42.2473Z" fill="#1C1919"/>
</svg>