<svg xmlns="http://www.w3.org/2000/svg" width="40" height="41" viewBox="0 0 40 41" fill="none">
  <path d="M26.25 14.2461C25.9185 14.2461 25.6005 14.3778 25.3661 14.6122C25.1317 14.8466 25 15.1646 25 15.4961C25 18.2536 22.7575 20.4961 20 20.4961C17.2425 20.4961 15 18.2536 15 15.4961C15 15.1646 14.8683 14.8466 14.6339 14.6122C14.3995 14.3778 14.0815 14.2461 13.75 14.2461C13.4185 14.2461 13.1005 14.3778 12.8661 14.6122C12.6317 14.8466 12.5 15.1646 12.5 15.4961C12.5 19.6323 15.8637 22.9961 20 22.9961C24.1362 22.9961 27.5 19.6323 27.5 15.4961C27.5 15.1646 27.3683 14.8466 27.1339 14.6122C26.8995 14.3778 26.5815 14.2461 26.25 14.2461Z" fill="black"/>
  <path d="M36.5708 30.7725L33.6671 12.415C33.5311 11.5313 33.0825 10.7257 32.4028 10.1449C31.7231 9.56405 30.8574 9.24649 29.9633 9.25H27.3883C26.7883 5.70875 23.7096 3 20.0008 3C16.2921 3 13.2121 5.70875 12.6133 9.25H10.0383C9.14423 9.24649 8.27859 9.56405 7.59886 10.1449C6.91914 10.7257 6.47051 11.5313 6.33457 12.415L3.43082 30.7725C3.28906 31.665 3.34272 32.5776 3.5881 33.4474C3.83348 34.3171 4.26474 35.1232 4.85207 35.81C5.43852 36.4973 6.16718 37.049 6.98772 37.4271C7.80826 37.8052 8.70111 38.0007 9.60457 38H30.3971C32.2283 38 33.9596 37.2012 35.1496 35.81C35.7369 35.1232 36.1682 34.3171 36.4135 33.4474C36.6589 32.5776 36.7126 31.665 36.5708 30.7725ZM20.0008 5.5C22.3233 5.5 24.2633 7.1 24.8233 9.25H15.1783C15.7371 7.1 17.6783 5.5 20.0008 5.5ZM33.2483 34.185C32.8966 34.5975 32.4594 34.9287 31.9672 35.1557C31.4749 35.3828 30.9392 35.5002 30.3971 35.5H9.60457C8.50582 35.5 7.46707 35.0213 6.75332 34.185C6.40077 33.7732 6.14185 33.2898 5.99444 32.7682C5.84703 32.2466 5.81467 31.6991 5.89957 31.1637L8.80332 12.805C8.84856 12.5103 8.99814 12.2417 9.22482 12.0481C9.4515 11.8544 9.7402 11.7486 10.0383 11.75H29.9633C30.5821 11.75 31.1008 12.1937 31.1983 12.805L34.1021 31.1637C34.187 31.6991 34.1546 32.2466 34.0072 32.7682C33.8598 33.2898 33.6009 33.7732 33.2483 34.185Z" fill="black"/>
</svg>