<svg xmlns="http://www.w3.org/2000/svg" width="40" height="41" viewBox="0 0 40 41" fill="none">
  <path fill-rule="evenodd" clip-rule="evenodd" d="M7.33931 37.207L7.44637 37.4643L7.4466 37.4648C7.57758 37.7816 7.57782 38.1005 7.44833 38.4195L7.44739 38.4219C7.31649 38.736 7.09092 38.9627 6.77303 39.0965L6.77162 39.0971L5.13319 39.7763C4.49907 40.0408 3.76496 39.7371 3.50198 39.1036C2.57758 36.8823 1.65186 34.6611 0.727387 32.4398C0.594053 32.1236 0.593583 31.8026 0.725348 31.4839C0.856798 31.166 1.08401 30.9391 1.39978 30.8075L3.04009 30.1268C3.67366 29.8637 4.4055 30.1647 4.67107 30.7989L4.67139 30.7994L4.74778 30.983C5.49562 30.6291 6.24237 30.2726 6.9859 29.9089C8.10692 29.3605 8.99288 29.0054 10.0222 29.1445C10.6876 29.2344 11.4216 29.5318 12.3201 30.1568L15.3171 30.9597C15.8312 31.0974 16.2458 31.4269 16.5044 31.8506L20.6075 30.647C22.5389 30.0804 23.6015 30.5297 24.0711 31.1643C24.3953 31.6026 24.484 32.1693 24.3627 32.7303C24.1956 33.5026 23.6236 34.2508 22.8462 34.5507L16.4481 37.0162C15.3417 37.442 13.8607 38.023 12.6733 37.6783L9.2648 36.6895L9.26394 36.6892C8.90433 36.5842 8.55923 36.6134 8.22198 36.7777L7.33931 37.207ZM6.43178 37.8848L3.65743 31.2215C3.6418 31.185 3.61245 31.1561 3.57572 31.1411C3.53899 31.1261 3.49783 31.1261 3.46111 31.1412L1.82182 31.8215C1.80338 31.8289 1.78665 31.8401 1.77264 31.8542C1.75864 31.8683 1.74764 31.8851 1.74033 31.9036C1.72511 31.9404 1.72425 31.9774 1.74041 32.0156L1.74119 32.0174C2.66566 34.2388 3.59147 36.4602 4.51601 38.6819L4.51609 38.6821C4.52365 38.7002 4.5347 38.7166 4.54861 38.7305C4.56252 38.7443 4.57902 38.7552 4.59717 38.7627C4.61531 38.7701 4.63475 38.7739 4.65436 38.7738C4.67397 38.7738 4.69338 38.7698 4.71147 38.7623L6.34896 38.0834L6.35029 38.0828C6.38825 38.0663 6.41617 38.0394 6.43327 38.0001C6.44778 37.9617 6.44754 37.9231 6.43178 37.8848ZM6.91648 36.1914L7.74111 35.7903C8.33366 35.5017 8.93986 35.4505 9.57084 35.6347L12.9794 36.6234C13.4297 36.7542 13.9333 36.6853 14.4299 36.5581C15.0039 36.411 15.5686 36.1779 16.0534 35.9913L22.4509 33.5261C22.8861 33.3582 23.1957 32.9305 23.2893 32.498C23.3417 32.2557 23.3282 32.0068 23.1882 31.8176C23.0671 31.6539 22.858 31.5493 22.5639 31.5041C22.1533 31.4408 21.6123 31.4968 20.9166 31.7008L16.7995 32.9086C16.7983 33.0775 16.7755 33.2456 16.7318 33.4088C16.4472 34.4711 15.3441 35.1082 14.2827 34.8221L10.1748 33.7221C10.0341 33.6844 9.91422 33.5923 9.8414 33.4662C9.76857 33.3402 9.74878 33.1903 9.78637 33.0496C9.82409 32.909 9.91611 32.7891 10.0422 32.7162C10.1683 32.6434 10.3182 32.6236 10.4588 32.6612L14.5668 33.7612L14.5676 33.7615C15.0461 33.8904 15.5428 33.6031 15.6709 33.1246C15.7992 32.6459 15.5118 32.1488 15.033 32.0205L11.942 31.1925C11.8789 31.1757 11.8194 31.1477 11.7662 31.1099C11.0184 30.5791 10.4228 30.3069 9.87507 30.2329C9.05452 30.122 8.36221 30.4583 7.46849 30.8954C6.70503 31.2688 5.93821 31.6347 5.17029 31.9981C5.75225 33.3958 6.33452 34.7935 6.91648 36.1914ZM35.2548 10.0158C34.5069 10.3698 33.7602 10.7263 33.0166 11.0899C31.8956 11.6384 31.0097 11.9935 29.9803 11.8543C29.3149 11.7645 28.581 11.467 27.6824 10.842L24.6854 10.0392C24.1713 9.90147 23.7567 9.57198 23.4981 9.14821L19.3951 10.3519C17.4636 10.9185 16.401 10.4692 15.9315 9.83457C15.6072 9.39629 15.5185 8.82955 15.6399 8.26861C15.8069 7.49629 16.3789 6.74806 17.1563 6.44814L23.5544 3.98265C24.6609 3.55684 26.1418 2.9759 27.3292 3.32061L30.7377 4.30939L30.7386 4.3097C31.0982 4.41465 31.4433 4.38547 31.7806 4.22115L32.6632 3.79182L32.5562 3.53457L32.5559 3.53402C32.425 3.21731 32.4247 2.89833 32.5542 2.57935L32.5552 2.577C32.6861 2.26288 32.9116 2.03621 33.2295 1.90233L33.2309 1.90178L34.8693 1.22257C35.5035 0.958017 36.2376 1.26178 36.5006 1.89527C37.425 4.11653 38.3507 6.33778 39.2752 8.55904C39.4085 8.87527 39.409 9.19629 39.2772 9.51496C39.1457 9.83284 38.9185 10.0597 38.6028 10.1914L36.9624 10.8721C36.3289 11.1351 35.597 10.8342 35.3315 10.2L35.3312 10.1994L35.2548 10.0158ZM33.0861 4.80743L32.2614 5.20861C31.6689 5.49716 31.0627 5.54837 30.4317 5.36421L27.0232 4.37543C26.5729 4.24468 26.0692 4.31355 25.5726 4.44076C24.9986 4.5879 24.434 4.821 23.9491 5.00759L17.5516 7.47276C17.1164 7.64069 16.8068 8.06837 16.7133 8.50084C16.6609 8.74312 16.6744 8.99206 16.8144 9.18131C16.9355 9.34492 17.1446 9.44955 17.4386 9.4948C17.8492 9.55802 18.3902 9.5021 19.0859 9.29802L23.203 8.09025C23.2042 7.92476 23.2261 7.75692 23.2708 7.5901C23.5553 6.52774 24.6584 5.89065 25.7199 6.17676L29.8278 7.27676C29.9684 7.3145 30.0883 7.40653 30.1611 7.53262C30.234 7.65871 30.2538 7.80856 30.2162 7.94923C30.1784 8.08988 30.0864 8.2098 29.9603 8.28263C29.8342 8.35546 29.6844 8.37524 29.5437 8.33763L25.4358 7.23763L25.4349 7.23739C24.9564 7.10845 24.4598 7.39574 24.3316 7.87425C24.2034 8.353 24.4908 8.8501 24.9696 8.97833L28.0606 9.80633C28.1236 9.82321 28.1831 9.8512 28.2363 9.889C28.9842 10.4197 29.5798 10.692 30.1275 10.7659C30.948 10.8768 31.6403 10.5406 32.5341 10.1034C33.2975 9.73002 34.0643 9.36414 34.8322 9.00076C34.2503 7.60304 33.668 6.20539 33.0861 4.80743ZM33.5708 3.1141L36.3451 9.77739C36.3607 9.81387 36.3901 9.84274 36.4268 9.85777C36.4635 9.8728 36.5047 9.87277 36.5414 9.85771L38.1807 9.17739C38.1992 9.16994 38.2159 9.15881 38.2299 9.1447C38.2439 9.13058 38.2549 9.11377 38.2622 9.09527C38.27 9.07762 38.274 9.05855 38.2739 9.03927C38.2739 9.01998 38.2699 9.00092 38.2621 8.98327L38.2613 8.98147C37.3369 6.76006 36.4111 4.53865 35.4865 2.317L35.4864 2.31676C35.4789 2.29867 35.4678 2.28223 35.4539 2.26841C35.44 2.25459 35.4235 2.24364 35.4054 2.23619C35.3872 2.22875 35.3678 2.22496 35.3482 2.22503C35.3286 2.2251 35.3092 2.22903 35.2911 2.23661L33.6536 2.91543L33.6522 2.91606C33.6143 2.93253 33.5864 2.95943 33.5693 2.99872C33.5548 3.03715 33.555 3.07574 33.5708 3.1141ZM28.1916 22.5006C26.9541 22.5006 26.3326 24.0002 27.2079 24.8755C27.6468 25.3143 27.6468 26.028 27.2079 26.4668L25.9686 27.7061C25.5298 28.1449 24.8161 28.1449 24.3773 27.7061C23.5021 26.8308 22.0024 27.4522 22.0024 28.6898C22.0024 29.3128 21.4988 29.8145 20.8777 29.8145H19.1248C18.5038 29.8145 18.0001 29.3128 18.0001 28.6898C18.0001 27.4507 16.5012 26.8301 15.6252 27.7061C15.1861 28.1452 14.474 28.1452 14.0352 27.7063L12.7946 26.4668C12.3558 26.028 12.3558 25.3143 12.7946 24.8755C13.6699 24.0002 13.0493 22.5006 11.8109 22.5006C11.1899 22.5006 10.6862 21.9969 10.6862 21.3759V19.623C10.6862 19.0019 11.1899 18.4983 11.8109 18.4983C13.0493 18.4983 13.6699 16.9986 12.7946 16.1234C12.3555 15.6843 12.3555 14.9721 12.7946 14.5331L14.0349 13.2928C14.474 12.8537 15.1861 12.8537 15.6252 13.2928C16.5005 14.1681 18.0001 13.5474 18.0001 12.3091C18.0001 11.6881 18.5038 11.1844 19.1248 11.1844H20.8777C21.4988 11.1844 22.0024 11.6881 22.0024 12.3091C22.0024 13.5474 23.5021 14.1681 24.3773 13.2928C24.8161 12.8539 25.5298 12.8539 25.9686 13.2928L27.2079 14.5331C27.647 14.9721 27.647 15.6843 27.2079 16.1234C26.3326 16.9986 26.9541 18.4983 28.1916 18.4983C28.8147 18.4983 29.3163 19.0019 29.3163 19.623V21.3759C29.3163 21.9969 28.8147 22.5006 28.1916 22.5006ZM28.1916 21.4026C28.1987 21.4026 28.2055 21.3998 28.2105 21.3948C28.2155 21.3898 28.2183 21.383 28.2183 21.3759V19.623C28.2183 19.6159 28.2155 19.6091 28.2105 19.6041C28.2055 19.5991 28.1987 19.5963 28.1916 19.5963C25.9773 19.5963 24.8654 16.9131 26.4315 15.347C26.4365 15.342 26.4392 15.3353 26.4392 15.3283C26.4392 15.3212 26.4365 15.3145 26.4315 15.3095L25.1922 14.0692C25.1871 14.0641 25.1802 14.0612 25.173 14.0612C25.1658 14.0612 25.1588 14.0641 25.1537 14.0692C23.5876 15.6353 20.9044 14.5248 20.9044 12.3091C20.9044 12.302 20.9016 12.2952 20.8966 12.2902C20.8916 12.2852 20.8848 12.2824 20.8777 12.2824H19.1248C19.1177 12.2824 19.1109 12.2852 19.1059 12.2902C19.1009 12.2952 19.0981 12.302 19.0981 12.3091C19.0981 14.5248 16.4149 15.6353 14.8488 14.0692C14.8438 14.0642 14.8371 14.0615 14.8301 14.0615C14.8231 14.0615 14.8164 14.0642 14.8114 14.0692L13.571 15.3095C13.5661 15.3145 13.5633 15.3212 13.5633 15.3283C13.5633 15.3353 13.5661 15.342 13.571 15.347C15.1371 16.9131 14.0266 19.5963 11.8109 19.5963C11.8038 19.5963 11.7971 19.5991 11.7921 19.6041C11.7871 19.6091 11.7842 19.6159 11.7842 19.623V21.3759C11.7842 21.3906 11.7962 21.4026 11.8109 21.4026C14.0266 21.4026 15.1371 24.0858 13.571 25.6519C13.5659 25.657 13.5631 25.6639 13.5631 25.6711C13.5631 25.6783 13.5659 25.6852 13.571 25.6903L14.8114 26.9297C14.8164 26.9346 14.8231 26.9374 14.8301 26.9374C14.8371 26.9374 14.8438 26.9346 14.8488 26.9297C16.4162 25.3623 19.0981 26.4728 19.0981 28.6898C19.0981 28.7045 19.1101 28.7165 19.1248 28.7165H20.8777C20.8848 28.7165 20.8916 28.7136 20.8966 28.7086C20.9016 28.7036 20.9044 28.6969 20.9044 28.6898C20.9044 26.4754 23.5876 25.3636 25.1537 26.9297C25.1588 26.9348 25.1658 26.9377 25.173 26.9377C25.1802 26.9377 25.1871 26.9348 25.1922 26.9297L26.4315 25.6903C26.4366 25.6852 26.4395 25.6783 26.4395 25.6711C26.4395 25.6639 26.4366 25.657 26.4315 25.6519C24.8654 24.0858 25.9773 21.4026 28.1916 21.4026ZM20.0018 25.6922C17.1414 25.6922 14.8095 23.359 14.8095 20.5C14.8095 17.6396 17.1414 15.3077 20.0018 15.3077C22.8609 15.3077 25.1941 17.6396 25.1941 20.5C25.1941 23.359 22.8609 25.6922 20.0018 25.6922ZM20.0018 24.5942C22.2563 24.5942 24.096 22.7544 24.096 20.5C24.096 18.2445 22.2563 16.4057 20.0018 16.4057C17.7463 16.4057 15.9075 18.2445 15.9075 20.5C15.9075 22.7544 17.7463 24.5942 20.0018 24.5942ZM20.4137 17.3261L22.567 19.7775C22.6366 19.8568 22.6819 19.9545 22.6974 20.0589C22.7129 20.1633 22.6981 20.2699 22.6545 20.3661C22.611 20.4622 22.5407 20.5438 22.452 20.601C22.3634 20.6583 22.2601 20.6887 22.1545 20.6888H21.4535V22.7754C21.4535 22.921 21.3957 23.0606 21.2927 23.1636C21.1897 23.2665 21.0501 23.3244 20.9045 23.3244H19.0977C18.9521 23.3244 18.8124 23.2665 18.7094 23.1636C18.6065 23.0606 18.5486 22.921 18.5486 22.7754V20.6888H17.848C17.7425 20.6888 17.6391 20.6583 17.5504 20.6011C17.4618 20.5439 17.3914 20.4623 17.3479 20.3661C17.3044 20.27 17.2895 20.1633 17.305 20.0589C17.3206 19.9545 17.3659 19.8568 17.4355 19.7775L19.5888 17.3261C19.6403 17.2674 19.7037 17.2204 19.7749 17.1882C19.846 17.156 19.9232 17.1393 20.0013 17.1393C20.0794 17.1393 20.1565 17.156 20.2277 17.1882C20.2988 17.2204 20.3622 17.2674 20.4137 17.3261ZM20.0013 18.5203L19.061 19.5907H19.0977C19.2433 19.5907 19.3829 19.6486 19.4859 19.7515C19.5888 19.8545 19.6467 19.9941 19.6467 20.1397V22.2263H20.3555V20.1397C20.3555 19.9941 20.4133 19.8545 20.5163 19.7515C20.6192 19.6486 20.7589 19.5907 20.9045 19.5907H20.9415L20.0013 18.5203Z" fill="black"/>
</svg>