<svg xmlns="http://www.w3.org/2000/svg" width="19" height="14" viewBox="0 0 19 14" fill="none">
  <path d="M18.0296 2.75692C17.8225 1.97695 17.2121 1.36266 16.4372 1.1542C15.0326 0.775391 9.40026 0.775391 9.40026 0.775391C9.40026 0.775391 3.76795 0.775391 2.3633 1.1542C1.58837 1.3627 0.978045 1.97695 0.770898 2.75692C0.394531 4.17067 0.394531 7.12033 0.394531 7.12033C0.394531 7.12033 0.394531 10.07 0.770898 11.4837C0.978045 12.2637 1.58837 12.8524 2.3633 13.0609C3.76795 13.4397 9.40026 13.4397 9.40026 13.4397C9.40026 13.4397 15.0326 13.4397 16.4372 13.0609C17.2121 12.8524 17.8225 12.2637 18.0296 11.4837C18.406 10.07 18.406 7.12033 18.406 7.12033C18.406 7.12033 18.406 4.17067 18.0296 2.75692ZM7.55817 9.7984L7.55817 4.44226L12.2657 7.1204L7.55817 9.7984Z" fill="white"/>
  <path d="M17.5464 2.88526L17.5464 2.88555C17.7196 3.53593 17.8125 4.57863 17.8596 5.49448C17.8828 5.94496 17.8944 6.35238 17.9002 6.6472C17.9031 6.7945 17.9046 6.91342 17.9053 6.99523L17.9059 7.08895L17.906 7.11285L17.906 7.11869L17.906 7.12004V7.1203V7.12034V7.12062L17.906 7.12197L17.906 7.12781L17.9059 7.15171L17.9053 7.24543C17.9046 7.32724 17.9031 7.44616 17.9002 7.59346C17.8944 7.88829 17.8828 8.2957 17.8596 8.74618C17.8125 9.66203 17.7196 10.7047 17.5464 11.3551L17.5464 11.3554C17.3871 11.9551 16.9171 12.414 16.3073 12.578L16.307 12.5781C16.0081 12.6587 15.4379 12.7277 14.7085 12.7812C13.9932 12.8337 13.1655 12.869 12.3771 12.8925C11.5894 12.9161 10.8448 12.9279 10.2969 12.9338C10.023 12.9367 9.79854 12.9382 9.64266 12.9389L9.46274 12.9396L9.41592 12.9397L9.40408 12.9397L9.40115 12.9397H9.40045H9.40029L9.40026 13.4397L9.40023 12.9397H9.40007H9.39936L9.39644 12.9397L9.3846 12.9397L9.33777 12.9396L9.15786 12.9389C9.00198 12.9382 8.7775 12.9367 8.50364 12.9338C7.95573 12.9279 7.21115 12.9161 6.42347 12.8925C5.63497 12.869 4.80731 12.8337 4.09202 12.7812C3.3626 12.7277 2.79239 12.6587 2.49349 12.5781L2.49319 12.578C1.88343 12.414 1.41342 11.9551 1.25415 11.3554L1.25407 11.3551C1.08093 10.7047 0.988051 9.66203 0.940916 8.74618C0.917732 8.2957 0.906121 7.88829 0.900315 7.59346C0.897414 7.44616 0.895968 7.32724 0.895247 7.24543L0.894619 7.15171L0.894542 7.12781L0.894532 7.12197L0.894531 7.12062L0.894531 7.12036V7.12034V7.12032V7.1203L0.894531 7.12004L0.894532 7.11869L0.894542 7.11285L0.894619 7.08895L0.895247 6.99523C0.895968 6.91342 0.897414 6.7945 0.900315 6.6472C0.906121 6.35238 0.917732 5.94496 0.940916 5.49448C0.988051 4.57863 1.08093 3.53593 1.25407 2.88555L1.25415 2.88526C1.4157 2.27695 1.89217 1.79874 2.49321 1.63703L2.49349 1.63695C2.79239 1.55634 3.3626 1.48741 4.09202 1.43386C4.80731 1.38134 5.63497 1.34609 6.42347 1.32252C7.21115 1.29897 7.95573 1.28718 8.50364 1.28128C8.7775 1.27833 9.00198 1.27686 9.15786 1.27612L9.33777 1.27548L9.3846 1.2754L9.39644 1.27539L9.39936 1.27539L9.40007 1.27539H9.40023L9.40026 0.775391L9.40029 1.27539H9.40045L9.40115 1.27539L9.40408 1.27539L9.41592 1.2754L9.46274 1.27548L9.64266 1.27612C9.79854 1.27686 10.023 1.27833 10.2969 1.28128C10.8448 1.28718 11.5894 1.29897 12.3771 1.32252C13.1656 1.34609 13.9932 1.38134 14.7085 1.43386C15.4379 1.48741 16.0081 1.55634 16.307 1.63695L16.3073 1.63703C16.9083 1.79871 17.3848 2.27693 17.5464 2.88526ZM7.05817 9.7984V10.6581L7.8054 10.233L12.5129 7.555L13.2769 7.12041L12.5129 6.6858L7.80541 4.00767L7.05817 3.58256V4.44226L7.05817 9.7984Z" stroke="white" stroke-opacity="0.2"/>
</svg>